<?xml version="1.0" encoding="utf-8" standalone="no"?>
<!DOCTYPE svg PUBLIC "-//W3C//DTD SVG 1.1//EN"
  "http://www.w3.org/Graphics/SVG/1.1/DTD/svg11.dtd">
<svg xmlns:xlink="http://www.w3.org/1999/xlink" width="460.8pt" height="345.6pt" viewBox="0 0 460.8 345.6" xmlns="http://www.w3.org/2000/svg" version="1.1">
 <metadata>
  <rdf:RDF xmlns:dc="http://purl.org/dc/elements/1.1/" xmlns:cc="http://creativecommons.org/ns#" xmlns:rdf="http://www.w3.org/1999/02/22-rdf-syntax-ns#">
   <cc:Work>
    <dc:type rdf:resource="http://purl.org/dc/dcmitype/StillImage"/>
    <dc:date>2022-05-27T13:51:10.957990</dc:date>
    <dc:format>image/svg+xml</dc:format>
    <dc:creator>
     <cc:Agent>
      <dc:title>Matplotlib v3.5.1, https://matplotlib.org/</dc:title>
     </cc:Agent>
    </dc:creator>
   </cc:Work>
  </rdf:RDF>
 </metadata>
 <defs>
  <style type="text/css">*{stroke-linejoin: round; stroke-linecap: butt}</style>
 </defs>
 <g id="figure_1">
  <g id="patch_1">
   <path d="M 0 345.6 
L 460.8 345.6 
L 460.8 0 
L 0 0 
z
" style="fill: #ffffff"/>
  </g>
  <g id="axes_1">
   <g id="patch_2">
    <path d="M 57.6 307.584 
L 414.72 307.584 
L 414.72 41.472 
L 57.6 41.472 
z
" style="fill: #ffffff"/>
   </g>
   <g id="matplotlib.axis_1">
    <g id="xtick_1">
     <g id="line2d_1">
      <defs>
       <path id="maba0701eeb" d="M 0 0 
L 0 4.8 
" style="stroke: #262626"/>
      </defs>
      <g>
       <use xlink:href="#maba0701eeb" x="66.801591" y="307.584" style="fill: #262626; stroke: #262626"/>
      </g>
     </g>
     <g id="text_1">
      <!-- $\mathdefault{10^{3}}$ -->
      <g style="fill: #262626" transform="translate(59.893591 324.959)scale(0.088 -0.088)">
       <defs>
        <path id="ArialMT-31" d="M 2384 0 
L 1822 0 
L 1822 3584 
Q 1619 3391 1289 3197 
Q 959 3003 697 2906 
L 697 3450 
Q 1169 3672 1522 3987 
Q 1875 4303 2022 4600 
L 2384 4600 
L 2384 0 
z
" transform="scale(0.015625)"/>
        <path id="ArialMT-30" d="M 266 2259 
Q 266 3072 433 3567 
Q 600 4063 929 4331 
Q 1259 4600 1759 4600 
Q 2128 4600 2406 4451 
Q 2684 4303 2865 4023 
Q 3047 3744 3150 3342 
Q 3253 2941 3253 2259 
Q 3253 1453 3087 958 
Q 2922 463 2592 192 
Q 2263 -78 1759 -78 
Q 1097 -78 719 397 
Q 266 969 266 2259 
z
M 844 2259 
Q 844 1131 1108 757 
Q 1372 384 1759 384 
Q 2147 384 2411 759 
Q 2675 1134 2675 2259 
Q 2675 3391 2411 3762 
Q 2147 4134 1753 4134 
Q 1366 4134 1134 3806 
Q 844 3388 844 2259 
z
" transform="scale(0.015625)"/>
        <path id="ArialMT-33" d="M 269 1209 
L 831 1284 
Q 928 806 1161 595 
Q 1394 384 1728 384 
Q 2125 384 2398 659 
Q 2672 934 2672 1341 
Q 2672 1728 2419 1979 
Q 2166 2231 1775 2231 
Q 1616 2231 1378 2169 
L 1441 2663 
Q 1497 2656 1531 2656 
Q 1891 2656 2178 2843 
Q 2466 3031 2466 3422 
Q 2466 3731 2256 3934 
Q 2047 4138 1716 4138 
Q 1388 4138 1169 3931 
Q 950 3725 888 3313 
L 325 3413 
Q 428 3978 793 4289 
Q 1159 4600 1703 4600 
Q 2078 4600 2393 4439 
Q 2709 4278 2876 4000 
Q 3044 3722 3044 3409 
Q 3044 3113 2884 2869 
Q 2725 2625 2413 2481 
Q 2819 2388 3044 2092 
Q 3269 1797 3269 1353 
Q 3269 753 2831 336 
Q 2394 -81 1725 -81 
Q 1122 -81 723 278 
Q 325 638 269 1209 
z
" transform="scale(0.015625)"/>
       </defs>
       <use xlink:href="#ArialMT-31" transform="translate(0 0.99375)"/>
       <use xlink:href="#ArialMT-30" transform="translate(55.615234 0.99375)"/>
       <use xlink:href="#ArialMT-33" transform="translate(112.972813 70.6875)scale(0.7)"/>
      </g>
     </g>
    </g>
    <g id="xtick_2">
     <g id="line2d_2">
      <g>
       <use xlink:href="#maba0701eeb" x="148.555469" y="307.584" style="fill: #262626; stroke: #262626"/>
      </g>
     </g>
     <g id="text_2">
      <!-- $\mathdefault{10^{4}}$ -->
      <g style="fill: #262626" transform="translate(141.647469 324.871)scale(0.088 -0.088)">
       <defs>
        <path id="ArialMT-34" d="M 2069 0 
L 2069 1097 
L 81 1097 
L 81 1613 
L 2172 4581 
L 2631 4581 
L 2631 1613 
L 3250 1613 
L 3250 1097 
L 2631 1097 
L 2631 0 
L 2069 0 
z
M 2069 1613 
L 2069 3678 
L 634 1613 
L 2069 1613 
z
" transform="scale(0.015625)"/>
       </defs>
       <use xlink:href="#ArialMT-31" transform="translate(0 0.201563)"/>
       <use xlink:href="#ArialMT-30" transform="translate(55.615234 0.201563)"/>
       <use xlink:href="#ArialMT-34" transform="translate(112.972813 69.895313)scale(0.7)"/>
      </g>
     </g>
    </g>
    <g id="xtick_3">
     <g id="line2d_3">
      <g>
       <use xlink:href="#maba0701eeb" x="230.309348" y="307.584" style="fill: #262626; stroke: #262626"/>
      </g>
     </g>
     <g id="text_3">
      <!-- $\mathdefault{10^{5}}$ -->
      <g style="fill: #262626" transform="translate(223.401348 324.871)scale(0.088 -0.088)">
       <defs>
        <path id="ArialMT-35" d="M 266 1200 
L 856 1250 
Q 922 819 1161 601 
Q 1400 384 1738 384 
Q 2144 384 2425 690 
Q 2706 997 2706 1503 
Q 2706 1984 2436 2262 
Q 2166 2541 1728 2541 
Q 1456 2541 1237 2417 
Q 1019 2294 894 2097 
L 366 2166 
L 809 4519 
L 3088 4519 
L 3088 3981 
L 1259 3981 
L 1013 2750 
Q 1425 3038 1878 3038 
Q 2478 3038 2890 2622 
Q 3303 2206 3303 1553 
Q 3303 931 2941 478 
Q 2500 -78 1738 -78 
Q 1113 -78 717 272 
Q 322 622 266 1200 
z
" transform="scale(0.015625)"/>
       </defs>
       <use xlink:href="#ArialMT-31" transform="translate(0 0.879688)"/>
       <use xlink:href="#ArialMT-30" transform="translate(55.615234 0.879688)"/>
       <use xlink:href="#ArialMT-35" transform="translate(112.972813 70.573438)scale(0.7)"/>
      </g>
     </g>
    </g>
    <g id="xtick_4">
     <g id="line2d_4">
      <g>
       <use xlink:href="#maba0701eeb" x="312.063226" y="307.584" style="fill: #262626; stroke: #262626"/>
      </g>
     </g>
     <g id="text_4">
      <!-- $\mathdefault{10^{6}}$ -->
      <g style="fill: #262626" transform="translate(305.155226 324.959)scale(0.088 -0.088)">
       <defs>
        <path id="ArialMT-36" d="M 3184 3459 
L 2625 3416 
Q 2550 3747 2413 3897 
Q 2184 4138 1850 4138 
Q 1581 4138 1378 3988 
Q 1113 3794 959 3422 
Q 806 3050 800 2363 
Q 1003 2672 1297 2822 
Q 1591 2972 1913 2972 
Q 2475 2972 2870 2558 
Q 3266 2144 3266 1488 
Q 3266 1056 3080 686 
Q 2894 316 2569 119 
Q 2244 -78 1831 -78 
Q 1128 -78 684 439 
Q 241 956 241 2144 
Q 241 3472 731 4075 
Q 1159 4600 1884 4600 
Q 2425 4600 2770 4297 
Q 3116 3994 3184 3459 
z
M 888 1484 
Q 888 1194 1011 928 
Q 1134 663 1356 523 
Q 1578 384 1822 384 
Q 2178 384 2434 671 
Q 2691 959 2691 1453 
Q 2691 1928 2437 2201 
Q 2184 2475 1800 2475 
Q 1419 2475 1153 2201 
Q 888 1928 888 1484 
z
" transform="scale(0.015625)"/>
       </defs>
       <use xlink:href="#ArialMT-31" transform="translate(0 0.99375)"/>
       <use xlink:href="#ArialMT-30" transform="translate(55.615234 0.99375)"/>
       <use xlink:href="#ArialMT-36" transform="translate(112.972813 70.6875)scale(0.7)"/>
      </g>
     </g>
    </g>
    <g id="xtick_5">
     <g id="line2d_5">
      <g>
       <use xlink:href="#maba0701eeb" x="393.817105" y="307.584" style="fill: #262626; stroke: #262626"/>
      </g>
     </g>
     <g id="text_5">
      <!-- $\mathdefault{10^{7}}$ -->
      <g style="fill: #262626" transform="translate(386.909105 324.871)scale(0.088 -0.088)">
       <defs>
        <path id="ArialMT-37" d="M 303 3981 
L 303 4522 
L 3269 4522 
L 3269 4084 
Q 2831 3619 2401 2847 
Q 1972 2075 1738 1259 
Q 1569 684 1522 0 
L 944 0 
Q 953 541 1156 1306 
Q 1359 2072 1739 2783 
Q 2119 3494 2547 3981 
L 303 3981 
z
" transform="scale(0.015625)"/>
       </defs>
       <use xlink:href="#ArialMT-31" transform="translate(0 0.846875)"/>
       <use xlink:href="#ArialMT-30" transform="translate(55.615234 0.846875)"/>
       <use xlink:href="#ArialMT-37" transform="translate(112.972813 70.540625)scale(0.7)"/>
      </g>
     </g>
    </g>
    <g id="xtick_6">
     <g id="line2d_6">
      <defs>
       <path id="mc4de9c7d21" d="M 0 0 
L 0 3.2 
" style="stroke: #262626; stroke-width: 0.8"/>
      </defs>
      <g>
       <use xlink:href="#mc4de9c7d21" x="58.878821" y="307.584" style="fill: #262626; stroke: #262626; stroke-width: 0.8"/>
      </g>
     </g>
    </g>
    <g id="xtick_7">
     <g id="line2d_7">
      <g>
       <use xlink:href="#mc4de9c7d21" x="63.060738" y="307.584" style="fill: #262626; stroke: #262626; stroke-width: 0.8"/>
      </g>
     </g>
    </g>
    <g id="xtick_8">
     <g id="line2d_8">
      <g>
       <use xlink:href="#mc4de9c7d21" x="91.41196" y="307.584" style="fill: #262626; stroke: #262626; stroke-width: 0.8"/>
      </g>
     </g>
    </g>
    <g id="xtick_9">
     <g id="line2d_9">
      <g>
       <use xlink:href="#mc4de9c7d21" x="105.808104" y="307.584" style="fill: #262626; stroke: #262626; stroke-width: 0.8"/>
      </g>
     </g>
    </g>
    <g id="xtick_10">
     <g id="line2d_10">
      <g>
       <use xlink:href="#mc4de9c7d21" x="116.02233" y="307.584" style="fill: #262626; stroke: #262626; stroke-width: 0.8"/>
      </g>
     </g>
    </g>
    <g id="xtick_11">
     <g id="line2d_11">
      <g>
       <use xlink:href="#mc4de9c7d21" x="123.9451" y="307.584" style="fill: #262626; stroke: #262626; stroke-width: 0.8"/>
      </g>
     </g>
    </g>
    <g id="xtick_12">
     <g id="line2d_12">
      <g>
       <use xlink:href="#mc4de9c7d21" x="130.418474" y="307.584" style="fill: #262626; stroke: #262626; stroke-width: 0.8"/>
      </g>
     </g>
    </g>
    <g id="xtick_13">
     <g id="line2d_13">
      <g>
       <use xlink:href="#mc4de9c7d21" x="135.891633" y="307.584" style="fill: #262626; stroke: #262626; stroke-width: 0.8"/>
      </g>
     </g>
    </g>
    <g id="xtick_14">
     <g id="line2d_14">
      <g>
       <use xlink:href="#mc4de9c7d21" x="140.6327" y="307.584" style="fill: #262626; stroke: #262626; stroke-width: 0.8"/>
      </g>
     </g>
    </g>
    <g id="xtick_15">
     <g id="line2d_15">
      <g>
       <use xlink:href="#mc4de9c7d21" x="144.814617" y="307.584" style="fill: #262626; stroke: #262626; stroke-width: 0.8"/>
      </g>
     </g>
    </g>
    <g id="xtick_16">
     <g id="line2d_16">
      <g>
       <use xlink:href="#mc4de9c7d21" x="173.165839" y="307.584" style="fill: #262626; stroke: #262626; stroke-width: 0.8"/>
      </g>
     </g>
    </g>
    <g id="xtick_17">
     <g id="line2d_17">
      <g>
       <use xlink:href="#mc4de9c7d21" x="187.561982" y="307.584" style="fill: #262626; stroke: #262626; stroke-width: 0.8"/>
      </g>
     </g>
    </g>
    <g id="xtick_18">
     <g id="line2d_18">
      <g>
       <use xlink:href="#mc4de9c7d21" x="197.776209" y="307.584" style="fill: #262626; stroke: #262626; stroke-width: 0.8"/>
      </g>
     </g>
    </g>
    <g id="xtick_19">
     <g id="line2d_19">
      <g>
       <use xlink:href="#mc4de9c7d21" x="205.698978" y="307.584" style="fill: #262626; stroke: #262626; stroke-width: 0.8"/>
      </g>
     </g>
    </g>
    <g id="xtick_20">
     <g id="line2d_20">
      <g>
       <use xlink:href="#mc4de9c7d21" x="212.172352" y="307.584" style="fill: #262626; stroke: #262626; stroke-width: 0.8"/>
      </g>
     </g>
    </g>
    <g id="xtick_21">
     <g id="line2d_21">
      <g>
       <use xlink:href="#mc4de9c7d21" x="217.645512" y="307.584" style="fill: #262626; stroke: #262626; stroke-width: 0.8"/>
      </g>
     </g>
    </g>
    <g id="xtick_22">
     <g id="line2d_22">
      <g>
       <use xlink:href="#mc4de9c7d21" x="222.386578" y="307.584" style="fill: #262626; stroke: #262626; stroke-width: 0.8"/>
      </g>
     </g>
    </g>
    <g id="xtick_23">
     <g id="line2d_23">
      <g>
       <use xlink:href="#mc4de9c7d21" x="226.568496" y="307.584" style="fill: #262626; stroke: #262626; stroke-width: 0.8"/>
      </g>
     </g>
    </g>
    <g id="xtick_24">
     <g id="line2d_24">
      <g>
       <use xlink:href="#mc4de9c7d21" x="254.919718" y="307.584" style="fill: #262626; stroke: #262626; stroke-width: 0.8"/>
      </g>
     </g>
    </g>
    <g id="xtick_25">
     <g id="line2d_25">
      <g>
       <use xlink:href="#mc4de9c7d21" x="269.315861" y="307.584" style="fill: #262626; stroke: #262626; stroke-width: 0.8"/>
      </g>
     </g>
    </g>
    <g id="xtick_26">
     <g id="line2d_26">
      <g>
       <use xlink:href="#mc4de9c7d21" x="279.530087" y="307.584" style="fill: #262626; stroke: #262626; stroke-width: 0.8"/>
      </g>
     </g>
    </g>
    <g id="xtick_27">
     <g id="line2d_27">
      <g>
       <use xlink:href="#mc4de9c7d21" x="287.452857" y="307.584" style="fill: #262626; stroke: #262626; stroke-width: 0.8"/>
      </g>
     </g>
    </g>
    <g id="xtick_28">
     <g id="line2d_28">
      <g>
       <use xlink:href="#mc4de9c7d21" x="293.926231" y="307.584" style="fill: #262626; stroke: #262626; stroke-width: 0.8"/>
      </g>
     </g>
    </g>
    <g id="xtick_29">
     <g id="line2d_29">
      <g>
       <use xlink:href="#mc4de9c7d21" x="299.39939" y="307.584" style="fill: #262626; stroke: #262626; stroke-width: 0.8"/>
      </g>
     </g>
    </g>
    <g id="xtick_30">
     <g id="line2d_30">
      <g>
       <use xlink:href="#mc4de9c7d21" x="304.140457" y="307.584" style="fill: #262626; stroke: #262626; stroke-width: 0.8"/>
      </g>
     </g>
    </g>
    <g id="xtick_31">
     <g id="line2d_31">
      <g>
       <use xlink:href="#mc4de9c7d21" x="308.322374" y="307.584" style="fill: #262626; stroke: #262626; stroke-width: 0.8"/>
      </g>
     </g>
    </g>
    <g id="xtick_32">
     <g id="line2d_32">
      <g>
       <use xlink:href="#mc4de9c7d21" x="336.673596" y="307.584" style="fill: #262626; stroke: #262626; stroke-width: 0.8"/>
      </g>
     </g>
    </g>
    <g id="xtick_33">
     <g id="line2d_33">
      <g>
       <use xlink:href="#mc4de9c7d21" x="351.06974" y="307.584" style="fill: #262626; stroke: #262626; stroke-width: 0.8"/>
      </g>
     </g>
    </g>
    <g id="xtick_34">
     <g id="line2d_34">
      <g>
       <use xlink:href="#mc4de9c7d21" x="361.283966" y="307.584" style="fill: #262626; stroke: #262626; stroke-width: 0.8"/>
      </g>
     </g>
    </g>
    <g id="xtick_35">
     <g id="line2d_35">
      <g>
       <use xlink:href="#mc4de9c7d21" x="369.206735" y="307.584" style="fill: #262626; stroke: #262626; stroke-width: 0.8"/>
      </g>
     </g>
    </g>
    <g id="xtick_36">
     <g id="line2d_36">
      <g>
       <use xlink:href="#mc4de9c7d21" x="375.680109" y="307.584" style="fill: #262626; stroke: #262626; stroke-width: 0.8"/>
      </g>
     </g>
    </g>
    <g id="xtick_37">
     <g id="line2d_37">
      <g>
       <use xlink:href="#mc4de9c7d21" x="381.153269" y="307.584" style="fill: #262626; stroke: #262626; stroke-width: 0.8"/>
      </g>
     </g>
    </g>
    <g id="xtick_38">
     <g id="line2d_38">
      <g>
       <use xlink:href="#mc4de9c7d21" x="385.894336" y="307.584" style="fill: #262626; stroke: #262626; stroke-width: 0.8"/>
      </g>
     </g>
    </g>
    <g id="xtick_39">
     <g id="line2d_39">
      <g>
       <use xlink:href="#mc4de9c7d21" x="390.076253" y="307.584" style="fill: #262626; stroke: #262626; stroke-width: 0.8"/>
      </g>
     </g>
    </g>
    <g id="text_6">
     <!-- Number of Tasks -->
     <g style="fill: #262626" transform="translate(187.513594 340.013156)scale(0.13 -0.13)">
      <defs>
       <path id="ArialMT-4e" d="M 488 0 
L 488 4581 
L 1109 4581 
L 3516 984 
L 3516 4581 
L 4097 4581 
L 4097 0 
L 3475 0 
L 1069 3600 
L 1069 0 
L 488 0 
z
" transform="scale(0.015625)"/>
       <path id="ArialMT-75" d="M 2597 0 
L 2597 488 
Q 2209 -75 1544 -75 
Q 1250 -75 995 37 
Q 741 150 617 320 
Q 494 491 444 738 
Q 409 903 409 1263 
L 409 3319 
L 972 3319 
L 972 1478 
Q 972 1038 1006 884 
Q 1059 663 1231 536 
Q 1403 409 1656 409 
Q 1909 409 2131 539 
Q 2353 669 2445 892 
Q 2538 1116 2538 1541 
L 2538 3319 
L 3100 3319 
L 3100 0 
L 2597 0 
z
" transform="scale(0.015625)"/>
       <path id="ArialMT-6d" d="M 422 0 
L 422 3319 
L 925 3319 
L 925 2853 
Q 1081 3097 1340 3245 
Q 1600 3394 1931 3394 
Q 2300 3394 2536 3241 
Q 2772 3088 2869 2813 
Q 3263 3394 3894 3394 
Q 4388 3394 4653 3120 
Q 4919 2847 4919 2278 
L 4919 0 
L 4359 0 
L 4359 2091 
Q 4359 2428 4304 2576 
Q 4250 2725 4106 2815 
Q 3963 2906 3769 2906 
Q 3419 2906 3187 2673 
Q 2956 2441 2956 1928 
L 2956 0 
L 2394 0 
L 2394 2156 
Q 2394 2531 2256 2718 
Q 2119 2906 1806 2906 
Q 1569 2906 1367 2781 
Q 1166 2656 1075 2415 
Q 984 2175 984 1722 
L 984 0 
L 422 0 
z
" transform="scale(0.015625)"/>
       <path id="ArialMT-62" d="M 941 0 
L 419 0 
L 419 4581 
L 981 4581 
L 981 2947 
Q 1338 3394 1891 3394 
Q 2197 3394 2470 3270 
Q 2744 3147 2920 2923 
Q 3097 2700 3197 2384 
Q 3297 2069 3297 1709 
Q 3297 856 2875 390 
Q 2453 -75 1863 -75 
Q 1275 -75 941 416 
L 941 0 
z
M 934 1684 
Q 934 1088 1097 822 
Q 1363 388 1816 388 
Q 2184 388 2453 708 
Q 2722 1028 2722 1663 
Q 2722 2313 2464 2622 
Q 2206 2931 1841 2931 
Q 1472 2931 1203 2611 
Q 934 2291 934 1684 
z
" transform="scale(0.015625)"/>
       <path id="ArialMT-65" d="M 2694 1069 
L 3275 997 
Q 3138 488 2766 206 
Q 2394 -75 1816 -75 
Q 1088 -75 661 373 
Q 234 822 234 1631 
Q 234 2469 665 2931 
Q 1097 3394 1784 3394 
Q 2450 3394 2872 2941 
Q 3294 2488 3294 1666 
Q 3294 1616 3291 1516 
L 816 1516 
Q 847 969 1125 678 
Q 1403 388 1819 388 
Q 2128 388 2347 550 
Q 2566 713 2694 1069 
z
M 847 1978 
L 2700 1978 
Q 2663 2397 2488 2606 
Q 2219 2931 1791 2931 
Q 1403 2931 1139 2672 
Q 875 2413 847 1978 
z
" transform="scale(0.015625)"/>
       <path id="ArialMT-72" d="M 416 0 
L 416 3319 
L 922 3319 
L 922 2816 
Q 1116 3169 1280 3281 
Q 1444 3394 1641 3394 
Q 1925 3394 2219 3213 
L 2025 2691 
Q 1819 2813 1613 2813 
Q 1428 2813 1281 2702 
Q 1134 2591 1072 2394 
Q 978 2094 978 1738 
L 978 0 
L 416 0 
z
" transform="scale(0.015625)"/>
       <path id="ArialMT-20" transform="scale(0.015625)"/>
       <path id="ArialMT-6f" d="M 213 1659 
Q 213 2581 725 3025 
Q 1153 3394 1769 3394 
Q 2453 3394 2887 2945 
Q 3322 2497 3322 1706 
Q 3322 1066 3130 698 
Q 2938 331 2570 128 
Q 2203 -75 1769 -75 
Q 1072 -75 642 372 
Q 213 819 213 1659 
z
M 791 1659 
Q 791 1022 1069 705 
Q 1347 388 1769 388 
Q 2188 388 2466 706 
Q 2744 1025 2744 1678 
Q 2744 2294 2464 2611 
Q 2184 2928 1769 2928 
Q 1347 2928 1069 2612 
Q 791 2297 791 1659 
z
" transform="scale(0.015625)"/>
       <path id="ArialMT-66" d="M 556 0 
L 556 2881 
L 59 2881 
L 59 3319 
L 556 3319 
L 556 3672 
Q 556 4006 616 4169 
Q 697 4388 901 4523 
Q 1106 4659 1475 4659 
Q 1713 4659 2000 4603 
L 1916 4113 
Q 1741 4144 1584 4144 
Q 1328 4144 1222 4034 
Q 1116 3925 1116 3625 
L 1116 3319 
L 1763 3319 
L 1763 2881 
L 1116 2881 
L 1116 0 
L 556 0 
z
" transform="scale(0.015625)"/>
       <path id="ArialMT-54" d="M 1659 0 
L 1659 4041 
L 150 4041 
L 150 4581 
L 3781 4581 
L 3781 4041 
L 2266 4041 
L 2266 0 
L 1659 0 
z
" transform="scale(0.015625)"/>
       <path id="ArialMT-61" d="M 2588 409 
Q 2275 144 1986 34 
Q 1697 -75 1366 -75 
Q 819 -75 525 192 
Q 231 459 231 875 
Q 231 1119 342 1320 
Q 453 1522 633 1644 
Q 813 1766 1038 1828 
Q 1203 1872 1538 1913 
Q 2219 1994 2541 2106 
Q 2544 2222 2544 2253 
Q 2544 2597 2384 2738 
Q 2169 2928 1744 2928 
Q 1347 2928 1158 2789 
Q 969 2650 878 2297 
L 328 2372 
Q 403 2725 575 2942 
Q 747 3159 1072 3276 
Q 1397 3394 1825 3394 
Q 2250 3394 2515 3294 
Q 2781 3194 2906 3042 
Q 3031 2891 3081 2659 
Q 3109 2516 3109 2141 
L 3109 1391 
Q 3109 606 3145 398 
Q 3181 191 3288 0 
L 2700 0 
Q 2613 175 2588 409 
z
M 2541 1666 
Q 2234 1541 1622 1453 
Q 1275 1403 1131 1340 
Q 988 1278 909 1158 
Q 831 1038 831 891 
Q 831 666 1001 516 
Q 1172 366 1500 366 
Q 1825 366 2078 508 
Q 2331 650 2450 897 
Q 2541 1088 2541 1459 
L 2541 1666 
z
" transform="scale(0.015625)"/>
       <path id="ArialMT-73" d="M 197 991 
L 753 1078 
Q 800 744 1014 566 
Q 1228 388 1613 388 
Q 2000 388 2187 545 
Q 2375 703 2375 916 
Q 2375 1106 2209 1216 
Q 2094 1291 1634 1406 
Q 1016 1563 777 1677 
Q 538 1791 414 1992 
Q 291 2194 291 2438 
Q 291 2659 392 2848 
Q 494 3038 669 3163 
Q 800 3259 1026 3326 
Q 1253 3394 1513 3394 
Q 1903 3394 2198 3281 
Q 2494 3169 2634 2976 
Q 2775 2784 2828 2463 
L 2278 2388 
Q 2241 2644 2061 2787 
Q 1881 2931 1553 2931 
Q 1166 2931 1000 2803 
Q 834 2675 834 2503 
Q 834 2394 903 2306 
Q 972 2216 1119 2156 
Q 1203 2125 1616 2013 
Q 2213 1853 2448 1751 
Q 2684 1650 2818 1456 
Q 2953 1263 2953 975 
Q 2953 694 2789 445 
Q 2625 197 2315 61 
Q 2006 -75 1616 -75 
Q 969 -75 630 194 
Q 291 463 197 991 
z
" transform="scale(0.015625)"/>
       <path id="ArialMT-6b" d="M 425 0 
L 425 4581 
L 988 4581 
L 988 1969 
L 2319 3319 
L 3047 3319 
L 1778 2088 
L 3175 0 
L 2481 0 
L 1384 1697 
L 988 1316 
L 988 0 
L 425 0 
z
" transform="scale(0.015625)"/>
      </defs>
      <use xlink:href="#ArialMT-4e"/>
      <use xlink:href="#ArialMT-75" x="72.216797"/>
      <use xlink:href="#ArialMT-6d" x="127.832031"/>
      <use xlink:href="#ArialMT-62" x="211.132812"/>
      <use xlink:href="#ArialMT-65" x="266.748047"/>
      <use xlink:href="#ArialMT-72" x="322.363281"/>
      <use xlink:href="#ArialMT-20" x="355.664062"/>
      <use xlink:href="#ArialMT-6f" x="383.447266"/>
      <use xlink:href="#ArialMT-66" x="439.0625"/>
      <use xlink:href="#ArialMT-20" x="466.845703"/>
      <use xlink:href="#ArialMT-54" x="492.878906"/>
      <use xlink:href="#ArialMT-61" x="542.837891"/>
      <use xlink:href="#ArialMT-73" x="598.453125"/>
      <use xlink:href="#ArialMT-6b" x="648.453125"/>
      <use xlink:href="#ArialMT-73" x="698.453125"/>
     </g>
    </g>
   </g>
   <g id="matplotlib.axis_2">
    <g id="ytick_1">
     <g id="line2d_40">
      <defs>
       <path id="m2bd979f504" d="M 0 0 
L -4.8 0 
" style="stroke: #262626"/>
      </defs>
      <g>
       <use xlink:href="#m2bd979f504" x="57.6" y="267.999941" style="fill: #262626; stroke: #262626"/>
      </g>
     </g>
     <g id="text_7">
      <!-- $\mathdefault{10^{-2}}$ -->
      <g style="fill: #262626" transform="translate(31.876 272.537441)scale(0.088 -0.088)">
       <defs>
        <path id="ArialMT-2212" d="M 3381 1997 
L 356 1997 
L 356 2522 
L 3381 2522 
L 3381 1997 
z
" transform="scale(0.015625)"/>
        <path id="ArialMT-32" d="M 3222 541 
L 3222 0 
L 194 0 
Q 188 203 259 391 
Q 375 700 629 1000 
Q 884 1300 1366 1694 
Q 2113 2306 2375 2664 
Q 2638 3022 2638 3341 
Q 2638 3675 2398 3904 
Q 2159 4134 1775 4134 
Q 1369 4134 1125 3890 
Q 881 3647 878 3216 
L 300 3275 
Q 359 3922 746 4261 
Q 1134 4600 1788 4600 
Q 2447 4600 2831 4234 
Q 3216 3869 3216 3328 
Q 3216 3053 3103 2787 
Q 2991 2522 2730 2228 
Q 2469 1934 1863 1422 
Q 1356 997 1212 845 
Q 1069 694 975 541 
L 3222 541 
z
" transform="scale(0.015625)"/>
       </defs>
       <use xlink:href="#ArialMT-31" transform="translate(0 0.99375)"/>
       <use xlink:href="#ArialMT-30" transform="translate(55.615234 0.99375)"/>
       <use xlink:href="#ArialMT-2212" transform="translate(112.972813 70.6875)scale(0.7)"/>
       <use xlink:href="#ArialMT-32" transform="translate(153.851719 70.6875)scale(0.7)"/>
      </g>
     </g>
    </g>
    <g id="ytick_2">
     <g id="line2d_41">
      <g>
       <use xlink:href="#m2bd979f504" x="57.6" y="211.367956" style="fill: #262626; stroke: #262626"/>
      </g>
     </g>
     <g id="text_8">
      <!-- $\mathdefault{10^{-1}}$ -->
      <g style="fill: #262626" transform="translate(31.876 215.905456)scale(0.088 -0.088)">
       <use xlink:href="#ArialMT-31" transform="translate(0 0.99375)"/>
       <use xlink:href="#ArialMT-30" transform="translate(55.615234 0.99375)"/>
       <use xlink:href="#ArialMT-2212" transform="translate(112.972813 70.6875)scale(0.7)"/>
       <use xlink:href="#ArialMT-31" transform="translate(153.851719 70.6875)scale(0.7)"/>
      </g>
     </g>
    </g>
    <g id="ytick_3">
     <g id="line2d_42">
      <g>
       <use xlink:href="#m2bd979f504" x="57.6" y="154.735971" style="fill: #262626; stroke: #262626"/>
      </g>
     </g>
     <g id="text_9">
      <!-- $\mathdefault{10^{0}}$ -->
      <g style="fill: #262626" transform="translate(35.484 159.273471)scale(0.088 -0.088)">
       <use xlink:href="#ArialMT-31" transform="translate(0 0.99375)"/>
       <use xlink:href="#ArialMT-30" transform="translate(55.615234 0.99375)"/>
       <use xlink:href="#ArialMT-30" transform="translate(112.972813 70.6875)scale(0.7)"/>
      </g>
     </g>
    </g>
    <g id="ytick_4">
     <g id="line2d_43">
      <g>
       <use xlink:href="#m2bd979f504" x="57.6" y="98.103985" style="fill: #262626; stroke: #262626"/>
      </g>
     </g>
     <g id="text_10">
      <!-- $\mathdefault{10^{1}}$ -->
      <g style="fill: #262626" transform="translate(35.484 102.641485)scale(0.088 -0.088)">
       <use xlink:href="#ArialMT-31" transform="translate(0 0.99375)"/>
       <use xlink:href="#ArialMT-30" transform="translate(55.615234 0.99375)"/>
       <use xlink:href="#ArialMT-31" transform="translate(112.972813 70.6875)scale(0.7)"/>
      </g>
     </g>
    </g>
    <g id="ytick_5">
     <g id="line2d_44">
      <g>
       <use xlink:href="#m2bd979f504" x="57.6" y="41.472" style="fill: #262626; stroke: #262626"/>
      </g>
     </g>
     <g id="text_11">
      <!-- $\mathdefault{10^{2}}$ -->
      <g style="fill: #262626" transform="translate(35.484 46.0095)scale(0.088 -0.088)">
       <use xlink:href="#ArialMT-31" transform="translate(0 0.99375)"/>
       <use xlink:href="#ArialMT-30" transform="translate(55.615234 0.99375)"/>
       <use xlink:href="#ArialMT-32" transform="translate(112.972813 70.6875)scale(0.7)"/>
      </g>
     </g>
    </g>
    <g id="ytick_6">
     <g id="line2d_45">
      <defs>
       <path id="mad981e2ee3" d="M 0 0 
L -3.2 0 
" style="stroke: #262626; stroke-width: 0.8"/>
      </defs>
      <g>
       <use xlink:href="#mad981e2ee3" x="57.6" y="307.584" style="fill: #262626; stroke: #262626; stroke-width: 0.8"/>
      </g>
     </g>
    </g>
    <g id="ytick_7">
     <g id="line2d_46">
      <g>
       <use xlink:href="#mad981e2ee3" x="57.6" y="297.611602" style="fill: #262626; stroke: #262626; stroke-width: 0.8"/>
      </g>
     </g>
    </g>
    <g id="ytick_8">
     <g id="line2d_47">
      <g>
       <use xlink:href="#mad981e2ee3" x="57.6" y="290.536074" style="fill: #262626; stroke: #262626; stroke-width: 0.8"/>
      </g>
     </g>
    </g>
    <g id="ytick_9">
     <g id="line2d_48">
      <g>
       <use xlink:href="#mad981e2ee3" x="57.6" y="285.047867" style="fill: #262626; stroke: #262626; stroke-width: 0.8"/>
      </g>
     </g>
    </g>
    <g id="ytick_10">
     <g id="line2d_49">
      <g>
       <use xlink:href="#mad981e2ee3" x="57.6" y="280.563676" style="fill: #262626; stroke: #262626; stroke-width: 0.8"/>
      </g>
     </g>
    </g>
    <g id="ytick_11">
     <g id="line2d_50">
      <g>
       <use xlink:href="#mad981e2ee3" x="57.6" y="276.772347" style="fill: #262626; stroke: #262626; stroke-width: 0.8"/>
      </g>
     </g>
    </g>
    <g id="ytick_12">
     <g id="line2d_51">
      <g>
       <use xlink:href="#mad981e2ee3" x="57.6" y="273.488147" style="fill: #262626; stroke: #262626; stroke-width: 0.8"/>
      </g>
     </g>
    </g>
    <g id="ytick_13">
     <g id="line2d_52">
      <g>
       <use xlink:href="#mad981e2ee3" x="57.6" y="270.591279" style="fill: #262626; stroke: #262626; stroke-width: 0.8"/>
      </g>
     </g>
    </g>
    <g id="ytick_14">
     <g id="line2d_53">
      <g>
       <use xlink:href="#mad981e2ee3" x="57.6" y="250.952015" style="fill: #262626; stroke: #262626; stroke-width: 0.8"/>
      </g>
     </g>
    </g>
    <g id="ytick_15">
     <g id="line2d_54">
      <g>
       <use xlink:href="#mad981e2ee3" x="57.6" y="240.979617" style="fill: #262626; stroke: #262626; stroke-width: 0.8"/>
      </g>
     </g>
    </g>
    <g id="ytick_16">
     <g id="line2d_55">
      <g>
       <use xlink:href="#mad981e2ee3" x="57.6" y="233.904088" style="fill: #262626; stroke: #262626; stroke-width: 0.8"/>
      </g>
     </g>
    </g>
    <g id="ytick_17">
     <g id="line2d_56">
      <g>
       <use xlink:href="#mad981e2ee3" x="57.6" y="228.415882" style="fill: #262626; stroke: #262626; stroke-width: 0.8"/>
      </g>
     </g>
    </g>
    <g id="ytick_18">
     <g id="line2d_57">
      <g>
       <use xlink:href="#mad981e2ee3" x="57.6" y="223.931691" style="fill: #262626; stroke: #262626; stroke-width: 0.8"/>
      </g>
     </g>
    </g>
    <g id="ytick_19">
     <g id="line2d_58">
      <g>
       <use xlink:href="#mad981e2ee3" x="57.6" y="220.140361" style="fill: #262626; stroke: #262626; stroke-width: 0.8"/>
      </g>
     </g>
    </g>
    <g id="ytick_20">
     <g id="line2d_59">
      <g>
       <use xlink:href="#mad981e2ee3" x="57.6" y="216.856162" style="fill: #262626; stroke: #262626; stroke-width: 0.8"/>
      </g>
     </g>
    </g>
    <g id="ytick_21">
     <g id="line2d_60">
      <g>
       <use xlink:href="#mad981e2ee3" x="57.6" y="213.959293" style="fill: #262626; stroke: #262626; stroke-width: 0.8"/>
      </g>
     </g>
    </g>
    <g id="ytick_22">
     <g id="line2d_61">
      <g>
       <use xlink:href="#mad981e2ee3" x="57.6" y="194.320029" style="fill: #262626; stroke: #262626; stroke-width: 0.8"/>
      </g>
     </g>
    </g>
    <g id="ytick_23">
     <g id="line2d_62">
      <g>
       <use xlink:href="#mad981e2ee3" x="57.6" y="184.347632" style="fill: #262626; stroke: #262626; stroke-width: 0.8"/>
      </g>
     </g>
    </g>
    <g id="ytick_24">
     <g id="line2d_63">
      <g>
       <use xlink:href="#mad981e2ee3" x="57.6" y="177.272103" style="fill: #262626; stroke: #262626; stroke-width: 0.8"/>
      </g>
     </g>
    </g>
    <g id="ytick_25">
     <g id="line2d_64">
      <g>
       <use xlink:href="#mad981e2ee3" x="57.6" y="171.783897" style="fill: #262626; stroke: #262626; stroke-width: 0.8"/>
      </g>
     </g>
    </g>
    <g id="ytick_26">
     <g id="line2d_65">
      <g>
       <use xlink:href="#mad981e2ee3" x="57.6" y="167.299706" style="fill: #262626; stroke: #262626; stroke-width: 0.8"/>
      </g>
     </g>
    </g>
    <g id="ytick_27">
     <g id="line2d_66">
      <g>
       <use xlink:href="#mad981e2ee3" x="57.6" y="163.508376" style="fill: #262626; stroke: #262626; stroke-width: 0.8"/>
      </g>
     </g>
    </g>
    <g id="ytick_28">
     <g id="line2d_67">
      <g>
       <use xlink:href="#mad981e2ee3" x="57.6" y="160.224177" style="fill: #262626; stroke: #262626; stroke-width: 0.8"/>
      </g>
     </g>
    </g>
    <g id="ytick_29">
     <g id="line2d_68">
      <g>
       <use xlink:href="#mad981e2ee3" x="57.6" y="157.327308" style="fill: #262626; stroke: #262626; stroke-width: 0.8"/>
      </g>
     </g>
    </g>
    <g id="ytick_30">
     <g id="line2d_69">
      <g>
       <use xlink:href="#mad981e2ee3" x="57.6" y="137.688044" style="fill: #262626; stroke: #262626; stroke-width: 0.8"/>
      </g>
     </g>
    </g>
    <g id="ytick_31">
     <g id="line2d_70">
      <g>
       <use xlink:href="#mad981e2ee3" x="57.6" y="127.715647" style="fill: #262626; stroke: #262626; stroke-width: 0.8"/>
      </g>
     </g>
    </g>
    <g id="ytick_32">
     <g id="line2d_71">
      <g>
       <use xlink:href="#mad981e2ee3" x="57.6" y="120.640118" style="fill: #262626; stroke: #262626; stroke-width: 0.8"/>
      </g>
     </g>
    </g>
    <g id="ytick_33">
     <g id="line2d_72">
      <g>
       <use xlink:href="#mad981e2ee3" x="57.6" y="115.151912" style="fill: #262626; stroke: #262626; stroke-width: 0.8"/>
      </g>
     </g>
    </g>
    <g id="ytick_34">
     <g id="line2d_73">
      <g>
       <use xlink:href="#mad981e2ee3" x="57.6" y="110.66772" style="fill: #262626; stroke: #262626; stroke-width: 0.8"/>
      </g>
     </g>
    </g>
    <g id="ytick_35">
     <g id="line2d_74">
      <g>
       <use xlink:href="#mad981e2ee3" x="57.6" y="106.876391" style="fill: #262626; stroke: #262626; stroke-width: 0.8"/>
      </g>
     </g>
    </g>
    <g id="ytick_36">
     <g id="line2d_75">
      <g>
       <use xlink:href="#mad981e2ee3" x="57.6" y="103.592192" style="fill: #262626; stroke: #262626; stroke-width: 0.8"/>
      </g>
     </g>
    </g>
    <g id="ytick_37">
     <g id="line2d_76">
      <g>
       <use xlink:href="#mad981e2ee3" x="57.6" y="100.695323" style="fill: #262626; stroke: #262626; stroke-width: 0.8"/>
      </g>
     </g>
    </g>
    <g id="ytick_38">
     <g id="line2d_77">
      <g>
       <use xlink:href="#mad981e2ee3" x="57.6" y="81.056059" style="fill: #262626; stroke: #262626; stroke-width: 0.8"/>
      </g>
     </g>
    </g>
    <g id="ytick_39">
     <g id="line2d_78">
      <g>
       <use xlink:href="#mad981e2ee3" x="57.6" y="71.083661" style="fill: #262626; stroke: #262626; stroke-width: 0.8"/>
      </g>
     </g>
    </g>
    <g id="ytick_40">
     <g id="line2d_79">
      <g>
       <use xlink:href="#mad981e2ee3" x="57.6" y="64.008133" style="fill: #262626; stroke: #262626; stroke-width: 0.8"/>
      </g>
     </g>
    </g>
    <g id="ytick_41">
     <g id="line2d_80">
      <g>
       <use xlink:href="#mad981e2ee3" x="57.6" y="58.519926" style="fill: #262626; stroke: #262626; stroke-width: 0.8"/>
      </g>
     </g>
    </g>
    <g id="ytick_42">
     <g id="line2d_81">
      <g>
       <use xlink:href="#mad981e2ee3" x="57.6" y="54.035735" style="fill: #262626; stroke: #262626; stroke-width: 0.8"/>
      </g>
     </g>
    </g>
    <g id="ytick_43">
     <g id="line2d_82">
      <g>
       <use xlink:href="#mad981e2ee3" x="57.6" y="50.244406" style="fill: #262626; stroke: #262626; stroke-width: 0.8"/>
      </g>
     </g>
    </g>
    <g id="ytick_44">
     <g id="line2d_83">
      <g>
       <use xlink:href="#mad981e2ee3" x="57.6" y="46.960206" style="fill: #262626; stroke: #262626; stroke-width: 0.8"/>
      </g>
     </g>
    </g>
    <g id="ytick_45">
     <g id="line2d_84">
      <g>
       <use xlink:href="#mad981e2ee3" x="57.6" y="44.063338" style="fill: #262626; stroke: #262626; stroke-width: 0.8"/>
      </g>
     </g>
    </g>
    <g id="text_12">
     <!-- t(sec) -->
     <g style="fill: #262626" transform="translate(25.139906 190.776984)rotate(-90)scale(0.13 -0.13)">
      <defs>
       <path id="ArialMT-74" d="M 1650 503 
L 1731 6 
Q 1494 -44 1306 -44 
Q 1000 -44 831 53 
Q 663 150 594 308 
Q 525 466 525 972 
L 525 2881 
L 113 2881 
L 113 3319 
L 525 3319 
L 525 4141 
L 1084 4478 
L 1084 3319 
L 1650 3319 
L 1650 2881 
L 1084 2881 
L 1084 941 
Q 1084 700 1114 631 
Q 1144 563 1211 522 
Q 1278 481 1403 481 
Q 1497 481 1650 503 
z
" transform="scale(0.015625)"/>
       <path id="ArialMT-28" d="M 1497 -1347 
Q 1031 -759 709 28 
Q 388 816 388 1659 
Q 388 2403 628 3084 
Q 909 3875 1497 4659 
L 1900 4659 
Q 1522 4009 1400 3731 
Q 1209 3300 1100 2831 
Q 966 2247 966 1656 
Q 966 153 1900 -1347 
L 1497 -1347 
z
" transform="scale(0.015625)"/>
       <path id="ArialMT-63" d="M 2588 1216 
L 3141 1144 
Q 3050 572 2676 248 
Q 2303 -75 1759 -75 
Q 1078 -75 664 370 
Q 250 816 250 1647 
Q 250 2184 428 2587 
Q 606 2991 970 3192 
Q 1334 3394 1763 3394 
Q 2303 3394 2647 3120 
Q 2991 2847 3088 2344 
L 2541 2259 
Q 2463 2594 2264 2762 
Q 2066 2931 1784 2931 
Q 1359 2931 1093 2626 
Q 828 2322 828 1663 
Q 828 994 1084 691 
Q 1341 388 1753 388 
Q 2084 388 2306 591 
Q 2528 794 2588 1216 
z
" transform="scale(0.015625)"/>
       <path id="ArialMT-29" d="M 791 -1347 
L 388 -1347 
Q 1322 153 1322 1656 
Q 1322 2244 1188 2822 
Q 1081 3291 891 3722 
Q 769 4003 388 4659 
L 791 4659 
Q 1378 3875 1659 3084 
Q 1900 2403 1900 1659 
Q 1900 816 1576 28 
Q 1253 -759 791 -1347 
z
" transform="scale(0.015625)"/>
      </defs>
      <use xlink:href="#ArialMT-74"/>
      <use xlink:href="#ArialMT-28" x="27.783203"/>
      <use xlink:href="#ArialMT-73" x="61.083984"/>
      <use xlink:href="#ArialMT-65" x="111.083984"/>
      <use xlink:href="#ArialMT-63" x="166.699219"/>
      <use xlink:href="#ArialMT-29" x="216.699219"/>
     </g>
    </g>
   </g>
   <g id="PolyCollection_1">
    <defs>
     <path id="m188c4b1f20" d="M 73.832727 -127.989623 
L 73.832727 -126.282204 
L 90.929375 -107.011963 
L 108.021808 -104.353893 
L 125.111601 -114.761414 
L 142.199778 -103.262589 
L 159.286949 -103.011189 
L 176.373502 -104.57024 
L 193.459672 -104.460571 
L 210.545605 -102.404741 
L 227.631391 -98.266439 
L 244.717088 -97.428601 
L 261.802728 -101.391121 
L 278.888334 -107.051356 
L 295.973919 -110.8473 
L 313.059491 -123.998406 
L 330.145054 -129.961099 
L 347.230612 -135.352266 
L 364.316167 -138.612307 
L 381.401721 -148.051504 
L 398.487273 -149.503691 
L 398.487273 -150.907377 
L 398.487273 -150.907377 
L 381.401721 -149.780639 
L 364.316167 -139.832932 
L 347.230612 -138.043463 
L 330.145054 -131.878588 
L 313.059491 -124.277693 
L 295.973919 -112.119216 
L 278.888334 -111.907926 
L 261.802728 -118.097615 
L 244.717088 -103.529449 
L 227.631391 -112.311022 
L 210.545605 -110.406314 
L 193.459672 -113.050424 
L 176.373502 -105.902222 
L 159.286949 -111.492781 
L 142.199778 -116.194804 
L 125.111601 -121.269816 
L 108.021808 -125.291468 
L 90.929375 -125.000979 
L 73.832727 -127.989623 
z
" style="stroke: #1f77b4; stroke-opacity: 0.2; stroke-width: 0.8"/>
    </defs>
    <g clip-path="url(#p249d5944ee)">
     <use xlink:href="#m188c4b1f20" x="0" y="345.6" style="fill: #1f77b4; fill-opacity: 0.2; stroke: #1f77b4; stroke-opacity: 0.2; stroke-width: 0.8"/>
    </g>
   </g>
   <g id="PolyCollection_2">
    <defs>
     <path id="m745d163696" d="M 73.832727 -97.478742 
L 73.832727 -97.41355 
L 90.929375 -94.31606 
L 108.021808 -92.530695 
L 125.111601 -92.954183 
L 142.199778 -89.465158 
L 159.286949 -91.606148 
L 176.373502 -92.575822 
L 193.459672 -93.860906 
L 210.545605 -94.416072 
L 227.631391 -98.857646 
L 244.717088 -103.200479 
L 261.802728 -108.462116 
L 278.888334 -114.613158 
L 295.973919 -123.03025 
L 313.059491 -132.948705 
L 330.145054 -142.317097 
L 347.230612 -153.23344 
L 364.316167 -164.168759 
L 381.401721 -175.517741 
L 398.487273 -174.80253 
L 398.487273 -175.067948 
L 398.487273 -175.067948 
L 381.401721 -175.574365 
L 364.316167 -164.221059 
L 347.230612 -153.303422 
L 330.145054 -142.411986 
L 313.059491 -132.982886 
L 295.973919 -123.178536 
L 278.888334 -115.857078 
L 261.802728 -109.283194 
L 244.717088 -103.376339 
L 227.631391 -102.78044 
L 210.545605 -95.605521 
L 193.459672 -93.871062 
L 176.373502 -94.759638 
L 159.286949 -94.662738 
L 142.199778 -93.745088 
L 125.111601 -93.619491 
L 108.021808 -94.645772 
L 90.929375 -97.06737 
L 73.832727 -97.478742 
z
" style="stroke: #aec7e8; stroke-opacity: 0.2; stroke-width: 0.8"/>
    </defs>
    <g clip-path="url(#p249d5944ee)">
     <use xlink:href="#m745d163696" x="0" y="345.6" style="fill: #aec7e8; fill-opacity: 0.2; stroke: #aec7e8; stroke-opacity: 0.2; stroke-width: 0.8"/>
    </g>
   </g>
   <g id="PolyCollection_3">
    <defs>
     <path id="m7fa7c8d1a5" d="M 73.832727 -86.864524 
L 73.832727 -83.302974 
L 90.929375 -64.184021 
L 108.021808 -84.94283 
L 125.111601 -68.556889 
L 142.199778 -79.33367 
L 159.286949 -77.587709 
L 176.373502 -99.28338 
L 193.459672 -95.390022 
L 210.545605 -104.619317 
L 227.631391 -114.786426 
L 244.717088 -127.071862 
L 261.802728 -141.187688 
L 278.888334 -149.423456 
L 295.973919 -159.937767 
L 313.059491 -171.7312 
L 330.145054 -185.938225 
L 347.230612 -196.74632 
L 364.316167 -210.047057 
L 381.401721 -222.809665 
L 398.487273 -221.71353 
L 398.487273 -224.080829 
L 398.487273 -224.080829 
L 381.401721 -223.196553 
L 364.316167 -210.068695 
L 347.230612 -198.652881 
L 330.145054 -187.518534 
L 313.059491 -172.688032 
L 295.973919 -161.048701 
L 278.888334 -151.254502 
L 261.802728 -141.588132 
L 244.717088 -130.721574 
L 227.631391 -114.820565 
L 210.545605 -109.08407 
L 193.459672 -103.126715 
L 176.373502 -101.13731 
L 159.286949 -100.430547 
L 142.199778 -95.750929 
L 125.111601 -96.851206 
L 108.021808 -87.649237 
L 90.929375 -92.180132 
L 73.832727 -86.864524 
z
" style="stroke: #ff7f0e; stroke-opacity: 0.2; stroke-width: 0.8"/>
    </defs>
    <g clip-path="url(#p249d5944ee)">
     <use xlink:href="#m7fa7c8d1a5" x="0" y="345.6" style="fill: #ff7f0e; fill-opacity: 0.2; stroke: #ff7f0e; stroke-opacity: 0.2; stroke-width: 0.8"/>
    </g>
   </g>
   <g id="PolyCollection_4">
    <defs>
     <path id="m366d7c8768" d="M 73.832727 -87.191747 
L 73.832727 -78.023364 
L 90.929375 -87.876045 
L 108.021808 -84.324397 
L 125.111601 -67.115701 
L 142.199778 -67.443706 
L 159.286949 -73.161179 
L 176.373502 -80.752693 
L 193.459672 -90.617975 
L 210.545605 -99.524295 
L 227.631391 -109.83953 
L 244.717088 -120.145919 
L 261.802728 -131.634967 
L 278.888334 -142.952894 
L 295.973919 -154.25727 
L 313.059491 -167.065758 
L 330.145054 -178.255696 
L 347.230612 -189.982938 
L 364.316167 -201.50589 
L 381.401721 -213.799473 
L 398.487273 -214.00258 
L 398.487273 -214.127733 
L 398.487273 -214.127733 
L 381.401721 -214.647705 
L 364.316167 -201.61193 
L 347.230612 -190.72225 
L 330.145054 -179.225322 
L 313.059491 -167.306774 
L 295.973919 -154.925689 
L 278.888334 -143.190006 
L 261.802728 -134.574713 
L 244.717088 -120.372684 
L 227.631391 -114.250286 
L 210.545605 -104.698716 
L 193.459672 -103.829791 
L 176.373502 -97.794993 
L 159.286949 -74.385134 
L 142.199778 -77.206757 
L 125.111601 -92.773561 
L 108.021808 -87.24614 
L 90.929375 -99.513501 
L 73.832727 -87.191747 
z
" style="stroke: #ffbb78; stroke-opacity: 0.2; stroke-width: 0.8"/>
    </defs>
    <g clip-path="url(#p249d5944ee)">
     <use xlink:href="#m366d7c8768" x="0" y="345.6" style="fill: #ffbb78; fill-opacity: 0.2; stroke: #ffbb78; stroke-opacity: 0.2; stroke-width: 0.8"/>
    </g>
   </g>
   <g id="PolyCollection_5">
    <defs>
     <path id="mb515bf0026" d="M 73.832727 -162.576971 
L 73.832727 -160.54587 
L 90.929375 -158.962783 
L 108.021808 -158.672414 
L 125.111601 -158.376181 
L 142.199778 -158.906209 
L 159.286949 -158.432606 
L 176.373502 -158.514116 
L 193.459672 -161.607727 
L 210.545605 -160.378838 
L 227.631391 -161.256303 
L 244.717088 -164.539785 
L 261.802728 -166.009478 
L 278.888334 -167.135562 
L 295.973919 -168.988781 
L 313.059491 -170.90299 
L 330.145054 -174.423033 
L 347.230612 -177.352663 
L 364.316167 -182.305406 
L 381.401721 -183.693315 
L 398.487273 -185.640237 
L 398.487273 -186.20576 
L 398.487273 -186.20576 
L 381.401721 -184.085027 
L 364.316167 -183.79873 
L 347.230612 -179.709544 
L 330.145054 -174.713907 
L 313.059491 -171.906299 
L 295.973919 -170.064258 
L 278.888334 -167.85384 
L 261.802728 -168.17351 
L 244.717088 -164.555918 
L 227.631391 -161.511135 
L 210.545605 -162.685335 
L 193.459672 -161.923586 
L 176.373502 -158.765111 
L 159.286949 -159.015725 
L 142.199778 -160.111247 
L 125.111601 -159.644574 
L 108.021808 -160.872491 
L 90.929375 -159.843492 
L 73.832727 -162.576971 
z
" style="stroke: #2ca02c; stroke-opacity: 0.2; stroke-width: 0.8"/>
    </defs>
    <g clip-path="url(#p249d5944ee)">
     <use xlink:href="#mb515bf0026" x="0" y="345.6" style="fill: #2ca02c; fill-opacity: 0.2; stroke: #2ca02c; stroke-opacity: 0.2; stroke-width: 0.8"/>
    </g>
   </g>
   <g id="PolyCollection_6">
    <defs>
     <path id="m2459d4cd86" d="M 73.832727 -75.621474 
L 73.832727 -70.824263 
L 90.929375 -70.060216 
L 108.021808 -67.615607 
L 125.111601 -69.869867 
L 142.199778 -69.844966 
L 159.286949 -75.157643 
L 176.373502 -80.657527 
L 193.459672 -90.204244 
L 210.545605 -98.711823 
L 227.631391 -109.187102 
L 244.717088 -120.161178 
L 261.802728 -131.557764 
L 278.888334 -143.754026 
L 295.973919 -154.539039 
L 313.059491 -166.25988 
L 330.145054 -178.25894 
L 347.230612 -190.641449 
L 364.316167 -202.597909 
L 381.401721 -213.417864 
L 398.487273 -213.463241 
L 398.487273 -214.906588 
L 398.487273 -214.906588 
L 381.401721 -214.170866 
L 364.316167 -202.887122 
L 347.230612 -191.465104 
L 330.145054 -178.538974 
L 313.059491 -166.908101 
L 295.973919 -155.062831 
L 278.888334 -143.913657 
L 261.802728 -131.627668 
L 244.717088 -121.239218 
L 227.631391 -109.32135 
L 210.545605 -98.984471 
L 193.459672 -90.850117 
L 176.373502 -81.106481 
L 159.286949 -76.160152 
L 142.199778 -73.631918 
L 125.111601 -71.895824 
L 108.021808 -73.923043 
L 90.929375 -72.862747 
L 73.832727 -75.621474 
z
" style="stroke: #98df8a; stroke-opacity: 0.2; stroke-width: 0.8"/>
    </defs>
    <g clip-path="url(#p249d5944ee)">
     <use xlink:href="#m2459d4cd86" x="0" y="345.6" style="fill: #98df8a; fill-opacity: 0.2; stroke: #98df8a; stroke-opacity: 0.2; stroke-width: 0.8"/>
    </g>
   </g>
   <g id="PolyCollection_7">
    <defs>
     <path id="m2bcb8438ac" d="M 73.832727 -70.670616 
L 73.832727 -68.897825 
L 90.929375 -68.532009 
L 108.021808 -67.839298 
L 125.111601 -67.562472 
L 142.199778 -70.783313 
L 159.286949 -77.236728 
L 176.373502 -84.157864 
L 193.459672 -94.14357 
L 210.545605 -102.991575 
L 227.631391 -114.398315 
L 244.717088 -125.300912 
L 261.802728 -136.498486 
L 278.888334 -148.147929 
L 295.973919 -160.370001 
L 313.059491 -171.252952 
L 330.145054 -184.644613 
L 347.230612 -196.5568 
L 364.316167 -209.521941 
L 381.401721 -221.736953 
L 398.487273 -221.550775 
L 398.487273 -222.382887 
L 398.487273 -222.382887 
L 381.401721 -223.754248 
L 364.316167 -209.849518 
L 347.230612 -197.496698 
L 330.145054 -186.894732 
L 313.059491 -172.959573 
L 295.973919 -164.122988 
L 278.888334 -148.291793 
L 261.802728 -136.626897 
L 244.717088 -127.057609 
L 227.631391 -114.557721 
L 210.545605 -104.140809 
L 193.459672 -94.626701 
L 176.373502 -84.314478 
L 159.286949 -77.990463 
L 142.199778 -74.058648 
L 125.111601 -69.065423 
L 108.021808 -86.712004 
L 90.929375 -69.108256 
L 73.832727 -70.670616 
z
" style="stroke: #d62728; stroke-opacity: 0.2; stroke-width: 0.8"/>
    </defs>
    <g clip-path="url(#p249d5944ee)">
     <use xlink:href="#m2bcb8438ac" x="0" y="345.6" style="fill: #d62728; fill-opacity: 0.2; stroke: #d62728; stroke-opacity: 0.2; stroke-width: 0.8"/>
    </g>
   </g>
   <g id="line2d_85">
    <path d="M 73.832727 218.449273 
L 90.929375 227.984262 
L 108.021808 228.613507 
L 125.111601 227.369725 
L 142.199778 235.030936 
L 159.286949 237.984202 
L 176.373502 240.354753 
L 193.459672 236.471389 
L 210.545605 238.8705 
L 227.631391 239.322107 
L 244.717088 244.932292 
L 261.802728 234.463575 
L 278.888334 236.00068 
L 295.973919 234.108521 
L 313.059491 221.461554 
L 330.145054 214.661475 
L 347.230612 208.865345 
L 364.316167 206.369809 
L 381.401721 196.668736 
L 398.487273 195.384453 
" clip-path="url(#p249d5944ee)" style="fill: none; stroke: #1f77b4; stroke-width: 1.2; stroke-linecap: round"/>
   </g>
   <g id="line2d_86">
    <path d="M 73.832727 248.153833 
L 90.929375 249.869833 
L 108.021808 251.989038 
L 125.111601 252.310914 
L 142.199778 253.901897 
L 159.286949 252.418104 
L 176.373502 251.90804 
L 193.459672 251.734015 
L 210.545605 250.582014 
L 227.631391 244.702831 
L 244.717088 242.311434 
L 261.802728 236.723919 
L 278.888334 230.357019 
L 295.973919 222.495495 
L 313.059491 212.634199 
L 330.145054 203.235413 
L 347.230612 192.331544 
L 364.316167 181.405077 
L 381.401721 170.053931 
L 398.487273 170.664403 
" clip-path="url(#p249d5944ee)" style="fill: none; stroke: #aec7e8; stroke-width: 1.2; stroke-linecap: round"/>
   </g>
   <g id="line2d_87">
    <path d="M 73.832727 260.451839 
L 90.929375 263.632607 
L 108.021808 259.266759 
L 125.111601 259.033557 
L 142.199778 256.712576 
L 159.286949 254.029099 
L 176.373502 245.372191 
L 193.459672 246.038667 
L 210.545605 238.647134 
L 227.631391 230.796499 
L 244.717088 216.635645 
L 261.802728 204.211275 
L 278.888334 195.243985 
L 295.973919 185.100494 
L 313.059491 173.385731 
L 330.145054 158.85893 
L 347.230612 147.88193 
L 364.316167 135.542121 
L 381.401721 122.59613 
L 398.487273 122.674349 
" clip-path="url(#p249d5944ee)" style="fill: none; stroke: #ff7f0e; stroke-width: 1.2; stroke-linecap: round"/>
   </g>
   <g id="line2d_88">
    <path d="M 73.832727 262.567678 
L 90.929375 251.22325 
L 108.021808 259.771371 
L 125.111601 262.45108 
L 142.199778 272.793482 
L 159.286949 271.81923 
L 176.373502 254.87866 
L 193.459672 247.499449 
L 210.545605 243.352667 
L 227.631391 233.456349 
L 244.717088 225.340437 
L 261.802728 212.451264 
L 278.888334 202.528264 
L 295.973919 191.00625 
L 313.059491 178.413439 
L 330.145054 166.854713 
L 347.230612 155.244629 
L 364.316167 144.041033 
L 381.401721 131.372754 
L 398.487273 131.534764 
" clip-path="url(#p249d5944ee)" style="fill: none; stroke: #ffbb78; stroke-width: 1.2; stroke-linecap: round"/>
   </g>
   <g id="line2d_89">
    <path d="M 73.832727 184.017619 
L 90.929375 186.192921 
L 108.021808 185.802955 
L 125.111601 186.581447 
L 142.199778 186.083892 
L 159.286949 186.874106 
L 176.373502 186.960066 
L 193.459672 183.833837 
L 210.545605 184.040886 
L 227.631391 184.215951 
L 244.717088 181.052147 
L 261.802728 178.484713 
L 278.888334 178.102677 
L 295.973919 176.067602 
L 313.059491 174.19024 
L 330.145054 171.0311 
L 347.230612 167.040675 
L 364.316167 162.5366 
L 381.401721 161.71005 
L 398.487273 159.675376 
" clip-path="url(#p249d5944ee)" style="fill: none; stroke: #2ca02c; stroke-width: 1.2; stroke-linecap: round"/>
   </g>
   <g id="line2d_90">
    <path d="M 73.832727 272.260355 
L 90.929375 274.098622 
L 108.021808 274.629032 
L 125.111601 274.6963 
L 142.199778 273.788744 
L 159.286949 269.935995 
L 176.373502 264.716972 
L 193.459672 255.0707 
L 210.545605 246.751475 
L 227.631391 236.345683 
L 244.717088 224.893896 
L 261.802728 214.007259 
L 278.888334 201.766029 
L 295.973919 190.797671 
L 313.059491 179.013874 
L 330.145054 167.200644 
L 347.230612 154.543276 
L 364.316167 142.857059 
L 381.401721 131.802753 
L 398.487273 131.404499 
" clip-path="url(#p249d5944ee)" style="fill: none; stroke: #98df8a; stroke-width: 1.2; stroke-linecap: round"/>
   </g>
   <g id="line2d_91">
    <path d="M 73.832727 275.79981 
L 90.929375 276.77818 
L 108.021808 266.556868 
L 125.111601 277.274574 
L 142.199778 273.124537 
L 159.286949 267.983517 
L 176.373502 261.363704 
L 193.459672 251.213678 
L 210.545605 242.027096 
L 227.631391 231.121853 
L 244.717088 219.405059 
L 261.802728 209.037225 
L 278.888334 197.380034 
L 295.973919 183.28199 
L 313.059491 173.478938 
L 330.145054 159.804605 
L 347.230612 148.568762 
L 364.316167 135.913725 
L 381.401721 122.833723 
L 398.487273 123.62965 
" clip-path="url(#p249d5944ee)" style="fill: none; stroke: #d62728; stroke-width: 1.2; stroke-linecap: round"/>
   </g>
   <g id="line2d_92"/>
   <g id="line2d_93"/>
   <g id="line2d_94"/>
   <g id="line2d_95"/>
   <g id="line2d_96"/>
   <g id="line2d_97"/>
   <g id="line2d_98"/>
   <g id="patch_3">
    <path d="M 57.6 307.584 
L 57.6 41.472 
" style="fill: none; stroke: #262626; stroke-linejoin: miter; stroke-linecap: square"/>
   </g>
   <g id="patch_4">
    <path d="M 414.72 307.584 
L 414.72 41.472 
" style="fill: none; stroke: #262626; stroke-linejoin: miter; stroke-linecap: square"/>
   </g>
   <g id="patch_5">
    <path d="M 57.6 307.584 
L 414.72 307.584 
" style="fill: none; stroke: #262626; stroke-linejoin: miter; stroke-linecap: square"/>
   </g>
   <g id="patch_6">
    <path d="M 57.6 41.472 
L 414.72 41.472 
" style="fill: none; stroke: #262626; stroke-linejoin: miter; stroke-linecap: square"/>
   </g>
   <g id="legend_1">
    <g id="patch_7">
     <path d="M 66.7 180.899031 
L 233.325469 180.899031 
Q 235.925469 180.899031 235.925469 178.299031 
L 235.925469 50.572 
Q 235.925469 47.972 233.325469 47.972 
L 66.7 47.972 
Q 64.1 47.972 64.1 50.572 
L 64.1 178.299031 
Q 64.1 180.899031 66.7 180.899031 
z
" style="fill: #ffffff; opacity: 0.8; stroke: #cccccc; stroke-width: 0.8; stroke-linejoin: miter"/>
    </g>
    <g id="line2d_99">
     <path d="M 69.3 57.927156 
L 82.3 57.927156 
L 95.3 57.927156 
" style="fill: none; stroke: #1f77b4; stroke-width: 1.2; stroke-linecap: round"/>
    </g>
    <g id="text_13">
     <!--  stack -->
     <g style="fill: #262626" transform="translate(105.7 62.477156)scale(0.13 -0.13)">
      <use xlink:href="#ArialMT-20"/>
      <use xlink:href="#ArialMT-73" x="27.783203"/>
      <use xlink:href="#ArialMT-74" x="77.783203"/>
      <use xlink:href="#ArialMT-61" x="105.566406"/>
      <use xlink:href="#ArialMT-63" x="161.181641"/>
      <use xlink:href="#ArialMT-6b" x="211.181641"/>
     </g>
    </g>
    <g id="line2d_100">
     <path d="M 69.3 76.316062 
L 82.3 76.316062 
L 95.3 76.316062 
" style="fill: none; stroke: #aec7e8; stroke-width: 1.2; stroke-linecap: round"/>
    </g>
    <g id="text_14">
     <!--  treadpriv -->
     <g style="fill: #262626" transform="translate(105.7 80.866062)scale(0.13 -0.13)">
      <defs>
       <path id="ArialMT-64" d="M 2575 0 
L 2575 419 
Q 2259 -75 1647 -75 
Q 1250 -75 917 144 
Q 584 363 401 755 
Q 219 1147 219 1656 
Q 219 2153 384 2558 
Q 550 2963 881 3178 
Q 1213 3394 1622 3394 
Q 1922 3394 2156 3267 
Q 2391 3141 2538 2938 
L 2538 4581 
L 3097 4581 
L 3097 0 
L 2575 0 
z
M 797 1656 
Q 797 1019 1065 703 
Q 1334 388 1700 388 
Q 2069 388 2326 689 
Q 2584 991 2584 1609 
Q 2584 2291 2321 2609 
Q 2059 2928 1675 2928 
Q 1300 2928 1048 2622 
Q 797 2316 797 1656 
z
" transform="scale(0.015625)"/>
       <path id="ArialMT-70" d="M 422 -1272 
L 422 3319 
L 934 3319 
L 934 2888 
Q 1116 3141 1344 3267 
Q 1572 3394 1897 3394 
Q 2322 3394 2647 3175 
Q 2972 2956 3137 2557 
Q 3303 2159 3303 1684 
Q 3303 1175 3120 767 
Q 2938 359 2589 142 
Q 2241 -75 1856 -75 
Q 1575 -75 1351 44 
Q 1128 163 984 344 
L 984 -1272 
L 422 -1272 
z
M 931 1641 
Q 931 1000 1190 694 
Q 1450 388 1819 388 
Q 2194 388 2461 705 
Q 2728 1022 2728 1688 
Q 2728 2322 2467 2637 
Q 2206 2953 1844 2953 
Q 1484 2953 1207 2617 
Q 931 2281 931 1641 
z
" transform="scale(0.015625)"/>
       <path id="ArialMT-69" d="M 425 3934 
L 425 4581 
L 988 4581 
L 988 3934 
L 425 3934 
z
M 425 0 
L 425 3319 
L 988 3319 
L 988 0 
L 425 0 
z
" transform="scale(0.015625)"/>
       <path id="ArialMT-76" d="M 1344 0 
L 81 3319 
L 675 3319 
L 1388 1331 
Q 1503 1009 1600 663 
Q 1675 925 1809 1294 
L 2547 3319 
L 3125 3319 
L 1869 0 
L 1344 0 
z
" transform="scale(0.015625)"/>
      </defs>
      <use xlink:href="#ArialMT-20"/>
      <use xlink:href="#ArialMT-74" x="27.783203"/>
      <use xlink:href="#ArialMT-72" x="55.566406"/>
      <use xlink:href="#ArialMT-65" x="88.867188"/>
      <use xlink:href="#ArialMT-61" x="144.482422"/>
      <use xlink:href="#ArialMT-64" x="200.097656"/>
      <use xlink:href="#ArialMT-70" x="255.712891"/>
      <use xlink:href="#ArialMT-72" x="311.328125"/>
      <use xlink:href="#ArialMT-69" x="344.628906"/>
      <use xlink:href="#ArialMT-76" x="366.845703"/>
     </g>
    </g>
    <g id="line2d_101">
     <path d="M 69.3 94.704969 
L 82.3 94.704969 
L 95.3 94.704969 
" style="fill: none; stroke: #ff7f0e; stroke-width: 1.2; stroke-linecap: round"/>
    </g>
    <g id="text_15">
     <!--  parallelred_untied -->
     <g style="fill: #262626" transform="translate(105.7 99.254969)scale(0.13 -0.13)">
      <defs>
       <path id="ArialMT-6c" d="M 409 0 
L 409 4581 
L 972 4581 
L 972 0 
L 409 0 
z
" transform="scale(0.015625)"/>
       <path id="ArialMT-5f" d="M -97 -1272 
L -97 -866 
L 3631 -866 
L 3631 -1272 
L -97 -1272 
z
" transform="scale(0.015625)"/>
       <path id="ArialMT-6e" d="M 422 0 
L 422 3319 
L 928 3319 
L 928 2847 
Q 1294 3394 1984 3394 
Q 2284 3394 2536 3286 
Q 2788 3178 2913 3003 
Q 3038 2828 3088 2588 
Q 3119 2431 3119 2041 
L 3119 0 
L 2556 0 
L 2556 2019 
Q 2556 2363 2490 2533 
Q 2425 2703 2258 2804 
Q 2091 2906 1866 2906 
Q 1506 2906 1245 2678 
Q 984 2450 984 1813 
L 984 0 
L 422 0 
z
" transform="scale(0.015625)"/>
      </defs>
      <use xlink:href="#ArialMT-20"/>
      <use xlink:href="#ArialMT-70" x="27.783203"/>
      <use xlink:href="#ArialMT-61" x="83.398438"/>
      <use xlink:href="#ArialMT-72" x="139.013672"/>
      <use xlink:href="#ArialMT-61" x="172.314453"/>
      <use xlink:href="#ArialMT-6c" x="227.929688"/>
      <use xlink:href="#ArialMT-6c" x="250.146484"/>
      <use xlink:href="#ArialMT-65" x="272.363281"/>
      <use xlink:href="#ArialMT-6c" x="327.978516"/>
      <use xlink:href="#ArialMT-72" x="350.195312"/>
      <use xlink:href="#ArialMT-65" x="383.496094"/>
      <use xlink:href="#ArialMT-64" x="439.111328"/>
      <use xlink:href="#ArialMT-5f" x="494.726562"/>
      <use xlink:href="#ArialMT-75" x="550.341797"/>
      <use xlink:href="#ArialMT-6e" x="605.957031"/>
      <use xlink:href="#ArialMT-74" x="661.572266"/>
      <use xlink:href="#ArialMT-69" x="689.355469"/>
      <use xlink:href="#ArialMT-65" x="711.572266"/>
      <use xlink:href="#ArialMT-64" x="767.1875"/>
     </g>
    </g>
    <g id="line2d_102">
     <path d="M 69.3 113.093875 
L 82.3 113.093875 
L 95.3 113.093875 
" style="fill: none; stroke: #ffbb78; stroke-width: 1.2; stroke-linecap: round"/>
    </g>
    <g id="text_16">
     <!--  parallelred -->
     <g style="fill: #262626" transform="translate(105.7 117.643875)scale(0.13 -0.13)">
      <use xlink:href="#ArialMT-20"/>
      <use xlink:href="#ArialMT-70" x="27.783203"/>
      <use xlink:href="#ArialMT-61" x="83.398438"/>
      <use xlink:href="#ArialMT-72" x="139.013672"/>
      <use xlink:href="#ArialMT-61" x="172.314453"/>
      <use xlink:href="#ArialMT-6c" x="227.929688"/>
      <use xlink:href="#ArialMT-6c" x="250.146484"/>
      <use xlink:href="#ArialMT-65" x="272.363281"/>
      <use xlink:href="#ArialMT-6c" x="327.978516"/>
      <use xlink:href="#ArialMT-72" x="350.195312"/>
      <use xlink:href="#ArialMT-65" x="383.496094"/>
      <use xlink:href="#ArialMT-64" x="439.111328"/>
     </g>
    </g>
    <g id="line2d_103">
     <path d="M 69.3 131.482781 
L 82.3 131.482781 
L 95.3 131.482781 
" style="fill: none; stroke: #2ca02c; stroke-width: 1.2; stroke-linecap: round"/>
    </g>
    <g id="text_17">
     <!--  atomic -->
     <g style="fill: #262626" transform="translate(105.7 136.032781)scale(0.13 -0.13)">
      <use xlink:href="#ArialMT-20"/>
      <use xlink:href="#ArialMT-61" x="27.783203"/>
      <use xlink:href="#ArialMT-74" x="83.398438"/>
      <use xlink:href="#ArialMT-6f" x="111.181641"/>
      <use xlink:href="#ArialMT-6d" x="166.796875"/>
      <use xlink:href="#ArialMT-69" x="250.097656"/>
      <use xlink:href="#ArialMT-63" x="272.314453"/>
     </g>
    </g>
    <g id="line2d_104">
     <path d="M 69.3 149.871687 
L 82.3 149.871687 
L 95.3 149.871687 
" style="fill: none; stroke: #98df8a; stroke-width: 1.2; stroke-linecap: round"/>
    </g>
    <g id="text_18">
     <!--  parallelred_tg -->
     <g style="fill: #262626" transform="translate(105.7 154.421687)scale(0.13 -0.13)">
      <defs>
       <path id="ArialMT-67" d="M 319 -275 
L 866 -356 
Q 900 -609 1056 -725 
Q 1266 -881 1628 -881 
Q 2019 -881 2231 -725 
Q 2444 -569 2519 -288 
Q 2563 -116 2559 434 
Q 2191 0 1641 0 
Q 956 0 581 494 
Q 206 988 206 1678 
Q 206 2153 378 2554 
Q 550 2956 876 3175 
Q 1203 3394 1644 3394 
Q 2231 3394 2613 2919 
L 2613 3319 
L 3131 3319 
L 3131 450 
Q 3131 -325 2973 -648 
Q 2816 -972 2473 -1159 
Q 2131 -1347 1631 -1347 
Q 1038 -1347 672 -1080 
Q 306 -813 319 -275 
z
M 784 1719 
Q 784 1066 1043 766 
Q 1303 466 1694 466 
Q 2081 466 2343 764 
Q 2606 1063 2606 1700 
Q 2606 2309 2336 2618 
Q 2066 2928 1684 2928 
Q 1309 2928 1046 2623 
Q 784 2319 784 1719 
z
" transform="scale(0.015625)"/>
      </defs>
      <use xlink:href="#ArialMT-20"/>
      <use xlink:href="#ArialMT-70" x="27.783203"/>
      <use xlink:href="#ArialMT-61" x="83.398438"/>
      <use xlink:href="#ArialMT-72" x="139.013672"/>
      <use xlink:href="#ArialMT-61" x="172.314453"/>
      <use xlink:href="#ArialMT-6c" x="227.929688"/>
      <use xlink:href="#ArialMT-6c" x="250.146484"/>
      <use xlink:href="#ArialMT-65" x="272.363281"/>
      <use xlink:href="#ArialMT-6c" x="327.978516"/>
      <use xlink:href="#ArialMT-72" x="350.195312"/>
      <use xlink:href="#ArialMT-65" x="383.496094"/>
      <use xlink:href="#ArialMT-64" x="439.111328"/>
      <use xlink:href="#ArialMT-5f" x="494.726562"/>
      <use xlink:href="#ArialMT-74" x="550.341797"/>
      <use xlink:href="#ArialMT-67" x="578.125"/>
     </g>
    </g>
    <g id="line2d_105">
     <path d="M 69.3 168.412937 
L 82.3 168.412937 
L 95.3 168.412937 
" style="fill: none; stroke: #d62728; stroke-width: 1.2; stroke-linecap: round"/>
    </g>
    <g id="text_19">
     <!--  parallelred_tg_untied -->
     <g style="fill: #262626" transform="translate(105.7 172.962937)scale(0.13 -0.13)">
      <use xlink:href="#ArialMT-20"/>
      <use xlink:href="#ArialMT-70" x="27.783203"/>
      <use xlink:href="#ArialMT-61" x="83.398438"/>
      <use xlink:href="#ArialMT-72" x="139.013672"/>
      <use xlink:href="#ArialMT-61" x="172.314453"/>
      <use xlink:href="#ArialMT-6c" x="227.929688"/>
      <use xlink:href="#ArialMT-6c" x="250.146484"/>
      <use xlink:href="#ArialMT-65" x="272.363281"/>
      <use xlink:href="#ArialMT-6c" x="327.978516"/>
      <use xlink:href="#ArialMT-72" x="350.195312"/>
      <use xlink:href="#ArialMT-65" x="383.496094"/>
      <use xlink:href="#ArialMT-64" x="439.111328"/>
      <use xlink:href="#ArialMT-5f" x="494.726562"/>
      <use xlink:href="#ArialMT-74" x="550.341797"/>
      <use xlink:href="#ArialMT-67" x="578.125"/>
      <use xlink:href="#ArialMT-5f" x="633.740234"/>
      <use xlink:href="#ArialMT-75" x="689.355469"/>
      <use xlink:href="#ArialMT-6e" x="744.970703"/>
      <use xlink:href="#ArialMT-74" x="800.585938"/>
      <use xlink:href="#ArialMT-69" x="828.369141"/>
      <use xlink:href="#ArialMT-65" x="850.585938"/>
      <use xlink:href="#ArialMT-64" x="906.201172"/>
     </g>
    </g>
   </g>
  </g>
 </g>
 <defs>
  <clipPath id="p249d5944ee">
   <rect x="57.6" y="41.472" width="357.12" height="266.112"/>
  </clipPath>
 </defs>
</svg>
