<?xml version="1.0" encoding="utf-8" standalone="no"?>
<!DOCTYPE svg PUBLIC "-//W3C//DTD SVG 1.1//EN"
  "http://www.w3.org/Graphics/SVG/1.1/DTD/svg11.dtd">
<svg xmlns:xlink="http://www.w3.org/1999/xlink" width="460.8pt" height="345.6pt" viewBox="0 0 460.8 345.6" xmlns="http://www.w3.org/2000/svg" version="1.1">
 <metadata>
  <rdf:RDF xmlns:dc="http://purl.org/dc/elements/1.1/" xmlns:cc="http://creativecommons.org/ns#" xmlns:rdf="http://www.w3.org/1999/02/22-rdf-syntax-ns#">
   <cc:Work>
    <dc:type rdf:resource="http://purl.org/dc/dcmitype/StillImage"/>
    <dc:date>2022-05-24T18:15:23.115846</dc:date>
    <dc:format>image/svg+xml</dc:format>
    <dc:creator>
     <cc:Agent>
      <dc:title>Matplotlib v3.5.1, https://matplotlib.org/</dc:title>
     </cc:Agent>
    </dc:creator>
   </cc:Work>
  </rdf:RDF>
 </metadata>
 <defs>
  <style type="text/css">*{stroke-linejoin: round; stroke-linecap: butt}</style>
 </defs>
 <g id="figure_1">
  <g id="patch_1">
   <path d="M 0 345.6 
L 460.8 345.6 
L 460.8 0 
L 0 0 
z
" style="fill: #ffffff"/>
  </g>
  <g id="axes_1">
   <g id="patch_2">
    <path d="M 57.6 307.584 
L 414.72 307.584 
L 414.72 41.472 
L 57.6 41.472 
z
" style="fill: #ffffff"/>
   </g>
   <g id="matplotlib.axis_1">
    <g id="xtick_1">
     <g id="line2d_1">
      <defs>
       <path id="m0061ef8e8f" d="M 0 0 
L 0 4.8 
" style="stroke: #262626"/>
      </defs>
      <g>
       <use xlink:href="#m0061ef8e8f" x="94.123636" y="307.584" style="fill: #262626; stroke: #262626"/>
      </g>
     </g>
     <g id="text_1">
      <!-- 16 -->
      <g style="fill: #262626" transform="translate(89.230011 322.182875)scale(0.088 -0.088)">
       <defs>
        <path id="ArialMT-31" d="M 2384 0 
L 1822 0 
L 1822 3584 
Q 1619 3391 1289 3197 
Q 959 3003 697 2906 
L 697 3450 
Q 1169 3672 1522 3987 
Q 1875 4303 2022 4600 
L 2384 4600 
L 2384 0 
z
" transform="scale(0.015625)"/>
        <path id="ArialMT-36" d="M 3184 3459 
L 2625 3416 
Q 2550 3747 2413 3897 
Q 2184 4138 1850 4138 
Q 1581 4138 1378 3988 
Q 1113 3794 959 3422 
Q 806 3050 800 2363 
Q 1003 2672 1297 2822 
Q 1591 2972 1913 2972 
Q 2475 2972 2870 2558 
Q 3266 2144 3266 1488 
Q 3266 1056 3080 686 
Q 2894 316 2569 119 
Q 2244 -78 1831 -78 
Q 1128 -78 684 439 
Q 241 956 241 2144 
Q 241 3472 731 4075 
Q 1159 4600 1884 4600 
Q 2425 4600 2770 4297 
Q 3116 3994 3184 3459 
z
M 888 1484 
Q 888 1194 1011 928 
Q 1134 663 1356 523 
Q 1578 384 1822 384 
Q 2178 384 2434 671 
Q 2691 959 2691 1453 
Q 2691 1928 2437 2201 
Q 2184 2475 1800 2475 
Q 1419 2475 1153 2201 
Q 888 1928 888 1484 
z
" transform="scale(0.015625)"/>
       </defs>
       <use xlink:href="#ArialMT-31"/>
       <use xlink:href="#ArialMT-36" x="55.615234"/>
      </g>
     </g>
    </g>
    <g id="xtick_2">
     <g id="line2d_2">
      <g>
       <use xlink:href="#m0061ef8e8f" x="134.705455" y="307.584" style="fill: #262626; stroke: #262626"/>
      </g>
     </g>
     <g id="text_2">
      <!-- 18 -->
      <g style="fill: #262626" transform="translate(129.81183 322.182875)scale(0.088 -0.088)">
       <defs>
        <path id="ArialMT-38" d="M 1131 2484 
Q 781 2613 612 2850 
Q 444 3088 444 3419 
Q 444 3919 803 4259 
Q 1163 4600 1759 4600 
Q 2359 4600 2725 4251 
Q 3091 3903 3091 3403 
Q 3091 3084 2923 2848 
Q 2756 2613 2416 2484 
Q 2838 2347 3058 2040 
Q 3278 1734 3278 1309 
Q 3278 722 2862 322 
Q 2447 -78 1769 -78 
Q 1091 -78 675 323 
Q 259 725 259 1325 
Q 259 1772 486 2073 
Q 713 2375 1131 2484 
z
M 1019 3438 
Q 1019 3113 1228 2906 
Q 1438 2700 1772 2700 
Q 2097 2700 2305 2904 
Q 2513 3109 2513 3406 
Q 2513 3716 2298 3927 
Q 2084 4138 1766 4138 
Q 1444 4138 1231 3931 
Q 1019 3725 1019 3438 
z
M 838 1322 
Q 838 1081 952 856 
Q 1066 631 1291 507 
Q 1516 384 1775 384 
Q 2178 384 2440 643 
Q 2703 903 2703 1303 
Q 2703 1709 2433 1975 
Q 2163 2241 1756 2241 
Q 1359 2241 1098 1978 
Q 838 1716 838 1322 
z
" transform="scale(0.015625)"/>
       </defs>
       <use xlink:href="#ArialMT-31"/>
       <use xlink:href="#ArialMT-38" x="55.615234"/>
      </g>
     </g>
    </g>
    <g id="xtick_3">
     <g id="line2d_3">
      <g>
       <use xlink:href="#m0061ef8e8f" x="175.287273" y="307.584" style="fill: #262626; stroke: #262626"/>
      </g>
     </g>
     <g id="text_3">
      <!-- 20 -->
      <g style="fill: #262626" transform="translate(170.393648 322.182875)scale(0.088 -0.088)">
       <defs>
        <path id="ArialMT-32" d="M 3222 541 
L 3222 0 
L 194 0 
Q 188 203 259 391 
Q 375 700 629 1000 
Q 884 1300 1366 1694 
Q 2113 2306 2375 2664 
Q 2638 3022 2638 3341 
Q 2638 3675 2398 3904 
Q 2159 4134 1775 4134 
Q 1369 4134 1125 3890 
Q 881 3647 878 3216 
L 300 3275 
Q 359 3922 746 4261 
Q 1134 4600 1788 4600 
Q 2447 4600 2831 4234 
Q 3216 3869 3216 3328 
Q 3216 3053 3103 2787 
Q 2991 2522 2730 2228 
Q 2469 1934 1863 1422 
Q 1356 997 1212 845 
Q 1069 694 975 541 
L 3222 541 
z
" transform="scale(0.015625)"/>
        <path id="ArialMT-30" d="M 266 2259 
Q 266 3072 433 3567 
Q 600 4063 929 4331 
Q 1259 4600 1759 4600 
Q 2128 4600 2406 4451 
Q 2684 4303 2865 4023 
Q 3047 3744 3150 3342 
Q 3253 2941 3253 2259 
Q 3253 1453 3087 958 
Q 2922 463 2592 192 
Q 2263 -78 1759 -78 
Q 1097 -78 719 397 
Q 266 969 266 2259 
z
M 844 2259 
Q 844 1131 1108 757 
Q 1372 384 1759 384 
Q 2147 384 2411 759 
Q 2675 1134 2675 2259 
Q 2675 3391 2411 3762 
Q 2147 4134 1753 4134 
Q 1366 4134 1134 3806 
Q 844 3388 844 2259 
z
" transform="scale(0.015625)"/>
       </defs>
       <use xlink:href="#ArialMT-32"/>
       <use xlink:href="#ArialMT-30" x="55.615234"/>
      </g>
     </g>
    </g>
    <g id="xtick_4">
     <g id="line2d_4">
      <g>
       <use xlink:href="#m0061ef8e8f" x="215.869091" y="307.584" style="fill: #262626; stroke: #262626"/>
      </g>
     </g>
     <g id="text_4">
      <!-- 22 -->
      <g style="fill: #262626" transform="translate(210.975466 322.182875)scale(0.088 -0.088)">
       <use xlink:href="#ArialMT-32"/>
       <use xlink:href="#ArialMT-32" x="55.615234"/>
      </g>
     </g>
    </g>
    <g id="xtick_5">
     <g id="line2d_5">
      <g>
       <use xlink:href="#m0061ef8e8f" x="256.450909" y="307.584" style="fill: #262626; stroke: #262626"/>
      </g>
     </g>
     <g id="text_5">
      <!-- 24 -->
      <g style="fill: #262626" transform="translate(251.557284 322.182875)scale(0.088 -0.088)">
       <defs>
        <path id="ArialMT-34" d="M 2069 0 
L 2069 1097 
L 81 1097 
L 81 1613 
L 2172 4581 
L 2631 4581 
L 2631 1613 
L 3250 1613 
L 3250 1097 
L 2631 1097 
L 2631 0 
L 2069 0 
z
M 2069 1613 
L 2069 3678 
L 634 1613 
L 2069 1613 
z
" transform="scale(0.015625)"/>
       </defs>
       <use xlink:href="#ArialMT-32"/>
       <use xlink:href="#ArialMT-34" x="55.615234"/>
      </g>
     </g>
    </g>
    <g id="xtick_6">
     <g id="line2d_6">
      <g>
       <use xlink:href="#m0061ef8e8f" x="297.032727" y="307.584" style="fill: #262626; stroke: #262626"/>
      </g>
     </g>
     <g id="text_6">
      <!-- 26 -->
      <g style="fill: #262626" transform="translate(292.139102 322.182875)scale(0.088 -0.088)">
       <use xlink:href="#ArialMT-32"/>
       <use xlink:href="#ArialMT-36" x="55.615234"/>
      </g>
     </g>
    </g>
    <g id="xtick_7">
     <g id="line2d_7">
      <g>
       <use xlink:href="#m0061ef8e8f" x="337.614545" y="307.584" style="fill: #262626; stroke: #262626"/>
      </g>
     </g>
     <g id="text_7">
      <!-- 28 -->
      <g style="fill: #262626" transform="translate(332.72092 322.182875)scale(0.088 -0.088)">
       <use xlink:href="#ArialMT-32"/>
       <use xlink:href="#ArialMT-38" x="55.615234"/>
      </g>
     </g>
    </g>
    <g id="xtick_8">
     <g id="line2d_8">
      <g>
       <use xlink:href="#m0061ef8e8f" x="378.196364" y="307.584" style="fill: #262626; stroke: #262626"/>
      </g>
     </g>
     <g id="text_8">
      <!-- 30 -->
      <g style="fill: #262626" transform="translate(373.302739 322.182875)scale(0.088 -0.088)">
       <defs>
        <path id="ArialMT-33" d="M 269 1209 
L 831 1284 
Q 928 806 1161 595 
Q 1394 384 1728 384 
Q 2125 384 2398 659 
Q 2672 934 2672 1341 
Q 2672 1728 2419 1979 
Q 2166 2231 1775 2231 
Q 1616 2231 1378 2169 
L 1441 2663 
Q 1497 2656 1531 2656 
Q 1891 2656 2178 2843 
Q 2466 3031 2466 3422 
Q 2466 3731 2256 3934 
Q 2047 4138 1716 4138 
Q 1388 4138 1169 3931 
Q 950 3725 888 3313 
L 325 3413 
Q 428 3978 793 4289 
Q 1159 4600 1703 4600 
Q 2078 4600 2393 4439 
Q 2709 4278 2876 4000 
Q 3044 3722 3044 3409 
Q 3044 3113 2884 2869 
Q 2725 2625 2413 2481 
Q 2819 2388 3044 2092 
Q 3269 1797 3269 1353 
Q 3269 753 2831 336 
Q 2394 -81 1725 -81 
Q 1122 -81 723 278 
Q 325 638 269 1209 
z
" transform="scale(0.015625)"/>
       </defs>
       <use xlink:href="#ArialMT-33"/>
       <use xlink:href="#ArialMT-30" x="55.615234"/>
      </g>
     </g>
    </g>
    <g id="text_9">
     <!-- N -->
     <g style="fill: #262626" transform="translate(231.465781 337.237031)scale(0.13 -0.13)">
      <defs>
       <path id="ArialMT-4e" d="M 488 0 
L 488 4581 
L 1109 4581 
L 3516 984 
L 3516 4581 
L 4097 4581 
L 4097 0 
L 3475 0 
L 1069 3600 
L 1069 0 
L 488 0 
z
" transform="scale(0.015625)"/>
      </defs>
      <use xlink:href="#ArialMT-4e"/>
     </g>
    </g>
   </g>
   <g id="matplotlib.axis_2">
    <g id="ytick_1">
     <g id="line2d_9">
      <defs>
       <path id="mb48cc580f0" d="M 0 0 
L -4.8 0 
" style="stroke: #262626"/>
      </defs>
      <g>
       <use xlink:href="#mb48cc580f0" x="57.6" y="307.584" style="fill: #262626; stroke: #262626"/>
      </g>
     </g>
     <g id="text_10">
      <!-- $\mathdefault{10^{-4}}$ -->
      <g style="fill: #262626" transform="translate(31.876 312.0775)scale(0.088 -0.088)">
       <defs>
        <path id="ArialMT-2212" d="M 3381 1997 
L 356 1997 
L 356 2522 
L 3381 2522 
L 3381 1997 
z
" transform="scale(0.015625)"/>
       </defs>
       <use xlink:href="#ArialMT-31" transform="translate(0 0.201563)"/>
       <use xlink:href="#ArialMT-30" transform="translate(55.615234 0.201563)"/>
       <use xlink:href="#ArialMT-2212" transform="translate(112.972813 69.895313)scale(0.7)"/>
       <use xlink:href="#ArialMT-34" transform="translate(153.851719 69.895313)scale(0.7)"/>
      </g>
     </g>
    </g>
    <g id="ytick_2">
     <g id="line2d_10">
      <g>
       <use xlink:href="#mb48cc580f0" x="57.6" y="248.145806" style="fill: #262626; stroke: #262626"/>
      </g>
     </g>
     <g id="text_11">
      <!-- $\mathdefault{10^{-3}}$ -->
      <g style="fill: #262626" transform="translate(31.876 252.683306)scale(0.088 -0.088)">
       <use xlink:href="#ArialMT-31" transform="translate(0 0.99375)"/>
       <use xlink:href="#ArialMT-30" transform="translate(55.615234 0.99375)"/>
       <use xlink:href="#ArialMT-2212" transform="translate(112.972813 70.6875)scale(0.7)"/>
       <use xlink:href="#ArialMT-33" transform="translate(153.851719 70.6875)scale(0.7)"/>
      </g>
     </g>
    </g>
    <g id="ytick_3">
     <g id="line2d_11">
      <g>
       <use xlink:href="#mb48cc580f0" x="57.6" y="188.707613" style="fill: #262626; stroke: #262626"/>
      </g>
     </g>
     <g id="text_12">
      <!-- $\mathdefault{10^{-2}}$ -->
      <g style="fill: #262626" transform="translate(31.876 193.245113)scale(0.088 -0.088)">
       <use xlink:href="#ArialMT-31" transform="translate(0 0.99375)"/>
       <use xlink:href="#ArialMT-30" transform="translate(55.615234 0.99375)"/>
       <use xlink:href="#ArialMT-2212" transform="translate(112.972813 70.6875)scale(0.7)"/>
       <use xlink:href="#ArialMT-32" transform="translate(153.851719 70.6875)scale(0.7)"/>
      </g>
     </g>
    </g>
    <g id="ytick_4">
     <g id="line2d_12">
      <g>
       <use xlink:href="#mb48cc580f0" x="57.6" y="129.269419" style="fill: #262626; stroke: #262626"/>
      </g>
     </g>
     <g id="text_13">
      <!-- $\mathdefault{10^{-1}}$ -->
      <g style="fill: #262626" transform="translate(31.876 133.806919)scale(0.088 -0.088)">
       <use xlink:href="#ArialMT-31" transform="translate(0 0.99375)"/>
       <use xlink:href="#ArialMT-30" transform="translate(55.615234 0.99375)"/>
       <use xlink:href="#ArialMT-2212" transform="translate(112.972813 70.6875)scale(0.7)"/>
       <use xlink:href="#ArialMT-31" transform="translate(153.851719 70.6875)scale(0.7)"/>
      </g>
     </g>
    </g>
    <g id="ytick_5">
     <g id="line2d_13">
      <g>
       <use xlink:href="#mb48cc580f0" x="57.6" y="69.831226" style="fill: #262626; stroke: #262626"/>
      </g>
     </g>
     <g id="text_14">
      <!-- $\mathdefault{10^{0}}$ -->
      <g style="fill: #262626" transform="translate(35.484 74.368726)scale(0.088 -0.088)">
       <use xlink:href="#ArialMT-31" transform="translate(0 0.99375)"/>
       <use xlink:href="#ArialMT-30" transform="translate(55.615234 0.99375)"/>
       <use xlink:href="#ArialMT-30" transform="translate(112.972813 70.6875)scale(0.7)"/>
      </g>
     </g>
    </g>
    <g id="ytick_6">
     <g id="line2d_14">
      <defs>
       <path id="m801ae22c43" d="M 0 0 
L -3.2 0 
" style="stroke: #262626; stroke-width: 0.8"/>
      </defs>
      <g>
       <use xlink:href="#m801ae22c43" x="57.6" y="289.691321" style="fill: #262626; stroke: #262626; stroke-width: 0.8"/>
      </g>
     </g>
    </g>
    <g id="ytick_7">
     <g id="line2d_15">
      <g>
       <use xlink:href="#m801ae22c43" x="57.6" y="279.224774" style="fill: #262626; stroke: #262626; stroke-width: 0.8"/>
      </g>
     </g>
    </g>
    <g id="ytick_8">
     <g id="line2d_16">
      <g>
       <use xlink:href="#m801ae22c43" x="57.6" y="271.798642" style="fill: #262626; stroke: #262626; stroke-width: 0.8"/>
      </g>
     </g>
    </g>
    <g id="ytick_9">
     <g id="line2d_17">
      <g>
       <use xlink:href="#m801ae22c43" x="57.6" y="266.038486" style="fill: #262626; stroke: #262626; stroke-width: 0.8"/>
      </g>
     </g>
    </g>
    <g id="ytick_10">
     <g id="line2d_18">
      <g>
       <use xlink:href="#m801ae22c43" x="57.6" y="261.332095" style="fill: #262626; stroke: #262626; stroke-width: 0.8"/>
      </g>
     </g>
    </g>
    <g id="ytick_11">
     <g id="line2d_19">
      <g>
       <use xlink:href="#m801ae22c43" x="57.6" y="257.352899" style="fill: #262626; stroke: #262626; stroke-width: 0.8"/>
      </g>
     </g>
    </g>
    <g id="ytick_12">
     <g id="line2d_20">
      <g>
       <use xlink:href="#m801ae22c43" x="57.6" y="253.905962" style="fill: #262626; stroke: #262626; stroke-width: 0.8"/>
      </g>
     </g>
    </g>
    <g id="ytick_13">
     <g id="line2d_21">
      <g>
       <use xlink:href="#m801ae22c43" x="57.6" y="250.865549" style="fill: #262626; stroke: #262626; stroke-width: 0.8"/>
      </g>
     </g>
    </g>
    <g id="ytick_14">
     <g id="line2d_22">
      <g>
       <use xlink:href="#m801ae22c43" x="57.6" y="230.253127" style="fill: #262626; stroke: #262626; stroke-width: 0.8"/>
      </g>
     </g>
    </g>
    <g id="ytick_15">
     <g id="line2d_23">
      <g>
       <use xlink:href="#m801ae22c43" x="57.6" y="219.786581" style="fill: #262626; stroke: #262626; stroke-width: 0.8"/>
      </g>
     </g>
    </g>
    <g id="ytick_16">
     <g id="line2d_24">
      <g>
       <use xlink:href="#m801ae22c43" x="57.6" y="212.360448" style="fill: #262626; stroke: #262626; stroke-width: 0.8"/>
      </g>
     </g>
    </g>
    <g id="ytick_17">
     <g id="line2d_25">
      <g>
       <use xlink:href="#m801ae22c43" x="57.6" y="206.600292" style="fill: #262626; stroke: #262626; stroke-width: 0.8"/>
      </g>
     </g>
    </g>
    <g id="ytick_18">
     <g id="line2d_26">
      <g>
       <use xlink:href="#m801ae22c43" x="57.6" y="201.893902" style="fill: #262626; stroke: #262626; stroke-width: 0.8"/>
      </g>
     </g>
    </g>
    <g id="ytick_19">
     <g id="line2d_27">
      <g>
       <use xlink:href="#m801ae22c43" x="57.6" y="197.914705" style="fill: #262626; stroke: #262626; stroke-width: 0.8"/>
      </g>
     </g>
    </g>
    <g id="ytick_20">
     <g id="line2d_28">
      <g>
       <use xlink:href="#m801ae22c43" x="57.6" y="194.467769" style="fill: #262626; stroke: #262626; stroke-width: 0.8"/>
      </g>
     </g>
    </g>
    <g id="ytick_21">
     <g id="line2d_29">
      <g>
       <use xlink:href="#m801ae22c43" x="57.6" y="191.427355" style="fill: #262626; stroke: #262626; stroke-width: 0.8"/>
      </g>
     </g>
    </g>
    <g id="ytick_22">
     <g id="line2d_30">
      <g>
       <use xlink:href="#m801ae22c43" x="57.6" y="170.814934" style="fill: #262626; stroke: #262626; stroke-width: 0.8"/>
      </g>
     </g>
    </g>
    <g id="ytick_23">
     <g id="line2d_31">
      <g>
       <use xlink:href="#m801ae22c43" x="57.6" y="160.348387" style="fill: #262626; stroke: #262626; stroke-width: 0.8"/>
      </g>
     </g>
    </g>
    <g id="ytick_24">
     <g id="line2d_32">
      <g>
       <use xlink:href="#m801ae22c43" x="57.6" y="152.922254" style="fill: #262626; stroke: #262626; stroke-width: 0.8"/>
      </g>
     </g>
    </g>
    <g id="ytick_25">
     <g id="line2d_33">
      <g>
       <use xlink:href="#m801ae22c43" x="57.6" y="147.162098" style="fill: #262626; stroke: #262626; stroke-width: 0.8"/>
      </g>
     </g>
    </g>
    <g id="ytick_26">
     <g id="line2d_34">
      <g>
       <use xlink:href="#m801ae22c43" x="57.6" y="142.455708" style="fill: #262626; stroke: #262626; stroke-width: 0.8"/>
      </g>
     </g>
    </g>
    <g id="ytick_27">
     <g id="line2d_35">
      <g>
       <use xlink:href="#m801ae22c43" x="57.6" y="138.476512" style="fill: #262626; stroke: #262626; stroke-width: 0.8"/>
      </g>
     </g>
    </g>
    <g id="ytick_28">
     <g id="line2d_36">
      <g>
       <use xlink:href="#m801ae22c43" x="57.6" y="135.029575" style="fill: #262626; stroke: #262626; stroke-width: 0.8"/>
      </g>
     </g>
    </g>
    <g id="ytick_29">
     <g id="line2d_37">
      <g>
       <use xlink:href="#m801ae22c43" x="57.6" y="131.989162" style="fill: #262626; stroke: #262626; stroke-width: 0.8"/>
      </g>
     </g>
    </g>
    <g id="ytick_30">
     <g id="line2d_38">
      <g>
       <use xlink:href="#m801ae22c43" x="57.6" y="111.37674" style="fill: #262626; stroke: #262626; stroke-width: 0.8"/>
      </g>
     </g>
    </g>
    <g id="ytick_31">
     <g id="line2d_39">
      <g>
       <use xlink:href="#m801ae22c43" x="57.6" y="100.910194" style="fill: #262626; stroke: #262626; stroke-width: 0.8"/>
      </g>
     </g>
    </g>
    <g id="ytick_32">
     <g id="line2d_40">
      <g>
       <use xlink:href="#m801ae22c43" x="57.6" y="93.484061" style="fill: #262626; stroke: #262626; stroke-width: 0.8"/>
      </g>
     </g>
    </g>
    <g id="ytick_33">
     <g id="line2d_41">
      <g>
       <use xlink:href="#m801ae22c43" x="57.6" y="87.723905" style="fill: #262626; stroke: #262626; stroke-width: 0.8"/>
      </g>
     </g>
    </g>
    <g id="ytick_34">
     <g id="line2d_42">
      <g>
       <use xlink:href="#m801ae22c43" x="57.6" y="83.017514" style="fill: #262626; stroke: #262626; stroke-width: 0.8"/>
      </g>
     </g>
    </g>
    <g id="ytick_35">
     <g id="line2d_43">
      <g>
       <use xlink:href="#m801ae22c43" x="57.6" y="79.038318" style="fill: #262626; stroke: #262626; stroke-width: 0.8"/>
      </g>
     </g>
    </g>
    <g id="ytick_36">
     <g id="line2d_44">
      <g>
       <use xlink:href="#m801ae22c43" x="57.6" y="75.591382" style="fill: #262626; stroke: #262626; stroke-width: 0.8"/>
      </g>
     </g>
    </g>
    <g id="ytick_37">
     <g id="line2d_45">
      <g>
       <use xlink:href="#m801ae22c43" x="57.6" y="72.550968" style="fill: #262626; stroke: #262626; stroke-width: 0.8"/>
      </g>
     </g>
    </g>
    <g id="ytick_38">
     <g id="line2d_46">
      <g>
       <use xlink:href="#m801ae22c43" x="57.6" y="51.938546" style="fill: #262626; stroke: #262626; stroke-width: 0.8"/>
      </g>
     </g>
    </g>
    <g id="ytick_39">
     <g id="line2d_47">
      <g>
       <use xlink:href="#m801ae22c43" x="57.6" y="41.472" style="fill: #262626; stroke: #262626; stroke-width: 0.8"/>
      </g>
     </g>
    </g>
    <g id="text_15">
     <!-- t(sec) -->
     <g style="fill: #262626" transform="translate(25.139906 190.776984)rotate(-90)scale(0.13 -0.13)">
      <defs>
       <path id="ArialMT-74" d="M 1650 503 
L 1731 6 
Q 1494 -44 1306 -44 
Q 1000 -44 831 53 
Q 663 150 594 308 
Q 525 466 525 972 
L 525 2881 
L 113 2881 
L 113 3319 
L 525 3319 
L 525 4141 
L 1084 4478 
L 1084 3319 
L 1650 3319 
L 1650 2881 
L 1084 2881 
L 1084 941 
Q 1084 700 1114 631 
Q 1144 563 1211 522 
Q 1278 481 1403 481 
Q 1497 481 1650 503 
z
" transform="scale(0.015625)"/>
       <path id="ArialMT-28" d="M 1497 -1347 
Q 1031 -759 709 28 
Q 388 816 388 1659 
Q 388 2403 628 3084 
Q 909 3875 1497 4659 
L 1900 4659 
Q 1522 4009 1400 3731 
Q 1209 3300 1100 2831 
Q 966 2247 966 1656 
Q 966 153 1900 -1347 
L 1497 -1347 
z
" transform="scale(0.015625)"/>
       <path id="ArialMT-73" d="M 197 991 
L 753 1078 
Q 800 744 1014 566 
Q 1228 388 1613 388 
Q 2000 388 2187 545 
Q 2375 703 2375 916 
Q 2375 1106 2209 1216 
Q 2094 1291 1634 1406 
Q 1016 1563 777 1677 
Q 538 1791 414 1992 
Q 291 2194 291 2438 
Q 291 2659 392 2848 
Q 494 3038 669 3163 
Q 800 3259 1026 3326 
Q 1253 3394 1513 3394 
Q 1903 3394 2198 3281 
Q 2494 3169 2634 2976 
Q 2775 2784 2828 2463 
L 2278 2388 
Q 2241 2644 2061 2787 
Q 1881 2931 1553 2931 
Q 1166 2931 1000 2803 
Q 834 2675 834 2503 
Q 834 2394 903 2306 
Q 972 2216 1119 2156 
Q 1203 2125 1616 2013 
Q 2213 1853 2448 1751 
Q 2684 1650 2818 1456 
Q 2953 1263 2953 975 
Q 2953 694 2789 445 
Q 2625 197 2315 61 
Q 2006 -75 1616 -75 
Q 969 -75 630 194 
Q 291 463 197 991 
z
" transform="scale(0.015625)"/>
       <path id="ArialMT-65" d="M 2694 1069 
L 3275 997 
Q 3138 488 2766 206 
Q 2394 -75 1816 -75 
Q 1088 -75 661 373 
Q 234 822 234 1631 
Q 234 2469 665 2931 
Q 1097 3394 1784 3394 
Q 2450 3394 2872 2941 
Q 3294 2488 3294 1666 
Q 3294 1616 3291 1516 
L 816 1516 
Q 847 969 1125 678 
Q 1403 388 1819 388 
Q 2128 388 2347 550 
Q 2566 713 2694 1069 
z
M 847 1978 
L 2700 1978 
Q 2663 2397 2488 2606 
Q 2219 2931 1791 2931 
Q 1403 2931 1139 2672 
Q 875 2413 847 1978 
z
" transform="scale(0.015625)"/>
       <path id="ArialMT-63" d="M 2588 1216 
L 3141 1144 
Q 3050 572 2676 248 
Q 2303 -75 1759 -75 
Q 1078 -75 664 370 
Q 250 816 250 1647 
Q 250 2184 428 2587 
Q 606 2991 970 3192 
Q 1334 3394 1763 3394 
Q 2303 3394 2647 3120 
Q 2991 2847 3088 2344 
L 2541 2259 
Q 2463 2594 2264 2762 
Q 2066 2931 1784 2931 
Q 1359 2931 1093 2626 
Q 828 2322 828 1663 
Q 828 994 1084 691 
Q 1341 388 1753 388 
Q 2084 388 2306 591 
Q 2528 794 2588 1216 
z
" transform="scale(0.015625)"/>
       <path id="ArialMT-29" d="M 791 -1347 
L 388 -1347 
Q 1322 153 1322 1656 
Q 1322 2244 1188 2822 
Q 1081 3291 891 3722 
Q 769 4003 388 4659 
L 791 4659 
Q 1378 3875 1659 3084 
Q 1900 2403 1900 1659 
Q 1900 816 1576 28 
Q 1253 -759 791 -1347 
z
" transform="scale(0.015625)"/>
      </defs>
      <use xlink:href="#ArialMT-74"/>
      <use xlink:href="#ArialMT-28" x="27.783203"/>
      <use xlink:href="#ArialMT-73" x="61.083984"/>
      <use xlink:href="#ArialMT-65" x="111.083984"/>
      <use xlink:href="#ArialMT-63" x="166.699219"/>
      <use xlink:href="#ArialMT-29" x="216.699219"/>
     </g>
    </g>
   </g>
   <g id="PolyCollection_1">
    <defs>
     <path id="mb00a9e96d8" d="M 73.832727 -94.154432 
L 73.832727 -91.659844 
L 94.123636 -96.002917 
L 114.414545 -102.558474 
L 134.705455 -104.106966 
L 154.996364 -113.07313 
L 175.287273 -120.21773 
L 195.578182 -130.774108 
L 215.869091 -140.754428 
L 236.16 -152.188062 
L 256.450909 -163.845632 
L 276.741818 -176.042922 
L 297.032727 -187.851016 
L 317.323636 -200.105363 
L 337.614545 -212.435216 
L 357.905455 -224.783909 
L 378.196364 -237.136818 
L 398.487273 -249.501816 
L 398.487273 -249.593062 
L 398.487273 -249.593062 
L 378.196364 -237.413873 
L 357.905455 -224.79042 
L 337.614545 -212.44698 
L 317.323636 -200.211908 
L 297.032727 -187.904178 
L 276.741818 -176.072777 
L 256.450909 -164.005641 
L 236.16 -152.318689 
L 215.869091 -141.98504 
L 195.578182 -131.719851 
L 175.287273 -120.448611 
L 154.996364 -114.812325 
L 134.705455 -107.683892 
L 114.414545 -105.169237 
L 94.123636 -98.925676 
L 73.832727 -94.154432 
z
" style="stroke: #1f77b4; stroke-opacity: 0.2; stroke-width: 0.8"/>
    </defs>
    <g clip-path="url(#p3e8fff366f)">
     <use xlink:href="#mb00a9e96d8" x="0" y="345.6" style="fill: #1f77b4; fill-opacity: 0.2; stroke: #1f77b4; stroke-opacity: 0.2; stroke-width: 0.8"/>
    </g>
   </g>
   <g id="PolyCollection_2">
    <defs>
     <path id="m168ff436a9" d="M 73.832727 -119.920412 
L 73.832727 -117.34953 
L 94.123636 -128.427678 
L 114.414545 -138.613395 
L 134.705455 -148.578096 
L 154.996364 -159.970175 
L 175.287273 -172.561876 
L 195.578182 -184.402379 
L 215.869091 -196.510292 
L 236.16 -208.596747 
L 256.450909 -220.176085 
L 276.741818 -233.32525 
L 297.032727 -245.351295 
L 317.323636 -258.054418 
L 337.614545 -269.971032 
L 357.905455 -282.948375 
L 378.196364 -294.997252 
L 398.487273 -307.474444 
L 398.487273 -308.189595 
L 398.487273 -308.189595 
L 378.196364 -295.209751 
L 357.905455 -283.575358 
L 337.614545 -271.14498 
L 317.323636 -258.161457 
L 297.032727 -245.913424 
L 276.741818 -233.392249 
L 256.450909 -221.236469 
L 236.16 -209.130615 
L 215.869091 -197.061228 
L 195.578182 -184.825371 
L 175.287273 -172.942264 
L 154.996364 -160.841991 
L 134.705455 -148.902463 
L 114.414545 -138.890907 
L 94.123636 -129.057092 
L 73.832727 -119.920412 
z
" style="stroke: #aec7e8; stroke-opacity: 0.2; stroke-width: 0.8"/>
    </defs>
    <g clip-path="url(#p3e8fff366f)">
     <use xlink:href="#m168ff436a9" x="0" y="345.6" style="fill: #aec7e8; fill-opacity: 0.2; stroke: #aec7e8; stroke-opacity: 0.2; stroke-width: 0.8"/>
    </g>
   </g>
   <g id="PolyCollection_3">
    <defs>
     <path id="m730d87fac6" d="M 73.832727 -111.035543 
L 73.832727 -108.977314 
L 94.123636 -116.51619 
L 114.414545 -124.759833 
L 134.705455 -133.876959 
L 154.996364 -144.891405 
L 175.287273 -156.601669 
L 195.578182 -167.730375 
L 215.869091 -179.013376 
L 236.16 -191.582066 
L 256.450909 -203.764904 
L 276.741818 -216.684883 
L 297.032727 -227.648549 
L 317.323636 -240.923169 
L 337.614545 -252.651465 
L 357.905455 -265.224722 
L 378.196364 -277.869657 
L 398.487273 -291.111379 
L 398.487273 -291.679937 
L 398.487273 -291.679937 
L 378.196364 -278.681064 
L 357.905455 -265.356625 
L 337.614545 -253.144623 
L 317.323636 -241.351403 
L 297.032727 -228.626663 
L 276.741818 -217.168429 
L 256.450909 -204.175042 
L 236.16 -192.152947 
L 215.869091 -179.419616 
L 195.578182 -169.73462 
L 175.287273 -156.802762 
L 154.996364 -147.576797 
L 134.705455 -134.731325 
L 114.414545 -126.892367 
L 94.123636 -116.867684 
L 73.832727 -111.035543 
z
" style="stroke: #ff7f0e; stroke-opacity: 0.2; stroke-width: 0.8"/>
    </defs>
    <g clip-path="url(#p3e8fff366f)">
     <use xlink:href="#m730d87fac6" x="0" y="345.6" style="fill: #ff7f0e; fill-opacity: 0.2; stroke: #ff7f0e; stroke-opacity: 0.2; stroke-width: 0.8"/>
    </g>
   </g>
   <g id="PolyCollection_4">
    <defs>
     <path id="mfcbcb5b972" d="M 73.832727 -107.765218 
L 73.832727 -107.358813 
L 94.123636 -110.464454 
L 114.414545 -121.155204 
L 134.705455 -125.971088 
L 154.996364 -137.7098 
L 175.287273 -147.617685 
L 195.578182 -158.151841 
L 215.869091 -169.599912 
L 236.16 -181.838089 
L 256.450909 -194.866168 
L 276.741818 -208.2683 
L 297.032727 -220.784922 
L 317.323636 -229.914675 
L 337.614545 -241.085444 
L 357.905455 -254.813227 
L 378.196364 -267.525596 
L 398.487273 -281.738511 
L 398.487273 -282.014789 
L 398.487273 -282.014789 
L 378.196364 -271.322408 
L 357.905455 -258.525487 
L 337.614545 -243.595944 
L 317.323636 -231.069518 
L 297.032727 -222.540091 
L 276.741818 -208.916595 
L 256.450909 -196.119438 
L 236.16 -182.860849 
L 215.869091 -171.029478 
L 195.578182 -159.836249 
L 175.287273 -149.828364 
L 154.996364 -139.495647 
L 134.705455 -128.563862 
L 114.414545 -121.254878 
L 94.123636 -113.982286 
L 73.832727 -107.765218 
z
" style="stroke: #ffbb78; stroke-opacity: 0.2; stroke-width: 0.8"/>
    </defs>
    <g clip-path="url(#p3e8fff366f)">
     <use xlink:href="#mfcbcb5b972" x="0" y="345.6" style="fill: #ffbb78; fill-opacity: 0.2; stroke: #ffbb78; stroke-opacity: 0.2; stroke-width: 0.8"/>
    </g>
   </g>
   <g id="PolyCollection_5">
    <defs>
     <path id="mc82d85f345" d="M 73.832727 -109.087426 
L 73.832727 -105.806298 
L 94.123636 -108.767832 
L 114.414545 -117.978738 
L 134.705455 -123.410192 
L 154.996364 -133.006372 
L 175.287273 -141.506953 
L 195.578182 -152.689035 
L 215.869091 -162.096666 
L 236.16 -176.461528 
L 256.450909 -184.500275 
L 276.741818 -199.043053 
L 297.032727 -210.322947 
L 317.323636 -223.702771 
L 337.614545 -236.085079 
L 357.905455 -248.768378 
L 378.196364 -261.903997 
L 398.487273 -271.298263 
L 398.487273 -272.056739 
L 398.487273 -272.056739 
L 378.196364 -261.992843 
L 357.905455 -249.670226 
L 337.614545 -236.212417 
L 317.323636 -225.519029 
L 297.032727 -211.79039 
L 276.741818 -199.423661 
L 256.450909 -187.629889 
L 236.16 -177.230819 
L 215.869091 -164.321166 
L 195.578182 -154.160968 
L 175.287273 -142.990746 
L 154.996364 -133.013079 
L 134.705455 -123.750944 
L 114.414545 -119.244924 
L 94.123636 -112.411693 
L 73.832727 -109.087426 
z
" style="stroke: #2ca02c; stroke-opacity: 0.2; stroke-width: 0.8"/>
    </defs>
    <g clip-path="url(#p3e8fff366f)">
     <use xlink:href="#mc82d85f345" x="0" y="345.6" style="fill: #2ca02c; fill-opacity: 0.2; stroke: #2ca02c; stroke-opacity: 0.2; stroke-width: 0.8"/>
    </g>
   </g>
   <g id="PolyCollection_6">
    <defs>
     <path id="m2b7a11701b" d="M 73.832727 -113.143651 
L 73.832727 -111.905688 
L 94.123636 -117.409297 
L 114.414545 -120.387846 
L 134.705455 -126.195036 
L 154.996364 -133.402309 
L 175.287273 -140.965936 
L 195.578182 -149.962886 
L 215.869091 -162.183034 
L 236.16 -173.357127 
L 256.450909 -186.207722 
L 276.741818 -196.965427 
L 297.032727 -208.914565 
L 317.323636 -220.74057 
L 337.614545 -234.493274 
L 357.905455 -245.629078 
L 378.196364 -257.405481 
L 398.487273 -270.905903 
L 398.487273 -272.081556 
L 398.487273 -272.081556 
L 378.196364 -257.537846 
L 357.905455 -245.975143 
L 337.614545 -235.771192 
L 317.323636 -223.529524 
L 297.032727 -210.158558 
L 276.741818 -197.002513 
L 256.450909 -187.104063 
L 236.16 -174.049714 
L 215.869091 -162.481193 
L 195.578182 -152.179698 
L 175.287273 -142.557913 
L 154.996364 -133.899992 
L 134.705455 -126.654515 
L 114.414545 -120.392093 
L 94.123636 -117.740564 
L 73.832727 -113.143651 
z
" style="stroke: #98df8a; stroke-opacity: 0.2; stroke-width: 0.8"/>
    </defs>
    <g clip-path="url(#p3e8fff366f)">
     <use xlink:href="#m2b7a11701b" x="0" y="345.6" style="fill: #98df8a; fill-opacity: 0.2; stroke: #98df8a; stroke-opacity: 0.2; stroke-width: 0.8"/>
    </g>
   </g>
   <g id="PolyCollection_7">
    <defs>
     <path id="mb2051a66cc" d="M 73.832727 -136.514092 
L 73.832727 -127.792098 
L 94.123636 -127.20007 
L 114.414545 -130.845154 
L 134.705455 -136.016415 
L 154.996364 -138.84597 
L 175.287273 -145.501063 
L 195.578182 -156.314609 
L 215.869091 -163.528197 
L 236.16 -174.904436 
L 256.450909 -186.232253 
L 276.741818 -198.610584 
L 297.032727 -210.317409 
L 317.323636 -221.293613 
L 337.614545 -233.945435 
L 357.905455 -245.856574 
L 378.196364 -258.877702 
L 398.487273 -271.926308 
L 398.487273 -272.355212 
L 398.487273 -272.355212 
L 378.196364 -259.684926 
L 357.905455 -246.549384 
L 337.614545 -234.289387 
L 317.323636 -221.677526 
L 297.032727 -210.71307 
L 276.741818 -199.801579 
L 256.450909 -187.09341 
L 236.16 -175.322299 
L 215.869091 -164.081173 
L 195.578182 -157.24949 
L 175.287273 -149.455892 
L 154.996364 -139.136981 
L 134.705455 -140.360447 
L 114.414545 -130.988211 
L 94.123636 -127.770492 
L 73.832727 -136.514092 
z
" style="stroke: #d62728; stroke-opacity: 0.2; stroke-width: 0.8"/>
    </defs>
    <g clip-path="url(#p3e8fff366f)">
     <use xlink:href="#mb2051a66cc" x="0" y="345.6" style="fill: #d62728; fill-opacity: 0.2; stroke: #d62728; stroke-opacity: 0.2; stroke-width: 0.8"/>
    </g>
   </g>
   <g id="PolyCollection_8">
    <defs>
     <path id="m8055df753e" d="M 73.832727 -147.424815 
L 73.832727 -142.791021 
L 94.123636 -142.516093 
L 114.414545 -148.138671 
L 134.705455 -146.487578 
L 154.996364 -147.734368 
L 175.287273 -153.361738 
L 195.578182 -160.264291 
L 215.869091 -171.194205 
L 236.16 -180.620592 
L 256.450909 -191.002612 
L 276.741818 -203.003482 
L 297.032727 -214.286553 
L 317.323636 -226.972408 
L 337.614545 -239.464438 
L 357.905455 -250.238181 
L 378.196364 -263.325784 
L 398.487273 -274.92235 
L 398.487273 -275.474793 
L 398.487273 -275.474793 
L 378.196364 -263.944457 
L 357.905455 -251.4255 
L 337.614545 -239.8236 
L 317.323636 -227.238024 
L 297.032727 -214.772671 
L 276.741818 -203.693362 
L 256.450909 -191.463491 
L 236.16 -181.501696 
L 215.869091 -179.82519 
L 195.578182 -162.743454 
L 175.287273 -154.060658 
L 154.996364 -159.630451 
L 134.705455 -158.1206 
L 114.414545 -152.266215 
L 94.123636 -144.591174 
L 73.832727 -147.424815 
z
" style="stroke: #ff9896; stroke-opacity: 0.2; stroke-width: 0.8"/>
    </defs>
    <g clip-path="url(#p3e8fff366f)">
     <use xlink:href="#m8055df753e" x="0" y="345.6" style="fill: #ff9896; fill-opacity: 0.2; stroke: #ff9896; stroke-opacity: 0.2; stroke-width: 0.8"/>
    </g>
   </g>
   <g id="PolyCollection_9">
    <defs>
     <path id="medc48a2a95" d="M 73.832727 -209.979022 
L 73.832727 -209.875246 
L 94.123636 -190.060123 
L 114.414545 -187.009628 
L 134.705455 -193.26196 
L 154.996364 -189.574925 
L 175.287273 -186.139973 
L 195.578182 -190.72889 
L 215.869091 -180.800339 
L 236.16 -185.958853 
L 256.450909 -190.986287 
L 276.741818 -201.254594 
L 297.032727 -211.757776 
L 317.323636 -222.455731 
L 337.614545 -235.026474 
L 357.905455 -246.662428 
L 378.196364 -258.806587 
L 398.487273 -270.771984 
L 398.487273 -271.565453 
L 398.487273 -271.565453 
L 378.196364 -260.010034 
L 357.905455 -247.058664 
L 337.614545 -235.740055 
L 317.323636 -224.376612 
L 297.032727 -212.971291 
L 276.741818 -213.657147 
L 256.450909 -197.338222 
L 236.16 -199.803685 
L 215.869091 -187.784877 
L 195.578182 -191.224967 
L 175.287273 -188.409317 
L 154.996364 -215.588083 
L 134.705455 -217.253502 
L 114.414545 -189.90539 
L 94.123636 -213.006373 
L 73.832727 -209.979022 
z
" style="stroke: #9467bd; stroke-opacity: 0.2; stroke-width: 0.8"/>
    </defs>
    <g clip-path="url(#p3e8fff366f)">
     <use xlink:href="#medc48a2a95" x="0" y="345.6" style="fill: #9467bd; fill-opacity: 0.2; stroke: #9467bd; stroke-opacity: 0.2; stroke-width: 0.8"/>
    </g>
   </g>
   <g id="line2d_48">
    <path d="M 73.832727 252.66274 
L 94.123636 248.094359 
L 114.414545 241.703153 
L 134.705455 239.642665 
L 154.996364 231.642628 
L 175.287273 225.266571 
L 195.578182 214.34869 
L 215.869091 204.222934 
L 236.16 193.346542 
L 256.450909 181.674239 
L 276.741818 169.542146 
L 297.032727 157.722389 
L 317.323636 145.44131 
L 337.614545 133.158901 
L 357.905455 120.812836 
L 378.196364 108.324283 
L 398.487273 96.05252 
" clip-path="url(#p3e8fff366f)" style="fill: none; stroke: #1f77b4; stroke-width: 1.2; stroke-linecap: round"/>
   </g>
   <g id="line2d_49">
    <path d="M 73.832727 226.933037 
L 94.123636 216.855696 
L 114.414545 206.847476 
L 134.705455 196.859211 
L 154.996364 185.190237 
L 175.287273 172.847229 
L 195.578182 160.985259 
L 215.869091 148.81277 
L 236.16 136.734939 
L 256.450909 124.888278 
L 276.741818 112.241229 
L 297.032727 99.96611 
L 317.323636 87.492007 
L 337.614545 75.035321 
L 357.905455 62.33623 
L 378.196364 50.49628 
L 398.487273 37.765504 
" clip-path="url(#p3e8fff366f)" style="fill: none; stroke: #aec7e8; stroke-width: 1.2; stroke-linecap: round"/>
   </g>
   <g id="line2d_50">
    <path d="M 73.832727 235.573063 
L 94.123636 228.907465 
L 114.414545 219.751885 
L 134.705455 211.292323 
L 154.996364 199.330994 
L 175.287273 188.897589 
L 195.578182 176.848056 
L 215.869091 166.382705 
L 236.16 153.730916 
L 256.450909 141.629212 
L 276.741818 128.672212 
L 297.032727 117.457762 
L 317.323636 104.461826 
L 337.614545 92.700779 
L 357.905455 80.309242 
L 378.196364 67.321451 
L 398.487273 54.202777 
" clip-path="url(#p3e8fff366f)" style="fill: none; stroke: #ff7f0e; stroke-width: 1.2; stroke-linecap: round"/>
   </g>
   <g id="line2d_51">
    <path d="M 73.832727 238.037184 
L 94.123636 233.316751 
L 114.414545 224.394911 
L 134.705455 218.299986 
L 154.996364 206.981836 
L 175.287273 196.853318 
L 195.578182 186.592218 
L 215.869091 175.27541 
L 236.16 163.245466 
L 256.450909 150.099592 
L 276.741818 137.005518 
L 297.032727 123.922579 
L 317.323636 115.101446 
L 337.614545 103.228798 
L 357.905455 88.863968 
L 378.196364 76.106254 
L 398.487273 63.72298 
" clip-path="url(#p3e8fff366f)" style="fill: none; stroke: #ffbb78; stroke-width: 1.2; stroke-linecap: round"/>
   </g>
   <g id="line2d_52">
    <path d="M 73.832727 238.101041 
L 94.123636 234.945995 
L 114.414545 226.980406 
L 134.705455 222.01887 
L 154.996364 212.590274 
L 175.287273 203.340491 
L 195.578182 192.164508 
L 215.869091 182.367129 
L 236.16 168.750961 
L 256.450909 159.487518 
L 276.741818 146.365941 
L 297.032727 134.532905 
L 317.323636 120.973129 
L 337.614545 109.451173 
L 357.905455 96.37676 
L 378.196364 83.651542 
L 398.487273 73.919713 
" clip-path="url(#p3e8fff366f)" style="fill: none; stroke: #2ca02c; stroke-width: 1.2; stroke-linecap: round"/>
   </g>
   <g id="line2d_53">
    <path d="M 73.832727 233.06791 
L 94.123636 228.024538 
L 114.414545 225.21003 
L 134.705455 219.174202 
L 154.996364 211.94765 
L 175.287273 203.825805 
L 195.578182 194.504919 
L 215.869091 183.267456 
L 236.16 171.894257 
L 256.450909 158.940217 
L 276.741818 148.616023 
L 297.032727 136.055945 
L 317.323636 123.427306 
L 337.614545 110.45986 
L 357.905455 99.79731 
L 378.196364 88.128251 
L 398.487273 74.099578 
" clip-path="url(#p3e8fff366f)" style="fill: none; stroke: #98df8a; stroke-width: 1.2; stroke-linecap: round"/>
   </g>
   <g id="line2d_54">
    <path d="M 73.832727 213.080268 
L 94.123636 218.113143 
L 114.414545 214.683218 
L 134.705455 207.320297 
L 154.996364 206.608115 
L 175.287273 198.045858 
L 195.578182 188.813718 
L 215.869091 181.793834 
L 236.16 170.485787 
L 256.450909 158.933578 
L 276.741818 146.38705 
L 297.032727 135.084003 
L 317.323636 124.113717 
L 337.614545 111.482016 
L 357.905455 99.394697 
L 378.196364 86.315531 
L 398.487273 73.458349 
" clip-path="url(#p3e8fff366f)" style="fill: none; stroke: #d62728; stroke-width: 1.2; stroke-linecap: round"/>
   </g>
   <g id="line2d_55">
    <path d="M 73.832727 200.388245 
L 94.123636 202.025521 
L 114.414545 195.315147 
L 134.705455 192.646075 
L 154.996364 191.23829 
L 175.287273 191.886437 
L 195.578182 184.066377 
L 215.869091 169.731241 
L 236.16 164.535097 
L 256.450909 154.36592 
L 276.741818 142.249273 
L 297.032727 131.069244 
L 317.323636 118.494442 
L 337.614545 105.955356 
L 357.905455 94.761334 
L 378.196364 81.963026 
L 398.487273 70.399951 
" clip-path="url(#p3e8fff366f)" style="fill: none; stroke: #ff9896; stroke-width: 1.2; stroke-linecap: round"/>
   </g>
   <g id="line2d_56">
    <path d="M 73.832727 135.672814 
L 94.123636 141.596857 
L 114.414545 157.101907 
L 134.705455 137.649912 
L 154.996364 139.871656 
L 175.287273 158.300425 
L 195.578182 154.62188 
L 215.869091 161.071879 
L 236.16 151.80146 
L 256.450909 151.24286 
L 276.741818 137.406313 
L 297.032727 133.228336 
L 317.323636 122.165965 
L 337.614545 110.21427 
L 357.905455 98.738694 
L 378.196364 86.184677 
L 398.487273 74.428233 
" clip-path="url(#p3e8fff366f)" style="fill: none; stroke: #9467bd; stroke-width: 1.2; stroke-linecap: round"/>
   </g>
   <g id="line2d_57"/>
   <g id="line2d_58"/>
   <g id="line2d_59"/>
   <g id="line2d_60"/>
   <g id="line2d_61"/>
   <g id="line2d_62"/>
   <g id="line2d_63"/>
   <g id="line2d_64"/>
   <g id="line2d_65"/>
   <g id="patch_3">
    <path d="M 57.6 307.584 
L 57.6 41.472 
" style="fill: none; stroke: #262626; stroke-linejoin: miter; stroke-linecap: square"/>
   </g>
   <g id="patch_4">
    <path d="M 414.72 307.584 
L 414.72 41.472 
" style="fill: none; stroke: #262626; stroke-linejoin: miter; stroke-linecap: square"/>
   </g>
   <g id="patch_5">
    <path d="M 57.6 307.584 
L 414.72 307.584 
" style="fill: none; stroke: #262626; stroke-linejoin: miter; stroke-linecap: square"/>
   </g>
   <g id="patch_6">
    <path d="M 57.6 41.472 
L 414.72 41.472 
" style="fill: none; stroke: #262626; stroke-linejoin: miter; stroke-linecap: square"/>
   </g>
   <g id="text_16">
    <!-- fib-taskgroup_blake23_clang++_overN.res -->
    <g style="fill: #262626" transform="translate(113.673594 35.472)scale(0.13 -0.13)">
     <defs>
      <path id="ArialMT-66" d="M 556 0 
L 556 2881 
L 59 2881 
L 59 3319 
L 556 3319 
L 556 3672 
Q 556 4006 616 4169 
Q 697 4388 901 4523 
Q 1106 4659 1475 4659 
Q 1713 4659 2000 4603 
L 1916 4113 
Q 1741 4144 1584 4144 
Q 1328 4144 1222 4034 
Q 1116 3925 1116 3625 
L 1116 3319 
L 1763 3319 
L 1763 2881 
L 1116 2881 
L 1116 0 
L 556 0 
z
" transform="scale(0.015625)"/>
      <path id="ArialMT-69" d="M 425 3934 
L 425 4581 
L 988 4581 
L 988 3934 
L 425 3934 
z
M 425 0 
L 425 3319 
L 988 3319 
L 988 0 
L 425 0 
z
" transform="scale(0.015625)"/>
      <path id="ArialMT-62" d="M 941 0 
L 419 0 
L 419 4581 
L 981 4581 
L 981 2947 
Q 1338 3394 1891 3394 
Q 2197 3394 2470 3270 
Q 2744 3147 2920 2923 
Q 3097 2700 3197 2384 
Q 3297 2069 3297 1709 
Q 3297 856 2875 390 
Q 2453 -75 1863 -75 
Q 1275 -75 941 416 
L 941 0 
z
M 934 1684 
Q 934 1088 1097 822 
Q 1363 388 1816 388 
Q 2184 388 2453 708 
Q 2722 1028 2722 1663 
Q 2722 2313 2464 2622 
Q 2206 2931 1841 2931 
Q 1472 2931 1203 2611 
Q 934 2291 934 1684 
z
" transform="scale(0.015625)"/>
      <path id="ArialMT-2d" d="M 203 1375 
L 203 1941 
L 1931 1941 
L 1931 1375 
L 203 1375 
z
" transform="scale(0.015625)"/>
      <path id="ArialMT-61" d="M 2588 409 
Q 2275 144 1986 34 
Q 1697 -75 1366 -75 
Q 819 -75 525 192 
Q 231 459 231 875 
Q 231 1119 342 1320 
Q 453 1522 633 1644 
Q 813 1766 1038 1828 
Q 1203 1872 1538 1913 
Q 2219 1994 2541 2106 
Q 2544 2222 2544 2253 
Q 2544 2597 2384 2738 
Q 2169 2928 1744 2928 
Q 1347 2928 1158 2789 
Q 969 2650 878 2297 
L 328 2372 
Q 403 2725 575 2942 
Q 747 3159 1072 3276 
Q 1397 3394 1825 3394 
Q 2250 3394 2515 3294 
Q 2781 3194 2906 3042 
Q 3031 2891 3081 2659 
Q 3109 2516 3109 2141 
L 3109 1391 
Q 3109 606 3145 398 
Q 3181 191 3288 0 
L 2700 0 
Q 2613 175 2588 409 
z
M 2541 1666 
Q 2234 1541 1622 1453 
Q 1275 1403 1131 1340 
Q 988 1278 909 1158 
Q 831 1038 831 891 
Q 831 666 1001 516 
Q 1172 366 1500 366 
Q 1825 366 2078 508 
Q 2331 650 2450 897 
Q 2541 1088 2541 1459 
L 2541 1666 
z
" transform="scale(0.015625)"/>
      <path id="ArialMT-6b" d="M 425 0 
L 425 4581 
L 988 4581 
L 988 1969 
L 2319 3319 
L 3047 3319 
L 1778 2088 
L 3175 0 
L 2481 0 
L 1384 1697 
L 988 1316 
L 988 0 
L 425 0 
z
" transform="scale(0.015625)"/>
      <path id="ArialMT-67" d="M 319 -275 
L 866 -356 
Q 900 -609 1056 -725 
Q 1266 -881 1628 -881 
Q 2019 -881 2231 -725 
Q 2444 -569 2519 -288 
Q 2563 -116 2559 434 
Q 2191 0 1641 0 
Q 956 0 581 494 
Q 206 988 206 1678 
Q 206 2153 378 2554 
Q 550 2956 876 3175 
Q 1203 3394 1644 3394 
Q 2231 3394 2613 2919 
L 2613 3319 
L 3131 3319 
L 3131 450 
Q 3131 -325 2973 -648 
Q 2816 -972 2473 -1159 
Q 2131 -1347 1631 -1347 
Q 1038 -1347 672 -1080 
Q 306 -813 319 -275 
z
M 784 1719 
Q 784 1066 1043 766 
Q 1303 466 1694 466 
Q 2081 466 2343 764 
Q 2606 1063 2606 1700 
Q 2606 2309 2336 2618 
Q 2066 2928 1684 2928 
Q 1309 2928 1046 2623 
Q 784 2319 784 1719 
z
" transform="scale(0.015625)"/>
      <path id="ArialMT-72" d="M 416 0 
L 416 3319 
L 922 3319 
L 922 2816 
Q 1116 3169 1280 3281 
Q 1444 3394 1641 3394 
Q 1925 3394 2219 3213 
L 2025 2691 
Q 1819 2813 1613 2813 
Q 1428 2813 1281 2702 
Q 1134 2591 1072 2394 
Q 978 2094 978 1738 
L 978 0 
L 416 0 
z
" transform="scale(0.015625)"/>
      <path id="ArialMT-6f" d="M 213 1659 
Q 213 2581 725 3025 
Q 1153 3394 1769 3394 
Q 2453 3394 2887 2945 
Q 3322 2497 3322 1706 
Q 3322 1066 3130 698 
Q 2938 331 2570 128 
Q 2203 -75 1769 -75 
Q 1072 -75 642 372 
Q 213 819 213 1659 
z
M 791 1659 
Q 791 1022 1069 705 
Q 1347 388 1769 388 
Q 2188 388 2466 706 
Q 2744 1025 2744 1678 
Q 2744 2294 2464 2611 
Q 2184 2928 1769 2928 
Q 1347 2928 1069 2612 
Q 791 2297 791 1659 
z
" transform="scale(0.015625)"/>
      <path id="ArialMT-75" d="M 2597 0 
L 2597 488 
Q 2209 -75 1544 -75 
Q 1250 -75 995 37 
Q 741 150 617 320 
Q 494 491 444 738 
Q 409 903 409 1263 
L 409 3319 
L 972 3319 
L 972 1478 
Q 972 1038 1006 884 
Q 1059 663 1231 536 
Q 1403 409 1656 409 
Q 1909 409 2131 539 
Q 2353 669 2445 892 
Q 2538 1116 2538 1541 
L 2538 3319 
L 3100 3319 
L 3100 0 
L 2597 0 
z
" transform="scale(0.015625)"/>
      <path id="ArialMT-70" d="M 422 -1272 
L 422 3319 
L 934 3319 
L 934 2888 
Q 1116 3141 1344 3267 
Q 1572 3394 1897 3394 
Q 2322 3394 2647 3175 
Q 2972 2956 3137 2557 
Q 3303 2159 3303 1684 
Q 3303 1175 3120 767 
Q 2938 359 2589 142 
Q 2241 -75 1856 -75 
Q 1575 -75 1351 44 
Q 1128 163 984 344 
L 984 -1272 
L 422 -1272 
z
M 931 1641 
Q 931 1000 1190 694 
Q 1450 388 1819 388 
Q 2194 388 2461 705 
Q 2728 1022 2728 1688 
Q 2728 2322 2467 2637 
Q 2206 2953 1844 2953 
Q 1484 2953 1207 2617 
Q 931 2281 931 1641 
z
" transform="scale(0.015625)"/>
      <path id="ArialMT-5f" d="M -97 -1272 
L -97 -866 
L 3631 -866 
L 3631 -1272 
L -97 -1272 
z
" transform="scale(0.015625)"/>
      <path id="ArialMT-6c" d="M 409 0 
L 409 4581 
L 972 4581 
L 972 0 
L 409 0 
z
" transform="scale(0.015625)"/>
      <path id="ArialMT-6e" d="M 422 0 
L 422 3319 
L 928 3319 
L 928 2847 
Q 1294 3394 1984 3394 
Q 2284 3394 2536 3286 
Q 2788 3178 2913 3003 
Q 3038 2828 3088 2588 
Q 3119 2431 3119 2041 
L 3119 0 
L 2556 0 
L 2556 2019 
Q 2556 2363 2490 2533 
Q 2425 2703 2258 2804 
Q 2091 2906 1866 2906 
Q 1506 2906 1245 2678 
Q 984 2450 984 1813 
L 984 0 
L 422 0 
z
" transform="scale(0.015625)"/>
      <path id="ArialMT-2b" d="M 1603 741 
L 1603 1997 
L 356 1997 
L 356 2522 
L 1603 2522 
L 1603 3769 
L 2134 3769 
L 2134 2522 
L 3381 2522 
L 3381 1997 
L 2134 1997 
L 2134 741 
L 1603 741 
z
" transform="scale(0.015625)"/>
      <path id="ArialMT-76" d="M 1344 0 
L 81 3319 
L 675 3319 
L 1388 1331 
Q 1503 1009 1600 663 
Q 1675 925 1809 1294 
L 2547 3319 
L 3125 3319 
L 1869 0 
L 1344 0 
z
" transform="scale(0.015625)"/>
      <path id="ArialMT-2e" d="M 581 0 
L 581 641 
L 1222 641 
L 1222 0 
L 581 0 
z
" transform="scale(0.015625)"/>
     </defs>
     <use xlink:href="#ArialMT-66"/>
     <use xlink:href="#ArialMT-69" x="27.783203"/>
     <use xlink:href="#ArialMT-62" x="50"/>
     <use xlink:href="#ArialMT-2d" x="105.615234"/>
     <use xlink:href="#ArialMT-74" x="138.916016"/>
     <use xlink:href="#ArialMT-61" x="166.699219"/>
     <use xlink:href="#ArialMT-73" x="222.314453"/>
     <use xlink:href="#ArialMT-6b" x="272.314453"/>
     <use xlink:href="#ArialMT-67" x="322.314453"/>
     <use xlink:href="#ArialMT-72" x="377.929688"/>
     <use xlink:href="#ArialMT-6f" x="411.230469"/>
     <use xlink:href="#ArialMT-75" x="466.845703"/>
     <use xlink:href="#ArialMT-70" x="522.460938"/>
     <use xlink:href="#ArialMT-5f" x="578.076172"/>
     <use xlink:href="#ArialMT-62" x="633.691406"/>
     <use xlink:href="#ArialMT-6c" x="689.306641"/>
     <use xlink:href="#ArialMT-61" x="711.523438"/>
     <use xlink:href="#ArialMT-6b" x="767.138672"/>
     <use xlink:href="#ArialMT-65" x="817.138672"/>
     <use xlink:href="#ArialMT-32" x="872.753906"/>
     <use xlink:href="#ArialMT-33" x="928.369141"/>
     <use xlink:href="#ArialMT-5f" x="983.984375"/>
     <use xlink:href="#ArialMT-63" x="1039.599609"/>
     <use xlink:href="#ArialMT-6c" x="1089.599609"/>
     <use xlink:href="#ArialMT-61" x="1111.816406"/>
     <use xlink:href="#ArialMT-6e" x="1167.431641"/>
     <use xlink:href="#ArialMT-67" x="1223.046875"/>
     <use xlink:href="#ArialMT-2b" x="1278.662109"/>
     <use xlink:href="#ArialMT-2b" x="1337.060547"/>
     <use xlink:href="#ArialMT-5f" x="1395.458984"/>
     <use xlink:href="#ArialMT-6f" x="1451.074219"/>
     <use xlink:href="#ArialMT-76" x="1506.689453"/>
     <use xlink:href="#ArialMT-65" x="1556.689453"/>
     <use xlink:href="#ArialMT-72" x="1612.304688"/>
     <use xlink:href="#ArialMT-4e" x="1645.605469"/>
     <use xlink:href="#ArialMT-2e" x="1717.822266"/>
     <use xlink:href="#ArialMT-72" x="1745.605469"/>
     <use xlink:href="#ArialMT-65" x="1778.90625"/>
     <use xlink:href="#ArialMT-73" x="1834.521484"/>
    </g>
   </g>
   <g id="legend_1">
    <g id="patch_7">
     <path d="M 342.332344 301.084 
L 405.62 301.084 
Q 408.22 301.084 408.22 298.484 
L 408.22 134.283844 
Q 408.22 131.683844 405.62 131.683844 
L 342.332344 131.683844 
Q 339.732344 131.683844 339.732344 134.283844 
L 339.732344 298.484 
Q 339.732344 301.084 342.332344 301.084 
z
" style="fill: #ffffff; opacity: 0.8; stroke: #cccccc; stroke-width: 0.8; stroke-linejoin: miter"/>
    </g>
    <g id="line2d_66">
     <path d="M 344.932344 141.639 
L 357.932344 141.639 
L 370.932344 141.639 
" style="fill: none; stroke: #1f77b4; stroke-width: 1.2; stroke-linecap: round"/>
    </g>
    <g id="text_17">
     <!-- 1 -->
     <g style="fill: #262626" transform="translate(381.332344 146.189)scale(0.13 -0.13)">
      <use xlink:href="#ArialMT-31"/>
     </g>
    </g>
    <g id="line2d_67">
     <path d="M 344.932344 160.027906 
L 357.932344 160.027906 
L 370.932344 160.027906 
" style="fill: none; stroke: #aec7e8; stroke-width: 1.2; stroke-linecap: round"/>
    </g>
    <g id="text_18">
     <!-- 2 -->
     <g style="fill: #262626" transform="translate(381.332344 164.577906)scale(0.13 -0.13)">
      <use xlink:href="#ArialMT-32"/>
     </g>
    </g>
    <g id="line2d_68">
     <path d="M 344.932344 178.416813 
L 357.932344 178.416813 
L 370.932344 178.416813 
" style="fill: none; stroke: #ff7f0e; stroke-width: 1.2; stroke-linecap: round"/>
    </g>
    <g id="text_19">
     <!-- 4 -->
     <g style="fill: #262626" transform="translate(381.332344 182.966813)scale(0.13 -0.13)">
      <use xlink:href="#ArialMT-34"/>
     </g>
    </g>
    <g id="line2d_69">
     <path d="M 344.932344 196.805719 
L 357.932344 196.805719 
L 370.932344 196.805719 
" style="fill: none; stroke: #ffbb78; stroke-width: 1.2; stroke-linecap: round"/>
    </g>
    <g id="text_20">
     <!-- 8 -->
     <g style="fill: #262626" transform="translate(381.332344 201.355719)scale(0.13 -0.13)">
      <use xlink:href="#ArialMT-38"/>
     </g>
    </g>
    <g id="line2d_70">
     <path d="M 344.932344 215.194625 
L 357.932344 215.194625 
L 370.932344 215.194625 
" style="fill: none; stroke: #2ca02c; stroke-width: 1.2; stroke-linecap: round"/>
    </g>
    <g id="text_21">
     <!-- 16 -->
     <g style="fill: #262626" transform="translate(381.332344 219.744625)scale(0.13 -0.13)">
      <use xlink:href="#ArialMT-31"/>
      <use xlink:href="#ArialMT-36" x="55.615234"/>
     </g>
    </g>
    <g id="line2d_71">
     <path d="M 344.932344 233.583531 
L 357.932344 233.583531 
L 370.932344 233.583531 
" style="fill: none; stroke: #98df8a; stroke-width: 1.2; stroke-linecap: round"/>
    </g>
    <g id="text_22">
     <!-- 32 -->
     <g style="fill: #262626" transform="translate(381.332344 238.133531)scale(0.13 -0.13)">
      <use xlink:href="#ArialMT-33"/>
      <use xlink:href="#ArialMT-32" x="55.615234"/>
     </g>
    </g>
    <g id="line2d_72">
     <path d="M 344.932344 251.972438 
L 357.932344 251.972438 
L 370.932344 251.972438 
" style="fill: none; stroke: #d62728; stroke-width: 1.2; stroke-linecap: round"/>
    </g>
    <g id="text_23">
     <!-- 64 -->
     <g style="fill: #262626" transform="translate(381.332344 256.522438)scale(0.13 -0.13)">
      <use xlink:href="#ArialMT-36"/>
      <use xlink:href="#ArialMT-34" x="55.615234"/>
     </g>
    </g>
    <g id="line2d_73">
     <path d="M 344.932344 270.361344 
L 357.932344 270.361344 
L 370.932344 270.361344 
" style="fill: none; stroke: #ff9896; stroke-width: 1.2; stroke-linecap: round"/>
    </g>
    <g id="text_24">
     <!-- 128 -->
     <g style="fill: #262626" transform="translate(381.332344 274.911344)scale(0.13 -0.13)">
      <use xlink:href="#ArialMT-31"/>
      <use xlink:href="#ArialMT-32" x="55.615234"/>
      <use xlink:href="#ArialMT-38" x="111.230469"/>
     </g>
    </g>
    <g id="line2d_74">
     <path d="M 344.932344 288.75025 
L 357.932344 288.75025 
L 370.932344 288.75025 
" style="fill: none; stroke: #9467bd; stroke-width: 1.2; stroke-linecap: round"/>
    </g>
    <g id="text_25">
     <!-- 256 -->
     <g style="fill: #262626" transform="translate(381.332344 293.30025)scale(0.13 -0.13)">
      <defs>
       <path id="ArialMT-35" d="M 266 1200 
L 856 1250 
Q 922 819 1161 601 
Q 1400 384 1738 384 
Q 2144 384 2425 690 
Q 2706 997 2706 1503 
Q 2706 1984 2436 2262 
Q 2166 2541 1728 2541 
Q 1456 2541 1237 2417 
Q 1019 2294 894 2097 
L 366 2166 
L 809 4519 
L 3088 4519 
L 3088 3981 
L 1259 3981 
L 1013 2750 
Q 1425 3038 1878 3038 
Q 2478 3038 2890 2622 
Q 3303 2206 3303 1553 
Q 3303 931 2941 478 
Q 2500 -78 1738 -78 
Q 1113 -78 717 272 
Q 322 622 266 1200 
z
" transform="scale(0.015625)"/>
      </defs>
      <use xlink:href="#ArialMT-32"/>
      <use xlink:href="#ArialMT-35" x="55.615234"/>
      <use xlink:href="#ArialMT-36" x="111.230469"/>
     </g>
    </g>
   </g>
  </g>
 </g>
 <defs>
  <clipPath id="p3e8fff366f">
   <rect x="57.6" y="41.472" width="357.12" height="266.112"/>
  </clipPath>
 </defs>
</svg>
