<?xml version="1.0" encoding="utf-8" standalone="no"?>
<!DOCTYPE svg PUBLIC "-//W3C//DTD SVG 1.1//EN"
  "http://www.w3.org/Graphics/SVG/1.1/DTD/svg11.dtd">
<svg xmlns:xlink="http://www.w3.org/1999/xlink" width="460.8pt" height="345.6pt" viewBox="0 0 460.8 345.6" xmlns="http://www.w3.org/2000/svg" version="1.1">
 <metadata>
  <rdf:RDF xmlns:dc="http://purl.org/dc/elements/1.1/" xmlns:cc="http://creativecommons.org/ns#" xmlns:rdf="http://www.w3.org/1999/02/22-rdf-syntax-ns#">
   <cc:Work>
    <dc:type rdf:resource="http://purl.org/dc/dcmitype/StillImage"/>
    <dc:date>2022-05-24T18:14:01.628889</dc:date>
    <dc:format>image/svg+xml</dc:format>
    <dc:creator>
     <cc:Agent>
      <dc:title>Matplotlib v3.5.1, https://matplotlib.org/</dc:title>
     </cc:Agent>
    </dc:creator>
   </cc:Work>
  </rdf:RDF>
 </metadata>
 <defs>
  <style type="text/css">*{stroke-linejoin: round; stroke-linecap: butt}</style>
 </defs>
 <g id="figure_1">
  <g id="patch_1">
   <path d="M 0 345.6 
L 460.8 345.6 
L 460.8 0 
L 0 0 
z
" style="fill: #ffffff"/>
  </g>
  <g id="axes_1">
   <g id="patch_2">
    <path d="M 57.6 307.584 
L 414.72 307.584 
L 414.72 41.472 
L 57.6 41.472 
z
" style="fill: #ffffff"/>
   </g>
   <g id="matplotlib.axis_1">
    <g id="xtick_1">
     <g id="line2d_1">
      <defs>
       <path id="m234330e8d2" d="M 0 0 
L 0 4.8 
" style="stroke: #262626"/>
      </defs>
      <g>
       <use xlink:href="#m234330e8d2" x="66.801591" y="307.584" style="fill: #262626; stroke: #262626"/>
      </g>
     </g>
     <g id="text_1">
      <!-- $\mathdefault{10^{3}}$ -->
      <g style="fill: #262626" transform="translate(59.893591 324.959)scale(0.088 -0.088)">
       <defs>
        <path id="ArialMT-31" d="M 2384 0 
L 1822 0 
L 1822 3584 
Q 1619 3391 1289 3197 
Q 959 3003 697 2906 
L 697 3450 
Q 1169 3672 1522 3987 
Q 1875 4303 2022 4600 
L 2384 4600 
L 2384 0 
z
" transform="scale(0.015625)"/>
        <path id="ArialMT-30" d="M 266 2259 
Q 266 3072 433 3567 
Q 600 4063 929 4331 
Q 1259 4600 1759 4600 
Q 2128 4600 2406 4451 
Q 2684 4303 2865 4023 
Q 3047 3744 3150 3342 
Q 3253 2941 3253 2259 
Q 3253 1453 3087 958 
Q 2922 463 2592 192 
Q 2263 -78 1759 -78 
Q 1097 -78 719 397 
Q 266 969 266 2259 
z
M 844 2259 
Q 844 1131 1108 757 
Q 1372 384 1759 384 
Q 2147 384 2411 759 
Q 2675 1134 2675 2259 
Q 2675 3391 2411 3762 
Q 2147 4134 1753 4134 
Q 1366 4134 1134 3806 
Q 844 3388 844 2259 
z
" transform="scale(0.015625)"/>
        <path id="ArialMT-33" d="M 269 1209 
L 831 1284 
Q 928 806 1161 595 
Q 1394 384 1728 384 
Q 2125 384 2398 659 
Q 2672 934 2672 1341 
Q 2672 1728 2419 1979 
Q 2166 2231 1775 2231 
Q 1616 2231 1378 2169 
L 1441 2663 
Q 1497 2656 1531 2656 
Q 1891 2656 2178 2843 
Q 2466 3031 2466 3422 
Q 2466 3731 2256 3934 
Q 2047 4138 1716 4138 
Q 1388 4138 1169 3931 
Q 950 3725 888 3313 
L 325 3413 
Q 428 3978 793 4289 
Q 1159 4600 1703 4600 
Q 2078 4600 2393 4439 
Q 2709 4278 2876 4000 
Q 3044 3722 3044 3409 
Q 3044 3113 2884 2869 
Q 2725 2625 2413 2481 
Q 2819 2388 3044 2092 
Q 3269 1797 3269 1353 
Q 3269 753 2831 336 
Q 2394 -81 1725 -81 
Q 1122 -81 723 278 
Q 325 638 269 1209 
z
" transform="scale(0.015625)"/>
       </defs>
       <use xlink:href="#ArialMT-31" transform="translate(0 0.99375)"/>
       <use xlink:href="#ArialMT-30" transform="translate(55.615234 0.99375)"/>
       <use xlink:href="#ArialMT-33" transform="translate(112.972813 70.6875)scale(0.7)"/>
      </g>
     </g>
    </g>
    <g id="xtick_2">
     <g id="line2d_2">
      <g>
       <use xlink:href="#m234330e8d2" x="148.555469" y="307.584" style="fill: #262626; stroke: #262626"/>
      </g>
     </g>
     <g id="text_2">
      <!-- $\mathdefault{10^{4}}$ -->
      <g style="fill: #262626" transform="translate(141.647469 324.871)scale(0.088 -0.088)">
       <defs>
        <path id="ArialMT-34" d="M 2069 0 
L 2069 1097 
L 81 1097 
L 81 1613 
L 2172 4581 
L 2631 4581 
L 2631 1613 
L 3250 1613 
L 3250 1097 
L 2631 1097 
L 2631 0 
L 2069 0 
z
M 2069 1613 
L 2069 3678 
L 634 1613 
L 2069 1613 
z
" transform="scale(0.015625)"/>
       </defs>
       <use xlink:href="#ArialMT-31" transform="translate(0 0.201563)"/>
       <use xlink:href="#ArialMT-30" transform="translate(55.615234 0.201563)"/>
       <use xlink:href="#ArialMT-34" transform="translate(112.972813 69.895313)scale(0.7)"/>
      </g>
     </g>
    </g>
    <g id="xtick_3">
     <g id="line2d_3">
      <g>
       <use xlink:href="#m234330e8d2" x="230.309348" y="307.584" style="fill: #262626; stroke: #262626"/>
      </g>
     </g>
     <g id="text_3">
      <!-- $\mathdefault{10^{5}}$ -->
      <g style="fill: #262626" transform="translate(223.401348 324.871)scale(0.088 -0.088)">
       <defs>
        <path id="ArialMT-35" d="M 266 1200 
L 856 1250 
Q 922 819 1161 601 
Q 1400 384 1738 384 
Q 2144 384 2425 690 
Q 2706 997 2706 1503 
Q 2706 1984 2436 2262 
Q 2166 2541 1728 2541 
Q 1456 2541 1237 2417 
Q 1019 2294 894 2097 
L 366 2166 
L 809 4519 
L 3088 4519 
L 3088 3981 
L 1259 3981 
L 1013 2750 
Q 1425 3038 1878 3038 
Q 2478 3038 2890 2622 
Q 3303 2206 3303 1553 
Q 3303 931 2941 478 
Q 2500 -78 1738 -78 
Q 1113 -78 717 272 
Q 322 622 266 1200 
z
" transform="scale(0.015625)"/>
       </defs>
       <use xlink:href="#ArialMT-31" transform="translate(0 0.879688)"/>
       <use xlink:href="#ArialMT-30" transform="translate(55.615234 0.879688)"/>
       <use xlink:href="#ArialMT-35" transform="translate(112.972813 70.573438)scale(0.7)"/>
      </g>
     </g>
    </g>
    <g id="xtick_4">
     <g id="line2d_4">
      <g>
       <use xlink:href="#m234330e8d2" x="312.063226" y="307.584" style="fill: #262626; stroke: #262626"/>
      </g>
     </g>
     <g id="text_4">
      <!-- $\mathdefault{10^{6}}$ -->
      <g style="fill: #262626" transform="translate(305.155226 324.959)scale(0.088 -0.088)">
       <defs>
        <path id="ArialMT-36" d="M 3184 3459 
L 2625 3416 
Q 2550 3747 2413 3897 
Q 2184 4138 1850 4138 
Q 1581 4138 1378 3988 
Q 1113 3794 959 3422 
Q 806 3050 800 2363 
Q 1003 2672 1297 2822 
Q 1591 2972 1913 2972 
Q 2475 2972 2870 2558 
Q 3266 2144 3266 1488 
Q 3266 1056 3080 686 
Q 2894 316 2569 119 
Q 2244 -78 1831 -78 
Q 1128 -78 684 439 
Q 241 956 241 2144 
Q 241 3472 731 4075 
Q 1159 4600 1884 4600 
Q 2425 4600 2770 4297 
Q 3116 3994 3184 3459 
z
M 888 1484 
Q 888 1194 1011 928 
Q 1134 663 1356 523 
Q 1578 384 1822 384 
Q 2178 384 2434 671 
Q 2691 959 2691 1453 
Q 2691 1928 2437 2201 
Q 2184 2475 1800 2475 
Q 1419 2475 1153 2201 
Q 888 1928 888 1484 
z
" transform="scale(0.015625)"/>
       </defs>
       <use xlink:href="#ArialMT-31" transform="translate(0 0.99375)"/>
       <use xlink:href="#ArialMT-30" transform="translate(55.615234 0.99375)"/>
       <use xlink:href="#ArialMT-36" transform="translate(112.972813 70.6875)scale(0.7)"/>
      </g>
     </g>
    </g>
    <g id="xtick_5">
     <g id="line2d_5">
      <g>
       <use xlink:href="#m234330e8d2" x="393.817105" y="307.584" style="fill: #262626; stroke: #262626"/>
      </g>
     </g>
     <g id="text_5">
      <!-- $\mathdefault{10^{7}}$ -->
      <g style="fill: #262626" transform="translate(386.909105 324.871)scale(0.088 -0.088)">
       <defs>
        <path id="ArialMT-37" d="M 303 3981 
L 303 4522 
L 3269 4522 
L 3269 4084 
Q 2831 3619 2401 2847 
Q 1972 2075 1738 1259 
Q 1569 684 1522 0 
L 944 0 
Q 953 541 1156 1306 
Q 1359 2072 1739 2783 
Q 2119 3494 2547 3981 
L 303 3981 
z
" transform="scale(0.015625)"/>
       </defs>
       <use xlink:href="#ArialMT-31" transform="translate(0 0.846875)"/>
       <use xlink:href="#ArialMT-30" transform="translate(55.615234 0.846875)"/>
       <use xlink:href="#ArialMT-37" transform="translate(112.972813 70.540625)scale(0.7)"/>
      </g>
     </g>
    </g>
    <g id="xtick_6">
     <g id="line2d_6">
      <defs>
       <path id="m0f144e3a4d" d="M 0 0 
L 0 3.2 
" style="stroke: #262626; stroke-width: 0.8"/>
      </defs>
      <g>
       <use xlink:href="#m0f144e3a4d" x="58.878821" y="307.584" style="fill: #262626; stroke: #262626; stroke-width: 0.8"/>
      </g>
     </g>
    </g>
    <g id="xtick_7">
     <g id="line2d_7">
      <g>
       <use xlink:href="#m0f144e3a4d" x="63.060738" y="307.584" style="fill: #262626; stroke: #262626; stroke-width: 0.8"/>
      </g>
     </g>
    </g>
    <g id="xtick_8">
     <g id="line2d_8">
      <g>
       <use xlink:href="#m0f144e3a4d" x="91.41196" y="307.584" style="fill: #262626; stroke: #262626; stroke-width: 0.8"/>
      </g>
     </g>
    </g>
    <g id="xtick_9">
     <g id="line2d_9">
      <g>
       <use xlink:href="#m0f144e3a4d" x="105.808104" y="307.584" style="fill: #262626; stroke: #262626; stroke-width: 0.8"/>
      </g>
     </g>
    </g>
    <g id="xtick_10">
     <g id="line2d_10">
      <g>
       <use xlink:href="#m0f144e3a4d" x="116.02233" y="307.584" style="fill: #262626; stroke: #262626; stroke-width: 0.8"/>
      </g>
     </g>
    </g>
    <g id="xtick_11">
     <g id="line2d_11">
      <g>
       <use xlink:href="#m0f144e3a4d" x="123.9451" y="307.584" style="fill: #262626; stroke: #262626; stroke-width: 0.8"/>
      </g>
     </g>
    </g>
    <g id="xtick_12">
     <g id="line2d_12">
      <g>
       <use xlink:href="#m0f144e3a4d" x="130.418474" y="307.584" style="fill: #262626; stroke: #262626; stroke-width: 0.8"/>
      </g>
     </g>
    </g>
    <g id="xtick_13">
     <g id="line2d_13">
      <g>
       <use xlink:href="#m0f144e3a4d" x="135.891633" y="307.584" style="fill: #262626; stroke: #262626; stroke-width: 0.8"/>
      </g>
     </g>
    </g>
    <g id="xtick_14">
     <g id="line2d_14">
      <g>
       <use xlink:href="#m0f144e3a4d" x="140.6327" y="307.584" style="fill: #262626; stroke: #262626; stroke-width: 0.8"/>
      </g>
     </g>
    </g>
    <g id="xtick_15">
     <g id="line2d_15">
      <g>
       <use xlink:href="#m0f144e3a4d" x="144.814617" y="307.584" style="fill: #262626; stroke: #262626; stroke-width: 0.8"/>
      </g>
     </g>
    </g>
    <g id="xtick_16">
     <g id="line2d_16">
      <g>
       <use xlink:href="#m0f144e3a4d" x="173.165839" y="307.584" style="fill: #262626; stroke: #262626; stroke-width: 0.8"/>
      </g>
     </g>
    </g>
    <g id="xtick_17">
     <g id="line2d_17">
      <g>
       <use xlink:href="#m0f144e3a4d" x="187.561982" y="307.584" style="fill: #262626; stroke: #262626; stroke-width: 0.8"/>
      </g>
     </g>
    </g>
    <g id="xtick_18">
     <g id="line2d_18">
      <g>
       <use xlink:href="#m0f144e3a4d" x="197.776209" y="307.584" style="fill: #262626; stroke: #262626; stroke-width: 0.8"/>
      </g>
     </g>
    </g>
    <g id="xtick_19">
     <g id="line2d_19">
      <g>
       <use xlink:href="#m0f144e3a4d" x="205.698978" y="307.584" style="fill: #262626; stroke: #262626; stroke-width: 0.8"/>
      </g>
     </g>
    </g>
    <g id="xtick_20">
     <g id="line2d_20">
      <g>
       <use xlink:href="#m0f144e3a4d" x="212.172352" y="307.584" style="fill: #262626; stroke: #262626; stroke-width: 0.8"/>
      </g>
     </g>
    </g>
    <g id="xtick_21">
     <g id="line2d_21">
      <g>
       <use xlink:href="#m0f144e3a4d" x="217.645512" y="307.584" style="fill: #262626; stroke: #262626; stroke-width: 0.8"/>
      </g>
     </g>
    </g>
    <g id="xtick_22">
     <g id="line2d_22">
      <g>
       <use xlink:href="#m0f144e3a4d" x="222.386578" y="307.584" style="fill: #262626; stroke: #262626; stroke-width: 0.8"/>
      </g>
     </g>
    </g>
    <g id="xtick_23">
     <g id="line2d_23">
      <g>
       <use xlink:href="#m0f144e3a4d" x="226.568496" y="307.584" style="fill: #262626; stroke: #262626; stroke-width: 0.8"/>
      </g>
     </g>
    </g>
    <g id="xtick_24">
     <g id="line2d_24">
      <g>
       <use xlink:href="#m0f144e3a4d" x="254.919718" y="307.584" style="fill: #262626; stroke: #262626; stroke-width: 0.8"/>
      </g>
     </g>
    </g>
    <g id="xtick_25">
     <g id="line2d_25">
      <g>
       <use xlink:href="#m0f144e3a4d" x="269.315861" y="307.584" style="fill: #262626; stroke: #262626; stroke-width: 0.8"/>
      </g>
     </g>
    </g>
    <g id="xtick_26">
     <g id="line2d_26">
      <g>
       <use xlink:href="#m0f144e3a4d" x="279.530087" y="307.584" style="fill: #262626; stroke: #262626; stroke-width: 0.8"/>
      </g>
     </g>
    </g>
    <g id="xtick_27">
     <g id="line2d_27">
      <g>
       <use xlink:href="#m0f144e3a4d" x="287.452857" y="307.584" style="fill: #262626; stroke: #262626; stroke-width: 0.8"/>
      </g>
     </g>
    </g>
    <g id="xtick_28">
     <g id="line2d_28">
      <g>
       <use xlink:href="#m0f144e3a4d" x="293.926231" y="307.584" style="fill: #262626; stroke: #262626; stroke-width: 0.8"/>
      </g>
     </g>
    </g>
    <g id="xtick_29">
     <g id="line2d_29">
      <g>
       <use xlink:href="#m0f144e3a4d" x="299.39939" y="307.584" style="fill: #262626; stroke: #262626; stroke-width: 0.8"/>
      </g>
     </g>
    </g>
    <g id="xtick_30">
     <g id="line2d_30">
      <g>
       <use xlink:href="#m0f144e3a4d" x="304.140457" y="307.584" style="fill: #262626; stroke: #262626; stroke-width: 0.8"/>
      </g>
     </g>
    </g>
    <g id="xtick_31">
     <g id="line2d_31">
      <g>
       <use xlink:href="#m0f144e3a4d" x="308.322374" y="307.584" style="fill: #262626; stroke: #262626; stroke-width: 0.8"/>
      </g>
     </g>
    </g>
    <g id="xtick_32">
     <g id="line2d_32">
      <g>
       <use xlink:href="#m0f144e3a4d" x="336.673596" y="307.584" style="fill: #262626; stroke: #262626; stroke-width: 0.8"/>
      </g>
     </g>
    </g>
    <g id="xtick_33">
     <g id="line2d_33">
      <g>
       <use xlink:href="#m0f144e3a4d" x="351.06974" y="307.584" style="fill: #262626; stroke: #262626; stroke-width: 0.8"/>
      </g>
     </g>
    </g>
    <g id="xtick_34">
     <g id="line2d_34">
      <g>
       <use xlink:href="#m0f144e3a4d" x="361.283966" y="307.584" style="fill: #262626; stroke: #262626; stroke-width: 0.8"/>
      </g>
     </g>
    </g>
    <g id="xtick_35">
     <g id="line2d_35">
      <g>
       <use xlink:href="#m0f144e3a4d" x="369.206735" y="307.584" style="fill: #262626; stroke: #262626; stroke-width: 0.8"/>
      </g>
     </g>
    </g>
    <g id="xtick_36">
     <g id="line2d_36">
      <g>
       <use xlink:href="#m0f144e3a4d" x="375.680109" y="307.584" style="fill: #262626; stroke: #262626; stroke-width: 0.8"/>
      </g>
     </g>
    </g>
    <g id="xtick_37">
     <g id="line2d_37">
      <g>
       <use xlink:href="#m0f144e3a4d" x="381.153269" y="307.584" style="fill: #262626; stroke: #262626; stroke-width: 0.8"/>
      </g>
     </g>
    </g>
    <g id="xtick_38">
     <g id="line2d_38">
      <g>
       <use xlink:href="#m0f144e3a4d" x="385.894336" y="307.584" style="fill: #262626; stroke: #262626; stroke-width: 0.8"/>
      </g>
     </g>
    </g>
    <g id="xtick_39">
     <g id="line2d_39">
      <g>
       <use xlink:href="#m0f144e3a4d" x="390.076253" y="307.584" style="fill: #262626; stroke: #262626; stroke-width: 0.8"/>
      </g>
     </g>
    </g>
    <g id="text_6">
     <!-- Number of Tasks -->
     <g style="fill: #262626" transform="translate(187.513594 340.013156)scale(0.13 -0.13)">
      <defs>
       <path id="ArialMT-4e" d="M 488 0 
L 488 4581 
L 1109 4581 
L 3516 984 
L 3516 4581 
L 4097 4581 
L 4097 0 
L 3475 0 
L 1069 3600 
L 1069 0 
L 488 0 
z
" transform="scale(0.015625)"/>
       <path id="ArialMT-75" d="M 2597 0 
L 2597 488 
Q 2209 -75 1544 -75 
Q 1250 -75 995 37 
Q 741 150 617 320 
Q 494 491 444 738 
Q 409 903 409 1263 
L 409 3319 
L 972 3319 
L 972 1478 
Q 972 1038 1006 884 
Q 1059 663 1231 536 
Q 1403 409 1656 409 
Q 1909 409 2131 539 
Q 2353 669 2445 892 
Q 2538 1116 2538 1541 
L 2538 3319 
L 3100 3319 
L 3100 0 
L 2597 0 
z
" transform="scale(0.015625)"/>
       <path id="ArialMT-6d" d="M 422 0 
L 422 3319 
L 925 3319 
L 925 2853 
Q 1081 3097 1340 3245 
Q 1600 3394 1931 3394 
Q 2300 3394 2536 3241 
Q 2772 3088 2869 2813 
Q 3263 3394 3894 3394 
Q 4388 3394 4653 3120 
Q 4919 2847 4919 2278 
L 4919 0 
L 4359 0 
L 4359 2091 
Q 4359 2428 4304 2576 
Q 4250 2725 4106 2815 
Q 3963 2906 3769 2906 
Q 3419 2906 3187 2673 
Q 2956 2441 2956 1928 
L 2956 0 
L 2394 0 
L 2394 2156 
Q 2394 2531 2256 2718 
Q 2119 2906 1806 2906 
Q 1569 2906 1367 2781 
Q 1166 2656 1075 2415 
Q 984 2175 984 1722 
L 984 0 
L 422 0 
z
" transform="scale(0.015625)"/>
       <path id="ArialMT-62" d="M 941 0 
L 419 0 
L 419 4581 
L 981 4581 
L 981 2947 
Q 1338 3394 1891 3394 
Q 2197 3394 2470 3270 
Q 2744 3147 2920 2923 
Q 3097 2700 3197 2384 
Q 3297 2069 3297 1709 
Q 3297 856 2875 390 
Q 2453 -75 1863 -75 
Q 1275 -75 941 416 
L 941 0 
z
M 934 1684 
Q 934 1088 1097 822 
Q 1363 388 1816 388 
Q 2184 388 2453 708 
Q 2722 1028 2722 1663 
Q 2722 2313 2464 2622 
Q 2206 2931 1841 2931 
Q 1472 2931 1203 2611 
Q 934 2291 934 1684 
z
" transform="scale(0.015625)"/>
       <path id="ArialMT-65" d="M 2694 1069 
L 3275 997 
Q 3138 488 2766 206 
Q 2394 -75 1816 -75 
Q 1088 -75 661 373 
Q 234 822 234 1631 
Q 234 2469 665 2931 
Q 1097 3394 1784 3394 
Q 2450 3394 2872 2941 
Q 3294 2488 3294 1666 
Q 3294 1616 3291 1516 
L 816 1516 
Q 847 969 1125 678 
Q 1403 388 1819 388 
Q 2128 388 2347 550 
Q 2566 713 2694 1069 
z
M 847 1978 
L 2700 1978 
Q 2663 2397 2488 2606 
Q 2219 2931 1791 2931 
Q 1403 2931 1139 2672 
Q 875 2413 847 1978 
z
" transform="scale(0.015625)"/>
       <path id="ArialMT-72" d="M 416 0 
L 416 3319 
L 922 3319 
L 922 2816 
Q 1116 3169 1280 3281 
Q 1444 3394 1641 3394 
Q 1925 3394 2219 3213 
L 2025 2691 
Q 1819 2813 1613 2813 
Q 1428 2813 1281 2702 
Q 1134 2591 1072 2394 
Q 978 2094 978 1738 
L 978 0 
L 416 0 
z
" transform="scale(0.015625)"/>
       <path id="ArialMT-20" transform="scale(0.015625)"/>
       <path id="ArialMT-6f" d="M 213 1659 
Q 213 2581 725 3025 
Q 1153 3394 1769 3394 
Q 2453 3394 2887 2945 
Q 3322 2497 3322 1706 
Q 3322 1066 3130 698 
Q 2938 331 2570 128 
Q 2203 -75 1769 -75 
Q 1072 -75 642 372 
Q 213 819 213 1659 
z
M 791 1659 
Q 791 1022 1069 705 
Q 1347 388 1769 388 
Q 2188 388 2466 706 
Q 2744 1025 2744 1678 
Q 2744 2294 2464 2611 
Q 2184 2928 1769 2928 
Q 1347 2928 1069 2612 
Q 791 2297 791 1659 
z
" transform="scale(0.015625)"/>
       <path id="ArialMT-66" d="M 556 0 
L 556 2881 
L 59 2881 
L 59 3319 
L 556 3319 
L 556 3672 
Q 556 4006 616 4169 
Q 697 4388 901 4523 
Q 1106 4659 1475 4659 
Q 1713 4659 2000 4603 
L 1916 4113 
Q 1741 4144 1584 4144 
Q 1328 4144 1222 4034 
Q 1116 3925 1116 3625 
L 1116 3319 
L 1763 3319 
L 1763 2881 
L 1116 2881 
L 1116 0 
L 556 0 
z
" transform="scale(0.015625)"/>
       <path id="ArialMT-54" d="M 1659 0 
L 1659 4041 
L 150 4041 
L 150 4581 
L 3781 4581 
L 3781 4041 
L 2266 4041 
L 2266 0 
L 1659 0 
z
" transform="scale(0.015625)"/>
       <path id="ArialMT-61" d="M 2588 409 
Q 2275 144 1986 34 
Q 1697 -75 1366 -75 
Q 819 -75 525 192 
Q 231 459 231 875 
Q 231 1119 342 1320 
Q 453 1522 633 1644 
Q 813 1766 1038 1828 
Q 1203 1872 1538 1913 
Q 2219 1994 2541 2106 
Q 2544 2222 2544 2253 
Q 2544 2597 2384 2738 
Q 2169 2928 1744 2928 
Q 1347 2928 1158 2789 
Q 969 2650 878 2297 
L 328 2372 
Q 403 2725 575 2942 
Q 747 3159 1072 3276 
Q 1397 3394 1825 3394 
Q 2250 3394 2515 3294 
Q 2781 3194 2906 3042 
Q 3031 2891 3081 2659 
Q 3109 2516 3109 2141 
L 3109 1391 
Q 3109 606 3145 398 
Q 3181 191 3288 0 
L 2700 0 
Q 2613 175 2588 409 
z
M 2541 1666 
Q 2234 1541 1622 1453 
Q 1275 1403 1131 1340 
Q 988 1278 909 1158 
Q 831 1038 831 891 
Q 831 666 1001 516 
Q 1172 366 1500 366 
Q 1825 366 2078 508 
Q 2331 650 2450 897 
Q 2541 1088 2541 1459 
L 2541 1666 
z
" transform="scale(0.015625)"/>
       <path id="ArialMT-73" d="M 197 991 
L 753 1078 
Q 800 744 1014 566 
Q 1228 388 1613 388 
Q 2000 388 2187 545 
Q 2375 703 2375 916 
Q 2375 1106 2209 1216 
Q 2094 1291 1634 1406 
Q 1016 1563 777 1677 
Q 538 1791 414 1992 
Q 291 2194 291 2438 
Q 291 2659 392 2848 
Q 494 3038 669 3163 
Q 800 3259 1026 3326 
Q 1253 3394 1513 3394 
Q 1903 3394 2198 3281 
Q 2494 3169 2634 2976 
Q 2775 2784 2828 2463 
L 2278 2388 
Q 2241 2644 2061 2787 
Q 1881 2931 1553 2931 
Q 1166 2931 1000 2803 
Q 834 2675 834 2503 
Q 834 2394 903 2306 
Q 972 2216 1119 2156 
Q 1203 2125 1616 2013 
Q 2213 1853 2448 1751 
Q 2684 1650 2818 1456 
Q 2953 1263 2953 975 
Q 2953 694 2789 445 
Q 2625 197 2315 61 
Q 2006 -75 1616 -75 
Q 969 -75 630 194 
Q 291 463 197 991 
z
" transform="scale(0.015625)"/>
       <path id="ArialMT-6b" d="M 425 0 
L 425 4581 
L 988 4581 
L 988 1969 
L 2319 3319 
L 3047 3319 
L 1778 2088 
L 3175 0 
L 2481 0 
L 1384 1697 
L 988 1316 
L 988 0 
L 425 0 
z
" transform="scale(0.015625)"/>
      </defs>
      <use xlink:href="#ArialMT-4e"/>
      <use xlink:href="#ArialMT-75" x="72.216797"/>
      <use xlink:href="#ArialMT-6d" x="127.832031"/>
      <use xlink:href="#ArialMT-62" x="211.132812"/>
      <use xlink:href="#ArialMT-65" x="266.748047"/>
      <use xlink:href="#ArialMT-72" x="322.363281"/>
      <use xlink:href="#ArialMT-20" x="355.664062"/>
      <use xlink:href="#ArialMT-6f" x="383.447266"/>
      <use xlink:href="#ArialMT-66" x="439.0625"/>
      <use xlink:href="#ArialMT-20" x="466.845703"/>
      <use xlink:href="#ArialMT-54" x="492.878906"/>
      <use xlink:href="#ArialMT-61" x="542.837891"/>
      <use xlink:href="#ArialMT-73" x="598.453125"/>
      <use xlink:href="#ArialMT-6b" x="648.453125"/>
      <use xlink:href="#ArialMT-73" x="698.453125"/>
     </g>
    </g>
   </g>
   <g id="matplotlib.axis_2">
    <g id="ytick_1">
     <g id="line2d_40">
      <defs>
       <path id="md7aec3712a" d="M 0 0 
L -4.8 0 
" style="stroke: #262626"/>
      </defs>
      <g>
       <use xlink:href="#md7aec3712a" x="57.6" y="260.544825" style="fill: #262626; stroke: #262626"/>
      </g>
     </g>
     <g id="text_7">
      <!-- $\mathdefault{10^{-2}}$ -->
      <g style="fill: #262626" transform="translate(31.876 265.082325)scale(0.088 -0.088)">
       <defs>
        <path id="ArialMT-2212" d="M 3381 1997 
L 356 1997 
L 356 2522 
L 3381 2522 
L 3381 1997 
z
" transform="scale(0.015625)"/>
        <path id="ArialMT-32" d="M 3222 541 
L 3222 0 
L 194 0 
Q 188 203 259 391 
Q 375 700 629 1000 
Q 884 1300 1366 1694 
Q 2113 2306 2375 2664 
Q 2638 3022 2638 3341 
Q 2638 3675 2398 3904 
Q 2159 4134 1775 4134 
Q 1369 4134 1125 3890 
Q 881 3647 878 3216 
L 300 3275 
Q 359 3922 746 4261 
Q 1134 4600 1788 4600 
Q 2447 4600 2831 4234 
Q 3216 3869 3216 3328 
Q 3216 3053 3103 2787 
Q 2991 2522 2730 2228 
Q 2469 1934 1863 1422 
Q 1356 997 1212 845 
Q 1069 694 975 541 
L 3222 541 
z
" transform="scale(0.015625)"/>
       </defs>
       <use xlink:href="#ArialMT-31" transform="translate(0 0.99375)"/>
       <use xlink:href="#ArialMT-30" transform="translate(55.615234 0.99375)"/>
       <use xlink:href="#ArialMT-2212" transform="translate(112.972813 70.6875)scale(0.7)"/>
       <use xlink:href="#ArialMT-32" transform="translate(153.851719 70.6875)scale(0.7)"/>
      </g>
     </g>
    </g>
    <g id="ytick_2">
     <g id="line2d_41">
      <g>
       <use xlink:href="#md7aec3712a" x="57.6" y="193.24698" style="fill: #262626; stroke: #262626"/>
      </g>
     </g>
     <g id="text_8">
      <!-- $\mathdefault{10^{-1}}$ -->
      <g style="fill: #262626" transform="translate(31.876 197.78448)scale(0.088 -0.088)">
       <use xlink:href="#ArialMT-31" transform="translate(0 0.99375)"/>
       <use xlink:href="#ArialMT-30" transform="translate(55.615234 0.99375)"/>
       <use xlink:href="#ArialMT-2212" transform="translate(112.972813 70.6875)scale(0.7)"/>
       <use xlink:href="#ArialMT-31" transform="translate(153.851719 70.6875)scale(0.7)"/>
      </g>
     </g>
    </g>
    <g id="ytick_3">
     <g id="line2d_42">
      <g>
       <use xlink:href="#md7aec3712a" x="57.6" y="125.949135" style="fill: #262626; stroke: #262626"/>
      </g>
     </g>
     <g id="text_9">
      <!-- $\mathdefault{10^{0}}$ -->
      <g style="fill: #262626" transform="translate(35.484 130.486635)scale(0.088 -0.088)">
       <use xlink:href="#ArialMT-31" transform="translate(0 0.99375)"/>
       <use xlink:href="#ArialMT-30" transform="translate(55.615234 0.99375)"/>
       <use xlink:href="#ArialMT-30" transform="translate(112.972813 70.6875)scale(0.7)"/>
      </g>
     </g>
    </g>
    <g id="ytick_4">
     <g id="line2d_43">
      <g>
       <use xlink:href="#md7aec3712a" x="57.6" y="58.65129" style="fill: #262626; stroke: #262626"/>
      </g>
     </g>
     <g id="text_10">
      <!-- $\mathdefault{10^{1}}$ -->
      <g style="fill: #262626" transform="translate(35.484 63.18879)scale(0.088 -0.088)">
       <use xlink:href="#ArialMT-31" transform="translate(0 0.99375)"/>
       <use xlink:href="#ArialMT-30" transform="translate(55.615234 0.99375)"/>
       <use xlink:href="#ArialMT-31" transform="translate(112.972813 70.6875)scale(0.7)"/>
      </g>
     </g>
    </g>
    <g id="ytick_5">
     <g id="line2d_44">
      <defs>
       <path id="m62b9bc9e21" d="M 0 0 
L -3.2 0 
" style="stroke: #262626; stroke-width: 0.8"/>
      </defs>
      <g>
       <use xlink:href="#m62b9bc9e21" x="57.6" y="307.584" style="fill: #262626; stroke: #262626; stroke-width: 0.8"/>
      </g>
     </g>
    </g>
    <g id="ytick_6">
     <g id="line2d_45">
      <g>
       <use xlink:href="#m62b9bc9e21" x="57.6" y="295.733438" style="fill: #262626; stroke: #262626; stroke-width: 0.8"/>
      </g>
     </g>
    </g>
    <g id="ytick_7">
     <g id="line2d_46">
      <g>
       <use xlink:href="#m62b9bc9e21" x="57.6" y="287.32533" style="fill: #262626; stroke: #262626; stroke-width: 0.8"/>
      </g>
     </g>
    </g>
    <g id="ytick_8">
     <g id="line2d_47">
      <g>
       <use xlink:href="#m62b9bc9e21" x="57.6" y="280.803495" style="fill: #262626; stroke: #262626; stroke-width: 0.8"/>
      </g>
     </g>
    </g>
    <g id="ytick_9">
     <g id="line2d_48">
      <g>
       <use xlink:href="#m62b9bc9e21" x="57.6" y="275.474768" style="fill: #262626; stroke: #262626; stroke-width: 0.8"/>
      </g>
     </g>
    </g>
    <g id="ytick_10">
     <g id="line2d_49">
      <g>
       <use xlink:href="#m62b9bc9e21" x="57.6" y="270.969393" style="fill: #262626; stroke: #262626; stroke-width: 0.8"/>
      </g>
     </g>
    </g>
    <g id="ytick_11">
     <g id="line2d_50">
      <g>
       <use xlink:href="#m62b9bc9e21" x="57.6" y="267.06666" style="fill: #262626; stroke: #262626; stroke-width: 0.8"/>
      </g>
     </g>
    </g>
    <g id="ytick_12">
     <g id="line2d_51">
      <g>
       <use xlink:href="#m62b9bc9e21" x="57.6" y="263.624205" style="fill: #262626; stroke: #262626; stroke-width: 0.8"/>
      </g>
     </g>
    </g>
    <g id="ytick_13">
     <g id="line2d_52">
      <g>
       <use xlink:href="#m62b9bc9e21" x="57.6" y="240.286155" style="fill: #262626; stroke: #262626; stroke-width: 0.8"/>
      </g>
     </g>
    </g>
    <g id="ytick_14">
     <g id="line2d_53">
      <g>
       <use xlink:href="#m62b9bc9e21" x="57.6" y="228.435593" style="fill: #262626; stroke: #262626; stroke-width: 0.8"/>
      </g>
     </g>
    </g>
    <g id="ytick_15">
     <g id="line2d_54">
      <g>
       <use xlink:href="#m62b9bc9e21" x="57.6" y="220.027485" style="fill: #262626; stroke: #262626; stroke-width: 0.8"/>
      </g>
     </g>
    </g>
    <g id="ytick_16">
     <g id="line2d_55">
      <g>
       <use xlink:href="#m62b9bc9e21" x="57.6" y="213.50565" style="fill: #262626; stroke: #262626; stroke-width: 0.8"/>
      </g>
     </g>
    </g>
    <g id="ytick_17">
     <g id="line2d_56">
      <g>
       <use xlink:href="#m62b9bc9e21" x="57.6" y="208.176923" style="fill: #262626; stroke: #262626; stroke-width: 0.8"/>
      </g>
     </g>
    </g>
    <g id="ytick_18">
     <g id="line2d_57">
      <g>
       <use xlink:href="#m62b9bc9e21" x="57.6" y="203.671548" style="fill: #262626; stroke: #262626; stroke-width: 0.8"/>
      </g>
     </g>
    </g>
    <g id="ytick_19">
     <g id="line2d_58">
      <g>
       <use xlink:href="#m62b9bc9e21" x="57.6" y="199.768815" style="fill: #262626; stroke: #262626; stroke-width: 0.8"/>
      </g>
     </g>
    </g>
    <g id="ytick_20">
     <g id="line2d_59">
      <g>
       <use xlink:href="#m62b9bc9e21" x="57.6" y="196.32636" style="fill: #262626; stroke: #262626; stroke-width: 0.8"/>
      </g>
     </g>
    </g>
    <g id="ytick_21">
     <g id="line2d_60">
      <g>
       <use xlink:href="#m62b9bc9e21" x="57.6" y="172.98831" style="fill: #262626; stroke: #262626; stroke-width: 0.8"/>
      </g>
     </g>
    </g>
    <g id="ytick_22">
     <g id="line2d_61">
      <g>
       <use xlink:href="#m62b9bc9e21" x="57.6" y="161.137747" style="fill: #262626; stroke: #262626; stroke-width: 0.8"/>
      </g>
     </g>
    </g>
    <g id="ytick_23">
     <g id="line2d_62">
      <g>
       <use xlink:href="#m62b9bc9e21" x="57.6" y="152.72964" style="fill: #262626; stroke: #262626; stroke-width: 0.8"/>
      </g>
     </g>
    </g>
    <g id="ytick_24">
     <g id="line2d_63">
      <g>
       <use xlink:href="#m62b9bc9e21" x="57.6" y="146.207805" style="fill: #262626; stroke: #262626; stroke-width: 0.8"/>
      </g>
     </g>
    </g>
    <g id="ytick_25">
     <g id="line2d_64">
      <g>
       <use xlink:href="#m62b9bc9e21" x="57.6" y="140.879077" style="fill: #262626; stroke: #262626; stroke-width: 0.8"/>
      </g>
     </g>
    </g>
    <g id="ytick_26">
     <g id="line2d_65">
      <g>
       <use xlink:href="#m62b9bc9e21" x="57.6" y="136.373703" style="fill: #262626; stroke: #262626; stroke-width: 0.8"/>
      </g>
     </g>
    </g>
    <g id="ytick_27">
     <g id="line2d_66">
      <g>
       <use xlink:href="#m62b9bc9e21" x="57.6" y="132.47097" style="fill: #262626; stroke: #262626; stroke-width: 0.8"/>
      </g>
     </g>
    </g>
    <g id="ytick_28">
     <g id="line2d_67">
      <g>
       <use xlink:href="#m62b9bc9e21" x="57.6" y="129.028515" style="fill: #262626; stroke: #262626; stroke-width: 0.8"/>
      </g>
     </g>
    </g>
    <g id="ytick_29">
     <g id="line2d_68">
      <g>
       <use xlink:href="#m62b9bc9e21" x="57.6" y="105.690465" style="fill: #262626; stroke: #262626; stroke-width: 0.8"/>
      </g>
     </g>
    </g>
    <g id="ytick_30">
     <g id="line2d_69">
      <g>
       <use xlink:href="#m62b9bc9e21" x="57.6" y="93.839902" style="fill: #262626; stroke: #262626; stroke-width: 0.8"/>
      </g>
     </g>
    </g>
    <g id="ytick_31">
     <g id="line2d_70">
      <g>
       <use xlink:href="#m62b9bc9e21" x="57.6" y="85.431795" style="fill: #262626; stroke: #262626; stroke-width: 0.8"/>
      </g>
     </g>
    </g>
    <g id="ytick_32">
     <g id="line2d_71">
      <g>
       <use xlink:href="#m62b9bc9e21" x="57.6" y="78.90996" style="fill: #262626; stroke: #262626; stroke-width: 0.8"/>
      </g>
     </g>
    </g>
    <g id="ytick_33">
     <g id="line2d_72">
      <g>
       <use xlink:href="#m62b9bc9e21" x="57.6" y="73.581232" style="fill: #262626; stroke: #262626; stroke-width: 0.8"/>
      </g>
     </g>
    </g>
    <g id="ytick_34">
     <g id="line2d_73">
      <g>
       <use xlink:href="#m62b9bc9e21" x="57.6" y="69.075858" style="fill: #262626; stroke: #262626; stroke-width: 0.8"/>
      </g>
     </g>
    </g>
    <g id="ytick_35">
     <g id="line2d_74">
      <g>
       <use xlink:href="#m62b9bc9e21" x="57.6" y="65.173125" style="fill: #262626; stroke: #262626; stroke-width: 0.8"/>
      </g>
     </g>
    </g>
    <g id="ytick_36">
     <g id="line2d_75">
      <g>
       <use xlink:href="#m62b9bc9e21" x="57.6" y="61.73067" style="fill: #262626; stroke: #262626; stroke-width: 0.8"/>
      </g>
     </g>
    </g>
    <g id="text_11">
     <!-- t(sec) -->
     <g style="fill: #262626" transform="translate(25.139906 190.776984)rotate(-90)scale(0.13 -0.13)">
      <defs>
       <path id="ArialMT-74" d="M 1650 503 
L 1731 6 
Q 1494 -44 1306 -44 
Q 1000 -44 831 53 
Q 663 150 594 308 
Q 525 466 525 972 
L 525 2881 
L 113 2881 
L 113 3319 
L 525 3319 
L 525 4141 
L 1084 4478 
L 1084 3319 
L 1650 3319 
L 1650 2881 
L 1084 2881 
L 1084 941 
Q 1084 700 1114 631 
Q 1144 563 1211 522 
Q 1278 481 1403 481 
Q 1497 481 1650 503 
z
" transform="scale(0.015625)"/>
       <path id="ArialMT-28" d="M 1497 -1347 
Q 1031 -759 709 28 
Q 388 816 388 1659 
Q 388 2403 628 3084 
Q 909 3875 1497 4659 
L 1900 4659 
Q 1522 4009 1400 3731 
Q 1209 3300 1100 2831 
Q 966 2247 966 1656 
Q 966 153 1900 -1347 
L 1497 -1347 
z
" transform="scale(0.015625)"/>
       <path id="ArialMT-63" d="M 2588 1216 
L 3141 1144 
Q 3050 572 2676 248 
Q 2303 -75 1759 -75 
Q 1078 -75 664 370 
Q 250 816 250 1647 
Q 250 2184 428 2587 
Q 606 2991 970 3192 
Q 1334 3394 1763 3394 
Q 2303 3394 2647 3120 
Q 2991 2847 3088 2344 
L 2541 2259 
Q 2463 2594 2264 2762 
Q 2066 2931 1784 2931 
Q 1359 2931 1093 2626 
Q 828 2322 828 1663 
Q 828 994 1084 691 
Q 1341 388 1753 388 
Q 2084 388 2306 591 
Q 2528 794 2588 1216 
z
" transform="scale(0.015625)"/>
       <path id="ArialMT-29" d="M 791 -1347 
L 388 -1347 
Q 1322 153 1322 1656 
Q 1322 2244 1188 2822 
Q 1081 3291 891 3722 
Q 769 4003 388 4659 
L 791 4659 
Q 1378 3875 1659 3084 
Q 1900 2403 1900 1659 
Q 1900 816 1576 28 
Q 1253 -759 791 -1347 
z
" transform="scale(0.015625)"/>
      </defs>
      <use xlink:href="#ArialMT-74"/>
      <use xlink:href="#ArialMT-28" x="27.783203"/>
      <use xlink:href="#ArialMT-73" x="61.083984"/>
      <use xlink:href="#ArialMT-65" x="111.083984"/>
      <use xlink:href="#ArialMT-63" x="166.699219"/>
      <use xlink:href="#ArialMT-29" x="216.699219"/>
     </g>
    </g>
   </g>
   <g id="PolyCollection_1">
    <defs>
     <path id="me94be95b1d" d="M 73.832727 -137.278534 
L 73.832727 -137.269525 
L 90.929375 -137.289301 
L 108.021808 -137.362612 
L 125.111601 -137.330867 
L 142.199778 -137.381497 
L 159.286949 -137.429896 
L 176.373502 -137.514707 
L 193.459672 -137.685138 
L 210.545605 -137.950658 
L 227.631391 -138.330142 
L 244.717088 -138.987456 
L 261.802728 -139.969941 
L 278.888334 -141.707708 
L 295.973919 -143.908883 
L 313.059491 -147.686296 
L 330.145054 -152.787019 
L 347.230612 -159.810872 
L 364.316167 -167.84299 
L 381.401721 -177.610488 
L 398.487273 -177.62391 
L 398.487273 -178.137763 
L 398.487273 -178.137763 
L 381.401721 -177.624648 
L 364.316167 -168.198649 
L 347.230612 -161.336892 
L 330.145054 -153.749215 
L 313.059491 -148.56277 
L 295.973919 -144.400251 
L 278.888334 -141.993973 
L 261.802728 -140.177258 
L 244.717088 -139.05972 
L 227.631391 -138.623339 
L 210.545605 -138.010923 
L 193.459672 -137.756452 
L 176.373502 -140.807149 
L 159.286949 -138.342134 
L 142.199778 -137.41153 
L 125.111601 -137.367493 
L 108.021808 -137.669009 
L 90.929375 -137.421129 
L 73.832727 -137.278534 
z
" style="stroke: #1f77b4; stroke-opacity: 0.2; stroke-width: 0.8"/>
    </defs>
    <g clip-path="url(#p81379a3d1e)">
     <use xlink:href="#me94be95b1d" x="0" y="345.6" style="fill: #1f77b4; fill-opacity: 0.2; stroke: #1f77b4; stroke-opacity: 0.2; stroke-width: 0.8"/>
    </g>
   </g>
   <g id="PolyCollection_2">
    <defs>
     <path id="macc868a909" d="M 73.832727 -177.661925 
L 73.832727 -174.719566 
L 90.929375 -174.573035 
L 108.021808 -173.752938 
L 125.111601 -172.183609 
L 142.199778 -172.691809 
L 159.286949 -174.108162 
L 176.373502 -175.721013 
L 193.459672 -174.803473 
L 210.545605 -175.857468 
L 227.631391 -175.194829 
L 244.717088 -172.488531 
L 261.802728 -175.027131 
L 278.888334 -177.173586 
L 295.973919 -176.2437 
L 313.059491 -174.490655 
L 330.145054 -176.323092 
L 347.230612 -179.351098 
L 364.316167 -182.124729 
L 381.401721 -190.966936 
L 398.487273 -193.091501 
L 398.487273 -194.116963 
L 398.487273 -194.116963 
L 381.401721 -194.15209 
L 364.316167 -182.997229 
L 347.230612 -180.471204 
L 330.145054 -176.361807 
L 313.059491 -178.480841 
L 295.973919 -178.086068 
L 278.888334 -178.307701 
L 261.802728 -175.453471 
L 244.717088 -173.846948 
L 227.631391 -177.902154 
L 210.545605 -177.89569 
L 193.459672 -174.888898 
L 176.373502 -177.428629 
L 159.286949 -175.103989 
L 142.199778 -174.648778 
L 125.111601 -177.760974 
L 108.021808 -177.390682 
L 90.929375 -175.31338 
L 73.832727 -177.661925 
z
" style="stroke: #aec7e8; stroke-opacity: 0.2; stroke-width: 0.8"/>
    </defs>
    <g clip-path="url(#p81379a3d1e)">
     <use xlink:href="#macc868a909" x="0" y="345.6" style="fill: #aec7e8; fill-opacity: 0.2; stroke: #aec7e8; stroke-opacity: 0.2; stroke-width: 0.8"/>
    </g>
   </g>
   <g id="PolyCollection_3">
    <defs>
     <path id="mabd44fbdfc" d="M 73.832727 -175.473353 
L 73.832727 -173.305997 
L 90.929375 -175.370348 
L 108.021808 -173.615873 
L 125.111601 -174.901467 
L 142.199778 -173.651293 
L 159.286949 -173.356613 
L 176.373502 -172.995685 
L 193.459672 -173.492061 
L 210.545605 -175.556977 
L 227.631391 -173.813588 
L 244.717088 -173.817094 
L 261.802728 -173.679203 
L 278.888334 -174.634327 
L 295.973919 -174.036293 
L 313.059491 -173.607117 
L 330.145054 -175.549577 
L 347.230612 -177.707011 
L 364.316167 -179.859552 
L 381.401721 -191.180688 
L 398.487273 -192.153467 
L 398.487273 -193.092081 
L 398.487273 -193.092081 
L 381.401721 -191.329875 
L 364.316167 -180.89297 
L 347.230612 -178.401712 
L 330.145054 -176.562791 
L 313.059491 -176.307128 
L 295.973919 -176.972745 
L 278.888334 -175.737432 
L 261.802728 -175.565828 
L 244.717088 -174.644007 
L 227.631391 -175.235335 
L 210.545605 -177.064618 
L 193.459672 -175.157884 
L 176.373502 -174.037128 
L 159.286949 -174.090385 
L 142.199778 -173.760807 
L 125.111601 -176.196426 
L 108.021808 -173.726927 
L 90.929375 -176.259699 
L 73.832727 -175.473353 
z
" style="stroke: #ff7f0e; stroke-opacity: 0.2; stroke-width: 0.8"/>
    </defs>
    <g clip-path="url(#p81379a3d1e)">
     <use xlink:href="#mabd44fbdfc" x="0" y="345.6" style="fill: #ff7f0e; fill-opacity: 0.2; stroke: #ff7f0e; stroke-opacity: 0.2; stroke-width: 0.8"/>
    </g>
   </g>
   <g id="PolyCollection_4">
    <defs>
     <path id="m2a04e1fa6f" d="M 73.832727 -175.025113 
L 73.832727 -174.160181 
L 90.929375 -175.958644 
L 108.021808 -174.482569 
L 125.111601 -175.758566 
L 142.199778 -174.522567 
L 159.286949 -174.952499 
L 176.373502 -176.120188 
L 193.459672 -175.201651 
L 210.545605 -175.849097 
L 227.631391 -174.985258 
L 244.717088 -175.437422 
L 261.802728 -175.420436 
L 278.888334 -175.79476 
L 295.973919 -175.801443 
L 313.059491 -176.110207 
L 330.145054 -177.141564 
L 347.230612 -178.156143 
L 364.316167 -180.671647 
L 381.401721 -192.738175 
L 398.487273 -191.554989 
L 398.487273 -192.075937 
L 398.487273 -192.075937 
L 381.401721 -192.811994 
L 364.316167 -182.44694 
L 347.230612 -178.477015 
L 330.145054 -178.380967 
L 313.059491 -177.649997 
L 295.973919 -177.875925 
L 278.888334 -175.805373 
L 261.802728 -175.755285 
L 244.717088 -175.514269 
L 227.631391 -175.306717 
L 210.545605 -175.861783 
L 193.459672 -176.079594 
L 176.373502 -176.766458 
L 159.286949 -175.964117 
L 142.199778 -174.926724 
L 125.111601 -175.763158 
L 108.021808 -175.983264 
L 90.929375 -176.322577 
L 73.832727 -175.025113 
z
" style="stroke: #ffbb78; stroke-opacity: 0.2; stroke-width: 0.8"/>
    </defs>
    <g clip-path="url(#p81379a3d1e)">
     <use xlink:href="#m2a04e1fa6f" x="0" y="345.6" style="fill: #ffbb78; fill-opacity: 0.2; stroke: #ffbb78; stroke-opacity: 0.2; stroke-width: 0.8"/>
    </g>
   </g>
   <g id="PolyCollection_5">
    <defs>
     <path id="md544d1d630" d="M 73.832727 -175.436759 
L 73.832727 -174.477497 
L 90.929375 -174.30562 
L 108.021808 -174.071624 
L 125.111601 -174.476263 
L 142.199778 -174.489696 
L 159.286949 -174.942381 
L 176.373502 -174.956545 
L 193.459672 -175.398524 
L 210.545605 -174.945754 
L 227.631391 -175.564639 
L 244.717088 -175.286721 
L 261.802728 -176.021262 
L 278.888334 -176.539292 
L 295.973919 -177.27131 
L 313.059491 -177.772367 
L 330.145054 -178.83565 
L 347.230612 -179.44228 
L 364.316167 -183.133758 
L 381.401721 -193.177019 
L 398.487273 -193.198991 
L 398.487273 -193.994528 
L 398.487273 -193.994528 
L 381.401721 -193.22499 
L 364.316167 -183.525882 
L 347.230612 -180.690497 
L 330.145054 -180.179276 
L 313.059491 -178.441483 
L 295.973919 -178.095639 
L 278.888334 -177.691785 
L 261.802728 -177.392419 
L 244.717088 -176.756442 
L 227.631391 -175.876163 
L 210.545605 -175.971934 
L 193.459672 -175.516386 
L 176.373502 -176.652905 
L 159.286949 -176.487248 
L 142.199778 -175.296988 
L 125.111601 -174.779195 
L 108.021808 -174.636917 
L 90.929375 -175.017712 
L 73.832727 -175.436759 
z
" style="stroke: #2ca02c; stroke-opacity: 0.2; stroke-width: 0.8"/>
    </defs>
    <g clip-path="url(#p81379a3d1e)">
     <use xlink:href="#md544d1d630" x="0" y="345.6" style="fill: #2ca02c; fill-opacity: 0.2; stroke: #2ca02c; stroke-opacity: 0.2; stroke-width: 0.8"/>
    </g>
   </g>
   <g id="PolyCollection_6">
    <defs>
     <path id="m25ed72731b" d="M 73.832727 -183.734375 
L 73.832727 -181.96642 
L 90.929375 -180.603355 
L 108.021808 -181.686228 
L 125.111601 -181.56621 
L 142.199778 -180.944002 
L 159.286949 -184.549025 
L 176.373502 -182.070434 
L 193.459672 -182.289742 
L 210.545605 -182.805051 
L 227.631391 -186.756578 
L 244.717088 -186.259979 
L 261.802728 -186.935535 
L 278.888334 -189.128019 
L 295.973919 -189.686876 
L 313.059491 -191.146683 
L 330.145054 -193.363691 
L 347.230612 -194.445034 
L 364.316167 -199.02994 
L 381.401721 -205.826921 
L 398.487273 -207.187535 
L 398.487273 -207.513646 
L 398.487273 -207.513646 
L 381.401721 -209.196011 
L 364.316167 -200.031194 
L 347.230612 -196.060244 
L 330.145054 -193.950762 
L 313.059491 -192.251548 
L 295.973919 -190.684204 
L 278.888334 -189.324267 
L 261.802728 -187.959473 
L 244.717088 -187.575517 
L 227.631391 -187.006527 
L 210.545605 -185.340827 
L 193.459672 -182.547908 
L 176.373502 -182.878886 
L 159.286949 -184.591443 
L 142.199778 -181.434677 
L 125.111601 -182.36091 
L 108.021808 -183.818453 
L 90.929375 -181.31861 
L 73.832727 -183.734375 
z
" style="stroke: #98df8a; stroke-opacity: 0.2; stroke-width: 0.8"/>
    </defs>
    <g clip-path="url(#p81379a3d1e)">
     <use xlink:href="#m25ed72731b" x="0" y="345.6" style="fill: #98df8a; fill-opacity: 0.2; stroke: #98df8a; stroke-opacity: 0.2; stroke-width: 0.8"/>
    </g>
   </g>
   <g id="PolyCollection_7">
    <defs>
     <path id="ma0fb1327cc" d="M 73.832727 -179.932561 
L 73.832727 -179.221891 
L 90.929375 -180.949825 
L 108.021808 -179.669286 
L 125.111601 -179.515068 
L 142.199778 -180.316231 
L 159.286949 -181.97321 
L 176.373502 -183.696196 
L 193.459672 -184.307427 
L 210.545605 -188.794677 
L 227.631391 -191.232975 
L 244.717088 -192.332262 
L 261.802728 -196.101226 
L 278.888334 -196.976725 
L 295.973919 -199.275639 
L 313.059491 -201.914457 
L 330.145054 -201.865729 
L 347.230612 -205.34932 
L 364.316167 -207.819338 
L 381.401721 -211.22892 
L 398.487273 -211.370842 
L 398.487273 -212.084193 
L 398.487273 -212.084193 
L 381.401721 -212.376284 
L 364.316167 -208.116056 
L 347.230612 -206.506187 
L 330.145054 -202.409139 
L 313.059491 -202.15992 
L 295.973919 -199.802053 
L 278.888334 -197.131043 
L 261.802728 -196.628767 
L 244.717088 -195.378154 
L 227.631391 -193.387821 
L 210.545605 -189.094448 
L 193.459672 -185.440301 
L 176.373502 -184.872725 
L 159.286949 -182.940837 
L 142.199778 -180.956196 
L 125.111601 -179.781902 
L 108.021808 -182.007985 
L 90.929375 -182.358503 
L 73.832727 -179.932561 
z
" style="stroke: #d62728; stroke-opacity: 0.2; stroke-width: 0.8"/>
    </defs>
    <g clip-path="url(#p81379a3d1e)">
     <use xlink:href="#ma0fb1327cc" x="0" y="345.6" style="fill: #d62728; fill-opacity: 0.2; stroke: #d62728; stroke-opacity: 0.2; stroke-width: 0.8"/>
    </g>
   </g>
   <g id="PolyCollection_8">
    <defs>
     <path id="m5ea7db799d" d="M 73.832727 -178.393919 
L 73.832727 -178.212662 
L 90.929375 -176.817882 
L 108.021808 -177.604083 
L 125.111601 -177.820585 
L 142.199778 -178.524801 
L 159.286949 -180.275111 
L 176.373502 -184.08277 
L 193.459672 -187.955323 
L 210.545605 -191.933914 
L 227.631391 -195.279275 
L 244.717088 -199.361315 
L 261.802728 -201.082208 
L 278.888334 -203.079493 
L 295.973919 -208.149648 
L 313.059491 -209.801713 
L 330.145054 -212.247458 
L 347.230612 -215.167958 
L 364.316167 -216.04454 
L 381.401721 -220.696108 
L 398.487273 -219.700217 
L 398.487273 -219.964536 
L 398.487273 -219.964536 
L 381.401721 -222.00853 
L 364.316167 -217.081343 
L 347.230612 -215.97207 
L 330.145054 -212.417042 
L 313.059491 -210.831912 
L 295.973919 -209.790207 
L 278.888334 -205.101936 
L 261.802728 -201.420258 
L 244.717088 -199.410194 
L 227.631391 -196.824716 
L 210.545605 -193.389185 
L 193.459672 -189.130261 
L 176.373502 -184.122124 
L 159.286949 -180.797045 
L 142.199778 -180.615915 
L 125.111601 -179.051575 
L 108.021808 -179.718029 
L 90.929375 -177.881295 
L 73.832727 -178.393919 
z
" style="stroke: #ff9896; stroke-opacity: 0.2; stroke-width: 0.8"/>
    </defs>
    <g clip-path="url(#p81379a3d1e)">
     <use xlink:href="#m5ea7db799d" x="0" y="345.6" style="fill: #ff9896; fill-opacity: 0.2; stroke: #ff9896; stroke-opacity: 0.2; stroke-width: 0.8"/>
    </g>
   </g>
   <g id="line2d_76">
    <path d="M 73.832727 208.32597 
L 90.929375 208.244711 
L 108.021808 208.083788 
L 125.111601 208.250814 
L 142.199778 208.203483 
L 159.286949 207.710426 
L 176.373502 206.392735 
L 193.459672 207.879183 
L 210.545605 207.619194 
L 227.631391 207.122892 
L 244.717088 206.57639 
L 261.802728 205.526217 
L 278.888334 203.748809 
L 295.973919 201.444401 
L 313.059491 197.472181 
L 330.145054 192.327923 
L 347.230612 185.016159 
L 364.316167 177.578639 
L 381.401721 167.982431 
L 398.487273 167.718034 
" clip-path="url(#p81379a3d1e)" style="fill: none; stroke: #1f77b4; stroke-width: 1.2; stroke-linecap: round"/>
   </g>
   <g id="line2d_77">
    <path d="M 73.832727 169.372243 
L 90.929375 170.654449 
L 108.021808 169.97163 
L 125.111601 170.49487 
L 142.199778 171.913331 
L 159.286949 170.989683 
L 176.373502 169.012709 
L 193.459672 170.753783 
L 210.545605 168.705657 
L 227.631391 169.020172 
L 244.717088 172.424369 
L 261.802728 170.358922 
L 278.888334 167.853856 
L 295.973919 168.420602 
L 313.059491 169.046211 
L 330.145054 169.257544 
L 347.230612 165.683483 
L 364.316167 163.035765 
L 381.401721 152.997119 
L 398.487273 151.991271 
" clip-path="url(#p81379a3d1e)" style="fill: none; stroke: #aec7e8; stroke-width: 1.2; stroke-linecap: round"/>
   </g>
   <g id="line2d_78">
    <path d="M 73.832727 171.190239 
L 90.929375 169.781594 
L 108.021808 171.928547 
L 125.111601 170.043882 
L 142.199778 171.893899 
L 159.286949 171.874198 
L 176.373502 172.078955 
L 193.459672 171.263161 
L 210.545605 169.279483 
L 227.631391 171.066894 
L 244.717088 171.366525 
L 261.802728 170.962264 
L 278.888334 170.408917 
L 295.973919 170.058618 
L 313.059491 170.61171 
L 330.145054 169.539426 
L 347.230612 167.543575 
L 364.316167 165.219172 
L 381.401721 154.344623 
L 398.487273 152.973458 
" clip-path="url(#p81379a3d1e)" style="fill: none; stroke: #ff7f0e; stroke-width: 1.2; stroke-linecap: round"/>
   </g>
   <g id="line2d_79">
    <path d="M 73.832727 171.004153 
L 90.929375 169.458823 
L 108.021808 170.357452 
L 125.111601 169.839138 
L 142.199778 170.874656 
L 159.286949 170.137316 
L 176.373502 169.15489 
L 193.459672 169.956081 
L 210.545605 169.744559 
L 227.631391 170.45357 
L 244.717088 170.124129 
L 261.802728 170.01166 
L 278.888334 169.799933 
L 295.973919 168.742915 
L 313.059491 168.709759 
L 330.145054 167.832166 
L 347.230612 167.282981 
L 364.316167 164.027229 
L 381.401721 152.824892 
L 398.487273 153.783376 
" clip-path="url(#p81379a3d1e)" style="fill: none; stroke: #ffbb78; stroke-width: 1.2; stroke-linecap: round"/>
   </g>
   <g id="line2d_80">
    <path d="M 73.832727 170.638937 
L 90.929375 170.936165 
L 108.021808 171.244363 
L 125.111601 170.971879 
L 142.199778 170.703871 
L 159.286949 169.87498 
L 176.373502 169.782969 
L 193.459672 170.142486 
L 210.545605 170.136653 
L 227.631391 169.879184 
L 244.717088 169.569181 
L 261.802728 168.885119 
L 278.888334 168.478781 
L 295.973919 167.913619 
L 313.059491 167.491161 
L 330.145054 166.084817 
L 347.230612 165.526948 
L 364.316167 162.269523 
L 381.401721 152.398986 
L 398.487273 152.000534 
" clip-path="url(#p81379a3d1e)" style="fill: none; stroke: #2ca02c; stroke-width: 1.2; stroke-linecap: round"/>
   </g>
   <g id="line2d_81">
    <path d="M 73.832727 162.736236 
L 90.929375 164.636829 
L 108.021808 162.82822 
L 125.111601 163.633739 
L 142.199778 164.409631 
L 159.286949 161.029758 
L 176.373502 163.122545 
L 193.459672 163.18089 
L 210.545605 161.499568 
L 227.631391 158.718181 
L 244.717088 158.674851 
L 261.802728 158.148012 
L 278.888334 156.373692 
L 295.973919 155.410206 
L 313.059491 153.895664 
L 330.145054 151.941299 
L 347.230612 150.336205 
L 364.316167 146.065145 
L 381.401721 138.040015 
L 398.487273 138.248955 
" clip-path="url(#p81379a3d1e)" style="fill: none; stroke: #98df8a; stroke-width: 1.2; stroke-linecap: round"/>
   </g>
   <g id="line2d_82">
    <path d="M 73.832727 166.020614 
L 90.929375 163.93735 
L 108.021808 164.737978 
L 125.111601 165.951211 
L 142.199778 164.962035 
L 159.286949 163.138972 
L 176.373502 161.30962 
L 193.459672 160.720647 
L 210.545605 156.655053 
L 227.631391 153.269748 
L 244.717088 151.705131 
L 261.802728 149.233813 
L 278.888334 148.546014 
L 295.973919 146.059969 
L 313.059491 143.562554 
L 330.145054 143.461303 
L 347.230612 139.666523 
L 364.316167 137.631926 
L 381.401721 133.791768 
L 398.487273 133.870306 
" clip-path="url(#p81379a3d1e)" style="fill: none; stroke: #d62728; stroke-width: 1.2; stroke-linecap: round"/>
   </g>
   <g id="line2d_83">
    <path d="M 73.832727 167.296569 
L 90.929375 168.245576 
L 108.021808 166.919836 
L 125.111601 167.15744 
L 142.199778 166.010944 
L 159.286949 165.062757 
L 176.373502 161.497546 
L 193.459672 157.051304 
L 210.545605 152.929394 
L 227.631391 149.537791 
L 244.717088 146.214235 
L 261.802728 144.348278 
L 278.888334 141.491796 
L 295.973919 136.618563 
L 313.059491 135.278648 
L 330.145054 133.267627 
L 347.230612 130.027221 
L 364.316167 129.032461 
L 381.401721 124.240315 
L 398.487273 125.767324 
" clip-path="url(#p81379a3d1e)" style="fill: none; stroke: #ff9896; stroke-width: 1.2; stroke-linecap: round"/>
   </g>
   <g id="line2d_84"/>
   <g id="line2d_85"/>
   <g id="line2d_86"/>
   <g id="line2d_87"/>
   <g id="line2d_88"/>
   <g id="line2d_89"/>
   <g id="line2d_90"/>
   <g id="line2d_91"/>
   <g id="patch_3">
    <path d="M 57.6 307.584 
L 57.6 41.472 
" style="fill: none; stroke: #262626; stroke-linejoin: miter; stroke-linecap: square"/>
   </g>
   <g id="patch_4">
    <path d="M 414.72 307.584 
L 414.72 41.472 
" style="fill: none; stroke: #262626; stroke-linejoin: miter; stroke-linecap: square"/>
   </g>
   <g id="patch_5">
    <path d="M 57.6 307.584 
L 414.72 307.584 
" style="fill: none; stroke: #262626; stroke-linejoin: miter; stroke-linecap: square"/>
   </g>
   <g id="patch_6">
    <path d="M 57.6 41.472 
L 414.72 41.472 
" style="fill: none; stroke: #262626; stroke-linejoin: miter; stroke-linecap: square"/>
   </g>
   <g id="text_12">
    <!-- fib-atomic_blake23_g++_overCutOff.res -->
    <g style="fill: #262626" transform="translate(121.022656 35.472)scale(0.13 -0.13)">
     <defs>
      <path id="ArialMT-69" d="M 425 3934 
L 425 4581 
L 988 4581 
L 988 3934 
L 425 3934 
z
M 425 0 
L 425 3319 
L 988 3319 
L 988 0 
L 425 0 
z
" transform="scale(0.015625)"/>
      <path id="ArialMT-2d" d="M 203 1375 
L 203 1941 
L 1931 1941 
L 1931 1375 
L 203 1375 
z
" transform="scale(0.015625)"/>
      <path id="ArialMT-5f" d="M -97 -1272 
L -97 -866 
L 3631 -866 
L 3631 -1272 
L -97 -1272 
z
" transform="scale(0.015625)"/>
      <path id="ArialMT-6c" d="M 409 0 
L 409 4581 
L 972 4581 
L 972 0 
L 409 0 
z
" transform="scale(0.015625)"/>
      <path id="ArialMT-67" d="M 319 -275 
L 866 -356 
Q 900 -609 1056 -725 
Q 1266 -881 1628 -881 
Q 2019 -881 2231 -725 
Q 2444 -569 2519 -288 
Q 2563 -116 2559 434 
Q 2191 0 1641 0 
Q 956 0 581 494 
Q 206 988 206 1678 
Q 206 2153 378 2554 
Q 550 2956 876 3175 
Q 1203 3394 1644 3394 
Q 2231 3394 2613 2919 
L 2613 3319 
L 3131 3319 
L 3131 450 
Q 3131 -325 2973 -648 
Q 2816 -972 2473 -1159 
Q 2131 -1347 1631 -1347 
Q 1038 -1347 672 -1080 
Q 306 -813 319 -275 
z
M 784 1719 
Q 784 1066 1043 766 
Q 1303 466 1694 466 
Q 2081 466 2343 764 
Q 2606 1063 2606 1700 
Q 2606 2309 2336 2618 
Q 2066 2928 1684 2928 
Q 1309 2928 1046 2623 
Q 784 2319 784 1719 
z
" transform="scale(0.015625)"/>
      <path id="ArialMT-2b" d="M 1603 741 
L 1603 1997 
L 356 1997 
L 356 2522 
L 1603 2522 
L 1603 3769 
L 2134 3769 
L 2134 2522 
L 3381 2522 
L 3381 1997 
L 2134 1997 
L 2134 741 
L 1603 741 
z
" transform="scale(0.015625)"/>
      <path id="ArialMT-76" d="M 1344 0 
L 81 3319 
L 675 3319 
L 1388 1331 
Q 1503 1009 1600 663 
Q 1675 925 1809 1294 
L 2547 3319 
L 3125 3319 
L 1869 0 
L 1344 0 
z
" transform="scale(0.015625)"/>
      <path id="ArialMT-43" d="M 3763 1606 
L 4369 1453 
Q 4178 706 3683 314 
Q 3188 -78 2472 -78 
Q 1731 -78 1267 223 
Q 803 525 561 1097 
Q 319 1669 319 2325 
Q 319 3041 592 3573 
Q 866 4106 1370 4382 
Q 1875 4659 2481 4659 
Q 3169 4659 3637 4309 
Q 4106 3959 4291 3325 
L 3694 3184 
Q 3534 3684 3231 3912 
Q 2928 4141 2469 4141 
Q 1941 4141 1586 3887 
Q 1231 3634 1087 3207 
Q 944 2781 944 2328 
Q 944 1744 1114 1308 
Q 1284 872 1643 656 
Q 2003 441 2422 441 
Q 2931 441 3284 734 
Q 3638 1028 3763 1606 
z
" transform="scale(0.015625)"/>
      <path id="ArialMT-4f" d="M 309 2231 
Q 309 3372 921 4017 
Q 1534 4663 2503 4663 
Q 3138 4663 3647 4359 
Q 4156 4056 4423 3514 
Q 4691 2972 4691 2284 
Q 4691 1588 4409 1038 
Q 4128 488 3612 205 
Q 3097 -78 2500 -78 
Q 1853 -78 1343 234 
Q 834 547 571 1087 
Q 309 1628 309 2231 
z
M 934 2222 
Q 934 1394 1379 917 
Q 1825 441 2497 441 
Q 3181 441 3623 922 
Q 4066 1403 4066 2288 
Q 4066 2847 3877 3264 
Q 3688 3681 3323 3911 
Q 2959 4141 2506 4141 
Q 1863 4141 1398 3698 
Q 934 3256 934 2222 
z
" transform="scale(0.015625)"/>
      <path id="ArialMT-2e" d="M 581 0 
L 581 641 
L 1222 641 
L 1222 0 
L 581 0 
z
" transform="scale(0.015625)"/>
     </defs>
     <use xlink:href="#ArialMT-66"/>
     <use xlink:href="#ArialMT-69" x="27.783203"/>
     <use xlink:href="#ArialMT-62" x="50"/>
     <use xlink:href="#ArialMT-2d" x="105.615234"/>
     <use xlink:href="#ArialMT-61" x="138.916016"/>
     <use xlink:href="#ArialMT-74" x="194.53125"/>
     <use xlink:href="#ArialMT-6f" x="222.314453"/>
     <use xlink:href="#ArialMT-6d" x="277.929688"/>
     <use xlink:href="#ArialMT-69" x="361.230469"/>
     <use xlink:href="#ArialMT-63" x="383.447266"/>
     <use xlink:href="#ArialMT-5f" x="433.447266"/>
     <use xlink:href="#ArialMT-62" x="489.0625"/>
     <use xlink:href="#ArialMT-6c" x="544.677734"/>
     <use xlink:href="#ArialMT-61" x="566.894531"/>
     <use xlink:href="#ArialMT-6b" x="622.509766"/>
     <use xlink:href="#ArialMT-65" x="672.509766"/>
     <use xlink:href="#ArialMT-32" x="728.125"/>
     <use xlink:href="#ArialMT-33" x="783.740234"/>
     <use xlink:href="#ArialMT-5f" x="839.355469"/>
     <use xlink:href="#ArialMT-67" x="894.970703"/>
     <use xlink:href="#ArialMT-2b" x="950.585938"/>
     <use xlink:href="#ArialMT-2b" x="1008.984375"/>
     <use xlink:href="#ArialMT-5f" x="1067.382812"/>
     <use xlink:href="#ArialMT-6f" x="1122.998047"/>
     <use xlink:href="#ArialMT-76" x="1178.613281"/>
     <use xlink:href="#ArialMT-65" x="1228.613281"/>
     <use xlink:href="#ArialMT-72" x="1284.228516"/>
     <use xlink:href="#ArialMT-43" x="1317.529297"/>
     <use xlink:href="#ArialMT-75" x="1389.746094"/>
     <use xlink:href="#ArialMT-74" x="1445.361328"/>
     <use xlink:href="#ArialMT-4f" x="1473.144531"/>
     <use xlink:href="#ArialMT-66" x="1550.927734"/>
     <use xlink:href="#ArialMT-66" x="1576.960938"/>
     <use xlink:href="#ArialMT-2e" x="1604.744141"/>
     <use xlink:href="#ArialMT-72" x="1632.527344"/>
     <use xlink:href="#ArialMT-65" x="1665.828125"/>
     <use xlink:href="#ArialMT-73" x="1721.443359"/>
    </g>
   </g>
   <g id="legend_1">
    <g id="patch_7">
     <path d="M 342.332344 301.084 
L 405.62 301.084 
Q 408.22 301.084 408.22 298.484 
L 408.22 152.67275 
Q 408.22 150.07275 405.62 150.07275 
L 342.332344 150.07275 
Q 339.732344 150.07275 339.732344 152.67275 
L 339.732344 298.484 
Q 339.732344 301.084 342.332344 301.084 
z
" style="fill: #ffffff; opacity: 0.8; stroke: #cccccc; stroke-width: 0.8; stroke-linejoin: miter"/>
    </g>
    <g id="line2d_92">
     <path d="M 344.932344 160.027906 
L 357.932344 160.027906 
L 370.932344 160.027906 
" style="fill: none; stroke: #1f77b4; stroke-width: 1.2; stroke-linecap: round"/>
    </g>
    <g id="text_13">
     <!-- 1 -->
     <g style="fill: #262626" transform="translate(381.332344 164.577906)scale(0.13 -0.13)">
      <use xlink:href="#ArialMT-31"/>
     </g>
    </g>
    <g id="line2d_93">
     <path d="M 344.932344 178.416813 
L 357.932344 178.416813 
L 370.932344 178.416813 
" style="fill: none; stroke: #aec7e8; stroke-width: 1.2; stroke-linecap: round"/>
    </g>
    <g id="text_14">
     <!-- 2 -->
     <g style="fill: #262626" transform="translate(381.332344 182.966813)scale(0.13 -0.13)">
      <use xlink:href="#ArialMT-32"/>
     </g>
    </g>
    <g id="line2d_94">
     <path d="M 344.932344 196.805719 
L 357.932344 196.805719 
L 370.932344 196.805719 
" style="fill: none; stroke: #ff7f0e; stroke-width: 1.2; stroke-linecap: round"/>
    </g>
    <g id="text_15">
     <!-- 4 -->
     <g style="fill: #262626" transform="translate(381.332344 201.355719)scale(0.13 -0.13)">
      <use xlink:href="#ArialMT-34"/>
     </g>
    </g>
    <g id="line2d_95">
     <path d="M 344.932344 215.194625 
L 357.932344 215.194625 
L 370.932344 215.194625 
" style="fill: none; stroke: #ffbb78; stroke-width: 1.2; stroke-linecap: round"/>
    </g>
    <g id="text_16">
     <!-- 8 -->
     <g style="fill: #262626" transform="translate(381.332344 219.744625)scale(0.13 -0.13)">
      <defs>
       <path id="ArialMT-38" d="M 1131 2484 
Q 781 2613 612 2850 
Q 444 3088 444 3419 
Q 444 3919 803 4259 
Q 1163 4600 1759 4600 
Q 2359 4600 2725 4251 
Q 3091 3903 3091 3403 
Q 3091 3084 2923 2848 
Q 2756 2613 2416 2484 
Q 2838 2347 3058 2040 
Q 3278 1734 3278 1309 
Q 3278 722 2862 322 
Q 2447 -78 1769 -78 
Q 1091 -78 675 323 
Q 259 725 259 1325 
Q 259 1772 486 2073 
Q 713 2375 1131 2484 
z
M 1019 3438 
Q 1019 3113 1228 2906 
Q 1438 2700 1772 2700 
Q 2097 2700 2305 2904 
Q 2513 3109 2513 3406 
Q 2513 3716 2298 3927 
Q 2084 4138 1766 4138 
Q 1444 4138 1231 3931 
Q 1019 3725 1019 3438 
z
M 838 1322 
Q 838 1081 952 856 
Q 1066 631 1291 507 
Q 1516 384 1775 384 
Q 2178 384 2440 643 
Q 2703 903 2703 1303 
Q 2703 1709 2433 1975 
Q 2163 2241 1756 2241 
Q 1359 2241 1098 1978 
Q 838 1716 838 1322 
z
" transform="scale(0.015625)"/>
      </defs>
      <use xlink:href="#ArialMT-38"/>
     </g>
    </g>
    <g id="line2d_96">
     <path d="M 344.932344 233.583531 
L 357.932344 233.583531 
L 370.932344 233.583531 
" style="fill: none; stroke: #2ca02c; stroke-width: 1.2; stroke-linecap: round"/>
    </g>
    <g id="text_17">
     <!-- 16 -->
     <g style="fill: #262626" transform="translate(381.332344 238.133531)scale(0.13 -0.13)">
      <use xlink:href="#ArialMT-31"/>
      <use xlink:href="#ArialMT-36" x="55.615234"/>
     </g>
    </g>
    <g id="line2d_97">
     <path d="M 344.932344 251.972438 
L 357.932344 251.972438 
L 370.932344 251.972438 
" style="fill: none; stroke: #98df8a; stroke-width: 1.2; stroke-linecap: round"/>
    </g>
    <g id="text_18">
     <!-- 32 -->
     <g style="fill: #262626" transform="translate(381.332344 256.522438)scale(0.13 -0.13)">
      <use xlink:href="#ArialMT-33"/>
      <use xlink:href="#ArialMT-32" x="55.615234"/>
     </g>
    </g>
    <g id="line2d_98">
     <path d="M 344.932344 270.361344 
L 357.932344 270.361344 
L 370.932344 270.361344 
" style="fill: none; stroke: #d62728; stroke-width: 1.2; stroke-linecap: round"/>
    </g>
    <g id="text_19">
     <!-- 64 -->
     <g style="fill: #262626" transform="translate(381.332344 274.911344)scale(0.13 -0.13)">
      <use xlink:href="#ArialMT-36"/>
      <use xlink:href="#ArialMT-34" x="55.615234"/>
     </g>
    </g>
    <g id="line2d_99">
     <path d="M 344.932344 288.75025 
L 357.932344 288.75025 
L 370.932344 288.75025 
" style="fill: none; stroke: #ff9896; stroke-width: 1.2; stroke-linecap: round"/>
    </g>
    <g id="text_20">
     <!-- 128 -->
     <g style="fill: #262626" transform="translate(381.332344 293.30025)scale(0.13 -0.13)">
      <use xlink:href="#ArialMT-31"/>
      <use xlink:href="#ArialMT-32" x="55.615234"/>
      <use xlink:href="#ArialMT-38" x="111.230469"/>
     </g>
    </g>
   </g>
  </g>
 </g>
 <defs>
  <clipPath id="p81379a3d1e">
   <rect x="57.6" y="41.472" width="357.12" height="266.112"/>
  </clipPath>
 </defs>
</svg>
