<?xml version="1.0" encoding="utf-8" standalone="no"?>
<!DOCTYPE svg PUBLIC "-//W3C//DTD SVG 1.1//EN"
  "http://www.w3.org/Graphics/SVG/1.1/DTD/svg11.dtd">
<svg xmlns:xlink="http://www.w3.org/1999/xlink" width="460.8pt" height="345.6pt" viewBox="0 0 460.8 345.6" xmlns="http://www.w3.org/2000/svg" version="1.1">
 <metadata>
  <rdf:RDF xmlns:dc="http://purl.org/dc/elements/1.1/" xmlns:cc="http://creativecommons.org/ns#" xmlns:rdf="http://www.w3.org/1999/02/22-rdf-syntax-ns#">
   <cc:Work>
    <dc:type rdf:resource="http://purl.org/dc/dcmitype/StillImage"/>
    <dc:date>2022-05-26T16:04:21.764584</dc:date>
    <dc:format>image/svg+xml</dc:format>
    <dc:creator>
     <cc:Agent>
      <dc:title>Matplotlib v3.5.1, https://matplotlib.org/</dc:title>
     </cc:Agent>
    </dc:creator>
   </cc:Work>
  </rdf:RDF>
 </metadata>
 <defs>
  <style type="text/css">*{stroke-linejoin: round; stroke-linecap: butt}</style>
 </defs>
 <g id="figure_1">
  <g id="patch_1">
   <path d="M 0 345.6 
L 460.8 345.6 
L 460.8 0 
L 0 0 
z
" style="fill: #ffffff"/>
  </g>
  <g id="axes_1">
   <g id="patch_2">
    <path d="M 57.6 307.584 
L 414.72 307.584 
L 414.72 41.472 
L 57.6 41.472 
z
" style="fill: #ffffff"/>
   </g>
   <g id="matplotlib.axis_1">
    <g id="xtick_1">
     <g id="line2d_1">
      <defs>
       <path id="me07a08a66b" d="M 0 0 
L 0 4.8 
" style="stroke: #262626"/>
      </defs>
      <g>
       <use xlink:href="#me07a08a66b" x="94.123636" y="307.584" style="fill: #262626; stroke: #262626"/>
      </g>
     </g>
     <g id="text_1">
      <!-- 16 -->
      <g style="fill: #262626" transform="translate(89.230011 322.182875)scale(0.088 -0.088)">
       <defs>
        <path id="ArialMT-31" d="M 2384 0 
L 1822 0 
L 1822 3584 
Q 1619 3391 1289 3197 
Q 959 3003 697 2906 
L 697 3450 
Q 1169 3672 1522 3987 
Q 1875 4303 2022 4600 
L 2384 4600 
L 2384 0 
z
" transform="scale(0.015625)"/>
        <path id="ArialMT-36" d="M 3184 3459 
L 2625 3416 
Q 2550 3747 2413 3897 
Q 2184 4138 1850 4138 
Q 1581 4138 1378 3988 
Q 1113 3794 959 3422 
Q 806 3050 800 2363 
Q 1003 2672 1297 2822 
Q 1591 2972 1913 2972 
Q 2475 2972 2870 2558 
Q 3266 2144 3266 1488 
Q 3266 1056 3080 686 
Q 2894 316 2569 119 
Q 2244 -78 1831 -78 
Q 1128 -78 684 439 
Q 241 956 241 2144 
Q 241 3472 731 4075 
Q 1159 4600 1884 4600 
Q 2425 4600 2770 4297 
Q 3116 3994 3184 3459 
z
M 888 1484 
Q 888 1194 1011 928 
Q 1134 663 1356 523 
Q 1578 384 1822 384 
Q 2178 384 2434 671 
Q 2691 959 2691 1453 
Q 2691 1928 2437 2201 
Q 2184 2475 1800 2475 
Q 1419 2475 1153 2201 
Q 888 1928 888 1484 
z
" transform="scale(0.015625)"/>
       </defs>
       <use xlink:href="#ArialMT-31"/>
       <use xlink:href="#ArialMT-36" x="55.615234"/>
      </g>
     </g>
    </g>
    <g id="xtick_2">
     <g id="line2d_2">
      <g>
       <use xlink:href="#me07a08a66b" x="134.705455" y="307.584" style="fill: #262626; stroke: #262626"/>
      </g>
     </g>
     <g id="text_2">
      <!-- 18 -->
      <g style="fill: #262626" transform="translate(129.81183 322.182875)scale(0.088 -0.088)">
       <defs>
        <path id="ArialMT-38" d="M 1131 2484 
Q 781 2613 612 2850 
Q 444 3088 444 3419 
Q 444 3919 803 4259 
Q 1163 4600 1759 4600 
Q 2359 4600 2725 4251 
Q 3091 3903 3091 3403 
Q 3091 3084 2923 2848 
Q 2756 2613 2416 2484 
Q 2838 2347 3058 2040 
Q 3278 1734 3278 1309 
Q 3278 722 2862 322 
Q 2447 -78 1769 -78 
Q 1091 -78 675 323 
Q 259 725 259 1325 
Q 259 1772 486 2073 
Q 713 2375 1131 2484 
z
M 1019 3438 
Q 1019 3113 1228 2906 
Q 1438 2700 1772 2700 
Q 2097 2700 2305 2904 
Q 2513 3109 2513 3406 
Q 2513 3716 2298 3927 
Q 2084 4138 1766 4138 
Q 1444 4138 1231 3931 
Q 1019 3725 1019 3438 
z
M 838 1322 
Q 838 1081 952 856 
Q 1066 631 1291 507 
Q 1516 384 1775 384 
Q 2178 384 2440 643 
Q 2703 903 2703 1303 
Q 2703 1709 2433 1975 
Q 2163 2241 1756 2241 
Q 1359 2241 1098 1978 
Q 838 1716 838 1322 
z
" transform="scale(0.015625)"/>
       </defs>
       <use xlink:href="#ArialMT-31"/>
       <use xlink:href="#ArialMT-38" x="55.615234"/>
      </g>
     </g>
    </g>
    <g id="xtick_3">
     <g id="line2d_3">
      <g>
       <use xlink:href="#me07a08a66b" x="175.287273" y="307.584" style="fill: #262626; stroke: #262626"/>
      </g>
     </g>
     <g id="text_3">
      <!-- 20 -->
      <g style="fill: #262626" transform="translate(170.393648 322.182875)scale(0.088 -0.088)">
       <defs>
        <path id="ArialMT-32" d="M 3222 541 
L 3222 0 
L 194 0 
Q 188 203 259 391 
Q 375 700 629 1000 
Q 884 1300 1366 1694 
Q 2113 2306 2375 2664 
Q 2638 3022 2638 3341 
Q 2638 3675 2398 3904 
Q 2159 4134 1775 4134 
Q 1369 4134 1125 3890 
Q 881 3647 878 3216 
L 300 3275 
Q 359 3922 746 4261 
Q 1134 4600 1788 4600 
Q 2447 4600 2831 4234 
Q 3216 3869 3216 3328 
Q 3216 3053 3103 2787 
Q 2991 2522 2730 2228 
Q 2469 1934 1863 1422 
Q 1356 997 1212 845 
Q 1069 694 975 541 
L 3222 541 
z
" transform="scale(0.015625)"/>
        <path id="ArialMT-30" d="M 266 2259 
Q 266 3072 433 3567 
Q 600 4063 929 4331 
Q 1259 4600 1759 4600 
Q 2128 4600 2406 4451 
Q 2684 4303 2865 4023 
Q 3047 3744 3150 3342 
Q 3253 2941 3253 2259 
Q 3253 1453 3087 958 
Q 2922 463 2592 192 
Q 2263 -78 1759 -78 
Q 1097 -78 719 397 
Q 266 969 266 2259 
z
M 844 2259 
Q 844 1131 1108 757 
Q 1372 384 1759 384 
Q 2147 384 2411 759 
Q 2675 1134 2675 2259 
Q 2675 3391 2411 3762 
Q 2147 4134 1753 4134 
Q 1366 4134 1134 3806 
Q 844 3388 844 2259 
z
" transform="scale(0.015625)"/>
       </defs>
       <use xlink:href="#ArialMT-32"/>
       <use xlink:href="#ArialMT-30" x="55.615234"/>
      </g>
     </g>
    </g>
    <g id="xtick_4">
     <g id="line2d_4">
      <g>
       <use xlink:href="#me07a08a66b" x="215.869091" y="307.584" style="fill: #262626; stroke: #262626"/>
      </g>
     </g>
     <g id="text_4">
      <!-- 22 -->
      <g style="fill: #262626" transform="translate(210.975466 322.182875)scale(0.088 -0.088)">
       <use xlink:href="#ArialMT-32"/>
       <use xlink:href="#ArialMT-32" x="55.615234"/>
      </g>
     </g>
    </g>
    <g id="xtick_5">
     <g id="line2d_5">
      <g>
       <use xlink:href="#me07a08a66b" x="256.450909" y="307.584" style="fill: #262626; stroke: #262626"/>
      </g>
     </g>
     <g id="text_5">
      <!-- 24 -->
      <g style="fill: #262626" transform="translate(251.557284 322.182875)scale(0.088 -0.088)">
       <defs>
        <path id="ArialMT-34" d="M 2069 0 
L 2069 1097 
L 81 1097 
L 81 1613 
L 2172 4581 
L 2631 4581 
L 2631 1613 
L 3250 1613 
L 3250 1097 
L 2631 1097 
L 2631 0 
L 2069 0 
z
M 2069 1613 
L 2069 3678 
L 634 1613 
L 2069 1613 
z
" transform="scale(0.015625)"/>
       </defs>
       <use xlink:href="#ArialMT-32"/>
       <use xlink:href="#ArialMT-34" x="55.615234"/>
      </g>
     </g>
    </g>
    <g id="xtick_6">
     <g id="line2d_6">
      <g>
       <use xlink:href="#me07a08a66b" x="297.032727" y="307.584" style="fill: #262626; stroke: #262626"/>
      </g>
     </g>
     <g id="text_6">
      <!-- 26 -->
      <g style="fill: #262626" transform="translate(292.139102 322.182875)scale(0.088 -0.088)">
       <use xlink:href="#ArialMT-32"/>
       <use xlink:href="#ArialMT-36" x="55.615234"/>
      </g>
     </g>
    </g>
    <g id="xtick_7">
     <g id="line2d_7">
      <g>
       <use xlink:href="#me07a08a66b" x="337.614545" y="307.584" style="fill: #262626; stroke: #262626"/>
      </g>
     </g>
     <g id="text_7">
      <!-- 28 -->
      <g style="fill: #262626" transform="translate(332.72092 322.182875)scale(0.088 -0.088)">
       <use xlink:href="#ArialMT-32"/>
       <use xlink:href="#ArialMT-38" x="55.615234"/>
      </g>
     </g>
    </g>
    <g id="xtick_8">
     <g id="line2d_8">
      <g>
       <use xlink:href="#me07a08a66b" x="378.196364" y="307.584" style="fill: #262626; stroke: #262626"/>
      </g>
     </g>
     <g id="text_8">
      <!-- 30 -->
      <g style="fill: #262626" transform="translate(373.302739 322.182875)scale(0.088 -0.088)">
       <defs>
        <path id="ArialMT-33" d="M 269 1209 
L 831 1284 
Q 928 806 1161 595 
Q 1394 384 1728 384 
Q 2125 384 2398 659 
Q 2672 934 2672 1341 
Q 2672 1728 2419 1979 
Q 2166 2231 1775 2231 
Q 1616 2231 1378 2169 
L 1441 2663 
Q 1497 2656 1531 2656 
Q 1891 2656 2178 2843 
Q 2466 3031 2466 3422 
Q 2466 3731 2256 3934 
Q 2047 4138 1716 4138 
Q 1388 4138 1169 3931 
Q 950 3725 888 3313 
L 325 3413 
Q 428 3978 793 4289 
Q 1159 4600 1703 4600 
Q 2078 4600 2393 4439 
Q 2709 4278 2876 4000 
Q 3044 3722 3044 3409 
Q 3044 3113 2884 2869 
Q 2725 2625 2413 2481 
Q 2819 2388 3044 2092 
Q 3269 1797 3269 1353 
Q 3269 753 2831 336 
Q 2394 -81 1725 -81 
Q 1122 -81 723 278 
Q 325 638 269 1209 
z
" transform="scale(0.015625)"/>
       </defs>
       <use xlink:href="#ArialMT-33"/>
       <use xlink:href="#ArialMT-30" x="55.615234"/>
      </g>
     </g>
    </g>
    <g id="text_9">
     <!-- N -->
     <g style="fill: #262626" transform="translate(231.465781 337.237031)scale(0.13 -0.13)">
      <defs>
       <path id="ArialMT-4e" d="M 488 0 
L 488 4581 
L 1109 4581 
L 3516 984 
L 3516 4581 
L 4097 4581 
L 4097 0 
L 3475 0 
L 1069 3600 
L 1069 0 
L 488 0 
z
" transform="scale(0.015625)"/>
      </defs>
      <use xlink:href="#ArialMT-4e"/>
     </g>
    </g>
   </g>
   <g id="matplotlib.axis_2">
    <g id="ytick_1">
     <g id="line2d_9">
      <defs>
       <path id="mb25fca0358" d="M 0 0 
L -4.8 0 
" style="stroke: #262626"/>
      </defs>
      <g>
       <use xlink:href="#mb25fca0358" x="57.6" y="307.584" style="fill: #262626; stroke: #262626"/>
      </g>
     </g>
     <g id="text_10">
      <!-- $\mathdefault{10^{-4}}$ -->
      <g style="fill: #262626" transform="translate(31.876 312.0775)scale(0.088 -0.088)">
       <defs>
        <path id="ArialMT-2212" d="M 3381 1997 
L 356 1997 
L 356 2522 
L 3381 2522 
L 3381 1997 
z
" transform="scale(0.015625)"/>
       </defs>
       <use xlink:href="#ArialMT-31" transform="translate(0 0.201563)"/>
       <use xlink:href="#ArialMT-30" transform="translate(55.615234 0.201563)"/>
       <use xlink:href="#ArialMT-2212" transform="translate(112.972813 69.895313)scale(0.7)"/>
       <use xlink:href="#ArialMT-34" transform="translate(153.851719 69.895313)scale(0.7)"/>
      </g>
     </g>
    </g>
    <g id="ytick_2">
     <g id="line2d_10">
      <g>
       <use xlink:href="#mb25fca0358" x="57.6" y="257.383944" style="fill: #262626; stroke: #262626"/>
      </g>
     </g>
     <g id="text_11">
      <!-- $\mathdefault{10^{-3}}$ -->
      <g style="fill: #262626" transform="translate(31.876 261.921444)scale(0.088 -0.088)">
       <use xlink:href="#ArialMT-31" transform="translate(0 0.99375)"/>
       <use xlink:href="#ArialMT-30" transform="translate(55.615234 0.99375)"/>
       <use xlink:href="#ArialMT-2212" transform="translate(112.972813 70.6875)scale(0.7)"/>
       <use xlink:href="#ArialMT-33" transform="translate(153.851719 70.6875)scale(0.7)"/>
      </g>
     </g>
    </g>
    <g id="ytick_3">
     <g id="line2d_11">
      <g>
       <use xlink:href="#mb25fca0358" x="57.6" y="207.183889" style="fill: #262626; stroke: #262626"/>
      </g>
     </g>
     <g id="text_12">
      <!-- $\mathdefault{10^{-2}}$ -->
      <g style="fill: #262626" transform="translate(31.876 211.721389)scale(0.088 -0.088)">
       <use xlink:href="#ArialMT-31" transform="translate(0 0.99375)"/>
       <use xlink:href="#ArialMT-30" transform="translate(55.615234 0.99375)"/>
       <use xlink:href="#ArialMT-2212" transform="translate(112.972813 70.6875)scale(0.7)"/>
       <use xlink:href="#ArialMT-32" transform="translate(153.851719 70.6875)scale(0.7)"/>
      </g>
     </g>
    </g>
    <g id="ytick_4">
     <g id="line2d_12">
      <g>
       <use xlink:href="#mb25fca0358" x="57.6" y="156.983833" style="fill: #262626; stroke: #262626"/>
      </g>
     </g>
     <g id="text_13">
      <!-- $\mathdefault{10^{-1}}$ -->
      <g style="fill: #262626" transform="translate(31.876 161.521333)scale(0.088 -0.088)">
       <use xlink:href="#ArialMT-31" transform="translate(0 0.99375)"/>
       <use xlink:href="#ArialMT-30" transform="translate(55.615234 0.99375)"/>
       <use xlink:href="#ArialMT-2212" transform="translate(112.972813 70.6875)scale(0.7)"/>
       <use xlink:href="#ArialMT-31" transform="translate(153.851719 70.6875)scale(0.7)"/>
      </g>
     </g>
    </g>
    <g id="ytick_5">
     <g id="line2d_13">
      <g>
       <use xlink:href="#mb25fca0358" x="57.6" y="106.783778" style="fill: #262626; stroke: #262626"/>
      </g>
     </g>
     <g id="text_14">
      <!-- $\mathdefault{10^{0}}$ -->
      <g style="fill: #262626" transform="translate(35.484 111.321278)scale(0.088 -0.088)">
       <use xlink:href="#ArialMT-31" transform="translate(0 0.99375)"/>
       <use xlink:href="#ArialMT-30" transform="translate(55.615234 0.99375)"/>
       <use xlink:href="#ArialMT-30" transform="translate(112.972813 70.6875)scale(0.7)"/>
      </g>
     </g>
    </g>
    <g id="ytick_6">
     <g id="line2d_14">
      <g>
       <use xlink:href="#mb25fca0358" x="57.6" y="56.583722" style="fill: #262626; stroke: #262626"/>
      </g>
     </g>
     <g id="text_15">
      <!-- $\mathdefault{10^{1}}$ -->
      <g style="fill: #262626" transform="translate(35.484 61.121222)scale(0.088 -0.088)">
       <use xlink:href="#ArialMT-31" transform="translate(0 0.99375)"/>
       <use xlink:href="#ArialMT-30" transform="translate(55.615234 0.99375)"/>
       <use xlink:href="#ArialMT-31" transform="translate(112.972813 70.6875)scale(0.7)"/>
      </g>
     </g>
    </g>
    <g id="ytick_7">
     <g id="line2d_15">
      <defs>
       <path id="ma72c822efc" d="M 0 0 
L -3.2 0 
" style="stroke: #262626; stroke-width: 0.8"/>
      </defs>
      <g>
       <use xlink:href="#ma72c822efc" x="57.6" y="292.472278" style="fill: #262626; stroke: #262626; stroke-width: 0.8"/>
      </g>
     </g>
    </g>
    <g id="ytick_8">
     <g id="line2d_16">
      <g>
       <use xlink:href="#ma72c822efc" x="57.6" y="283.632487" style="fill: #262626; stroke: #262626; stroke-width: 0.8"/>
      </g>
     </g>
    </g>
    <g id="ytick_9">
     <g id="line2d_17">
      <g>
       <use xlink:href="#ma72c822efc" x="57.6" y="277.360555" style="fill: #262626; stroke: #262626; stroke-width: 0.8"/>
      </g>
     </g>
    </g>
    <g id="ytick_10">
     <g id="line2d_18">
      <g>
       <use xlink:href="#ma72c822efc" x="57.6" y="272.495667" style="fill: #262626; stroke: #262626; stroke-width: 0.8"/>
      </g>
     </g>
    </g>
    <g id="ytick_11">
     <g id="line2d_19">
      <g>
       <use xlink:href="#ma72c822efc" x="57.6" y="268.520764" style="fill: #262626; stroke: #262626; stroke-width: 0.8"/>
      </g>
     </g>
    </g>
    <g id="ytick_12">
     <g id="line2d_20">
      <g>
       <use xlink:href="#ma72c822efc" x="57.6" y="265.160031" style="fill: #262626; stroke: #262626; stroke-width: 0.8"/>
      </g>
     </g>
    </g>
    <g id="ytick_13">
     <g id="line2d_21">
      <g>
       <use xlink:href="#ma72c822efc" x="57.6" y="262.248833" style="fill: #262626; stroke: #262626; stroke-width: 0.8"/>
      </g>
     </g>
    </g>
    <g id="ytick_14">
     <g id="line2d_22">
      <g>
       <use xlink:href="#ma72c822efc" x="57.6" y="259.680973" style="fill: #262626; stroke: #262626; stroke-width: 0.8"/>
      </g>
     </g>
    </g>
    <g id="ytick_15">
     <g id="line2d_23">
      <g>
       <use xlink:href="#ma72c822efc" x="57.6" y="242.272222" style="fill: #262626; stroke: #262626; stroke-width: 0.8"/>
      </g>
     </g>
    </g>
    <g id="ytick_16">
     <g id="line2d_24">
      <g>
       <use xlink:href="#ma72c822efc" x="57.6" y="233.432431" style="fill: #262626; stroke: #262626; stroke-width: 0.8"/>
      </g>
     </g>
    </g>
    <g id="ytick_17">
     <g id="line2d_25">
      <g>
       <use xlink:href="#ma72c822efc" x="57.6" y="227.1605" style="fill: #262626; stroke: #262626; stroke-width: 0.8"/>
      </g>
     </g>
    </g>
    <g id="ytick_18">
     <g id="line2d_26">
      <g>
       <use xlink:href="#ma72c822efc" x="57.6" y="222.295611" style="fill: #262626; stroke: #262626; stroke-width: 0.8"/>
      </g>
     </g>
    </g>
    <g id="ytick_19">
     <g id="line2d_27">
      <g>
       <use xlink:href="#ma72c822efc" x="57.6" y="218.320709" style="fill: #262626; stroke: #262626; stroke-width: 0.8"/>
      </g>
     </g>
    </g>
    <g id="ytick_20">
     <g id="line2d_28">
      <g>
       <use xlink:href="#ma72c822efc" x="57.6" y="214.959976" style="fill: #262626; stroke: #262626; stroke-width: 0.8"/>
      </g>
     </g>
    </g>
    <g id="ytick_21">
     <g id="line2d_29">
      <g>
       <use xlink:href="#ma72c822efc" x="57.6" y="212.048777" style="fill: #262626; stroke: #262626; stroke-width: 0.8"/>
      </g>
     </g>
    </g>
    <g id="ytick_22">
     <g id="line2d_30">
      <g>
       <use xlink:href="#ma72c822efc" x="57.6" y="209.480918" style="fill: #262626; stroke: #262626; stroke-width: 0.8"/>
      </g>
     </g>
    </g>
    <g id="ytick_23">
     <g id="line2d_31">
      <g>
       <use xlink:href="#ma72c822efc" x="57.6" y="192.072167" style="fill: #262626; stroke: #262626; stroke-width: 0.8"/>
      </g>
     </g>
    </g>
    <g id="ytick_24">
     <g id="line2d_32">
      <g>
       <use xlink:href="#ma72c822efc" x="57.6" y="183.232376" style="fill: #262626; stroke: #262626; stroke-width: 0.8"/>
      </g>
     </g>
    </g>
    <g id="ytick_25">
     <g id="line2d_33">
      <g>
       <use xlink:href="#ma72c822efc" x="57.6" y="176.960444" style="fill: #262626; stroke: #262626; stroke-width: 0.8"/>
      </g>
     </g>
    </g>
    <g id="ytick_26">
     <g id="line2d_34">
      <g>
       <use xlink:href="#ma72c822efc" x="57.6" y="172.095556" style="fill: #262626; stroke: #262626; stroke-width: 0.8"/>
      </g>
     </g>
    </g>
    <g id="ytick_27">
     <g id="line2d_35">
      <g>
       <use xlink:href="#ma72c822efc" x="57.6" y="168.120653" style="fill: #262626; stroke: #262626; stroke-width: 0.8"/>
      </g>
     </g>
    </g>
    <g id="ytick_28">
     <g id="line2d_36">
      <g>
       <use xlink:href="#ma72c822efc" x="57.6" y="164.75992" style="fill: #262626; stroke: #262626; stroke-width: 0.8"/>
      </g>
     </g>
    </g>
    <g id="ytick_29">
     <g id="line2d_37">
      <g>
       <use xlink:href="#ma72c822efc" x="57.6" y="161.848722" style="fill: #262626; stroke: #262626; stroke-width: 0.8"/>
      </g>
     </g>
    </g>
    <g id="ytick_30">
     <g id="line2d_38">
      <g>
       <use xlink:href="#ma72c822efc" x="57.6" y="159.280862" style="fill: #262626; stroke: #262626; stroke-width: 0.8"/>
      </g>
     </g>
    </g>
    <g id="ytick_31">
     <g id="line2d_39">
      <g>
       <use xlink:href="#ma72c822efc" x="57.6" y="141.872111" style="fill: #262626; stroke: #262626; stroke-width: 0.8"/>
      </g>
     </g>
    </g>
    <g id="ytick_32">
     <g id="line2d_40">
      <g>
       <use xlink:href="#ma72c822efc" x="57.6" y="133.03232" style="fill: #262626; stroke: #262626; stroke-width: 0.8"/>
      </g>
     </g>
    </g>
    <g id="ytick_33">
     <g id="line2d_41">
      <g>
       <use xlink:href="#ma72c822efc" x="57.6" y="126.760389" style="fill: #262626; stroke: #262626; stroke-width: 0.8"/>
      </g>
     </g>
    </g>
    <g id="ytick_34">
     <g id="line2d_42">
      <g>
       <use xlink:href="#ma72c822efc" x="57.6" y="121.8955" style="fill: #262626; stroke: #262626; stroke-width: 0.8"/>
      </g>
     </g>
    </g>
    <g id="ytick_35">
     <g id="line2d_43">
      <g>
       <use xlink:href="#ma72c822efc" x="57.6" y="117.920598" style="fill: #262626; stroke: #262626; stroke-width: 0.8"/>
      </g>
     </g>
    </g>
    <g id="ytick_36">
     <g id="line2d_44">
      <g>
       <use xlink:href="#ma72c822efc" x="57.6" y="114.559865" style="fill: #262626; stroke: #262626; stroke-width: 0.8"/>
      </g>
     </g>
    </g>
    <g id="ytick_37">
     <g id="line2d_45">
      <g>
       <use xlink:href="#ma72c822efc" x="57.6" y="111.648666" style="fill: #262626; stroke: #262626; stroke-width: 0.8"/>
      </g>
     </g>
    </g>
    <g id="ytick_38">
     <g id="line2d_46">
      <g>
       <use xlink:href="#ma72c822efc" x="57.6" y="109.080807" style="fill: #262626; stroke: #262626; stroke-width: 0.8"/>
      </g>
     </g>
    </g>
    <g id="ytick_39">
     <g id="line2d_47">
      <g>
       <use xlink:href="#ma72c822efc" x="57.6" y="91.672056" style="fill: #262626; stroke: #262626; stroke-width: 0.8"/>
      </g>
     </g>
    </g>
    <g id="ytick_40">
     <g id="line2d_48">
      <g>
       <use xlink:href="#ma72c822efc" x="57.6" y="82.832265" style="fill: #262626; stroke: #262626; stroke-width: 0.8"/>
      </g>
     </g>
    </g>
    <g id="ytick_41">
     <g id="line2d_49">
      <g>
       <use xlink:href="#ma72c822efc" x="57.6" y="76.560333" style="fill: #262626; stroke: #262626; stroke-width: 0.8"/>
      </g>
     </g>
    </g>
    <g id="ytick_42">
     <g id="line2d_50">
      <g>
       <use xlink:href="#ma72c822efc" x="57.6" y="71.695445" style="fill: #262626; stroke: #262626; stroke-width: 0.8"/>
      </g>
     </g>
    </g>
    <g id="ytick_43">
     <g id="line2d_51">
      <g>
       <use xlink:href="#ma72c822efc" x="57.6" y="67.720542" style="fill: #262626; stroke: #262626; stroke-width: 0.8"/>
      </g>
     </g>
    </g>
    <g id="ytick_44">
     <g id="line2d_52">
      <g>
       <use xlink:href="#ma72c822efc" x="57.6" y="64.359809" style="fill: #262626; stroke: #262626; stroke-width: 0.8"/>
      </g>
     </g>
    </g>
    <g id="ytick_45">
     <g id="line2d_53">
      <g>
       <use xlink:href="#ma72c822efc" x="57.6" y="61.448611" style="fill: #262626; stroke: #262626; stroke-width: 0.8"/>
      </g>
     </g>
    </g>
    <g id="ytick_46">
     <g id="line2d_54">
      <g>
       <use xlink:href="#ma72c822efc" x="57.6" y="58.880751" style="fill: #262626; stroke: #262626; stroke-width: 0.8"/>
      </g>
     </g>
    </g>
    <g id="ytick_47">
     <g id="line2d_55">
      <g>
       <use xlink:href="#ma72c822efc" x="57.6" y="41.472" style="fill: #262626; stroke: #262626; stroke-width: 0.8"/>
      </g>
     </g>
    </g>
    <g id="text_16">
     <!-- t(sec) -->
     <g style="fill: #262626" transform="translate(25.139906 190.776984)rotate(-90)scale(0.13 -0.13)">
      <defs>
       <path id="ArialMT-74" d="M 1650 503 
L 1731 6 
Q 1494 -44 1306 -44 
Q 1000 -44 831 53 
Q 663 150 594 308 
Q 525 466 525 972 
L 525 2881 
L 113 2881 
L 113 3319 
L 525 3319 
L 525 4141 
L 1084 4478 
L 1084 3319 
L 1650 3319 
L 1650 2881 
L 1084 2881 
L 1084 941 
Q 1084 700 1114 631 
Q 1144 563 1211 522 
Q 1278 481 1403 481 
Q 1497 481 1650 503 
z
" transform="scale(0.015625)"/>
       <path id="ArialMT-28" d="M 1497 -1347 
Q 1031 -759 709 28 
Q 388 816 388 1659 
Q 388 2403 628 3084 
Q 909 3875 1497 4659 
L 1900 4659 
Q 1522 4009 1400 3731 
Q 1209 3300 1100 2831 
Q 966 2247 966 1656 
Q 966 153 1900 -1347 
L 1497 -1347 
z
" transform="scale(0.015625)"/>
       <path id="ArialMT-73" d="M 197 991 
L 753 1078 
Q 800 744 1014 566 
Q 1228 388 1613 388 
Q 2000 388 2187 545 
Q 2375 703 2375 916 
Q 2375 1106 2209 1216 
Q 2094 1291 1634 1406 
Q 1016 1563 777 1677 
Q 538 1791 414 1992 
Q 291 2194 291 2438 
Q 291 2659 392 2848 
Q 494 3038 669 3163 
Q 800 3259 1026 3326 
Q 1253 3394 1513 3394 
Q 1903 3394 2198 3281 
Q 2494 3169 2634 2976 
Q 2775 2784 2828 2463 
L 2278 2388 
Q 2241 2644 2061 2787 
Q 1881 2931 1553 2931 
Q 1166 2931 1000 2803 
Q 834 2675 834 2503 
Q 834 2394 903 2306 
Q 972 2216 1119 2156 
Q 1203 2125 1616 2013 
Q 2213 1853 2448 1751 
Q 2684 1650 2818 1456 
Q 2953 1263 2953 975 
Q 2953 694 2789 445 
Q 2625 197 2315 61 
Q 2006 -75 1616 -75 
Q 969 -75 630 194 
Q 291 463 197 991 
z
" transform="scale(0.015625)"/>
       <path id="ArialMT-65" d="M 2694 1069 
L 3275 997 
Q 3138 488 2766 206 
Q 2394 -75 1816 -75 
Q 1088 -75 661 373 
Q 234 822 234 1631 
Q 234 2469 665 2931 
Q 1097 3394 1784 3394 
Q 2450 3394 2872 2941 
Q 3294 2488 3294 1666 
Q 3294 1616 3291 1516 
L 816 1516 
Q 847 969 1125 678 
Q 1403 388 1819 388 
Q 2128 388 2347 550 
Q 2566 713 2694 1069 
z
M 847 1978 
L 2700 1978 
Q 2663 2397 2488 2606 
Q 2219 2931 1791 2931 
Q 1403 2931 1139 2672 
Q 875 2413 847 1978 
z
" transform="scale(0.015625)"/>
       <path id="ArialMT-63" d="M 2588 1216 
L 3141 1144 
Q 3050 572 2676 248 
Q 2303 -75 1759 -75 
Q 1078 -75 664 370 
Q 250 816 250 1647 
Q 250 2184 428 2587 
Q 606 2991 970 3192 
Q 1334 3394 1763 3394 
Q 2303 3394 2647 3120 
Q 2991 2847 3088 2344 
L 2541 2259 
Q 2463 2594 2264 2762 
Q 2066 2931 1784 2931 
Q 1359 2931 1093 2626 
Q 828 2322 828 1663 
Q 828 994 1084 691 
Q 1341 388 1753 388 
Q 2084 388 2306 591 
Q 2528 794 2588 1216 
z
" transform="scale(0.015625)"/>
       <path id="ArialMT-29" d="M 791 -1347 
L 388 -1347 
Q 1322 153 1322 1656 
Q 1322 2244 1188 2822 
Q 1081 3291 891 3722 
Q 769 4003 388 4659 
L 791 4659 
Q 1378 3875 1659 3084 
Q 1900 2403 1900 1659 
Q 1900 816 1576 28 
Q 1253 -759 791 -1347 
z
" transform="scale(0.015625)"/>
      </defs>
      <use xlink:href="#ArialMT-74"/>
      <use xlink:href="#ArialMT-28" x="27.783203"/>
      <use xlink:href="#ArialMT-73" x="61.083984"/>
      <use xlink:href="#ArialMT-65" x="111.083984"/>
      <use xlink:href="#ArialMT-63" x="166.699219"/>
      <use xlink:href="#ArialMT-29" x="216.699219"/>
     </g>
    </g>
   </g>
   <g id="PolyCollection_1">
    <defs>
     <path id="m1fad24932c" d="M 73.832727 -162.406469 
L 73.832727 -162.209865 
L 94.123636 -170.036088 
L 114.414545 -178.849569 
L 134.705455 -188.583745 
L 154.996364 -198.17561 
L 175.287273 -208.677551 
L 195.578182 -218.313063 
L 215.869091 -226.215076 
L 236.16 -229.019166 
L 256.450909 -230.881717 
L 276.741818 -234.991952 
L 297.032727 -236.867904 
L 317.323636 -238.12594 
L 337.614545 -239.946061 
L 357.905455 -240.852675 
L 378.196364 -244.811984 
L 398.487273 -243.858116 
L 398.487273 -244.549597 
L 398.487273 -244.549597 
L 378.196364 -245.880616 
L 357.905455 -241.400935 
L 337.614545 -240.358221 
L 317.323636 -238.179768 
L 297.032727 -238.484795 
L 276.741818 -236.875818 
L 256.450909 -233.297948 
L 236.16 -230.049638 
L 215.869091 -226.922996 
L 195.578182 -218.509557 
L 175.287273 -208.956344 
L 154.996364 -198.924096 
L 134.705455 -188.654939 
L 114.414545 -179.486722 
L 94.123636 -170.527717 
L 73.832727 -162.406469 
z
" style="stroke: #1f77b4; stroke-opacity: 0.2; stroke-width: 0.8"/>
    </defs>
    <g clip-path="url(#p674b860482)">
     <use xlink:href="#m1fad24932c" x="0" y="345.6" style="fill: #1f77b4; fill-opacity: 0.2; stroke: #1f77b4; stroke-opacity: 0.2; stroke-width: 0.8"/>
    </g>
   </g>
   <g id="PolyCollection_2">
    <defs>
     <path id="me8faff5820" d="M 73.832727 -146.004113 
L 73.832727 -145.538295 
L 94.123636 -153.601833 
L 114.414545 -163.345337 
L 134.705455 -173.204272 
L 154.996364 -183.484794 
L 175.287273 -192.972333 
L 195.578182 -203.903771 
L 215.869091 -211.309502 
L 236.16 -216.711795 
L 256.450909 -219.848847 
L 276.741818 -220.677683 
L 297.032727 -222.894579 
L 317.323636 -223.943137 
L 337.614545 -225.565063 
L 357.905455 -227.973404 
L 378.196364 -229.618137 
L 398.487273 -230.378483 
L 398.487273 -232.158053 
L 398.487273 -232.158053 
L 378.196364 -230.295527 
L 357.905455 -229.631165 
L 337.614545 -227.845766 
L 317.323636 -226.978901 
L 297.032727 -225.435159 
L 276.741818 -221.423162 
L 256.450909 -222.341782 
L 236.16 -218.300384 
L 215.869091 -214.376441 
L 195.578182 -204.675424 
L 175.287273 -193.815786 
L 154.996364 -183.912098 
L 134.705455 -173.908626 
L 114.414545 -163.444475 
L 94.123636 -154.332539 
L 73.832727 -146.004113 
z
" style="stroke: #aec7e8; stroke-opacity: 0.2; stroke-width: 0.8"/>
    </defs>
    <g clip-path="url(#p674b860482)">
     <use xlink:href="#me8faff5820" x="0" y="345.6" style="fill: #aec7e8; fill-opacity: 0.2; stroke: #aec7e8; stroke-opacity: 0.2; stroke-width: 0.8"/>
    </g>
   </g>
   <g id="PolyCollection_3">
    <defs>
     <path id="m7d37fc181f" d="M 73.832727 -143.95352 
L 73.832727 -143.854872 
L 94.123636 -152.578722 
L 114.414545 -162.486699 
L 134.705455 -172.382633 
L 154.996364 -182.911227 
L 175.287273 -192.737194 
L 195.578182 -203.129921 
L 215.869091 -209.782441 
L 236.16 -213.712073 
L 256.450909 -217.940824 
L 276.741818 -218.130891 
L 297.032727 -221.016893 
L 317.323636 -224.783148 
L 337.614545 -224.302525 
L 357.905455 -225.396903 
L 378.196364 -227.57735 
L 398.487273 -231.207673 
L 398.487273 -231.216233 
L 398.487273 -231.216233 
L 378.196364 -227.973548 
L 357.905455 -226.040636 
L 337.614545 -225.116557 
L 317.323636 -225.159264 
L 297.032727 -221.017337 
L 276.741818 -219.157225 
L 256.450909 -218.993152 
L 236.16 -214.899193 
L 215.869091 -210.289377 
L 195.578182 -203.146048 
L 175.287273 -193.841877 
L 154.996364 -183.25355 
L 134.705455 -172.393831 
L 114.414545 -163.100984 
L 94.123636 -153.522491 
L 73.832727 -143.95352 
z
" style="stroke: #ff7f0e; stroke-opacity: 0.2; stroke-width: 0.8"/>
    </defs>
    <g clip-path="url(#p674b860482)">
     <use xlink:href="#m7d37fc181f" x="0" y="345.6" style="fill: #ff7f0e; fill-opacity: 0.2; stroke: #ff7f0e; stroke-opacity: 0.2; stroke-width: 0.8"/>
    </g>
   </g>
   <g id="PolyCollection_4">
    <defs>
     <path id="me2acee8356" d="M 73.832727 -146.842574 
L 73.832727 -144.954028 
L 94.123636 -153.694414 
L 114.414545 -162.780322 
L 134.705455 -173.814859 
L 154.996364 -182.485718 
L 175.287273 -193.431465 
L 195.578182 -203.658668 
L 215.869091 -212.573711 
L 236.16 -216.201335 
L 256.450909 -219.265195 
L 276.741818 -221.392544 
L 297.032727 -223.388495 
L 317.323636 -225.016485 
L 337.614545 -224.372073 
L 357.905455 -225.995266 
L 378.196364 -228.726905 
L 398.487273 -230.504802 
L 398.487273 -231.346312 
L 398.487273 -231.346312 
L 378.196364 -231.069205 
L 357.905455 -227.583592 
L 337.614545 -227.2767 
L 317.323636 -225.075118 
L 297.032727 -223.460134 
L 276.741818 -222.684042 
L 256.450909 -219.825365 
L 236.16 -217.494339 
L 215.869091 -213.000478 
L 195.578182 -205.388194 
L 175.287273 -193.758344 
L 154.996364 -183.285952 
L 134.705455 -174.947988 
L 114.414545 -163.190112 
L 94.123636 -155.526723 
L 73.832727 -146.842574 
z
" style="stroke: #ffbb78; stroke-opacity: 0.2; stroke-width: 0.8"/>
    </defs>
    <g clip-path="url(#p674b860482)">
     <use xlink:href="#me2acee8356" x="0" y="345.6" style="fill: #ffbb78; fill-opacity: 0.2; stroke: #ffbb78; stroke-opacity: 0.2; stroke-width: 0.8"/>
    </g>
   </g>
   <g id="PolyCollection_5">
    <defs>
     <path id="me93fc9c8ce" d="M 73.832727 -144.389506 
L 73.832727 -144.087889 
L 94.123636 -153.189145 
L 114.414545 -162.37707 
L 134.705455 -172.452161 
L 154.996364 -182.923374 
L 175.287273 -193.272685 
L 195.578182 -202.629225 
L 215.869091 -212.936193 
L 236.16 -224.285082 
L 256.450909 -234.081753 
L 276.741818 -243.652837 
L 297.032727 -255.725098 
L 317.323636 -265.668749 
L 337.614545 -276.081028 
L 357.905455 -286.387116 
L 378.196364 -297.178969 
L 398.487273 -306.799292 
L 398.487273 -307.944632 
L 398.487273 -307.944632 
L 378.196364 -298.570236 
L 357.905455 -286.611866 
L 337.614545 -277.302356 
L 317.323636 -266.23863 
L 297.032727 -257.09324 
L 276.741818 -244.323169 
L 256.450909 -234.98582 
L 236.16 -224.317113 
L 215.869091 -213.566714 
L 195.578182 -203.64959 
L 175.287273 -193.740427 
L 154.996364 -182.969663 
L 134.705455 -172.842677 
L 114.414545 -162.569442 
L 94.123636 -153.364035 
L 73.832727 -144.389506 
z
" style="stroke: #2ca02c; stroke-opacity: 0.2; stroke-width: 0.8"/>
    </defs>
    <g clip-path="url(#p674b860482)">
     <use xlink:href="#me93fc9c8ce" x="0" y="345.6" style="fill: #2ca02c; fill-opacity: 0.2; stroke: #2ca02c; stroke-opacity: 0.2; stroke-width: 0.8"/>
    </g>
   </g>
   <g id="PolyCollection_6">
    <defs>
     <path id="mbd267e3097" d="M 73.832727 -145.142203 
L 73.832727 -144.8676 
L 94.123636 -153.398055 
L 114.414545 -162.694153 
L 134.705455 -172.566716 
L 154.996364 -183.206939 
L 175.287273 -192.923539 
L 195.578182 -203.134738 
L 215.869091 -210.682898 
L 236.16 -213.765036 
L 256.450909 -216.655296 
L 276.741818 -219.793721 
L 297.032727 -220.842231 
L 317.323636 -222.876878 
L 337.614545 -224.46373 
L 357.905455 -226.425189 
L 378.196364 -228.284744 
L 398.487273 -228.576781 
L 398.487273 -229.433147 
L 398.487273 -229.433147 
L 378.196364 -228.643944 
L 357.905455 -229.90651 
L 337.614545 -225.8378 
L 317.323636 -224.548461 
L 297.032727 -221.557915 
L 276.741818 -220.08172 
L 256.450909 -217.056211 
L 236.16 -216.589889 
L 215.869091 -210.924565 
L 195.578182 -203.918796 
L 175.287273 -194.646015 
L 154.996364 -183.986552 
L 134.705455 -172.884437 
L 114.414545 -164.115166 
L 94.123636 -153.794681 
L 73.832727 -145.142203 
z
" style="stroke: #98df8a; stroke-opacity: 0.2; stroke-width: 0.8"/>
    </defs>
    <g clip-path="url(#p674b860482)">
     <use xlink:href="#mbd267e3097" x="0" y="345.6" style="fill: #98df8a; fill-opacity: 0.2; stroke: #98df8a; stroke-opacity: 0.2; stroke-width: 0.8"/>
    </g>
   </g>
   <g id="PolyCollection_7">
    <defs>
     <path id="maa7d1bc9a3" d="M 73.832727 -145.606438 
L 73.832727 -144.32925 
L 94.123636 -153.885375 
L 114.414545 -162.830395 
L 134.705455 -172.807545 
L 154.996364 -182.457194 
L 175.287273 -192.978402 
L 195.578182 -203.581217 
L 215.869091 -210.667996 
L 236.16 -214.746968 
L 256.450909 -218.107287 
L 276.741818 -218.735643 
L 297.032727 -220.774206 
L 317.323636 -223.125323 
L 337.614545 -225.288749 
L 357.905455 -225.680661 
L 378.196364 -228.883189 
L 398.487273 -229.900801 
L 398.487273 -231.199667 
L 398.487273 -231.199667 
L 378.196364 -229.957925 
L 357.905455 -226.679603 
L 337.614545 -226.011746 
L 317.323636 -224.660216 
L 297.032727 -223.323454 
L 276.741818 -222.002361 
L 256.450909 -218.62881 
L 236.16 -215.050363 
L 215.869091 -211.410585 
L 195.578182 -203.791022 
L 175.287273 -193.225972 
L 154.996364 -182.845107 
L 134.705455 -172.985365 
L 114.414545 -163.293857 
L 94.123636 -154.726703 
L 73.832727 -145.606438 
z
" style="stroke: #d62728; stroke-opacity: 0.2; stroke-width: 0.8"/>
    </defs>
    <g clip-path="url(#p674b860482)">
     <use xlink:href="#maa7d1bc9a3" x="0" y="345.6" style="fill: #d62728; fill-opacity: 0.2; stroke: #d62728; stroke-opacity: 0.2; stroke-width: 0.8"/>
    </g>
   </g>
   <g id="line2d_56">
    <path d="M 73.832727 183.291611 
L 94.123636 175.316712 
L 114.414545 166.429527 
L 134.705455 156.980629 
L 154.996364 147.046935 
L 175.287273 136.782607 
L 195.578182 127.188469 
L 215.869091 119.02809 
L 236.16 116.05951 
L 256.450909 113.476711 
L 276.741818 109.645773 
L 297.032727 107.908665 
L 317.323636 107.44713 
L 337.614545 105.446885 
L 357.905455 104.471472 
L 378.196364 100.247153 
L 398.487273 101.393402 
" clip-path="url(#p674b860482)" style="fill: none; stroke: #1f77b4; stroke-width: 1.2; stroke-linecap: round"/>
   </g>
   <g id="line2d_57">
    <path d="M 73.832727 199.827552 
L 94.123636 191.629753 
L 114.414545 182.205038 
L 134.705455 172.040707 
L 154.996364 161.900507 
L 175.287273 152.201862 
L 195.578182 141.306989 
L 215.869091 132.703143 
L 236.16 128.079444 
L 256.450909 124.469073 
L 276.741818 124.546391 
L 297.032727 121.398145 
L 317.323636 120.086184 
L 337.614545 118.864775 
L 357.905455 116.781963 
L 378.196364 115.640537 
L 398.487273 114.31358 
" clip-path="url(#p674b860482)" style="fill: none; stroke: #aec7e8; stroke-width: 1.2; stroke-linecap: round"/>
   </g>
   <g id="line2d_58">
    <path d="M 73.832727 201.695748 
L 94.123636 192.544287 
L 114.414545 182.803995 
L 134.705455 173.211767 
L 154.996364 162.51694 
L 175.287273 152.303468 
L 195.578182 142.462014 
L 215.869091 135.562618 
L 236.16 131.286288 
L 256.450909 127.126663 
L 276.741818 126.949903 
L 297.032727 124.582885 
L 317.323636 120.627983 
L 337.614545 120.88666 
L 357.905455 119.878855 
L 378.196364 117.823651 
L 398.487273 114.388046 
" clip-path="url(#p674b860482)" style="fill: none; stroke: #ff7f0e; stroke-width: 1.2; stroke-linecap: round"/>
   </g>
   <g id="line2d_59">
    <path d="M 73.832727 199.681256 
L 94.123636 190.970188 
L 114.414545 182.61382 
L 134.705455 171.211216 
L 154.996364 162.710493 
L 175.287273 152.004483 
L 195.578182 141.059423 
L 215.869091 132.811861 
L 236.16 128.742579 
L 256.450909 126.052921 
L 276.741818 123.552145 
L 297.032727 122.175656 
L 317.323636 120.554179 
L 337.614545 119.727276 
L 357.905455 118.79611 
L 378.196364 115.670504 
L 398.487273 114.670383 
" clip-path="url(#p674b860482)" style="fill: none; stroke: #ffbb78; stroke-width: 1.2; stroke-linecap: round"/>
   </g>
   <g id="line2d_60">
    <path d="M 73.832727 201.360781 
L 94.123636 192.323235 
L 114.414545 183.126532 
L 134.705455 172.951707 
L 154.996364 162.65347 
L 175.287273 152.09219 
L 195.578182 142.454624 
L 215.869091 132.346267 
L 236.16 121.298897 
L 256.450909 111.061528 
L 276.741818 101.609421 
L 297.032727 89.180101 
L 317.323636 79.644449 
L 337.614545 68.899757 
L 357.905455 59.100219 
L 378.196364 47.714301 
L 398.487273 38.220518 
" clip-path="url(#p674b860482)" style="fill: none; stroke: #2ca02c; stroke-width: 1.2; stroke-linecap: round"/>
   </g>
   <g id="line2d_61">
    <path d="M 73.832727 200.594666 
L 94.123636 192.00273 
L 114.414545 182.183765 
L 134.705455 172.873845 
L 154.996364 161.99977 
L 175.287273 151.798216 
L 195.578182 142.069709 
L 215.869091 134.795934 
L 236.16 130.376817 
L 256.450909 128.743325 
L 276.741818 125.661804 
L 297.032727 124.396991 
L 317.323636 121.871314 
L 337.614545 120.438412 
L 357.905455 117.364736 
L 378.196364 117.134916 
L 398.487273 116.590831 
" clip-path="url(#p674b860482)" style="fill: none; stroke: #98df8a; stroke-width: 1.2; stroke-linecap: round"/>
   </g>
   <g id="line2d_62">
    <path d="M 73.832727 200.622805 
L 94.123636 191.289903 
L 114.414545 182.536642 
L 134.705455 172.703364 
L 154.996364 162.947987 
L 175.287273 152.497462 
L 195.578182 141.913628 
L 215.869091 134.557548 
L 236.16 130.700807 
L 256.450909 127.230392 
L 276.741818 125.16987 
L 297.032727 123.513931 
L 317.323636 121.693726 
L 337.614545 119.946755 
L 357.905455 119.414147 
L 378.196364 116.172821 
L 398.487273 115.040095 
" clip-path="url(#p674b860482)" style="fill: none; stroke: #d62728; stroke-width: 1.2; stroke-linecap: round"/>
   </g>
   <g id="line2d_63"/>
   <g id="line2d_64"/>
   <g id="line2d_65"/>
   <g id="line2d_66"/>
   <g id="line2d_67"/>
   <g id="line2d_68"/>
   <g id="line2d_69"/>
   <g id="patch_3">
    <path d="M 57.6 307.584 
L 57.6 41.472 
" style="fill: none; stroke: #262626; stroke-linejoin: miter; stroke-linecap: square"/>
   </g>
   <g id="patch_4">
    <path d="M 414.72 307.584 
L 414.72 41.472 
" style="fill: none; stroke: #262626; stroke-linejoin: miter; stroke-linecap: square"/>
   </g>
   <g id="patch_5">
    <path d="M 57.6 307.584 
L 414.72 307.584 
" style="fill: none; stroke: #262626; stroke-linejoin: miter; stroke-linecap: square"/>
   </g>
   <g id="patch_6">
    <path d="M 57.6 41.472 
L 414.72 41.472 
" style="fill: none; stroke: #262626; stroke-linejoin: miter; stroke-linecap: square"/>
   </g>
   <g id="text_17">
    <!-- fib-g++_overN_128Threads.res -->
    <g style="fill: #262626" transform="translate(145.835391 35.472)scale(0.13 -0.13)">
     <defs>
      <path id="ArialMT-66" d="M 556 0 
L 556 2881 
L 59 2881 
L 59 3319 
L 556 3319 
L 556 3672 
Q 556 4006 616 4169 
Q 697 4388 901 4523 
Q 1106 4659 1475 4659 
Q 1713 4659 2000 4603 
L 1916 4113 
Q 1741 4144 1584 4144 
Q 1328 4144 1222 4034 
Q 1116 3925 1116 3625 
L 1116 3319 
L 1763 3319 
L 1763 2881 
L 1116 2881 
L 1116 0 
L 556 0 
z
" transform="scale(0.015625)"/>
      <path id="ArialMT-69" d="M 425 3934 
L 425 4581 
L 988 4581 
L 988 3934 
L 425 3934 
z
M 425 0 
L 425 3319 
L 988 3319 
L 988 0 
L 425 0 
z
" transform="scale(0.015625)"/>
      <path id="ArialMT-62" d="M 941 0 
L 419 0 
L 419 4581 
L 981 4581 
L 981 2947 
Q 1338 3394 1891 3394 
Q 2197 3394 2470 3270 
Q 2744 3147 2920 2923 
Q 3097 2700 3197 2384 
Q 3297 2069 3297 1709 
Q 3297 856 2875 390 
Q 2453 -75 1863 -75 
Q 1275 -75 941 416 
L 941 0 
z
M 934 1684 
Q 934 1088 1097 822 
Q 1363 388 1816 388 
Q 2184 388 2453 708 
Q 2722 1028 2722 1663 
Q 2722 2313 2464 2622 
Q 2206 2931 1841 2931 
Q 1472 2931 1203 2611 
Q 934 2291 934 1684 
z
" transform="scale(0.015625)"/>
      <path id="ArialMT-2d" d="M 203 1375 
L 203 1941 
L 1931 1941 
L 1931 1375 
L 203 1375 
z
" transform="scale(0.015625)"/>
      <path id="ArialMT-67" d="M 319 -275 
L 866 -356 
Q 900 -609 1056 -725 
Q 1266 -881 1628 -881 
Q 2019 -881 2231 -725 
Q 2444 -569 2519 -288 
Q 2563 -116 2559 434 
Q 2191 0 1641 0 
Q 956 0 581 494 
Q 206 988 206 1678 
Q 206 2153 378 2554 
Q 550 2956 876 3175 
Q 1203 3394 1644 3394 
Q 2231 3394 2613 2919 
L 2613 3319 
L 3131 3319 
L 3131 450 
Q 3131 -325 2973 -648 
Q 2816 -972 2473 -1159 
Q 2131 -1347 1631 -1347 
Q 1038 -1347 672 -1080 
Q 306 -813 319 -275 
z
M 784 1719 
Q 784 1066 1043 766 
Q 1303 466 1694 466 
Q 2081 466 2343 764 
Q 2606 1063 2606 1700 
Q 2606 2309 2336 2618 
Q 2066 2928 1684 2928 
Q 1309 2928 1046 2623 
Q 784 2319 784 1719 
z
" transform="scale(0.015625)"/>
      <path id="ArialMT-2b" d="M 1603 741 
L 1603 1997 
L 356 1997 
L 356 2522 
L 1603 2522 
L 1603 3769 
L 2134 3769 
L 2134 2522 
L 3381 2522 
L 3381 1997 
L 2134 1997 
L 2134 741 
L 1603 741 
z
" transform="scale(0.015625)"/>
      <path id="ArialMT-5f" d="M -97 -1272 
L -97 -866 
L 3631 -866 
L 3631 -1272 
L -97 -1272 
z
" transform="scale(0.015625)"/>
      <path id="ArialMT-6f" d="M 213 1659 
Q 213 2581 725 3025 
Q 1153 3394 1769 3394 
Q 2453 3394 2887 2945 
Q 3322 2497 3322 1706 
Q 3322 1066 3130 698 
Q 2938 331 2570 128 
Q 2203 -75 1769 -75 
Q 1072 -75 642 372 
Q 213 819 213 1659 
z
M 791 1659 
Q 791 1022 1069 705 
Q 1347 388 1769 388 
Q 2188 388 2466 706 
Q 2744 1025 2744 1678 
Q 2744 2294 2464 2611 
Q 2184 2928 1769 2928 
Q 1347 2928 1069 2612 
Q 791 2297 791 1659 
z
" transform="scale(0.015625)"/>
      <path id="ArialMT-76" d="M 1344 0 
L 81 3319 
L 675 3319 
L 1388 1331 
Q 1503 1009 1600 663 
Q 1675 925 1809 1294 
L 2547 3319 
L 3125 3319 
L 1869 0 
L 1344 0 
z
" transform="scale(0.015625)"/>
      <path id="ArialMT-72" d="M 416 0 
L 416 3319 
L 922 3319 
L 922 2816 
Q 1116 3169 1280 3281 
Q 1444 3394 1641 3394 
Q 1925 3394 2219 3213 
L 2025 2691 
Q 1819 2813 1613 2813 
Q 1428 2813 1281 2702 
Q 1134 2591 1072 2394 
Q 978 2094 978 1738 
L 978 0 
L 416 0 
z
" transform="scale(0.015625)"/>
      <path id="ArialMT-54" d="M 1659 0 
L 1659 4041 
L 150 4041 
L 150 4581 
L 3781 4581 
L 3781 4041 
L 2266 4041 
L 2266 0 
L 1659 0 
z
" transform="scale(0.015625)"/>
      <path id="ArialMT-68" d="M 422 0 
L 422 4581 
L 984 4581 
L 984 2938 
Q 1378 3394 1978 3394 
Q 2347 3394 2619 3248 
Q 2891 3103 3008 2847 
Q 3125 2591 3125 2103 
L 3125 0 
L 2563 0 
L 2563 2103 
Q 2563 2525 2380 2717 
Q 2197 2909 1863 2909 
Q 1613 2909 1392 2779 
Q 1172 2650 1078 2428 
Q 984 2206 984 1816 
L 984 0 
L 422 0 
z
" transform="scale(0.015625)"/>
      <path id="ArialMT-61" d="M 2588 409 
Q 2275 144 1986 34 
Q 1697 -75 1366 -75 
Q 819 -75 525 192 
Q 231 459 231 875 
Q 231 1119 342 1320 
Q 453 1522 633 1644 
Q 813 1766 1038 1828 
Q 1203 1872 1538 1913 
Q 2219 1994 2541 2106 
Q 2544 2222 2544 2253 
Q 2544 2597 2384 2738 
Q 2169 2928 1744 2928 
Q 1347 2928 1158 2789 
Q 969 2650 878 2297 
L 328 2372 
Q 403 2725 575 2942 
Q 747 3159 1072 3276 
Q 1397 3394 1825 3394 
Q 2250 3394 2515 3294 
Q 2781 3194 2906 3042 
Q 3031 2891 3081 2659 
Q 3109 2516 3109 2141 
L 3109 1391 
Q 3109 606 3145 398 
Q 3181 191 3288 0 
L 2700 0 
Q 2613 175 2588 409 
z
M 2541 1666 
Q 2234 1541 1622 1453 
Q 1275 1403 1131 1340 
Q 988 1278 909 1158 
Q 831 1038 831 891 
Q 831 666 1001 516 
Q 1172 366 1500 366 
Q 1825 366 2078 508 
Q 2331 650 2450 897 
Q 2541 1088 2541 1459 
L 2541 1666 
z
" transform="scale(0.015625)"/>
      <path id="ArialMT-64" d="M 2575 0 
L 2575 419 
Q 2259 -75 1647 -75 
Q 1250 -75 917 144 
Q 584 363 401 755 
Q 219 1147 219 1656 
Q 219 2153 384 2558 
Q 550 2963 881 3178 
Q 1213 3394 1622 3394 
Q 1922 3394 2156 3267 
Q 2391 3141 2538 2938 
L 2538 4581 
L 3097 4581 
L 3097 0 
L 2575 0 
z
M 797 1656 
Q 797 1019 1065 703 
Q 1334 388 1700 388 
Q 2069 388 2326 689 
Q 2584 991 2584 1609 
Q 2584 2291 2321 2609 
Q 2059 2928 1675 2928 
Q 1300 2928 1048 2622 
Q 797 2316 797 1656 
z
" transform="scale(0.015625)"/>
      <path id="ArialMT-2e" d="M 581 0 
L 581 641 
L 1222 641 
L 1222 0 
L 581 0 
z
" transform="scale(0.015625)"/>
     </defs>
     <use xlink:href="#ArialMT-66"/>
     <use xlink:href="#ArialMT-69" x="27.783203"/>
     <use xlink:href="#ArialMT-62" x="50"/>
     <use xlink:href="#ArialMT-2d" x="105.615234"/>
     <use xlink:href="#ArialMT-67" x="138.916016"/>
     <use xlink:href="#ArialMT-2b" x="194.53125"/>
     <use xlink:href="#ArialMT-2b" x="252.929688"/>
     <use xlink:href="#ArialMT-5f" x="311.328125"/>
     <use xlink:href="#ArialMT-6f" x="366.943359"/>
     <use xlink:href="#ArialMT-76" x="422.558594"/>
     <use xlink:href="#ArialMT-65" x="472.558594"/>
     <use xlink:href="#ArialMT-72" x="528.173828"/>
     <use xlink:href="#ArialMT-4e" x="561.474609"/>
     <use xlink:href="#ArialMT-5f" x="633.691406"/>
     <use xlink:href="#ArialMT-31" x="689.306641"/>
     <use xlink:href="#ArialMT-32" x="744.921875"/>
     <use xlink:href="#ArialMT-38" x="800.537109"/>
     <use xlink:href="#ArialMT-54" x="856.152344"/>
     <use xlink:href="#ArialMT-68" x="917.236328"/>
     <use xlink:href="#ArialMT-72" x="972.851562"/>
     <use xlink:href="#ArialMT-65" x="1006.152344"/>
     <use xlink:href="#ArialMT-61" x="1061.767578"/>
     <use xlink:href="#ArialMT-64" x="1117.382812"/>
     <use xlink:href="#ArialMT-73" x="1172.998047"/>
     <use xlink:href="#ArialMT-2e" x="1222.998047"/>
     <use xlink:href="#ArialMT-72" x="1250.78125"/>
     <use xlink:href="#ArialMT-65" x="1284.082031"/>
     <use xlink:href="#ArialMT-73" x="1339.697266"/>
    </g>
   </g>
   <g id="legend_1">
    <g id="patch_7">
     <path d="M 238.994531 301.084 
L 405.62 301.084 
Q 408.22 301.084 408.22 298.484 
L 408.22 170.756969 
Q 408.22 168.156969 405.62 168.156969 
L 238.994531 168.156969 
Q 236.394531 168.156969 236.394531 170.756969 
L 236.394531 298.484 
Q 236.394531 301.084 238.994531 301.084 
z
" style="fill: #ffffff; opacity: 0.8; stroke: #cccccc; stroke-width: 0.8; stroke-linejoin: miter"/>
    </g>
    <g id="line2d_70">
     <path d="M 241.594531 178.112125 
L 254.594531 178.112125 
L 267.594531 178.112125 
" style="fill: none; stroke: #1f77b4; stroke-width: 1.2; stroke-linecap: round"/>
    </g>
    <g id="text_18">
     <!--  treadpriv -->
     <g style="fill: #262626" transform="translate(277.994531 182.662125)scale(0.13 -0.13)">
      <defs>
       <path id="ArialMT-20" transform="scale(0.015625)"/>
       <path id="ArialMT-70" d="M 422 -1272 
L 422 3319 
L 934 3319 
L 934 2888 
Q 1116 3141 1344 3267 
Q 1572 3394 1897 3394 
Q 2322 3394 2647 3175 
Q 2972 2956 3137 2557 
Q 3303 2159 3303 1684 
Q 3303 1175 3120 767 
Q 2938 359 2589 142 
Q 2241 -75 1856 -75 
Q 1575 -75 1351 44 
Q 1128 163 984 344 
L 984 -1272 
L 422 -1272 
z
M 931 1641 
Q 931 1000 1190 694 
Q 1450 388 1819 388 
Q 2194 388 2461 705 
Q 2728 1022 2728 1688 
Q 2728 2322 2467 2637 
Q 2206 2953 1844 2953 
Q 1484 2953 1207 2617 
Q 931 2281 931 1641 
z
" transform="scale(0.015625)"/>
      </defs>
      <use xlink:href="#ArialMT-20"/>
      <use xlink:href="#ArialMT-74" x="27.783203"/>
      <use xlink:href="#ArialMT-72" x="55.566406"/>
      <use xlink:href="#ArialMT-65" x="88.867188"/>
      <use xlink:href="#ArialMT-61" x="144.482422"/>
      <use xlink:href="#ArialMT-64" x="200.097656"/>
      <use xlink:href="#ArialMT-70" x="255.712891"/>
      <use xlink:href="#ArialMT-72" x="311.328125"/>
      <use xlink:href="#ArialMT-69" x="344.628906"/>
      <use xlink:href="#ArialMT-76" x="366.845703"/>
     </g>
    </g>
    <g id="line2d_71">
     <path d="M 241.594531 196.501031 
L 254.594531 196.501031 
L 267.594531 196.501031 
" style="fill: none; stroke: #aec7e8; stroke-width: 1.2; stroke-linecap: round"/>
    </g>
    <g id="text_19">
     <!--  parallelred_tg -->
     <g style="fill: #262626" transform="translate(277.994531 201.051031)scale(0.13 -0.13)">
      <defs>
       <path id="ArialMT-6c" d="M 409 0 
L 409 4581 
L 972 4581 
L 972 0 
L 409 0 
z
" transform="scale(0.015625)"/>
      </defs>
      <use xlink:href="#ArialMT-20"/>
      <use xlink:href="#ArialMT-70" x="27.783203"/>
      <use xlink:href="#ArialMT-61" x="83.398438"/>
      <use xlink:href="#ArialMT-72" x="139.013672"/>
      <use xlink:href="#ArialMT-61" x="172.314453"/>
      <use xlink:href="#ArialMT-6c" x="227.929688"/>
      <use xlink:href="#ArialMT-6c" x="250.146484"/>
      <use xlink:href="#ArialMT-65" x="272.363281"/>
      <use xlink:href="#ArialMT-6c" x="327.978516"/>
      <use xlink:href="#ArialMT-72" x="350.195312"/>
      <use xlink:href="#ArialMT-65" x="383.496094"/>
      <use xlink:href="#ArialMT-64" x="439.111328"/>
      <use xlink:href="#ArialMT-5f" x="494.726562"/>
      <use xlink:href="#ArialMT-74" x="550.341797"/>
      <use xlink:href="#ArialMT-67" x="578.125"/>
     </g>
    </g>
    <g id="line2d_72">
     <path d="M 241.594531 215.042281 
L 254.594531 215.042281 
L 267.594531 215.042281 
" style="fill: none; stroke: #ff7f0e; stroke-width: 1.2; stroke-linecap: round"/>
    </g>
    <g id="text_20">
     <!--  atomic -->
     <g style="fill: #262626" transform="translate(277.994531 219.592281)scale(0.13 -0.13)">
      <defs>
       <path id="ArialMT-6d" d="M 422 0 
L 422 3319 
L 925 3319 
L 925 2853 
Q 1081 3097 1340 3245 
Q 1600 3394 1931 3394 
Q 2300 3394 2536 3241 
Q 2772 3088 2869 2813 
Q 3263 3394 3894 3394 
Q 4388 3394 4653 3120 
Q 4919 2847 4919 2278 
L 4919 0 
L 4359 0 
L 4359 2091 
Q 4359 2428 4304 2576 
Q 4250 2725 4106 2815 
Q 3963 2906 3769 2906 
Q 3419 2906 3187 2673 
Q 2956 2441 2956 1928 
L 2956 0 
L 2394 0 
L 2394 2156 
Q 2394 2531 2256 2718 
Q 2119 2906 1806 2906 
Q 1569 2906 1367 2781 
Q 1166 2656 1075 2415 
Q 984 2175 984 1722 
L 984 0 
L 422 0 
z
" transform="scale(0.015625)"/>
      </defs>
      <use xlink:href="#ArialMT-20"/>
      <use xlink:href="#ArialMT-61" x="27.783203"/>
      <use xlink:href="#ArialMT-74" x="83.398438"/>
      <use xlink:href="#ArialMT-6f" x="111.181641"/>
      <use xlink:href="#ArialMT-6d" x="166.796875"/>
      <use xlink:href="#ArialMT-69" x="250.097656"/>
      <use xlink:href="#ArialMT-63" x="272.314453"/>
     </g>
    </g>
    <g id="line2d_73">
     <path d="M 241.594531 233.431187 
L 254.594531 233.431187 
L 267.594531 233.431187 
" style="fill: none; stroke: #ffbb78; stroke-width: 1.2; stroke-linecap: round"/>
    </g>
    <g id="text_21">
     <!--  parallelred_tg_untied -->
     <g style="fill: #262626" transform="translate(277.994531 237.981188)scale(0.13 -0.13)">
      <defs>
       <path id="ArialMT-75" d="M 2597 0 
L 2597 488 
Q 2209 -75 1544 -75 
Q 1250 -75 995 37 
Q 741 150 617 320 
Q 494 491 444 738 
Q 409 903 409 1263 
L 409 3319 
L 972 3319 
L 972 1478 
Q 972 1038 1006 884 
Q 1059 663 1231 536 
Q 1403 409 1656 409 
Q 1909 409 2131 539 
Q 2353 669 2445 892 
Q 2538 1116 2538 1541 
L 2538 3319 
L 3100 3319 
L 3100 0 
L 2597 0 
z
" transform="scale(0.015625)"/>
       <path id="ArialMT-6e" d="M 422 0 
L 422 3319 
L 928 3319 
L 928 2847 
Q 1294 3394 1984 3394 
Q 2284 3394 2536 3286 
Q 2788 3178 2913 3003 
Q 3038 2828 3088 2588 
Q 3119 2431 3119 2041 
L 3119 0 
L 2556 0 
L 2556 2019 
Q 2556 2363 2490 2533 
Q 2425 2703 2258 2804 
Q 2091 2906 1866 2906 
Q 1506 2906 1245 2678 
Q 984 2450 984 1813 
L 984 0 
L 422 0 
z
" transform="scale(0.015625)"/>
      </defs>
      <use xlink:href="#ArialMT-20"/>
      <use xlink:href="#ArialMT-70" x="27.783203"/>
      <use xlink:href="#ArialMT-61" x="83.398438"/>
      <use xlink:href="#ArialMT-72" x="139.013672"/>
      <use xlink:href="#ArialMT-61" x="172.314453"/>
      <use xlink:href="#ArialMT-6c" x="227.929688"/>
      <use xlink:href="#ArialMT-6c" x="250.146484"/>
      <use xlink:href="#ArialMT-65" x="272.363281"/>
      <use xlink:href="#ArialMT-6c" x="327.978516"/>
      <use xlink:href="#ArialMT-72" x="350.195312"/>
      <use xlink:href="#ArialMT-65" x="383.496094"/>
      <use xlink:href="#ArialMT-64" x="439.111328"/>
      <use xlink:href="#ArialMT-5f" x="494.726562"/>
      <use xlink:href="#ArialMT-74" x="550.341797"/>
      <use xlink:href="#ArialMT-67" x="578.125"/>
      <use xlink:href="#ArialMT-5f" x="633.740234"/>
      <use xlink:href="#ArialMT-75" x="689.355469"/>
      <use xlink:href="#ArialMT-6e" x="744.970703"/>
      <use xlink:href="#ArialMT-74" x="800.585938"/>
      <use xlink:href="#ArialMT-69" x="828.369141"/>
      <use xlink:href="#ArialMT-65" x="850.585938"/>
      <use xlink:href="#ArialMT-64" x="906.201172"/>
     </g>
    </g>
    <g id="line2d_74">
     <path d="M 241.594531 251.972438 
L 254.594531 251.972438 
L 267.594531 251.972438 
" style="fill: none; stroke: #2ca02c; stroke-width: 1.2; stroke-linecap: round"/>
    </g>
    <g id="text_22">
     <!--  stack -->
     <g style="fill: #262626" transform="translate(277.994531 256.522438)scale(0.13 -0.13)">
      <defs>
       <path id="ArialMT-6b" d="M 425 0 
L 425 4581 
L 988 4581 
L 988 1969 
L 2319 3319 
L 3047 3319 
L 1778 2088 
L 3175 0 
L 2481 0 
L 1384 1697 
L 988 1316 
L 988 0 
L 425 0 
z
" transform="scale(0.015625)"/>
      </defs>
      <use xlink:href="#ArialMT-20"/>
      <use xlink:href="#ArialMT-73" x="27.783203"/>
      <use xlink:href="#ArialMT-74" x="77.783203"/>
      <use xlink:href="#ArialMT-61" x="105.566406"/>
      <use xlink:href="#ArialMT-63" x="161.181641"/>
      <use xlink:href="#ArialMT-6b" x="211.181641"/>
     </g>
    </g>
    <g id="line2d_75">
     <path d="M 241.594531 270.361344 
L 254.594531 270.361344 
L 267.594531 270.361344 
" style="fill: none; stroke: #98df8a; stroke-width: 1.2; stroke-linecap: round"/>
    </g>
    <g id="text_23">
     <!--  parallelred_untied -->
     <g style="fill: #262626" transform="translate(277.994531 274.911344)scale(0.13 -0.13)">
      <use xlink:href="#ArialMT-20"/>
      <use xlink:href="#ArialMT-70" x="27.783203"/>
      <use xlink:href="#ArialMT-61" x="83.398438"/>
      <use xlink:href="#ArialMT-72" x="139.013672"/>
      <use xlink:href="#ArialMT-61" x="172.314453"/>
      <use xlink:href="#ArialMT-6c" x="227.929688"/>
      <use xlink:href="#ArialMT-6c" x="250.146484"/>
      <use xlink:href="#ArialMT-65" x="272.363281"/>
      <use xlink:href="#ArialMT-6c" x="327.978516"/>
      <use xlink:href="#ArialMT-72" x="350.195312"/>
      <use xlink:href="#ArialMT-65" x="383.496094"/>
      <use xlink:href="#ArialMT-64" x="439.111328"/>
      <use xlink:href="#ArialMT-5f" x="494.726562"/>
      <use xlink:href="#ArialMT-75" x="550.341797"/>
      <use xlink:href="#ArialMT-6e" x="605.957031"/>
      <use xlink:href="#ArialMT-74" x="661.572266"/>
      <use xlink:href="#ArialMT-69" x="689.355469"/>
      <use xlink:href="#ArialMT-65" x="711.572266"/>
      <use xlink:href="#ArialMT-64" x="767.1875"/>
     </g>
    </g>
    <g id="line2d_76">
     <path d="M 241.594531 288.75025 
L 254.594531 288.75025 
L 267.594531 288.75025 
" style="fill: none; stroke: #d62728; stroke-width: 1.2; stroke-linecap: round"/>
    </g>
    <g id="text_24">
     <!--  parallelred -->
     <g style="fill: #262626" transform="translate(277.994531 293.30025)scale(0.13 -0.13)">
      <use xlink:href="#ArialMT-20"/>
      <use xlink:href="#ArialMT-70" x="27.783203"/>
      <use xlink:href="#ArialMT-61" x="83.398438"/>
      <use xlink:href="#ArialMT-72" x="139.013672"/>
      <use xlink:href="#ArialMT-61" x="172.314453"/>
      <use xlink:href="#ArialMT-6c" x="227.929688"/>
      <use xlink:href="#ArialMT-6c" x="250.146484"/>
      <use xlink:href="#ArialMT-65" x="272.363281"/>
      <use xlink:href="#ArialMT-6c" x="327.978516"/>
      <use xlink:href="#ArialMT-72" x="350.195312"/>
      <use xlink:href="#ArialMT-65" x="383.496094"/>
      <use xlink:href="#ArialMT-64" x="439.111328"/>
     </g>
    </g>
   </g>
  </g>
 </g>
 <defs>
  <clipPath id="p674b860482">
   <rect x="57.6" y="41.472" width="357.12" height="266.112"/>
  </clipPath>
 </defs>
</svg>
