<?xml version="1.0" encoding="utf-8" standalone="no"?>
<!DOCTYPE svg PUBLIC "-//W3C//DTD SVG 1.1//EN"
  "http://www.w3.org/Graphics/SVG/1.1/DTD/svg11.dtd">
<svg xmlns:xlink="http://www.w3.org/1999/xlink" width="460.8pt" height="345.6pt" viewBox="0 0 460.8 345.6" xmlns="http://www.w3.org/2000/svg" version="1.1">
 <metadata>
  <rdf:RDF xmlns:dc="http://purl.org/dc/elements/1.1/" xmlns:cc="http://creativecommons.org/ns#" xmlns:rdf="http://www.w3.org/1999/02/22-rdf-syntax-ns#">
   <cc:Work>
    <dc:type rdf:resource="http://purl.org/dc/dcmitype/StillImage"/>
    <dc:date>2022-05-24T18:15:31.980433</dc:date>
    <dc:format>image/svg+xml</dc:format>
    <dc:creator>
     <cc:Agent>
      <dc:title>Matplotlib v3.5.1, https://matplotlib.org/</dc:title>
     </cc:Agent>
    </dc:creator>
   </cc:Work>
  </rdf:RDF>
 </metadata>
 <defs>
  <style type="text/css">*{stroke-linejoin: round; stroke-linecap: butt}</style>
 </defs>
 <g id="figure_1">
  <g id="patch_1">
   <path d="M 0 345.6 
L 460.8 345.6 
L 460.8 0 
L 0 0 
z
" style="fill: #ffffff"/>
  </g>
  <g id="axes_1">
   <g id="patch_2">
    <path d="M 57.6 307.584 
L 414.72 307.584 
L 414.72 41.472 
L 57.6 41.472 
z
" style="fill: #ffffff"/>
   </g>
   <g id="matplotlib.axis_1">
    <g id="xtick_1">
     <g id="line2d_1">
      <defs>
       <path id="m7ec574ecf6" d="M 0 0 
L 0 4.8 
" style="stroke: #262626"/>
      </defs>
      <g>
       <use xlink:href="#m7ec574ecf6" x="94.123636" y="307.584" style="fill: #262626; stroke: #262626"/>
      </g>
     </g>
     <g id="text_1">
      <!-- 16 -->
      <g style="fill: #262626" transform="translate(89.230011 322.182875)scale(0.088 -0.088)">
       <defs>
        <path id="ArialMT-31" d="M 2384 0 
L 1822 0 
L 1822 3584 
Q 1619 3391 1289 3197 
Q 959 3003 697 2906 
L 697 3450 
Q 1169 3672 1522 3987 
Q 1875 4303 2022 4600 
L 2384 4600 
L 2384 0 
z
" transform="scale(0.015625)"/>
        <path id="ArialMT-36" d="M 3184 3459 
L 2625 3416 
Q 2550 3747 2413 3897 
Q 2184 4138 1850 4138 
Q 1581 4138 1378 3988 
Q 1113 3794 959 3422 
Q 806 3050 800 2363 
Q 1003 2672 1297 2822 
Q 1591 2972 1913 2972 
Q 2475 2972 2870 2558 
Q 3266 2144 3266 1488 
Q 3266 1056 3080 686 
Q 2894 316 2569 119 
Q 2244 -78 1831 -78 
Q 1128 -78 684 439 
Q 241 956 241 2144 
Q 241 3472 731 4075 
Q 1159 4600 1884 4600 
Q 2425 4600 2770 4297 
Q 3116 3994 3184 3459 
z
M 888 1484 
Q 888 1194 1011 928 
Q 1134 663 1356 523 
Q 1578 384 1822 384 
Q 2178 384 2434 671 
Q 2691 959 2691 1453 
Q 2691 1928 2437 2201 
Q 2184 2475 1800 2475 
Q 1419 2475 1153 2201 
Q 888 1928 888 1484 
z
" transform="scale(0.015625)"/>
       </defs>
       <use xlink:href="#ArialMT-31"/>
       <use xlink:href="#ArialMT-36" x="55.615234"/>
      </g>
     </g>
    </g>
    <g id="xtick_2">
     <g id="line2d_2">
      <g>
       <use xlink:href="#m7ec574ecf6" x="134.705455" y="307.584" style="fill: #262626; stroke: #262626"/>
      </g>
     </g>
     <g id="text_2">
      <!-- 18 -->
      <g style="fill: #262626" transform="translate(129.81183 322.182875)scale(0.088 -0.088)">
       <defs>
        <path id="ArialMT-38" d="M 1131 2484 
Q 781 2613 612 2850 
Q 444 3088 444 3419 
Q 444 3919 803 4259 
Q 1163 4600 1759 4600 
Q 2359 4600 2725 4251 
Q 3091 3903 3091 3403 
Q 3091 3084 2923 2848 
Q 2756 2613 2416 2484 
Q 2838 2347 3058 2040 
Q 3278 1734 3278 1309 
Q 3278 722 2862 322 
Q 2447 -78 1769 -78 
Q 1091 -78 675 323 
Q 259 725 259 1325 
Q 259 1772 486 2073 
Q 713 2375 1131 2484 
z
M 1019 3438 
Q 1019 3113 1228 2906 
Q 1438 2700 1772 2700 
Q 2097 2700 2305 2904 
Q 2513 3109 2513 3406 
Q 2513 3716 2298 3927 
Q 2084 4138 1766 4138 
Q 1444 4138 1231 3931 
Q 1019 3725 1019 3438 
z
M 838 1322 
Q 838 1081 952 856 
Q 1066 631 1291 507 
Q 1516 384 1775 384 
Q 2178 384 2440 643 
Q 2703 903 2703 1303 
Q 2703 1709 2433 1975 
Q 2163 2241 1756 2241 
Q 1359 2241 1098 1978 
Q 838 1716 838 1322 
z
" transform="scale(0.015625)"/>
       </defs>
       <use xlink:href="#ArialMT-31"/>
       <use xlink:href="#ArialMT-38" x="55.615234"/>
      </g>
     </g>
    </g>
    <g id="xtick_3">
     <g id="line2d_3">
      <g>
       <use xlink:href="#m7ec574ecf6" x="175.287273" y="307.584" style="fill: #262626; stroke: #262626"/>
      </g>
     </g>
     <g id="text_3">
      <!-- 20 -->
      <g style="fill: #262626" transform="translate(170.393648 322.182875)scale(0.088 -0.088)">
       <defs>
        <path id="ArialMT-32" d="M 3222 541 
L 3222 0 
L 194 0 
Q 188 203 259 391 
Q 375 700 629 1000 
Q 884 1300 1366 1694 
Q 2113 2306 2375 2664 
Q 2638 3022 2638 3341 
Q 2638 3675 2398 3904 
Q 2159 4134 1775 4134 
Q 1369 4134 1125 3890 
Q 881 3647 878 3216 
L 300 3275 
Q 359 3922 746 4261 
Q 1134 4600 1788 4600 
Q 2447 4600 2831 4234 
Q 3216 3869 3216 3328 
Q 3216 3053 3103 2787 
Q 2991 2522 2730 2228 
Q 2469 1934 1863 1422 
Q 1356 997 1212 845 
Q 1069 694 975 541 
L 3222 541 
z
" transform="scale(0.015625)"/>
        <path id="ArialMT-30" d="M 266 2259 
Q 266 3072 433 3567 
Q 600 4063 929 4331 
Q 1259 4600 1759 4600 
Q 2128 4600 2406 4451 
Q 2684 4303 2865 4023 
Q 3047 3744 3150 3342 
Q 3253 2941 3253 2259 
Q 3253 1453 3087 958 
Q 2922 463 2592 192 
Q 2263 -78 1759 -78 
Q 1097 -78 719 397 
Q 266 969 266 2259 
z
M 844 2259 
Q 844 1131 1108 757 
Q 1372 384 1759 384 
Q 2147 384 2411 759 
Q 2675 1134 2675 2259 
Q 2675 3391 2411 3762 
Q 2147 4134 1753 4134 
Q 1366 4134 1134 3806 
Q 844 3388 844 2259 
z
" transform="scale(0.015625)"/>
       </defs>
       <use xlink:href="#ArialMT-32"/>
       <use xlink:href="#ArialMT-30" x="55.615234"/>
      </g>
     </g>
    </g>
    <g id="xtick_4">
     <g id="line2d_4">
      <g>
       <use xlink:href="#m7ec574ecf6" x="215.869091" y="307.584" style="fill: #262626; stroke: #262626"/>
      </g>
     </g>
     <g id="text_4">
      <!-- 22 -->
      <g style="fill: #262626" transform="translate(210.975466 322.182875)scale(0.088 -0.088)">
       <use xlink:href="#ArialMT-32"/>
       <use xlink:href="#ArialMT-32" x="55.615234"/>
      </g>
     </g>
    </g>
    <g id="xtick_5">
     <g id="line2d_5">
      <g>
       <use xlink:href="#m7ec574ecf6" x="256.450909" y="307.584" style="fill: #262626; stroke: #262626"/>
      </g>
     </g>
     <g id="text_5">
      <!-- 24 -->
      <g style="fill: #262626" transform="translate(251.557284 322.182875)scale(0.088 -0.088)">
       <defs>
        <path id="ArialMT-34" d="M 2069 0 
L 2069 1097 
L 81 1097 
L 81 1613 
L 2172 4581 
L 2631 4581 
L 2631 1613 
L 3250 1613 
L 3250 1097 
L 2631 1097 
L 2631 0 
L 2069 0 
z
M 2069 1613 
L 2069 3678 
L 634 1613 
L 2069 1613 
z
" transform="scale(0.015625)"/>
       </defs>
       <use xlink:href="#ArialMT-32"/>
       <use xlink:href="#ArialMT-34" x="55.615234"/>
      </g>
     </g>
    </g>
    <g id="xtick_6">
     <g id="line2d_6">
      <g>
       <use xlink:href="#m7ec574ecf6" x="297.032727" y="307.584" style="fill: #262626; stroke: #262626"/>
      </g>
     </g>
     <g id="text_6">
      <!-- 26 -->
      <g style="fill: #262626" transform="translate(292.139102 322.182875)scale(0.088 -0.088)">
       <use xlink:href="#ArialMT-32"/>
       <use xlink:href="#ArialMT-36" x="55.615234"/>
      </g>
     </g>
    </g>
    <g id="xtick_7">
     <g id="line2d_7">
      <g>
       <use xlink:href="#m7ec574ecf6" x="337.614545" y="307.584" style="fill: #262626; stroke: #262626"/>
      </g>
     </g>
     <g id="text_7">
      <!-- 28 -->
      <g style="fill: #262626" transform="translate(332.72092 322.182875)scale(0.088 -0.088)">
       <use xlink:href="#ArialMT-32"/>
       <use xlink:href="#ArialMT-38" x="55.615234"/>
      </g>
     </g>
    </g>
    <g id="xtick_8">
     <g id="line2d_8">
      <g>
       <use xlink:href="#m7ec574ecf6" x="378.196364" y="307.584" style="fill: #262626; stroke: #262626"/>
      </g>
     </g>
     <g id="text_8">
      <!-- 30 -->
      <g style="fill: #262626" transform="translate(373.302739 322.182875)scale(0.088 -0.088)">
       <defs>
        <path id="ArialMT-33" d="M 269 1209 
L 831 1284 
Q 928 806 1161 595 
Q 1394 384 1728 384 
Q 2125 384 2398 659 
Q 2672 934 2672 1341 
Q 2672 1728 2419 1979 
Q 2166 2231 1775 2231 
Q 1616 2231 1378 2169 
L 1441 2663 
Q 1497 2656 1531 2656 
Q 1891 2656 2178 2843 
Q 2466 3031 2466 3422 
Q 2466 3731 2256 3934 
Q 2047 4138 1716 4138 
Q 1388 4138 1169 3931 
Q 950 3725 888 3313 
L 325 3413 
Q 428 3978 793 4289 
Q 1159 4600 1703 4600 
Q 2078 4600 2393 4439 
Q 2709 4278 2876 4000 
Q 3044 3722 3044 3409 
Q 3044 3113 2884 2869 
Q 2725 2625 2413 2481 
Q 2819 2388 3044 2092 
Q 3269 1797 3269 1353 
Q 3269 753 2831 336 
Q 2394 -81 1725 -81 
Q 1122 -81 723 278 
Q 325 638 269 1209 
z
" transform="scale(0.015625)"/>
       </defs>
       <use xlink:href="#ArialMT-33"/>
       <use xlink:href="#ArialMT-30" x="55.615234"/>
      </g>
     </g>
    </g>
    <g id="text_9">
     <!-- N -->
     <g style="fill: #262626" transform="translate(231.465781 337.237031)scale(0.13 -0.13)">
      <defs>
       <path id="ArialMT-4e" d="M 488 0 
L 488 4581 
L 1109 4581 
L 3516 984 
L 3516 4581 
L 4097 4581 
L 4097 0 
L 3475 0 
L 1069 3600 
L 1069 0 
L 488 0 
z
" transform="scale(0.015625)"/>
      </defs>
      <use xlink:href="#ArialMT-4e"/>
     </g>
    </g>
   </g>
   <g id="matplotlib.axis_2">
    <g id="ytick_1">
     <g id="line2d_9">
      <defs>
       <path id="m1fbef636cc" d="M 0 0 
L -4.8 0 
" style="stroke: #262626"/>
      </defs>
      <g>
       <use xlink:href="#m1fbef636cc" x="57.6" y="307.584" style="fill: #262626; stroke: #262626"/>
      </g>
     </g>
     <g id="text_10">
      <!-- $\mathdefault{10^{-4}}$ -->
      <g style="fill: #262626" transform="translate(31.876 312.0775)scale(0.088 -0.088)">
       <defs>
        <path id="ArialMT-2212" d="M 3381 1997 
L 356 1997 
L 356 2522 
L 3381 2522 
L 3381 1997 
z
" transform="scale(0.015625)"/>
       </defs>
       <use xlink:href="#ArialMT-31" transform="translate(0 0.201563)"/>
       <use xlink:href="#ArialMT-30" transform="translate(55.615234 0.201563)"/>
       <use xlink:href="#ArialMT-2212" transform="translate(112.972813 69.895313)scale(0.7)"/>
       <use xlink:href="#ArialMT-34" transform="translate(153.851719 69.895313)scale(0.7)"/>
      </g>
     </g>
    </g>
    <g id="ytick_2">
     <g id="line2d_10">
      <g>
       <use xlink:href="#m1fbef636cc" x="57.6" y="248.145806" style="fill: #262626; stroke: #262626"/>
      </g>
     </g>
     <g id="text_11">
      <!-- $\mathdefault{10^{-3}}$ -->
      <g style="fill: #262626" transform="translate(31.876 252.683306)scale(0.088 -0.088)">
       <use xlink:href="#ArialMT-31" transform="translate(0 0.99375)"/>
       <use xlink:href="#ArialMT-30" transform="translate(55.615234 0.99375)"/>
       <use xlink:href="#ArialMT-2212" transform="translate(112.972813 70.6875)scale(0.7)"/>
       <use xlink:href="#ArialMT-33" transform="translate(153.851719 70.6875)scale(0.7)"/>
      </g>
     </g>
    </g>
    <g id="ytick_3">
     <g id="line2d_11">
      <g>
       <use xlink:href="#m1fbef636cc" x="57.6" y="188.707613" style="fill: #262626; stroke: #262626"/>
      </g>
     </g>
     <g id="text_12">
      <!-- $\mathdefault{10^{-2}}$ -->
      <g style="fill: #262626" transform="translate(31.876 193.245113)scale(0.088 -0.088)">
       <use xlink:href="#ArialMT-31" transform="translate(0 0.99375)"/>
       <use xlink:href="#ArialMT-30" transform="translate(55.615234 0.99375)"/>
       <use xlink:href="#ArialMT-2212" transform="translate(112.972813 70.6875)scale(0.7)"/>
       <use xlink:href="#ArialMT-32" transform="translate(153.851719 70.6875)scale(0.7)"/>
      </g>
     </g>
    </g>
    <g id="ytick_4">
     <g id="line2d_12">
      <g>
       <use xlink:href="#m1fbef636cc" x="57.6" y="129.269419" style="fill: #262626; stroke: #262626"/>
      </g>
     </g>
     <g id="text_13">
      <!-- $\mathdefault{10^{-1}}$ -->
      <g style="fill: #262626" transform="translate(31.876 133.806919)scale(0.088 -0.088)">
       <use xlink:href="#ArialMT-31" transform="translate(0 0.99375)"/>
       <use xlink:href="#ArialMT-30" transform="translate(55.615234 0.99375)"/>
       <use xlink:href="#ArialMT-2212" transform="translate(112.972813 70.6875)scale(0.7)"/>
       <use xlink:href="#ArialMT-31" transform="translate(153.851719 70.6875)scale(0.7)"/>
      </g>
     </g>
    </g>
    <g id="ytick_5">
     <g id="line2d_13">
      <g>
       <use xlink:href="#m1fbef636cc" x="57.6" y="69.831226" style="fill: #262626; stroke: #262626"/>
      </g>
     </g>
     <g id="text_14">
      <!-- $\mathdefault{10^{0}}$ -->
      <g style="fill: #262626" transform="translate(35.484 74.368726)scale(0.088 -0.088)">
       <use xlink:href="#ArialMT-31" transform="translate(0 0.99375)"/>
       <use xlink:href="#ArialMT-30" transform="translate(55.615234 0.99375)"/>
       <use xlink:href="#ArialMT-30" transform="translate(112.972813 70.6875)scale(0.7)"/>
      </g>
     </g>
    </g>
    <g id="ytick_6">
     <g id="line2d_14">
      <defs>
       <path id="m13f7c660e8" d="M 0 0 
L -3.2 0 
" style="stroke: #262626; stroke-width: 0.8"/>
      </defs>
      <g>
       <use xlink:href="#m13f7c660e8" x="57.6" y="289.691321" style="fill: #262626; stroke: #262626; stroke-width: 0.8"/>
      </g>
     </g>
    </g>
    <g id="ytick_7">
     <g id="line2d_15">
      <g>
       <use xlink:href="#m13f7c660e8" x="57.6" y="279.224774" style="fill: #262626; stroke: #262626; stroke-width: 0.8"/>
      </g>
     </g>
    </g>
    <g id="ytick_8">
     <g id="line2d_16">
      <g>
       <use xlink:href="#m13f7c660e8" x="57.6" y="271.798642" style="fill: #262626; stroke: #262626; stroke-width: 0.8"/>
      </g>
     </g>
    </g>
    <g id="ytick_9">
     <g id="line2d_17">
      <g>
       <use xlink:href="#m13f7c660e8" x="57.6" y="266.038486" style="fill: #262626; stroke: #262626; stroke-width: 0.8"/>
      </g>
     </g>
    </g>
    <g id="ytick_10">
     <g id="line2d_18">
      <g>
       <use xlink:href="#m13f7c660e8" x="57.6" y="261.332095" style="fill: #262626; stroke: #262626; stroke-width: 0.8"/>
      </g>
     </g>
    </g>
    <g id="ytick_11">
     <g id="line2d_19">
      <g>
       <use xlink:href="#m13f7c660e8" x="57.6" y="257.352899" style="fill: #262626; stroke: #262626; stroke-width: 0.8"/>
      </g>
     </g>
    </g>
    <g id="ytick_12">
     <g id="line2d_20">
      <g>
       <use xlink:href="#m13f7c660e8" x="57.6" y="253.905962" style="fill: #262626; stroke: #262626; stroke-width: 0.8"/>
      </g>
     </g>
    </g>
    <g id="ytick_13">
     <g id="line2d_21">
      <g>
       <use xlink:href="#m13f7c660e8" x="57.6" y="250.865549" style="fill: #262626; stroke: #262626; stroke-width: 0.8"/>
      </g>
     </g>
    </g>
    <g id="ytick_14">
     <g id="line2d_22">
      <g>
       <use xlink:href="#m13f7c660e8" x="57.6" y="230.253127" style="fill: #262626; stroke: #262626; stroke-width: 0.8"/>
      </g>
     </g>
    </g>
    <g id="ytick_15">
     <g id="line2d_23">
      <g>
       <use xlink:href="#m13f7c660e8" x="57.6" y="219.786581" style="fill: #262626; stroke: #262626; stroke-width: 0.8"/>
      </g>
     </g>
    </g>
    <g id="ytick_16">
     <g id="line2d_24">
      <g>
       <use xlink:href="#m13f7c660e8" x="57.6" y="212.360448" style="fill: #262626; stroke: #262626; stroke-width: 0.8"/>
      </g>
     </g>
    </g>
    <g id="ytick_17">
     <g id="line2d_25">
      <g>
       <use xlink:href="#m13f7c660e8" x="57.6" y="206.600292" style="fill: #262626; stroke: #262626; stroke-width: 0.8"/>
      </g>
     </g>
    </g>
    <g id="ytick_18">
     <g id="line2d_26">
      <g>
       <use xlink:href="#m13f7c660e8" x="57.6" y="201.893902" style="fill: #262626; stroke: #262626; stroke-width: 0.8"/>
      </g>
     </g>
    </g>
    <g id="ytick_19">
     <g id="line2d_27">
      <g>
       <use xlink:href="#m13f7c660e8" x="57.6" y="197.914705" style="fill: #262626; stroke: #262626; stroke-width: 0.8"/>
      </g>
     </g>
    </g>
    <g id="ytick_20">
     <g id="line2d_28">
      <g>
       <use xlink:href="#m13f7c660e8" x="57.6" y="194.467769" style="fill: #262626; stroke: #262626; stroke-width: 0.8"/>
      </g>
     </g>
    </g>
    <g id="ytick_21">
     <g id="line2d_29">
      <g>
       <use xlink:href="#m13f7c660e8" x="57.6" y="191.427355" style="fill: #262626; stroke: #262626; stroke-width: 0.8"/>
      </g>
     </g>
    </g>
    <g id="ytick_22">
     <g id="line2d_30">
      <g>
       <use xlink:href="#m13f7c660e8" x="57.6" y="170.814934" style="fill: #262626; stroke: #262626; stroke-width: 0.8"/>
      </g>
     </g>
    </g>
    <g id="ytick_23">
     <g id="line2d_31">
      <g>
       <use xlink:href="#m13f7c660e8" x="57.6" y="160.348387" style="fill: #262626; stroke: #262626; stroke-width: 0.8"/>
      </g>
     </g>
    </g>
    <g id="ytick_24">
     <g id="line2d_32">
      <g>
       <use xlink:href="#m13f7c660e8" x="57.6" y="152.922254" style="fill: #262626; stroke: #262626; stroke-width: 0.8"/>
      </g>
     </g>
    </g>
    <g id="ytick_25">
     <g id="line2d_33">
      <g>
       <use xlink:href="#m13f7c660e8" x="57.6" y="147.162098" style="fill: #262626; stroke: #262626; stroke-width: 0.8"/>
      </g>
     </g>
    </g>
    <g id="ytick_26">
     <g id="line2d_34">
      <g>
       <use xlink:href="#m13f7c660e8" x="57.6" y="142.455708" style="fill: #262626; stroke: #262626; stroke-width: 0.8"/>
      </g>
     </g>
    </g>
    <g id="ytick_27">
     <g id="line2d_35">
      <g>
       <use xlink:href="#m13f7c660e8" x="57.6" y="138.476512" style="fill: #262626; stroke: #262626; stroke-width: 0.8"/>
      </g>
     </g>
    </g>
    <g id="ytick_28">
     <g id="line2d_36">
      <g>
       <use xlink:href="#m13f7c660e8" x="57.6" y="135.029575" style="fill: #262626; stroke: #262626; stroke-width: 0.8"/>
      </g>
     </g>
    </g>
    <g id="ytick_29">
     <g id="line2d_37">
      <g>
       <use xlink:href="#m13f7c660e8" x="57.6" y="131.989162" style="fill: #262626; stroke: #262626; stroke-width: 0.8"/>
      </g>
     </g>
    </g>
    <g id="ytick_30">
     <g id="line2d_38">
      <g>
       <use xlink:href="#m13f7c660e8" x="57.6" y="111.37674" style="fill: #262626; stroke: #262626; stroke-width: 0.8"/>
      </g>
     </g>
    </g>
    <g id="ytick_31">
     <g id="line2d_39">
      <g>
       <use xlink:href="#m13f7c660e8" x="57.6" y="100.910194" style="fill: #262626; stroke: #262626; stroke-width: 0.8"/>
      </g>
     </g>
    </g>
    <g id="ytick_32">
     <g id="line2d_40">
      <g>
       <use xlink:href="#m13f7c660e8" x="57.6" y="93.484061" style="fill: #262626; stroke: #262626; stroke-width: 0.8"/>
      </g>
     </g>
    </g>
    <g id="ytick_33">
     <g id="line2d_41">
      <g>
       <use xlink:href="#m13f7c660e8" x="57.6" y="87.723905" style="fill: #262626; stroke: #262626; stroke-width: 0.8"/>
      </g>
     </g>
    </g>
    <g id="ytick_34">
     <g id="line2d_42">
      <g>
       <use xlink:href="#m13f7c660e8" x="57.6" y="83.017514" style="fill: #262626; stroke: #262626; stroke-width: 0.8"/>
      </g>
     </g>
    </g>
    <g id="ytick_35">
     <g id="line2d_43">
      <g>
       <use xlink:href="#m13f7c660e8" x="57.6" y="79.038318" style="fill: #262626; stroke: #262626; stroke-width: 0.8"/>
      </g>
     </g>
    </g>
    <g id="ytick_36">
     <g id="line2d_44">
      <g>
       <use xlink:href="#m13f7c660e8" x="57.6" y="75.591382" style="fill: #262626; stroke: #262626; stroke-width: 0.8"/>
      </g>
     </g>
    </g>
    <g id="ytick_37">
     <g id="line2d_45">
      <g>
       <use xlink:href="#m13f7c660e8" x="57.6" y="72.550968" style="fill: #262626; stroke: #262626; stroke-width: 0.8"/>
      </g>
     </g>
    </g>
    <g id="ytick_38">
     <g id="line2d_46">
      <g>
       <use xlink:href="#m13f7c660e8" x="57.6" y="51.938546" style="fill: #262626; stroke: #262626; stroke-width: 0.8"/>
      </g>
     </g>
    </g>
    <g id="ytick_39">
     <g id="line2d_47">
      <g>
       <use xlink:href="#m13f7c660e8" x="57.6" y="41.472" style="fill: #262626; stroke: #262626; stroke-width: 0.8"/>
      </g>
     </g>
    </g>
    <g id="text_15">
     <!-- t(sec) -->
     <g style="fill: #262626" transform="translate(25.139906 190.776984)rotate(-90)scale(0.13 -0.13)">
      <defs>
       <path id="ArialMT-74" d="M 1650 503 
L 1731 6 
Q 1494 -44 1306 -44 
Q 1000 -44 831 53 
Q 663 150 594 308 
Q 525 466 525 972 
L 525 2881 
L 113 2881 
L 113 3319 
L 525 3319 
L 525 4141 
L 1084 4478 
L 1084 3319 
L 1650 3319 
L 1650 2881 
L 1084 2881 
L 1084 941 
Q 1084 700 1114 631 
Q 1144 563 1211 522 
Q 1278 481 1403 481 
Q 1497 481 1650 503 
z
" transform="scale(0.015625)"/>
       <path id="ArialMT-28" d="M 1497 -1347 
Q 1031 -759 709 28 
Q 388 816 388 1659 
Q 388 2403 628 3084 
Q 909 3875 1497 4659 
L 1900 4659 
Q 1522 4009 1400 3731 
Q 1209 3300 1100 2831 
Q 966 2247 966 1656 
Q 966 153 1900 -1347 
L 1497 -1347 
z
" transform="scale(0.015625)"/>
       <path id="ArialMT-73" d="M 197 991 
L 753 1078 
Q 800 744 1014 566 
Q 1228 388 1613 388 
Q 2000 388 2187 545 
Q 2375 703 2375 916 
Q 2375 1106 2209 1216 
Q 2094 1291 1634 1406 
Q 1016 1563 777 1677 
Q 538 1791 414 1992 
Q 291 2194 291 2438 
Q 291 2659 392 2848 
Q 494 3038 669 3163 
Q 800 3259 1026 3326 
Q 1253 3394 1513 3394 
Q 1903 3394 2198 3281 
Q 2494 3169 2634 2976 
Q 2775 2784 2828 2463 
L 2278 2388 
Q 2241 2644 2061 2787 
Q 1881 2931 1553 2931 
Q 1166 2931 1000 2803 
Q 834 2675 834 2503 
Q 834 2394 903 2306 
Q 972 2216 1119 2156 
Q 1203 2125 1616 2013 
Q 2213 1853 2448 1751 
Q 2684 1650 2818 1456 
Q 2953 1263 2953 975 
Q 2953 694 2789 445 
Q 2625 197 2315 61 
Q 2006 -75 1616 -75 
Q 969 -75 630 194 
Q 291 463 197 991 
z
" transform="scale(0.015625)"/>
       <path id="ArialMT-65" d="M 2694 1069 
L 3275 997 
Q 3138 488 2766 206 
Q 2394 -75 1816 -75 
Q 1088 -75 661 373 
Q 234 822 234 1631 
Q 234 2469 665 2931 
Q 1097 3394 1784 3394 
Q 2450 3394 2872 2941 
Q 3294 2488 3294 1666 
Q 3294 1616 3291 1516 
L 816 1516 
Q 847 969 1125 678 
Q 1403 388 1819 388 
Q 2128 388 2347 550 
Q 2566 713 2694 1069 
z
M 847 1978 
L 2700 1978 
Q 2663 2397 2488 2606 
Q 2219 2931 1791 2931 
Q 1403 2931 1139 2672 
Q 875 2413 847 1978 
z
" transform="scale(0.015625)"/>
       <path id="ArialMT-63" d="M 2588 1216 
L 3141 1144 
Q 3050 572 2676 248 
Q 2303 -75 1759 -75 
Q 1078 -75 664 370 
Q 250 816 250 1647 
Q 250 2184 428 2587 
Q 606 2991 970 3192 
Q 1334 3394 1763 3394 
Q 2303 3394 2647 3120 
Q 2991 2847 3088 2344 
L 2541 2259 
Q 2463 2594 2264 2762 
Q 2066 2931 1784 2931 
Q 1359 2931 1093 2626 
Q 828 2322 828 1663 
Q 828 994 1084 691 
Q 1341 388 1753 388 
Q 2084 388 2306 591 
Q 2528 794 2588 1216 
z
" transform="scale(0.015625)"/>
       <path id="ArialMT-29" d="M 791 -1347 
L 388 -1347 
Q 1322 153 1322 1656 
Q 1322 2244 1188 2822 
Q 1081 3291 891 3722 
Q 769 4003 388 4659 
L 791 4659 
Q 1378 3875 1659 3084 
Q 1900 2403 1900 1659 
Q 1900 816 1576 28 
Q 1253 -759 791 -1347 
z
" transform="scale(0.015625)"/>
      </defs>
      <use xlink:href="#ArialMT-74"/>
      <use xlink:href="#ArialMT-28" x="27.783203"/>
      <use xlink:href="#ArialMT-73" x="61.083984"/>
      <use xlink:href="#ArialMT-65" x="111.083984"/>
      <use xlink:href="#ArialMT-63" x="166.699219"/>
      <use xlink:href="#ArialMT-29" x="216.699219"/>
     </g>
    </g>
   </g>
   <g id="PolyCollection_1">
    <defs>
     <path id="mb60994b238" d="M 73.832727 -37.575469 
L 73.832727 -37.239421 
L 94.123636 -44.378483 
L 114.414545 -52.50846 
L 134.705455 -61.736585 
L 154.996364 -71.036833 
L 175.287273 -81.404257 
L 195.578182 -92.560607 
L 215.869091 -104.340507 
L 236.16 -116.180722 
L 256.450909 -128.189891 
L 276.741818 -139.886339 
L 297.032727 -152.515355 
L 317.323636 -164.472298 
L 337.614545 -177.025019 
L 357.905455 -189.570776 
L 378.196364 -201.511152 
L 398.487273 -214.137 
L 398.487273 -214.377869 
L 398.487273 -214.377869 
L 378.196364 -201.99984 
L 357.905455 -191.17645 
L 337.614545 -177.285939 
L 317.323636 -165.161053 
L 297.032727 -153.89208 
L 276.741818 -140.363973 
L 256.450909 -128.304996 
L 236.16 -116.417938 
L 215.869091 -104.396986 
L 195.578182 -92.851572 
L 175.287273 -81.609755 
L 154.996364 -71.646096 
L 134.705455 -61.834645 
L 114.414545 -52.706619 
L 94.123636 -44.728948 
L 73.832727 -37.575469 
z
" style="stroke: #1f77b4; stroke-opacity: 0.2; stroke-width: 0.8"/>
    </defs>
    <g clip-path="url(#p2a6e38c97f)">
     <use xlink:href="#mb60994b238" x="0" y="345.6" style="fill: #1f77b4; fill-opacity: 0.2; stroke: #1f77b4; stroke-opacity: 0.2; stroke-width: 0.8"/>
    </g>
   </g>
   <g id="PolyCollection_2">
    <defs>
     <path id="m65143a9953" d="M 73.832727 -83.705363 
L 73.832727 -83.494854 
L 94.123636 -86.425795 
L 114.414545 -90.906875 
L 134.705455 -96.959357 
L 154.996364 -103.365484 
L 175.287273 -109.462513 
L 195.578182 -115.815627 
L 215.869091 -124.848682 
L 236.16 -135.594335 
L 256.450909 -143.16417 
L 276.741818 -155.719334 
L 297.032727 -165.451176 
L 317.323636 -178.331709 
L 337.614545 -190.032683 
L 357.905455 -203.02601 
L 378.196364 -213.287586 
L 398.487273 -225.781158 
L 398.487273 -227.347755 
L 398.487273 -227.347755 
L 378.196364 -215.074272 
L 357.905455 -204.917736 
L 337.614545 -190.607789 
L 317.323636 -178.598636 
L 297.032727 -166.009492 
L 276.741818 -156.720699 
L 256.450909 -146.270583 
L 236.16 -135.93341 
L 215.869091 -124.878499 
L 195.578182 -116.189593 
L 175.287273 -110.235454 
L 154.996364 -104.027446 
L 134.705455 -98.820858 
L 114.414545 -93.450204 
L 94.123636 -86.778772 
L 73.832727 -83.705363 
z
" style="stroke: #aec7e8; stroke-opacity: 0.2; stroke-width: 0.8"/>
    </defs>
    <g clip-path="url(#p2a6e38c97f)">
     <use xlink:href="#m65143a9953" x="0" y="345.6" style="fill: #aec7e8; fill-opacity: 0.2; stroke: #aec7e8; stroke-opacity: 0.2; stroke-width: 0.8"/>
    </g>
   </g>
   <g id="PolyCollection_3">
    <defs>
     <path id="mf3fae658b4" d="M 73.832727 -101.114883 
L 73.832727 -101.002411 
L 94.123636 -103.819905 
L 114.414545 -106.704952 
L 134.705455 -112.348421 
L 154.996364 -114.292838 
L 175.287273 -120.906662 
L 195.578182 -125.492984 
L 215.869091 -132.923407 
L 236.16 -140.362406 
L 256.450909 -148.685986 
L 276.741818 -157.943758 
L 297.032727 -166.862526 
L 317.323636 -177.72628 
L 337.614545 -189.020792 
L 357.905455 -201.596489 
L 378.196364 -214.6252 
L 398.487273 -226.619089 
L 398.487273 -228.196496 
L 398.487273 -228.196496 
L 378.196364 -214.684229 
L 357.905455 -202.250914 
L 337.614545 -191.446101 
L 317.323636 -180.597107 
L 297.032727 -168.070611 
L 276.741818 -158.422566 
L 256.450909 -150.171335 
L 236.16 -140.747915 
L 215.869091 -133.342601 
L 195.578182 -127.810422 
L 175.287273 -122.438954 
L 154.996364 -115.955302 
L 134.705455 -112.407065 
L 114.414545 -109.87151 
L 94.123636 -107.104653 
L 73.832727 -101.114883 
z
" style="stroke: #ff7f0e; stroke-opacity: 0.2; stroke-width: 0.8"/>
    </defs>
    <g clip-path="url(#p2a6e38c97f)">
     <use xlink:href="#mf3fae658b4" x="0" y="345.6" style="fill: #ff7f0e; fill-opacity: 0.2; stroke: #ff7f0e; stroke-opacity: 0.2; stroke-width: 0.8"/>
    </g>
   </g>
   <g id="PolyCollection_4">
    <defs>
     <path id="m1b83001acc" d="M 73.832727 -121.213266 
L 73.832727 -120.851139 
L 94.123636 -128.014052 
L 114.414545 -131.168897 
L 134.705455 -133.532929 
L 154.996364 -137.801953 
L 175.287273 -141.263791 
L 195.578182 -145.256219 
L 215.869091 -148.991487 
L 236.16 -154.233837 
L 256.450909 -159.929818 
L 276.741818 -166.698856 
L 297.032727 -174.418896 
L 317.323636 -183.853984 
L 337.614545 -193.374833 
L 357.905455 -203.972975 
L 378.196364 -216.14691 
L 398.487273 -227.179083 
L 398.487273 -227.241915 
L 398.487273 -227.241915 
L 378.196364 -216.954637 
L 357.905455 -204.391327 
L 337.614545 -193.542505 
L 317.323636 -184.544796 
L 297.032727 -174.462192 
L 276.741818 -167.454611 
L 256.450909 -160.260439 
L 236.16 -154.661205 
L 215.869091 -149.011531 
L 195.578182 -145.495644 
L 175.287273 -142.341103 
L 154.996364 -138.305464 
L 134.705455 -136.523583 
L 114.414545 -131.426051 
L 94.123636 -128.187379 
L 73.832727 -121.213266 
z
" style="stroke: #ffbb78; stroke-opacity: 0.2; stroke-width: 0.8"/>
    </defs>
    <g clip-path="url(#p2a6e38c97f)">
     <use xlink:href="#m1b83001acc" x="0" y="345.6" style="fill: #ffbb78; fill-opacity: 0.2; stroke: #ffbb78; stroke-opacity: 0.2; stroke-width: 0.8"/>
    </g>
   </g>
   <g id="PolyCollection_5">
    <defs>
     <path id="m3ea33b1c0b" d="M 73.832727 -132.759893 
L 73.832727 -131.947255 
L 94.123636 -143.972961 
L 114.414545 -153.71565 
L 134.705455 -158.207587 
L 154.996364 -163.706045 
L 175.287273 -166.654151 
L 195.578182 -168.381291 
L 215.869091 -170.206961 
L 236.16 -173.646055 
L 256.450909 -178.32237 
L 276.741818 -182.181787 
L 297.032727 -188.070033 
L 317.323636 -193.809845 
L 337.614545 -201.219435 
L 357.905455 -210.088169 
L 378.196364 -219.207103 
L 398.487273 -229.920623 
L 398.487273 -230.250151 
L 398.487273 -230.250151 
L 378.196364 -219.785712 
L 357.905455 -210.121812 
L 337.614545 -202.656129 
L 317.323636 -194.502792 
L 297.032727 -188.120899 
L 276.741818 -182.428696 
L 256.450909 -178.473854 
L 236.16 -174.171203 
L 215.869091 -170.274067 
L 195.578182 -169.291347 
L 175.287273 -167.606074 
L 154.996364 -163.832615 
L 134.705455 -160.475454 
L 114.414545 -156.005841 
L 94.123636 -144.315494 
L 73.832727 -132.759893 
z
" style="stroke: #2ca02c; stroke-opacity: 0.2; stroke-width: 0.8"/>
    </defs>
    <g clip-path="url(#p2a6e38c97f)">
     <use xlink:href="#m3ea33b1c0b" x="0" y="345.6" style="fill: #2ca02c; fill-opacity: 0.2; stroke: #2ca02c; stroke-opacity: 0.2; stroke-width: 0.8"/>
    </g>
   </g>
   <g id="PolyCollection_6">
    <defs>
     <path id="m99425916b2" d="M 73.832727 -153.47579 
L 73.832727 -151.795911 
L 94.123636 -163.146912 
L 114.414545 -175.508334 
L 134.705455 -188.02525 
L 154.996364 -195.484205 
L 175.287273 -200.649816 
L 195.578182 -205.429293 
L 215.869091 -207.845662 
L 236.16 -208.814218 
L 256.450909 -211.995598 
L 276.741818 -212.746275 
L 297.032727 -217.030872 
L 317.323636 -220.699629 
L 337.614545 -224.65297 
L 357.905455 -230.564076 
L 378.196364 -236.693186 
L 398.487273 -245.87688 
L 398.487273 -246.889412 
L 398.487273 -246.889412 
L 378.196364 -238.360578 
L 357.905455 -231.731816 
L 337.614545 -225.154453 
L 317.323636 -221.681723 
L 297.032727 -217.478673 
L 276.741818 -214.025866 
L 256.450909 -213.009984 
L 236.16 -209.544642 
L 215.869091 -209.162359 
L 195.578182 -206.160219 
L 175.287273 -203.113986 
L 154.996364 -196.112999 
L 134.705455 -188.364051 
L 114.414545 -176.614682 
L 94.123636 -163.479643 
L 73.832727 -153.47579 
z
" style="stroke: #98df8a; stroke-opacity: 0.2; stroke-width: 0.8"/>
    </defs>
    <g clip-path="url(#p2a6e38c97f)">
     <use xlink:href="#m99425916b2" x="0" y="345.6" style="fill: #98df8a; fill-opacity: 0.2; stroke: #98df8a; stroke-opacity: 0.2; stroke-width: 0.8"/>
    </g>
   </g>
   <g id="PolyCollection_7">
    <defs>
     <path id="mc631c3d5ec" d="M 73.832727 -165.966481 
L 73.832727 -164.721282 
L 94.123636 -175.049971 
L 114.414545 -186.286621 
L 134.705455 -199.125829 
L 154.996364 -210.035416 
L 175.287273 -221.177488 
L 195.578182 -226.973946 
L 215.869091 -229.346922 
L 236.16 -233.295298 
L 256.450909 -235.915682 
L 276.741818 -236.721086 
L 297.032727 -238.853172 
L 317.323636 -240.710825 
L 337.614545 -242.500638 
L 357.905455 -246.221526 
L 378.196364 -251.069903 
L 398.487273 -256.34644 
L 398.487273 -259.562086 
L 398.487273 -259.562086 
L 378.196364 -252.685323 
L 357.905455 -247.122329 
L 337.614545 -243.666945 
L 317.323636 -242.601687 
L 297.032727 -239.479394 
L 276.741818 -237.832265 
L 256.450909 -238.561778 
L 236.16 -234.675532 
L 215.869091 -230.728635 
L 195.578182 -228.635639 
L 175.287273 -221.395008 
L 154.996364 -211.648145 
L 134.705455 -199.159438 
L 114.414545 -186.347472 
L 94.123636 -177.208268 
L 73.832727 -165.966481 
z
" style="stroke: #d62728; stroke-opacity: 0.2; stroke-width: 0.8"/>
    </defs>
    <g clip-path="url(#p2a6e38c97f)">
     <use xlink:href="#mc631c3d5ec" x="0" y="345.6" style="fill: #d62728; fill-opacity: 0.2; stroke: #d62728; stroke-opacity: 0.2; stroke-width: 0.8"/>
    </g>
   </g>
   <g id="PolyCollection_8">
    <defs>
     <path id="m0a9e98ce77" d="M 73.832727 -163.448825 
L 73.832727 -163.332024 
L 94.123636 -173.661294 
L 114.414545 -185.3926 
L 134.705455 -197.109648 
L 154.996364 -209.575781 
L 175.287273 -221.209987 
L 195.578182 -233.51525 
L 215.869091 -241.39201 
L 236.16 -246.044799 
L 256.450909 -251.051752 
L 276.741818 -251.276796 
L 297.032727 -254.693899 
L 317.323636 -259.153244 
L 337.614545 -258.584173 
L 357.905455 -259.879946 
L 378.196364 -262.461653 
L 398.487273 -266.760052 
L 398.487273 -266.770186 
L 398.487273 -266.770186 
L 378.196364 -262.930761 
L 357.905455 -260.642142 
L 337.614545 -259.548008 
L 317.323636 -259.598574 
L 297.032727 -254.694424 
L 276.741818 -252.492002 
L 256.450909 -252.297736 
L 236.16 -247.45038 
L 215.869091 -241.992235 
L 195.578182 -233.534345 
L 175.287273 -222.517961 
L 154.996364 -209.981102 
L 134.705455 -197.122907 
L 114.414545 -186.119929 
L 94.123636 -174.778741 
L 73.832727 -163.448825 
z
" style="stroke: #ff9896; stroke-opacity: 0.2; stroke-width: 0.8"/>
    </defs>
    <g clip-path="url(#p2a6e38c97f)">
     <use xlink:href="#m0a9e98ce77" x="0" y="345.6" style="fill: #ff9896; fill-opacity: 0.2; stroke: #ff9896; stroke-opacity: 0.2; stroke-width: 0.8"/>
    </g>
   </g>
   <g id="PolyCollection_9">
    <defs>
     <path id="mddde17853b" d="M 73.832727 -171.58286 
L 73.832727 -170.201258 
L 94.123636 -178.941399 
L 114.414545 -187.39846 
L 134.705455 -198.575739 
L 154.996364 -210.142914 
L 175.287273 -222.050229 
L 195.578182 -236.246093 
L 215.869091 -245.611897 
L 236.16 -258.154103 
L 256.450909 -265.471513 
L 276.741818 -268.237798 
L 297.032727 -270.325688 
L 317.323636 -271.129258 
L 337.614545 -276.222695 
L 357.905455 -276.889692 
L 378.196364 -279.096467 
L 398.487273 -281.559888 
L 398.487273 -283.459684 
L 398.487273 -283.459684 
L 378.196364 -281.208513 
L 357.905455 -278.695588 
L 337.614545 -276.918348 
L 317.323636 -273.30529 
L 297.032727 -271.679909 
L 276.741818 -269.106031 
L 256.450909 -267.186962 
L 236.16 -258.373351 
L 215.869091 -246.268676 
L 195.578182 -236.614011 
L 175.287273 -223.649947 
L 154.996364 -210.503448 
L 134.705455 -200.694133 
L 114.414545 -188.796005 
L 94.123636 -179.809259 
L 73.832727 -171.58286 
z
" style="stroke: #9467bd; stroke-opacity: 0.2; stroke-width: 0.8"/>
    </defs>
    <g clip-path="url(#p2a6e38c97f)">
     <use xlink:href="#mddde17853b" x="0" y="345.6" style="fill: #9467bd; fill-opacity: 0.2; stroke: #9467bd; stroke-opacity: 0.2; stroke-width: 0.8"/>
    </g>
   </g>
   <g id="line2d_48">
    <path d="M 73.832727 308.192008 
L 94.123636 301.04569 
L 114.414545 292.992271 
L 134.705455 283.814339 
L 154.996364 274.256738 
L 175.287273 264.09279 
L 195.578182 252.893501 
L 215.869091 241.231238 
L 236.16 229.300397 
L 256.450909 217.352493 
L 276.741818 205.473739 
L 297.032727 192.387106 
L 317.323636 180.781028 
L 337.614545 168.444192 
L 357.905455 155.213904 
L 378.196364 143.843348 
L 398.487273 131.342284 
" clip-path="url(#p2a6e38c97f)" style="fill: none; stroke: #1f77b4; stroke-width: 1.2; stroke-linecap: round"/>
   </g>
   <g id="line2d_49">
    <path d="M 73.832727 261.999677 
L 94.123636 258.997113 
L 114.414545 253.39015 
L 134.705455 247.693116 
L 154.996364 241.901413 
L 175.287273 235.748124 
L 195.578182 229.596713 
L 215.869091 220.736405 
L 236.16 209.835571 
L 256.450909 200.835923 
L 276.741818 189.375128 
L 297.032727 179.868157 
L 317.323636 167.134483 
L 337.614545 155.278162 
L 357.905455 141.610802 
L 378.196364 131.403616 
L 398.487273 119.023661 
" clip-path="url(#p2a6e38c97f)" style="fill: none; stroke: #aec7e8; stroke-width: 1.2; stroke-linecap: round"/>
   </g>
   <g id="line2d_50">
    <path d="M 73.832727 244.541291 
L 94.123636 240.085509 
L 114.414545 237.263244 
L 134.705455 233.22224 
L 154.996364 230.462549 
L 175.287273 223.915824 
L 195.578182 218.9223 
L 215.869091 212.466145 
L 236.16 205.044119 
L 256.450909 196.160657 
L 276.741818 187.415728 
L 297.032727 178.126365 
L 317.323636 166.398418 
L 337.614545 155.33808 
L 357.905455 143.674225 
L 378.196364 130.945269 
L 398.487273 118.18016 
" clip-path="url(#p2a6e38c97f)" style="fill: none; stroke: #ff7f0e; stroke-width: 1.2; stroke-linecap: round"/>
   </g>
   <g id="line2d_51">
    <path d="M 73.832727 224.567163 
L 94.123636 217.499139 
L 114.414545 214.302206 
L 134.705455 210.528458 
L 154.996364 207.545064 
L 175.287273 203.791934 
L 195.578182 200.223791 
L 215.869091 196.598489 
L 236.16 191.151595 
L 256.450909 185.504342 
L 276.741818 178.520501 
L 297.032727 171.159447 
L 317.323636 161.398299 
L 337.614545 152.141195 
L 357.905455 141.417001 
L 378.196364 129.046067 
L 398.487273 118.389482 
" clip-path="url(#p2a6e38c97f)" style="fill: none; stroke: #ffbb78; stroke-width: 1.2; stroke-linecap: round"/>
   </g>
   <g id="line2d_52">
    <path d="M 73.832727 213.243228 
L 94.123636 201.455204 
L 114.414545 190.713865 
L 134.705455 186.233582 
L 154.996364 181.830593 
L 175.287273 178.4655 
L 195.578182 176.759671 
L 215.869091 175.359464 
L 236.16 171.690035 
L 256.450909 167.201777 
L 276.741818 163.294463 
L 297.032727 157.504522 
L 317.323636 151.441356 
L 337.614545 143.652224 
L 357.905455 135.495004 
L 378.196364 126.101971 
L 398.487273 115.514087 
" clip-path="url(#p2a6e38c97f)" style="fill: none; stroke: #2ca02c; stroke-width: 1.2; stroke-linecap: round"/>
   </g>
   <g id="line2d_53">
    <path d="M 73.832727 192.950487 
L 94.123636 182.286186 
L 114.414545 169.532565 
L 134.705455 157.404794 
L 154.996364 149.799483 
L 175.287273 143.688707 
L 195.578182 139.802657 
L 215.869091 137.087595 
L 236.16 136.417987 
L 256.450909 133.092227 
L 276.741818 132.206001 
L 297.032727 128.344257 
L 317.323636 124.404654 
L 337.614545 120.695071 
L 357.905455 114.445451 
L 378.196364 108.059658 
L 398.487273 99.211889 
" clip-path="url(#p2a6e38c97f)" style="fill: none; stroke: #98df8a; stroke-width: 1.2; stroke-linecap: round"/>
   </g>
   <g id="line2d_54">
    <path d="M 73.832727 180.248611 
L 94.123636 169.44833 
L 114.414545 159.282936 
L 134.705455 146.457361 
L 154.996364 134.745627 
L 175.287273 124.313523 
L 195.578182 117.781839 
L 215.869091 115.552978 
L 236.16 111.605362 
L 256.450909 108.327379 
L 276.741818 108.317346 
L 297.032727 106.431818 
L 317.323636 103.926434 
L 337.614545 102.509622 
L 357.905455 98.924144 
L 378.196364 93.709753 
L 398.487273 87.595697 
" clip-path="url(#p2a6e38c97f)" style="fill: none; stroke: #d62728; stroke-width: 1.2; stroke-linecap: round"/>
   </g>
   <g id="line2d_55">
    <path d="M 73.832727 182.209509 
L 94.123636 171.373936 
L 114.414545 159.841174 
L 134.705455 148.483722 
L 154.996364 135.820763 
L 175.287273 123.727743 
L 195.578182 112.075201 
L 215.869091 103.906133 
L 236.16 98.842845 
L 256.450909 93.917739 
L 276.741818 93.708451 
L 297.032727 90.905839 
L 317.323636 86.223131 
L 337.614545 86.529411 
L 357.905455 85.336143 
L 378.196364 82.902727 
L 398.487273 78.83488 
" clip-path="url(#p2a6e38c97f)" style="fill: none; stroke: #ff9896; stroke-width: 1.2; stroke-linecap: round"/>
   </g>
   <g id="line2d_56">
    <path d="M 73.832727 174.698699 
L 94.123636 166.221024 
L 114.414545 157.49331 
L 134.705455 145.943339 
L 154.996364 135.276189 
L 175.287273 122.737522 
L 195.578182 109.169293 
L 215.869091 99.657625 
L 236.16 87.33604 
L 256.450909 79.256515 
L 276.741818 76.924436 
L 297.032727 74.588322 
L 317.323636 73.359803 
L 337.614545 69.027135 
L 357.905455 67.791571 
L 378.196364 65.425915 
L 398.487273 63.072741 
" clip-path="url(#p2a6e38c97f)" style="fill: none; stroke: #9467bd; stroke-width: 1.2; stroke-linecap: round"/>
   </g>
   <g id="line2d_57"/>
   <g id="line2d_58"/>
   <g id="line2d_59"/>
   <g id="line2d_60"/>
   <g id="line2d_61"/>
   <g id="line2d_62"/>
   <g id="line2d_63"/>
   <g id="line2d_64"/>
   <g id="line2d_65"/>
   <g id="patch_3">
    <path d="M 57.6 307.584 
L 57.6 41.472 
" style="fill: none; stroke: #262626; stroke-linejoin: miter; stroke-linecap: square"/>
   </g>
   <g id="patch_4">
    <path d="M 414.72 307.584 
L 414.72 41.472 
" style="fill: none; stroke: #262626; stroke-linejoin: miter; stroke-linecap: square"/>
   </g>
   <g id="patch_5">
    <path d="M 57.6 307.584 
L 414.72 307.584 
" style="fill: none; stroke: #262626; stroke-linejoin: miter; stroke-linecap: square"/>
   </g>
   <g id="patch_6">
    <path d="M 57.6 41.472 
L 414.72 41.472 
" style="fill: none; stroke: #262626; stroke-linejoin: miter; stroke-linecap: square"/>
   </g>
   <g id="text_16">
    <!-- fib-atomic_blake23_g++_overN.res -->
    <g style="fill: #262626" transform="translate(134.996641 35.472)scale(0.13 -0.13)">
     <defs>
      <path id="ArialMT-66" d="M 556 0 
L 556 2881 
L 59 2881 
L 59 3319 
L 556 3319 
L 556 3672 
Q 556 4006 616 4169 
Q 697 4388 901 4523 
Q 1106 4659 1475 4659 
Q 1713 4659 2000 4603 
L 1916 4113 
Q 1741 4144 1584 4144 
Q 1328 4144 1222 4034 
Q 1116 3925 1116 3625 
L 1116 3319 
L 1763 3319 
L 1763 2881 
L 1116 2881 
L 1116 0 
L 556 0 
z
" transform="scale(0.015625)"/>
      <path id="ArialMT-69" d="M 425 3934 
L 425 4581 
L 988 4581 
L 988 3934 
L 425 3934 
z
M 425 0 
L 425 3319 
L 988 3319 
L 988 0 
L 425 0 
z
" transform="scale(0.015625)"/>
      <path id="ArialMT-62" d="M 941 0 
L 419 0 
L 419 4581 
L 981 4581 
L 981 2947 
Q 1338 3394 1891 3394 
Q 2197 3394 2470 3270 
Q 2744 3147 2920 2923 
Q 3097 2700 3197 2384 
Q 3297 2069 3297 1709 
Q 3297 856 2875 390 
Q 2453 -75 1863 -75 
Q 1275 -75 941 416 
L 941 0 
z
M 934 1684 
Q 934 1088 1097 822 
Q 1363 388 1816 388 
Q 2184 388 2453 708 
Q 2722 1028 2722 1663 
Q 2722 2313 2464 2622 
Q 2206 2931 1841 2931 
Q 1472 2931 1203 2611 
Q 934 2291 934 1684 
z
" transform="scale(0.015625)"/>
      <path id="ArialMT-2d" d="M 203 1375 
L 203 1941 
L 1931 1941 
L 1931 1375 
L 203 1375 
z
" transform="scale(0.015625)"/>
      <path id="ArialMT-61" d="M 2588 409 
Q 2275 144 1986 34 
Q 1697 -75 1366 -75 
Q 819 -75 525 192 
Q 231 459 231 875 
Q 231 1119 342 1320 
Q 453 1522 633 1644 
Q 813 1766 1038 1828 
Q 1203 1872 1538 1913 
Q 2219 1994 2541 2106 
Q 2544 2222 2544 2253 
Q 2544 2597 2384 2738 
Q 2169 2928 1744 2928 
Q 1347 2928 1158 2789 
Q 969 2650 878 2297 
L 328 2372 
Q 403 2725 575 2942 
Q 747 3159 1072 3276 
Q 1397 3394 1825 3394 
Q 2250 3394 2515 3294 
Q 2781 3194 2906 3042 
Q 3031 2891 3081 2659 
Q 3109 2516 3109 2141 
L 3109 1391 
Q 3109 606 3145 398 
Q 3181 191 3288 0 
L 2700 0 
Q 2613 175 2588 409 
z
M 2541 1666 
Q 2234 1541 1622 1453 
Q 1275 1403 1131 1340 
Q 988 1278 909 1158 
Q 831 1038 831 891 
Q 831 666 1001 516 
Q 1172 366 1500 366 
Q 1825 366 2078 508 
Q 2331 650 2450 897 
Q 2541 1088 2541 1459 
L 2541 1666 
z
" transform="scale(0.015625)"/>
      <path id="ArialMT-6f" d="M 213 1659 
Q 213 2581 725 3025 
Q 1153 3394 1769 3394 
Q 2453 3394 2887 2945 
Q 3322 2497 3322 1706 
Q 3322 1066 3130 698 
Q 2938 331 2570 128 
Q 2203 -75 1769 -75 
Q 1072 -75 642 372 
Q 213 819 213 1659 
z
M 791 1659 
Q 791 1022 1069 705 
Q 1347 388 1769 388 
Q 2188 388 2466 706 
Q 2744 1025 2744 1678 
Q 2744 2294 2464 2611 
Q 2184 2928 1769 2928 
Q 1347 2928 1069 2612 
Q 791 2297 791 1659 
z
" transform="scale(0.015625)"/>
      <path id="ArialMT-6d" d="M 422 0 
L 422 3319 
L 925 3319 
L 925 2853 
Q 1081 3097 1340 3245 
Q 1600 3394 1931 3394 
Q 2300 3394 2536 3241 
Q 2772 3088 2869 2813 
Q 3263 3394 3894 3394 
Q 4388 3394 4653 3120 
Q 4919 2847 4919 2278 
L 4919 0 
L 4359 0 
L 4359 2091 
Q 4359 2428 4304 2576 
Q 4250 2725 4106 2815 
Q 3963 2906 3769 2906 
Q 3419 2906 3187 2673 
Q 2956 2441 2956 1928 
L 2956 0 
L 2394 0 
L 2394 2156 
Q 2394 2531 2256 2718 
Q 2119 2906 1806 2906 
Q 1569 2906 1367 2781 
Q 1166 2656 1075 2415 
Q 984 2175 984 1722 
L 984 0 
L 422 0 
z
" transform="scale(0.015625)"/>
      <path id="ArialMT-5f" d="M -97 -1272 
L -97 -866 
L 3631 -866 
L 3631 -1272 
L -97 -1272 
z
" transform="scale(0.015625)"/>
      <path id="ArialMT-6c" d="M 409 0 
L 409 4581 
L 972 4581 
L 972 0 
L 409 0 
z
" transform="scale(0.015625)"/>
      <path id="ArialMT-6b" d="M 425 0 
L 425 4581 
L 988 4581 
L 988 1969 
L 2319 3319 
L 3047 3319 
L 1778 2088 
L 3175 0 
L 2481 0 
L 1384 1697 
L 988 1316 
L 988 0 
L 425 0 
z
" transform="scale(0.015625)"/>
      <path id="ArialMT-67" d="M 319 -275 
L 866 -356 
Q 900 -609 1056 -725 
Q 1266 -881 1628 -881 
Q 2019 -881 2231 -725 
Q 2444 -569 2519 -288 
Q 2563 -116 2559 434 
Q 2191 0 1641 0 
Q 956 0 581 494 
Q 206 988 206 1678 
Q 206 2153 378 2554 
Q 550 2956 876 3175 
Q 1203 3394 1644 3394 
Q 2231 3394 2613 2919 
L 2613 3319 
L 3131 3319 
L 3131 450 
Q 3131 -325 2973 -648 
Q 2816 -972 2473 -1159 
Q 2131 -1347 1631 -1347 
Q 1038 -1347 672 -1080 
Q 306 -813 319 -275 
z
M 784 1719 
Q 784 1066 1043 766 
Q 1303 466 1694 466 
Q 2081 466 2343 764 
Q 2606 1063 2606 1700 
Q 2606 2309 2336 2618 
Q 2066 2928 1684 2928 
Q 1309 2928 1046 2623 
Q 784 2319 784 1719 
z
" transform="scale(0.015625)"/>
      <path id="ArialMT-2b" d="M 1603 741 
L 1603 1997 
L 356 1997 
L 356 2522 
L 1603 2522 
L 1603 3769 
L 2134 3769 
L 2134 2522 
L 3381 2522 
L 3381 1997 
L 2134 1997 
L 2134 741 
L 1603 741 
z
" transform="scale(0.015625)"/>
      <path id="ArialMT-76" d="M 1344 0 
L 81 3319 
L 675 3319 
L 1388 1331 
Q 1503 1009 1600 663 
Q 1675 925 1809 1294 
L 2547 3319 
L 3125 3319 
L 1869 0 
L 1344 0 
z
" transform="scale(0.015625)"/>
      <path id="ArialMT-72" d="M 416 0 
L 416 3319 
L 922 3319 
L 922 2816 
Q 1116 3169 1280 3281 
Q 1444 3394 1641 3394 
Q 1925 3394 2219 3213 
L 2025 2691 
Q 1819 2813 1613 2813 
Q 1428 2813 1281 2702 
Q 1134 2591 1072 2394 
Q 978 2094 978 1738 
L 978 0 
L 416 0 
z
" transform="scale(0.015625)"/>
      <path id="ArialMT-2e" d="M 581 0 
L 581 641 
L 1222 641 
L 1222 0 
L 581 0 
z
" transform="scale(0.015625)"/>
     </defs>
     <use xlink:href="#ArialMT-66"/>
     <use xlink:href="#ArialMT-69" x="27.783203"/>
     <use xlink:href="#ArialMT-62" x="50"/>
     <use xlink:href="#ArialMT-2d" x="105.615234"/>
     <use xlink:href="#ArialMT-61" x="138.916016"/>
     <use xlink:href="#ArialMT-74" x="194.53125"/>
     <use xlink:href="#ArialMT-6f" x="222.314453"/>
     <use xlink:href="#ArialMT-6d" x="277.929688"/>
     <use xlink:href="#ArialMT-69" x="361.230469"/>
     <use xlink:href="#ArialMT-63" x="383.447266"/>
     <use xlink:href="#ArialMT-5f" x="433.447266"/>
     <use xlink:href="#ArialMT-62" x="489.0625"/>
     <use xlink:href="#ArialMT-6c" x="544.677734"/>
     <use xlink:href="#ArialMT-61" x="566.894531"/>
     <use xlink:href="#ArialMT-6b" x="622.509766"/>
     <use xlink:href="#ArialMT-65" x="672.509766"/>
     <use xlink:href="#ArialMT-32" x="728.125"/>
     <use xlink:href="#ArialMT-33" x="783.740234"/>
     <use xlink:href="#ArialMT-5f" x="839.355469"/>
     <use xlink:href="#ArialMT-67" x="894.970703"/>
     <use xlink:href="#ArialMT-2b" x="950.585938"/>
     <use xlink:href="#ArialMT-2b" x="1008.984375"/>
     <use xlink:href="#ArialMT-5f" x="1067.382812"/>
     <use xlink:href="#ArialMT-6f" x="1122.998047"/>
     <use xlink:href="#ArialMT-76" x="1178.613281"/>
     <use xlink:href="#ArialMT-65" x="1228.613281"/>
     <use xlink:href="#ArialMT-72" x="1284.228516"/>
     <use xlink:href="#ArialMT-4e" x="1317.529297"/>
     <use xlink:href="#ArialMT-2e" x="1389.746094"/>
     <use xlink:href="#ArialMT-72" x="1417.529297"/>
     <use xlink:href="#ArialMT-65" x="1450.830078"/>
     <use xlink:href="#ArialMT-73" x="1506.445312"/>
    </g>
   </g>
   <g id="legend_1">
    <g id="patch_7">
     <path d="M 342.332344 301.084 
L 405.62 301.084 
Q 408.22 301.084 408.22 298.484 
L 408.22 134.283844 
Q 408.22 131.683844 405.62 131.683844 
L 342.332344 131.683844 
Q 339.732344 131.683844 339.732344 134.283844 
L 339.732344 298.484 
Q 339.732344 301.084 342.332344 301.084 
z
" style="fill: #ffffff; opacity: 0.8; stroke: #cccccc; stroke-width: 0.8; stroke-linejoin: miter"/>
    </g>
    <g id="line2d_66">
     <path d="M 344.932344 141.639 
L 357.932344 141.639 
L 370.932344 141.639 
" style="fill: none; stroke: #1f77b4; stroke-width: 1.2; stroke-linecap: round"/>
    </g>
    <g id="text_17">
     <!-- 1 -->
     <g style="fill: #262626" transform="translate(381.332344 146.189)scale(0.13 -0.13)">
      <use xlink:href="#ArialMT-31"/>
     </g>
    </g>
    <g id="line2d_67">
     <path d="M 344.932344 160.027906 
L 357.932344 160.027906 
L 370.932344 160.027906 
" style="fill: none; stroke: #aec7e8; stroke-width: 1.2; stroke-linecap: round"/>
    </g>
    <g id="text_18">
     <!-- 2 -->
     <g style="fill: #262626" transform="translate(381.332344 164.577906)scale(0.13 -0.13)">
      <use xlink:href="#ArialMT-32"/>
     </g>
    </g>
    <g id="line2d_68">
     <path d="M 344.932344 178.416813 
L 357.932344 178.416813 
L 370.932344 178.416813 
" style="fill: none; stroke: #ff7f0e; stroke-width: 1.2; stroke-linecap: round"/>
    </g>
    <g id="text_19">
     <!-- 4 -->
     <g style="fill: #262626" transform="translate(381.332344 182.966813)scale(0.13 -0.13)">
      <use xlink:href="#ArialMT-34"/>
     </g>
    </g>
    <g id="line2d_69">
     <path d="M 344.932344 196.805719 
L 357.932344 196.805719 
L 370.932344 196.805719 
" style="fill: none; stroke: #ffbb78; stroke-width: 1.2; stroke-linecap: round"/>
    </g>
    <g id="text_20">
     <!-- 8 -->
     <g style="fill: #262626" transform="translate(381.332344 201.355719)scale(0.13 -0.13)">
      <use xlink:href="#ArialMT-38"/>
     </g>
    </g>
    <g id="line2d_70">
     <path d="M 344.932344 215.194625 
L 357.932344 215.194625 
L 370.932344 215.194625 
" style="fill: none; stroke: #2ca02c; stroke-width: 1.2; stroke-linecap: round"/>
    </g>
    <g id="text_21">
     <!-- 16 -->
     <g style="fill: #262626" transform="translate(381.332344 219.744625)scale(0.13 -0.13)">
      <use xlink:href="#ArialMT-31"/>
      <use xlink:href="#ArialMT-36" x="55.615234"/>
     </g>
    </g>
    <g id="line2d_71">
     <path d="M 344.932344 233.583531 
L 357.932344 233.583531 
L 370.932344 233.583531 
" style="fill: none; stroke: #98df8a; stroke-width: 1.2; stroke-linecap: round"/>
    </g>
    <g id="text_22">
     <!-- 32 -->
     <g style="fill: #262626" transform="translate(381.332344 238.133531)scale(0.13 -0.13)">
      <use xlink:href="#ArialMT-33"/>
      <use xlink:href="#ArialMT-32" x="55.615234"/>
     </g>
    </g>
    <g id="line2d_72">
     <path d="M 344.932344 251.972438 
L 357.932344 251.972438 
L 370.932344 251.972438 
" style="fill: none; stroke: #d62728; stroke-width: 1.2; stroke-linecap: round"/>
    </g>
    <g id="text_23">
     <!-- 64 -->
     <g style="fill: #262626" transform="translate(381.332344 256.522438)scale(0.13 -0.13)">
      <use xlink:href="#ArialMT-36"/>
      <use xlink:href="#ArialMT-34" x="55.615234"/>
     </g>
    </g>
    <g id="line2d_73">
     <path d="M 344.932344 270.361344 
L 357.932344 270.361344 
L 370.932344 270.361344 
" style="fill: none; stroke: #ff9896; stroke-width: 1.2; stroke-linecap: round"/>
    </g>
    <g id="text_24">
     <!-- 128 -->
     <g style="fill: #262626" transform="translate(381.332344 274.911344)scale(0.13 -0.13)">
      <use xlink:href="#ArialMT-31"/>
      <use xlink:href="#ArialMT-32" x="55.615234"/>
      <use xlink:href="#ArialMT-38" x="111.230469"/>
     </g>
    </g>
    <g id="line2d_74">
     <path d="M 344.932344 288.75025 
L 357.932344 288.75025 
L 370.932344 288.75025 
" style="fill: none; stroke: #9467bd; stroke-width: 1.2; stroke-linecap: round"/>
    </g>
    <g id="text_25">
     <!-- 256 -->
     <g style="fill: #262626" transform="translate(381.332344 293.30025)scale(0.13 -0.13)">
      <defs>
       <path id="ArialMT-35" d="M 266 1200 
L 856 1250 
Q 922 819 1161 601 
Q 1400 384 1738 384 
Q 2144 384 2425 690 
Q 2706 997 2706 1503 
Q 2706 1984 2436 2262 
Q 2166 2541 1728 2541 
Q 1456 2541 1237 2417 
Q 1019 2294 894 2097 
L 366 2166 
L 809 4519 
L 3088 4519 
L 3088 3981 
L 1259 3981 
L 1013 2750 
Q 1425 3038 1878 3038 
Q 2478 3038 2890 2622 
Q 3303 2206 3303 1553 
Q 3303 931 2941 478 
Q 2500 -78 1738 -78 
Q 1113 -78 717 272 
Q 322 622 266 1200 
z
" transform="scale(0.015625)"/>
      </defs>
      <use xlink:href="#ArialMT-32"/>
      <use xlink:href="#ArialMT-35" x="55.615234"/>
      <use xlink:href="#ArialMT-36" x="111.230469"/>
     </g>
    </g>
   </g>
  </g>
 </g>
 <defs>
  <clipPath id="p2a6e38c97f">
   <rect x="57.6" y="41.472" width="357.12" height="266.112"/>
  </clipPath>
 </defs>
</svg>
