<?xml version="1.0" encoding="utf-8" standalone="no"?>
<!DOCTYPE svg PUBLIC "-//W3C//DTD SVG 1.1//EN"
  "http://www.w3.org/Graphics/SVG/1.1/DTD/svg11.dtd">
<svg xmlns:xlink="http://www.w3.org/1999/xlink" width="460.8pt" height="345.6pt" viewBox="0 0 460.8 345.6" xmlns="http://www.w3.org/2000/svg" version="1.1">
 <metadata>
  <rdf:RDF xmlns:dc="http://purl.org/dc/elements/1.1/" xmlns:cc="http://creativecommons.org/ns#" xmlns:rdf="http://www.w3.org/1999/02/22-rdf-syntax-ns#">
   <cc:Work>
    <dc:type rdf:resource="http://purl.org/dc/dcmitype/StillImage"/>
    <dc:date>2022-05-24T18:15:34.127294</dc:date>
    <dc:format>image/svg+xml</dc:format>
    <dc:creator>
     <cc:Agent>
      <dc:title>Matplotlib v3.5.1, https://matplotlib.org/</dc:title>
     </cc:Agent>
    </dc:creator>
   </cc:Work>
  </rdf:RDF>
 </metadata>
 <defs>
  <style type="text/css">*{stroke-linejoin: round; stroke-linecap: butt}</style>
 </defs>
 <g id="figure_1">
  <g id="patch_1">
   <path d="M 0 345.6 
L 460.8 345.6 
L 460.8 0 
L 0 0 
z
" style="fill: #ffffff"/>
  </g>
  <g id="axes_1">
   <g id="patch_2">
    <path d="M 57.6 307.584 
L 414.72 307.584 
L 414.72 41.472 
L 57.6 41.472 
z
" style="fill: #ffffff"/>
   </g>
   <g id="matplotlib.axis_1">
    <g id="xtick_1">
     <g id="line2d_1">
      <defs>
       <path id="m8ed16891af" d="M 0 0 
L 0 4.8 
" style="stroke: #262626"/>
      </defs>
      <g>
       <use xlink:href="#m8ed16891af" x="94.123636" y="307.584" style="fill: #262626; stroke: #262626"/>
      </g>
     </g>
     <g id="text_1">
      <!-- 16 -->
      <g style="fill: #262626" transform="translate(89.230011 322.182875)scale(0.088 -0.088)">
       <defs>
        <path id="ArialMT-31" d="M 2384 0 
L 1822 0 
L 1822 3584 
Q 1619 3391 1289 3197 
Q 959 3003 697 2906 
L 697 3450 
Q 1169 3672 1522 3987 
Q 1875 4303 2022 4600 
L 2384 4600 
L 2384 0 
z
" transform="scale(0.015625)"/>
        <path id="ArialMT-36" d="M 3184 3459 
L 2625 3416 
Q 2550 3747 2413 3897 
Q 2184 4138 1850 4138 
Q 1581 4138 1378 3988 
Q 1113 3794 959 3422 
Q 806 3050 800 2363 
Q 1003 2672 1297 2822 
Q 1591 2972 1913 2972 
Q 2475 2972 2870 2558 
Q 3266 2144 3266 1488 
Q 3266 1056 3080 686 
Q 2894 316 2569 119 
Q 2244 -78 1831 -78 
Q 1128 -78 684 439 
Q 241 956 241 2144 
Q 241 3472 731 4075 
Q 1159 4600 1884 4600 
Q 2425 4600 2770 4297 
Q 3116 3994 3184 3459 
z
M 888 1484 
Q 888 1194 1011 928 
Q 1134 663 1356 523 
Q 1578 384 1822 384 
Q 2178 384 2434 671 
Q 2691 959 2691 1453 
Q 2691 1928 2437 2201 
Q 2184 2475 1800 2475 
Q 1419 2475 1153 2201 
Q 888 1928 888 1484 
z
" transform="scale(0.015625)"/>
       </defs>
       <use xlink:href="#ArialMT-31"/>
       <use xlink:href="#ArialMT-36" x="55.615234"/>
      </g>
     </g>
    </g>
    <g id="xtick_2">
     <g id="line2d_2">
      <g>
       <use xlink:href="#m8ed16891af" x="134.705455" y="307.584" style="fill: #262626; stroke: #262626"/>
      </g>
     </g>
     <g id="text_2">
      <!-- 18 -->
      <g style="fill: #262626" transform="translate(129.81183 322.182875)scale(0.088 -0.088)">
       <defs>
        <path id="ArialMT-38" d="M 1131 2484 
Q 781 2613 612 2850 
Q 444 3088 444 3419 
Q 444 3919 803 4259 
Q 1163 4600 1759 4600 
Q 2359 4600 2725 4251 
Q 3091 3903 3091 3403 
Q 3091 3084 2923 2848 
Q 2756 2613 2416 2484 
Q 2838 2347 3058 2040 
Q 3278 1734 3278 1309 
Q 3278 722 2862 322 
Q 2447 -78 1769 -78 
Q 1091 -78 675 323 
Q 259 725 259 1325 
Q 259 1772 486 2073 
Q 713 2375 1131 2484 
z
M 1019 3438 
Q 1019 3113 1228 2906 
Q 1438 2700 1772 2700 
Q 2097 2700 2305 2904 
Q 2513 3109 2513 3406 
Q 2513 3716 2298 3927 
Q 2084 4138 1766 4138 
Q 1444 4138 1231 3931 
Q 1019 3725 1019 3438 
z
M 838 1322 
Q 838 1081 952 856 
Q 1066 631 1291 507 
Q 1516 384 1775 384 
Q 2178 384 2440 643 
Q 2703 903 2703 1303 
Q 2703 1709 2433 1975 
Q 2163 2241 1756 2241 
Q 1359 2241 1098 1978 
Q 838 1716 838 1322 
z
" transform="scale(0.015625)"/>
       </defs>
       <use xlink:href="#ArialMT-31"/>
       <use xlink:href="#ArialMT-38" x="55.615234"/>
      </g>
     </g>
    </g>
    <g id="xtick_3">
     <g id="line2d_3">
      <g>
       <use xlink:href="#m8ed16891af" x="175.287273" y="307.584" style="fill: #262626; stroke: #262626"/>
      </g>
     </g>
     <g id="text_3">
      <!-- 20 -->
      <g style="fill: #262626" transform="translate(170.393648 322.182875)scale(0.088 -0.088)">
       <defs>
        <path id="ArialMT-32" d="M 3222 541 
L 3222 0 
L 194 0 
Q 188 203 259 391 
Q 375 700 629 1000 
Q 884 1300 1366 1694 
Q 2113 2306 2375 2664 
Q 2638 3022 2638 3341 
Q 2638 3675 2398 3904 
Q 2159 4134 1775 4134 
Q 1369 4134 1125 3890 
Q 881 3647 878 3216 
L 300 3275 
Q 359 3922 746 4261 
Q 1134 4600 1788 4600 
Q 2447 4600 2831 4234 
Q 3216 3869 3216 3328 
Q 3216 3053 3103 2787 
Q 2991 2522 2730 2228 
Q 2469 1934 1863 1422 
Q 1356 997 1212 845 
Q 1069 694 975 541 
L 3222 541 
z
" transform="scale(0.015625)"/>
        <path id="ArialMT-30" d="M 266 2259 
Q 266 3072 433 3567 
Q 600 4063 929 4331 
Q 1259 4600 1759 4600 
Q 2128 4600 2406 4451 
Q 2684 4303 2865 4023 
Q 3047 3744 3150 3342 
Q 3253 2941 3253 2259 
Q 3253 1453 3087 958 
Q 2922 463 2592 192 
Q 2263 -78 1759 -78 
Q 1097 -78 719 397 
Q 266 969 266 2259 
z
M 844 2259 
Q 844 1131 1108 757 
Q 1372 384 1759 384 
Q 2147 384 2411 759 
Q 2675 1134 2675 2259 
Q 2675 3391 2411 3762 
Q 2147 4134 1753 4134 
Q 1366 4134 1134 3806 
Q 844 3388 844 2259 
z
" transform="scale(0.015625)"/>
       </defs>
       <use xlink:href="#ArialMT-32"/>
       <use xlink:href="#ArialMT-30" x="55.615234"/>
      </g>
     </g>
    </g>
    <g id="xtick_4">
     <g id="line2d_4">
      <g>
       <use xlink:href="#m8ed16891af" x="215.869091" y="307.584" style="fill: #262626; stroke: #262626"/>
      </g>
     </g>
     <g id="text_4">
      <!-- 22 -->
      <g style="fill: #262626" transform="translate(210.975466 322.182875)scale(0.088 -0.088)">
       <use xlink:href="#ArialMT-32"/>
       <use xlink:href="#ArialMT-32" x="55.615234"/>
      </g>
     </g>
    </g>
    <g id="xtick_5">
     <g id="line2d_5">
      <g>
       <use xlink:href="#m8ed16891af" x="256.450909" y="307.584" style="fill: #262626; stroke: #262626"/>
      </g>
     </g>
     <g id="text_5">
      <!-- 24 -->
      <g style="fill: #262626" transform="translate(251.557284 322.182875)scale(0.088 -0.088)">
       <defs>
        <path id="ArialMT-34" d="M 2069 0 
L 2069 1097 
L 81 1097 
L 81 1613 
L 2172 4581 
L 2631 4581 
L 2631 1613 
L 3250 1613 
L 3250 1097 
L 2631 1097 
L 2631 0 
L 2069 0 
z
M 2069 1613 
L 2069 3678 
L 634 1613 
L 2069 1613 
z
" transform="scale(0.015625)"/>
       </defs>
       <use xlink:href="#ArialMT-32"/>
       <use xlink:href="#ArialMT-34" x="55.615234"/>
      </g>
     </g>
    </g>
    <g id="xtick_6">
     <g id="line2d_6">
      <g>
       <use xlink:href="#m8ed16891af" x="297.032727" y="307.584" style="fill: #262626; stroke: #262626"/>
      </g>
     </g>
     <g id="text_6">
      <!-- 26 -->
      <g style="fill: #262626" transform="translate(292.139102 322.182875)scale(0.088 -0.088)">
       <use xlink:href="#ArialMT-32"/>
       <use xlink:href="#ArialMT-36" x="55.615234"/>
      </g>
     </g>
    </g>
    <g id="xtick_7">
     <g id="line2d_7">
      <g>
       <use xlink:href="#m8ed16891af" x="337.614545" y="307.584" style="fill: #262626; stroke: #262626"/>
      </g>
     </g>
     <g id="text_7">
      <!-- 28 -->
      <g style="fill: #262626" transform="translate(332.72092 322.182875)scale(0.088 -0.088)">
       <use xlink:href="#ArialMT-32"/>
       <use xlink:href="#ArialMT-38" x="55.615234"/>
      </g>
     </g>
    </g>
    <g id="xtick_8">
     <g id="line2d_8">
      <g>
       <use xlink:href="#m8ed16891af" x="378.196364" y="307.584" style="fill: #262626; stroke: #262626"/>
      </g>
     </g>
     <g id="text_8">
      <!-- 30 -->
      <g style="fill: #262626" transform="translate(373.302739 322.182875)scale(0.088 -0.088)">
       <defs>
        <path id="ArialMT-33" d="M 269 1209 
L 831 1284 
Q 928 806 1161 595 
Q 1394 384 1728 384 
Q 2125 384 2398 659 
Q 2672 934 2672 1341 
Q 2672 1728 2419 1979 
Q 2166 2231 1775 2231 
Q 1616 2231 1378 2169 
L 1441 2663 
Q 1497 2656 1531 2656 
Q 1891 2656 2178 2843 
Q 2466 3031 2466 3422 
Q 2466 3731 2256 3934 
Q 2047 4138 1716 4138 
Q 1388 4138 1169 3931 
Q 950 3725 888 3313 
L 325 3413 
Q 428 3978 793 4289 
Q 1159 4600 1703 4600 
Q 2078 4600 2393 4439 
Q 2709 4278 2876 4000 
Q 3044 3722 3044 3409 
Q 3044 3113 2884 2869 
Q 2725 2625 2413 2481 
Q 2819 2388 3044 2092 
Q 3269 1797 3269 1353 
Q 3269 753 2831 336 
Q 2394 -81 1725 -81 
Q 1122 -81 723 278 
Q 325 638 269 1209 
z
" transform="scale(0.015625)"/>
       </defs>
       <use xlink:href="#ArialMT-33"/>
       <use xlink:href="#ArialMT-30" x="55.615234"/>
      </g>
     </g>
    </g>
    <g id="text_9">
     <!-- N -->
     <g style="fill: #262626" transform="translate(231.465781 337.237031)scale(0.13 -0.13)">
      <defs>
       <path id="ArialMT-4e" d="M 488 0 
L 488 4581 
L 1109 4581 
L 3516 984 
L 3516 4581 
L 4097 4581 
L 4097 0 
L 3475 0 
L 1069 3600 
L 1069 0 
L 488 0 
z
" transform="scale(0.015625)"/>
      </defs>
      <use xlink:href="#ArialMT-4e"/>
     </g>
    </g>
   </g>
   <g id="matplotlib.axis_2">
    <g id="ytick_1">
     <g id="line2d_9">
      <defs>
       <path id="m7911ace111" d="M 0 0 
L -4.8 0 
" style="stroke: #262626"/>
      </defs>
      <g>
       <use xlink:href="#m7911ace111" x="57.6" y="307.584" style="fill: #262626; stroke: #262626"/>
      </g>
     </g>
     <g id="text_10">
      <!-- $\mathdefault{10^{-4}}$ -->
      <g style="fill: #262626" transform="translate(31.876 312.0775)scale(0.088 -0.088)">
       <defs>
        <path id="ArialMT-2212" d="M 3381 1997 
L 356 1997 
L 356 2522 
L 3381 2522 
L 3381 1997 
z
" transform="scale(0.015625)"/>
       </defs>
       <use xlink:href="#ArialMT-31" transform="translate(0 0.201563)"/>
       <use xlink:href="#ArialMT-30" transform="translate(55.615234 0.201563)"/>
       <use xlink:href="#ArialMT-2212" transform="translate(112.972813 69.895313)scale(0.7)"/>
       <use xlink:href="#ArialMT-34" transform="translate(153.851719 69.895313)scale(0.7)"/>
      </g>
     </g>
    </g>
    <g id="ytick_2">
     <g id="line2d_10">
      <g>
       <use xlink:href="#m7911ace111" x="57.6" y="248.145806" style="fill: #262626; stroke: #262626"/>
      </g>
     </g>
     <g id="text_11">
      <!-- $\mathdefault{10^{-3}}$ -->
      <g style="fill: #262626" transform="translate(31.876 252.683306)scale(0.088 -0.088)">
       <use xlink:href="#ArialMT-31" transform="translate(0 0.99375)"/>
       <use xlink:href="#ArialMT-30" transform="translate(55.615234 0.99375)"/>
       <use xlink:href="#ArialMT-2212" transform="translate(112.972813 70.6875)scale(0.7)"/>
       <use xlink:href="#ArialMT-33" transform="translate(153.851719 70.6875)scale(0.7)"/>
      </g>
     </g>
    </g>
    <g id="ytick_3">
     <g id="line2d_11">
      <g>
       <use xlink:href="#m7911ace111" x="57.6" y="188.707613" style="fill: #262626; stroke: #262626"/>
      </g>
     </g>
     <g id="text_12">
      <!-- $\mathdefault{10^{-2}}$ -->
      <g style="fill: #262626" transform="translate(31.876 193.245113)scale(0.088 -0.088)">
       <use xlink:href="#ArialMT-31" transform="translate(0 0.99375)"/>
       <use xlink:href="#ArialMT-30" transform="translate(55.615234 0.99375)"/>
       <use xlink:href="#ArialMT-2212" transform="translate(112.972813 70.6875)scale(0.7)"/>
       <use xlink:href="#ArialMT-32" transform="translate(153.851719 70.6875)scale(0.7)"/>
      </g>
     </g>
    </g>
    <g id="ytick_4">
     <g id="line2d_12">
      <g>
       <use xlink:href="#m7911ace111" x="57.6" y="129.269419" style="fill: #262626; stroke: #262626"/>
      </g>
     </g>
     <g id="text_13">
      <!-- $\mathdefault{10^{-1}}$ -->
      <g style="fill: #262626" transform="translate(31.876 133.806919)scale(0.088 -0.088)">
       <use xlink:href="#ArialMT-31" transform="translate(0 0.99375)"/>
       <use xlink:href="#ArialMT-30" transform="translate(55.615234 0.99375)"/>
       <use xlink:href="#ArialMT-2212" transform="translate(112.972813 70.6875)scale(0.7)"/>
       <use xlink:href="#ArialMT-31" transform="translate(153.851719 70.6875)scale(0.7)"/>
      </g>
     </g>
    </g>
    <g id="ytick_5">
     <g id="line2d_13">
      <g>
       <use xlink:href="#m7911ace111" x="57.6" y="69.831226" style="fill: #262626; stroke: #262626"/>
      </g>
     </g>
     <g id="text_14">
      <!-- $\mathdefault{10^{0}}$ -->
      <g style="fill: #262626" transform="translate(35.484 74.368726)scale(0.088 -0.088)">
       <use xlink:href="#ArialMT-31" transform="translate(0 0.99375)"/>
       <use xlink:href="#ArialMT-30" transform="translate(55.615234 0.99375)"/>
       <use xlink:href="#ArialMT-30" transform="translate(112.972813 70.6875)scale(0.7)"/>
      </g>
     </g>
    </g>
    <g id="ytick_6">
     <g id="line2d_14">
      <defs>
       <path id="m3080fc056d" d="M 0 0 
L -3.2 0 
" style="stroke: #262626; stroke-width: 0.8"/>
      </defs>
      <g>
       <use xlink:href="#m3080fc056d" x="57.6" y="289.691321" style="fill: #262626; stroke: #262626; stroke-width: 0.8"/>
      </g>
     </g>
    </g>
    <g id="ytick_7">
     <g id="line2d_15">
      <g>
       <use xlink:href="#m3080fc056d" x="57.6" y="279.224774" style="fill: #262626; stroke: #262626; stroke-width: 0.8"/>
      </g>
     </g>
    </g>
    <g id="ytick_8">
     <g id="line2d_16">
      <g>
       <use xlink:href="#m3080fc056d" x="57.6" y="271.798642" style="fill: #262626; stroke: #262626; stroke-width: 0.8"/>
      </g>
     </g>
    </g>
    <g id="ytick_9">
     <g id="line2d_17">
      <g>
       <use xlink:href="#m3080fc056d" x="57.6" y="266.038486" style="fill: #262626; stroke: #262626; stroke-width: 0.8"/>
      </g>
     </g>
    </g>
    <g id="ytick_10">
     <g id="line2d_18">
      <g>
       <use xlink:href="#m3080fc056d" x="57.6" y="261.332095" style="fill: #262626; stroke: #262626; stroke-width: 0.8"/>
      </g>
     </g>
    </g>
    <g id="ytick_11">
     <g id="line2d_19">
      <g>
       <use xlink:href="#m3080fc056d" x="57.6" y="257.352899" style="fill: #262626; stroke: #262626; stroke-width: 0.8"/>
      </g>
     </g>
    </g>
    <g id="ytick_12">
     <g id="line2d_20">
      <g>
       <use xlink:href="#m3080fc056d" x="57.6" y="253.905962" style="fill: #262626; stroke: #262626; stroke-width: 0.8"/>
      </g>
     </g>
    </g>
    <g id="ytick_13">
     <g id="line2d_21">
      <g>
       <use xlink:href="#m3080fc056d" x="57.6" y="250.865549" style="fill: #262626; stroke: #262626; stroke-width: 0.8"/>
      </g>
     </g>
    </g>
    <g id="ytick_14">
     <g id="line2d_22">
      <g>
       <use xlink:href="#m3080fc056d" x="57.6" y="230.253127" style="fill: #262626; stroke: #262626; stroke-width: 0.8"/>
      </g>
     </g>
    </g>
    <g id="ytick_15">
     <g id="line2d_23">
      <g>
       <use xlink:href="#m3080fc056d" x="57.6" y="219.786581" style="fill: #262626; stroke: #262626; stroke-width: 0.8"/>
      </g>
     </g>
    </g>
    <g id="ytick_16">
     <g id="line2d_24">
      <g>
       <use xlink:href="#m3080fc056d" x="57.6" y="212.360448" style="fill: #262626; stroke: #262626; stroke-width: 0.8"/>
      </g>
     </g>
    </g>
    <g id="ytick_17">
     <g id="line2d_25">
      <g>
       <use xlink:href="#m3080fc056d" x="57.6" y="206.600292" style="fill: #262626; stroke: #262626; stroke-width: 0.8"/>
      </g>
     </g>
    </g>
    <g id="ytick_18">
     <g id="line2d_26">
      <g>
       <use xlink:href="#m3080fc056d" x="57.6" y="201.893902" style="fill: #262626; stroke: #262626; stroke-width: 0.8"/>
      </g>
     </g>
    </g>
    <g id="ytick_19">
     <g id="line2d_27">
      <g>
       <use xlink:href="#m3080fc056d" x="57.6" y="197.914705" style="fill: #262626; stroke: #262626; stroke-width: 0.8"/>
      </g>
     </g>
    </g>
    <g id="ytick_20">
     <g id="line2d_28">
      <g>
       <use xlink:href="#m3080fc056d" x="57.6" y="194.467769" style="fill: #262626; stroke: #262626; stroke-width: 0.8"/>
      </g>
     </g>
    </g>
    <g id="ytick_21">
     <g id="line2d_29">
      <g>
       <use xlink:href="#m3080fc056d" x="57.6" y="191.427355" style="fill: #262626; stroke: #262626; stroke-width: 0.8"/>
      </g>
     </g>
    </g>
    <g id="ytick_22">
     <g id="line2d_30">
      <g>
       <use xlink:href="#m3080fc056d" x="57.6" y="170.814934" style="fill: #262626; stroke: #262626; stroke-width: 0.8"/>
      </g>
     </g>
    </g>
    <g id="ytick_23">
     <g id="line2d_31">
      <g>
       <use xlink:href="#m3080fc056d" x="57.6" y="160.348387" style="fill: #262626; stroke: #262626; stroke-width: 0.8"/>
      </g>
     </g>
    </g>
    <g id="ytick_24">
     <g id="line2d_32">
      <g>
       <use xlink:href="#m3080fc056d" x="57.6" y="152.922254" style="fill: #262626; stroke: #262626; stroke-width: 0.8"/>
      </g>
     </g>
    </g>
    <g id="ytick_25">
     <g id="line2d_33">
      <g>
       <use xlink:href="#m3080fc056d" x="57.6" y="147.162098" style="fill: #262626; stroke: #262626; stroke-width: 0.8"/>
      </g>
     </g>
    </g>
    <g id="ytick_26">
     <g id="line2d_34">
      <g>
       <use xlink:href="#m3080fc056d" x="57.6" y="142.455708" style="fill: #262626; stroke: #262626; stroke-width: 0.8"/>
      </g>
     </g>
    </g>
    <g id="ytick_27">
     <g id="line2d_35">
      <g>
       <use xlink:href="#m3080fc056d" x="57.6" y="138.476512" style="fill: #262626; stroke: #262626; stroke-width: 0.8"/>
      </g>
     </g>
    </g>
    <g id="ytick_28">
     <g id="line2d_36">
      <g>
       <use xlink:href="#m3080fc056d" x="57.6" y="135.029575" style="fill: #262626; stroke: #262626; stroke-width: 0.8"/>
      </g>
     </g>
    </g>
    <g id="ytick_29">
     <g id="line2d_37">
      <g>
       <use xlink:href="#m3080fc056d" x="57.6" y="131.989162" style="fill: #262626; stroke: #262626; stroke-width: 0.8"/>
      </g>
     </g>
    </g>
    <g id="ytick_30">
     <g id="line2d_38">
      <g>
       <use xlink:href="#m3080fc056d" x="57.6" y="111.37674" style="fill: #262626; stroke: #262626; stroke-width: 0.8"/>
      </g>
     </g>
    </g>
    <g id="ytick_31">
     <g id="line2d_39">
      <g>
       <use xlink:href="#m3080fc056d" x="57.6" y="100.910194" style="fill: #262626; stroke: #262626; stroke-width: 0.8"/>
      </g>
     </g>
    </g>
    <g id="ytick_32">
     <g id="line2d_40">
      <g>
       <use xlink:href="#m3080fc056d" x="57.6" y="93.484061" style="fill: #262626; stroke: #262626; stroke-width: 0.8"/>
      </g>
     </g>
    </g>
    <g id="ytick_33">
     <g id="line2d_41">
      <g>
       <use xlink:href="#m3080fc056d" x="57.6" y="87.723905" style="fill: #262626; stroke: #262626; stroke-width: 0.8"/>
      </g>
     </g>
    </g>
    <g id="ytick_34">
     <g id="line2d_42">
      <g>
       <use xlink:href="#m3080fc056d" x="57.6" y="83.017514" style="fill: #262626; stroke: #262626; stroke-width: 0.8"/>
      </g>
     </g>
    </g>
    <g id="ytick_35">
     <g id="line2d_43">
      <g>
       <use xlink:href="#m3080fc056d" x="57.6" y="79.038318" style="fill: #262626; stroke: #262626; stroke-width: 0.8"/>
      </g>
     </g>
    </g>
    <g id="ytick_36">
     <g id="line2d_44">
      <g>
       <use xlink:href="#m3080fc056d" x="57.6" y="75.591382" style="fill: #262626; stroke: #262626; stroke-width: 0.8"/>
      </g>
     </g>
    </g>
    <g id="ytick_37">
     <g id="line2d_45">
      <g>
       <use xlink:href="#m3080fc056d" x="57.6" y="72.550968" style="fill: #262626; stroke: #262626; stroke-width: 0.8"/>
      </g>
     </g>
    </g>
    <g id="ytick_38">
     <g id="line2d_46">
      <g>
       <use xlink:href="#m3080fc056d" x="57.6" y="51.938546" style="fill: #262626; stroke: #262626; stroke-width: 0.8"/>
      </g>
     </g>
    </g>
    <g id="ytick_39">
     <g id="line2d_47">
      <g>
       <use xlink:href="#m3080fc056d" x="57.6" y="41.472" style="fill: #262626; stroke: #262626; stroke-width: 0.8"/>
      </g>
     </g>
    </g>
    <g id="text_15">
     <!-- t(sec) -->
     <g style="fill: #262626" transform="translate(25.139906 190.776984)rotate(-90)scale(0.13 -0.13)">
      <defs>
       <path id="ArialMT-74" d="M 1650 503 
L 1731 6 
Q 1494 -44 1306 -44 
Q 1000 -44 831 53 
Q 663 150 594 308 
Q 525 466 525 972 
L 525 2881 
L 113 2881 
L 113 3319 
L 525 3319 
L 525 4141 
L 1084 4478 
L 1084 3319 
L 1650 3319 
L 1650 2881 
L 1084 2881 
L 1084 941 
Q 1084 700 1114 631 
Q 1144 563 1211 522 
Q 1278 481 1403 481 
Q 1497 481 1650 503 
z
" transform="scale(0.015625)"/>
       <path id="ArialMT-28" d="M 1497 -1347 
Q 1031 -759 709 28 
Q 388 816 388 1659 
Q 388 2403 628 3084 
Q 909 3875 1497 4659 
L 1900 4659 
Q 1522 4009 1400 3731 
Q 1209 3300 1100 2831 
Q 966 2247 966 1656 
Q 966 153 1900 -1347 
L 1497 -1347 
z
" transform="scale(0.015625)"/>
       <path id="ArialMT-73" d="M 197 991 
L 753 1078 
Q 800 744 1014 566 
Q 1228 388 1613 388 
Q 2000 388 2187 545 
Q 2375 703 2375 916 
Q 2375 1106 2209 1216 
Q 2094 1291 1634 1406 
Q 1016 1563 777 1677 
Q 538 1791 414 1992 
Q 291 2194 291 2438 
Q 291 2659 392 2848 
Q 494 3038 669 3163 
Q 800 3259 1026 3326 
Q 1253 3394 1513 3394 
Q 1903 3394 2198 3281 
Q 2494 3169 2634 2976 
Q 2775 2784 2828 2463 
L 2278 2388 
Q 2241 2644 2061 2787 
Q 1881 2931 1553 2931 
Q 1166 2931 1000 2803 
Q 834 2675 834 2503 
Q 834 2394 903 2306 
Q 972 2216 1119 2156 
Q 1203 2125 1616 2013 
Q 2213 1853 2448 1751 
Q 2684 1650 2818 1456 
Q 2953 1263 2953 975 
Q 2953 694 2789 445 
Q 2625 197 2315 61 
Q 2006 -75 1616 -75 
Q 969 -75 630 194 
Q 291 463 197 991 
z
" transform="scale(0.015625)"/>
       <path id="ArialMT-65" d="M 2694 1069 
L 3275 997 
Q 3138 488 2766 206 
Q 2394 -75 1816 -75 
Q 1088 -75 661 373 
Q 234 822 234 1631 
Q 234 2469 665 2931 
Q 1097 3394 1784 3394 
Q 2450 3394 2872 2941 
Q 3294 2488 3294 1666 
Q 3294 1616 3291 1516 
L 816 1516 
Q 847 969 1125 678 
Q 1403 388 1819 388 
Q 2128 388 2347 550 
Q 2566 713 2694 1069 
z
M 847 1978 
L 2700 1978 
Q 2663 2397 2488 2606 
Q 2219 2931 1791 2931 
Q 1403 2931 1139 2672 
Q 875 2413 847 1978 
z
" transform="scale(0.015625)"/>
       <path id="ArialMT-63" d="M 2588 1216 
L 3141 1144 
Q 3050 572 2676 248 
Q 2303 -75 1759 -75 
Q 1078 -75 664 370 
Q 250 816 250 1647 
Q 250 2184 428 2587 
Q 606 2991 970 3192 
Q 1334 3394 1763 3394 
Q 2303 3394 2647 3120 
Q 2991 2847 3088 2344 
L 2541 2259 
Q 2463 2594 2264 2762 
Q 2066 2931 1784 2931 
Q 1359 2931 1093 2626 
Q 828 2322 828 1663 
Q 828 994 1084 691 
Q 1341 388 1753 388 
Q 2084 388 2306 591 
Q 2528 794 2588 1216 
z
" transform="scale(0.015625)"/>
       <path id="ArialMT-29" d="M 791 -1347 
L 388 -1347 
Q 1322 153 1322 1656 
Q 1322 2244 1188 2822 
Q 1081 3291 891 3722 
Q 769 4003 388 4659 
L 791 4659 
Q 1378 3875 1659 3084 
Q 1900 2403 1900 1659 
Q 1900 816 1576 28 
Q 1253 -759 791 -1347 
z
" transform="scale(0.015625)"/>
      </defs>
      <use xlink:href="#ArialMT-74"/>
      <use xlink:href="#ArialMT-28" x="27.783203"/>
      <use xlink:href="#ArialMT-73" x="61.083984"/>
      <use xlink:href="#ArialMT-65" x="111.083984"/>
      <use xlink:href="#ArialMT-63" x="166.699219"/>
      <use xlink:href="#ArialMT-29" x="216.699219"/>
     </g>
    </g>
   </g>
   <g id="PolyCollection_1">
    <defs>
     <path id="m46b6664bb9" d="M 73.832727 -121.016419 
L 73.832727 -117.690873 
L 94.123636 -121.638749 
L 114.414545 -123.486671 
L 134.705455 -125.882593 
L 154.996364 -136.406372 
L 175.287273 -139.522222 
L 195.578182 -150.794028 
L 215.869091 -159.323578 
L 236.16 -170.021047 
L 256.450909 -181.547326 
L 276.741818 -192.733379 
L 297.032727 -204.789973 
L 317.323636 -216.893335 
L 337.614545 -229.048359 
L 357.905455 -241.446997 
L 378.196364 -253.721546 
L 398.487273 -266.073231 
L 398.487273 -266.172891 
L 398.487273 -266.172891 
L 378.196364 -253.765717 
L 357.905455 -241.598554 
L 337.614545 -229.081616 
L 317.323636 -217.091096 
L 297.032727 -204.890248 
L 276.741818 -192.835693 
L 256.450909 -181.774567 
L 236.16 -170.627788 
L 215.869091 -160.627341 
L 195.578182 -151.12781 
L 175.287273 -142.371747 
L 154.996364 -136.739916 
L 134.705455 -131.303081 
L 114.414545 -128.815945 
L 94.123636 -124.893394 
L 73.832727 -121.016419 
z
" style="stroke: #1f77b4; stroke-opacity: 0.2; stroke-width: 0.8"/>
    </defs>
    <g clip-path="url(#p485af0b6b0)">
     <use xlink:href="#m46b6664bb9" x="0" y="345.6" style="fill: #1f77b4; fill-opacity: 0.2; stroke: #1f77b4; stroke-opacity: 0.2; stroke-width: 0.8"/>
    </g>
   </g>
   <g id="PolyCollection_2">
    <defs>
     <path id="mde166efe35" d="M 73.832727 -137.170653 
L 73.832727 -135.672916 
L 94.123636 -145.879734 
L 114.414545 -152.734381 
L 134.705455 -162.840196 
L 154.996364 -174.146475 
L 175.287273 -185.563869 
L 195.578182 -197.139742 
L 215.869091 -209.077233 
L 236.16 -221.235402 
L 256.450909 -233.491095 
L 276.741818 -245.799517 
L 297.032727 -258.177587 
L 317.323636 -270.575098 
L 337.614545 -282.969671 
L 357.905455 -295.363182 
L 378.196364 -307.781073 
L 398.487273 -320.177369 
L 398.487273 -320.207617 
L 398.487273 -320.207617 
L 378.196364 -307.781371 
L 357.905455 -295.386975 
L 337.614545 -283.002851 
L 317.323636 -270.629903 
L 297.032727 -258.526947 
L 276.741818 -245.866935 
L 256.450909 -233.503175 
L 236.16 -221.310433 
L 215.869091 -209.087248 
L 195.578182 -197.262309 
L 175.287273 -185.886585 
L 154.996364 -174.572131 
L 134.705455 -163.104739 
L 114.414545 -153.882625 
L 94.123636 -146.323468 
L 73.832727 -137.170653 
z
" style="stroke: #aec7e8; stroke-opacity: 0.2; stroke-width: 0.8"/>
    </defs>
    <g clip-path="url(#p485af0b6b0)">
     <use xlink:href="#mde166efe35" x="0" y="345.6" style="fill: #aec7e8; fill-opacity: 0.2; stroke: #aec7e8; stroke-opacity: 0.2; stroke-width: 0.8"/>
    </g>
   </g>
   <g id="PolyCollection_3">
    <defs>
     <path id="ma97c86ce73" d="M 73.832727 -130.528628 
L 73.832727 -129.702109 
L 94.123636 -135.264533 
L 114.414545 -143.047963 
L 134.705455 -149.496112 
L 154.996364 -159.345418 
L 175.287273 -169.362148 
L 195.578182 -180.751935 
L 215.869091 -192.010429 
L 236.16 -203.968642 
L 256.450909 -216.077793 
L 276.741818 -228.202201 
L 297.032727 -240.57192 
L 317.323636 -252.868746 
L 337.614545 -265.221305 
L 357.905455 -277.623868 
L 378.196364 -290.034968 
L 398.487273 -302.423078 
L 398.487273 -302.438333 
L 398.487273 -302.438333 
L 378.196364 -290.036602 
L 357.905455 -277.634436 
L 337.614545 -265.232295 
L 317.323636 -252.892553 
L 297.032727 -240.605406 
L 276.741818 -228.25186 
L 256.450909 -216.120482 
L 236.16 -204.039884 
L 215.869091 -192.476065 
L 195.578182 -181.069861 
L 175.287273 -169.767247 
L 154.996364 -160.371216 
L 134.705455 -150.24177 
L 114.414545 -143.871934 
L 94.123636 -136.511818 
L 73.832727 -130.528628 
z
" style="stroke: #ff7f0e; stroke-opacity: 0.2; stroke-width: 0.8"/>
    </defs>
    <g clip-path="url(#p485af0b6b0)">
     <use xlink:href="#ma97c86ce73" x="0" y="345.6" style="fill: #ff7f0e; fill-opacity: 0.2; stroke: #ff7f0e; stroke-opacity: 0.2; stroke-width: 0.8"/>
    </g>
   </g>
   <g id="PolyCollection_4">
    <defs>
     <path id="mc30e7a8a41" d="M 73.832727 -129.332973 
L 73.832727 -129.310289 
L 94.123636 -128.065518 
L 114.414545 -136.115728 
L 134.705455 -140.770148 
L 154.996364 -147.777028 
L 175.287273 -156.341653 
L 195.578182 -165.890084 
L 215.869091 -176.730331 
L 236.16 -187.312487 
L 256.450909 -198.999444 
L 276.741818 -210.802892 
L 297.032727 -222.987542 
L 317.323636 -235.218186 
L 337.614545 -247.520027 
L 357.905455 -259.836677 
L 378.196364 -272.370234 
L 398.487273 -284.623805 
L 398.487273 -284.645228 
L 398.487273 -284.645228 
L 378.196364 -272.722933 
L 357.905455 -259.861548 
L 337.614545 -247.539991 
L 317.323636 -235.355298 
L 297.032727 -223.032978 
L 276.741818 -210.980587 
L 256.450909 -199.336751 
L 236.16 -187.485095 
L 215.869091 -176.838075 
L 195.578182 -166.725854 
L 175.287273 -157.301629 
L 154.996364 -147.879053 
L 134.705455 -142.648209 
L 114.414545 -137.59612 
L 94.123636 -132.116049 
L 73.832727 -129.332973 
z
" style="stroke: #ffbb78; stroke-opacity: 0.2; stroke-width: 0.8"/>
    </defs>
    <g clip-path="url(#p485af0b6b0)">
     <use xlink:href="#mc30e7a8a41" x="0" y="345.6" style="fill: #ffbb78; fill-opacity: 0.2; stroke: #ffbb78; stroke-opacity: 0.2; stroke-width: 0.8"/>
    </g>
   </g>
   <g id="PolyCollection_5">
    <defs>
     <path id="maa7daa44ea" d="M 73.832727 -131.885168 
L 73.832727 -127.410494 
L 94.123636 -130.945645 
L 114.414545 -130.904704 
L 134.705455 -135.631303 
L 154.996364 -140.260637 
L 175.287273 -147.540591 
L 195.578182 -153.930064 
L 215.869091 -162.923911 
L 236.16 -172.367717 
L 256.450909 -183.582882 
L 276.741818 -194.606666 
L 297.032727 -206.06492 
L 317.323636 -218.174381 
L 337.614545 -230.277535 
L 357.905455 -242.464271 
L 378.196364 -254.804855 
L 398.487273 -267.091943 
L 398.487273 -267.096566 
L 398.487273 -267.096566 
L 378.196364 -254.808518 
L 357.905455 -242.518895 
L 337.614545 -230.322461 
L 317.323636 -218.219286 
L 297.032727 -206.416558 
L 276.741818 -194.741301 
L 256.450909 -183.711346 
L 236.16 -172.893702 
L 215.869091 -163.314921 
L 195.578182 -155.658075 
L 175.287273 -148.505501 
L 154.996364 -142.428543 
L 134.705455 -138.577945 
L 114.414545 -134.497408 
L 94.123636 -133.020825 
L 73.832727 -131.885168 
z
" style="stroke: #2ca02c; stroke-opacity: 0.2; stroke-width: 0.8"/>
    </defs>
    <g clip-path="url(#p485af0b6b0)">
     <use xlink:href="#maa7daa44ea" x="0" y="345.6" style="fill: #2ca02c; fill-opacity: 0.2; stroke: #2ca02c; stroke-opacity: 0.2; stroke-width: 0.8"/>
    </g>
   </g>
   <g id="PolyCollection_6">
    <defs>
     <path id="mbfbc39ccdb" d="M 73.832727 -135.036443 
L 73.832727 -133.620003 
L 94.123636 -136.828404 
L 114.414545 -136.095977 
L 134.705455 -139.985219 
L 154.996364 -141.538229 
L 175.287273 -145.886298 
L 195.578182 -148.039124 
L 215.869091 -153.106925 
L 236.16 -162.176513 
L 256.450909 -170.133961 
L 276.741818 -179.809578 
L 297.032727 -190.224937 
L 317.323636 -201.350653 
L 337.614545 -212.927741 
L 357.905455 -224.991448 
L 378.196364 -236.90287 
L 398.487273 -249.139078 
L 398.487273 -249.174396 
L 398.487273 -249.174396 
L 378.196364 -236.934263 
L 357.905455 -225.017642 
L 337.614545 -213.130858 
L 317.323636 -201.368725 
L 297.032727 -190.434783 
L 276.741818 -179.846523 
L 256.450909 -170.823697 
L 236.16 -162.388935 
L 215.869091 -155.164245 
L 195.578182 -148.927322 
L 175.287273 -146.592971 
L 154.996364 -143.479972 
L 134.705455 -140.948085 
L 114.414545 -138.636705 
L 94.123636 -139.717278 
L 73.832727 -135.036443 
z
" style="stroke: #98df8a; stroke-opacity: 0.2; stroke-width: 0.8"/>
    </defs>
    <g clip-path="url(#p485af0b6b0)">
     <use xlink:href="#mbfbc39ccdb" x="0" y="345.6" style="fill: #98df8a; fill-opacity: 0.2; stroke: #98df8a; stroke-opacity: 0.2; stroke-width: 0.8"/>
    </g>
   </g>
   <g id="PolyCollection_7">
    <defs>
     <path id="m50bf31717c" d="M 73.832727 -154.290858 
L 73.832727 -153.779623 
L 94.123636 -153.517216 
L 114.414545 -154.439266 
L 134.705455 -153.765029 
L 154.996364 -155.944188 
L 175.287273 -155.945473 
L 195.578182 -158.083652 
L 215.869091 -161.028275 
L 236.16 -164.910241 
L 256.450909 -169.02604 
L 276.741818 -175.692914 
L 297.032727 -183.894554 
L 317.323636 -192.510968 
L 337.614545 -203.138914 
L 357.905455 -213.844908 
L 378.196364 -225.345396 
L 398.487273 -236.963297 
L 398.487273 -237.083729 
L 398.487273 -237.083729 
L 378.196364 -225.359592 
L 357.905455 -213.893465 
L 337.614545 -203.370032 
L 317.323636 -193.084065 
L 297.032727 -183.972882 
L 276.741818 -176.122826 
L 256.450909 -169.508711 
L 236.16 -165.013346 
L 215.869091 -162.081047 
L 195.578182 -159.490779 
L 175.287273 -157.676702 
L 154.996364 -156.755989 
L 134.705455 -156.140509 
L 114.414545 -155.313411 
L 94.123636 -155.814464 
L 73.832727 -154.290858 
z
" style="stroke: #d62728; stroke-opacity: 0.2; stroke-width: 0.8"/>
    </defs>
    <g clip-path="url(#p485af0b6b0)">
     <use xlink:href="#m50bf31717c" x="0" y="345.6" style="fill: #d62728; fill-opacity: 0.2; stroke: #d62728; stroke-opacity: 0.2; stroke-width: 0.8"/>
    </g>
   </g>
   <g id="PolyCollection_8">
    <defs>
     <path id="m3cb7f1acf7" d="M 73.832727 -172.90481 
L 73.832727 -169.553482 
L 94.123636 -166.123656 
L 114.414545 -170.508337 
L 134.705455 -175.475306 
L 154.996364 -167.041373 
L 175.287273 -167.747332 
L 195.578182 -170.337933 
L 215.869091 -169.853948 
L 236.16 -173.455699 
L 256.450909 -174.093368 
L 276.741818 -181.358619 
L 297.032727 -187.410018 
L 317.323636 -193.999507 
L 337.614545 -202.751533 
L 357.905455 -213.161346 
L 378.196364 -223.826638 
L 398.487273 -235.902261 
L 398.487273 -236.681806 
L 398.487273 -236.681806 
L 378.196364 -223.977954 
L 357.905455 -213.565539 
L 337.614545 -202.960318 
L 317.323636 -194.588154 
L 297.032727 -188.035758 
L 276.741818 -181.529143 
L 256.450909 -177.484679 
L 236.16 -174.792293 
L 215.869091 -171.409866 
L 195.578182 -171.522297 
L 175.287273 -170.336246 
L 154.996364 -173.823768 
L 134.705455 -177.099112 
L 114.414545 -178.372851 
L 94.123636 -176.282016 
L 73.832727 -172.90481 
z
" style="stroke: #ff9896; stroke-opacity: 0.2; stroke-width: 0.8"/>
    </defs>
    <g clip-path="url(#p485af0b6b0)">
     <use xlink:href="#m3cb7f1acf7" x="0" y="345.6" style="fill: #ff9896; fill-opacity: 0.2; stroke: #ff9896; stroke-opacity: 0.2; stroke-width: 0.8"/>
    </g>
   </g>
   <g id="PolyCollection_9">
    <defs>
     <path id="m9732565e1f" d="M 73.832727 -218.865405 
L 73.832727 -210.638 
L 94.123636 -221.96342 
L 114.414545 -218.24039 
L 134.705455 -215.152557 
L 154.996364 -223.358646 
L 175.287273 -208.121554 
L 195.578182 -199.588364 
L 215.869091 -209.556693 
L 236.16 -199.043759 
L 256.450909 -191.777731 
L 276.741818 -198.885886 
L 297.032727 -202.104012 
L 317.323636 -203.98064 
L 337.614545 -210.02441 
L 357.905455 -218.929439 
L 378.196364 -231.18012 
L 398.487273 -240.882914 
L 398.487273 -245.801495 
L 398.487273 -245.801495 
L 378.196364 -232.457692 
L 357.905455 -228.685432 
L 337.614545 -210.454033 
L 317.323636 -210.338124 
L 297.032727 -206.678257 
L 276.741818 -201.38835 
L 256.450909 -199.702321 
L 236.16 -208.711364 
L 215.869091 -220.081388 
L 195.578182 -208.519061 
L 175.287273 -225.676949 
L 154.996364 -230.70986 
L 134.705455 -230.384687 
L 114.414545 -234.350979 
L 94.123636 -242.800664 
L 73.832727 -218.865405 
z
" style="stroke: #9467bd; stroke-opacity: 0.2; stroke-width: 0.8"/>
    </defs>
    <g clip-path="url(#p485af0b6b0)">
     <use xlink:href="#m9732565e1f" x="0" y="345.6" style="fill: #9467bd; fill-opacity: 0.2; stroke: #9467bd; stroke-opacity: 0.2; stroke-width: 0.8"/>
    </g>
   </g>
   <g id="line2d_48">
    <path d="M 73.832727 226.192838 
L 94.123636 222.282668 
L 114.414545 219.311406 
L 134.705455 216.865146 
L 154.996364 209.026317 
L 175.287273 204.613716 
L 195.578182 194.638541 
L 215.869091 185.61631 
L 236.16 175.2738 
L 256.450909 163.938803 
L 276.741818 152.815414 
L 297.032727 140.759841 
L 317.323636 128.607595 
L 337.614545 116.535007 
L 357.905455 104.077113 
L 378.196364 91.856359 
L 398.487273 79.476891 
" clip-path="url(#p485af0b6b0)" style="fill: none; stroke: #1f77b4; stroke-width: 1.2; stroke-linecap: round"/>
   </g>
   <g id="line2d_49">
    <path d="M 73.832727 209.167354 
L 94.123636 199.497446 
L 114.414545 192.285113 
L 134.705455 182.627194 
L 154.996364 171.23982 
L 175.287273 159.874269 
L 195.578182 148.398901 
L 215.869091 136.517759 
L 236.16 124.327055 
L 256.450909 112.102865 
L 276.741818 99.766752 
L 297.032727 87.247142 
L 317.323636 74.997485 
L 337.614545 62.613734 
L 357.905455 50.224919 
L 378.196364 37.818778 
L 398.487273 25.407503 
" clip-path="url(#p485af0b6b0)" style="fill: none; stroke: #aec7e8; stroke-width: 1.2; stroke-linecap: round"/>
   </g>
   <g id="line2d_50">
    <path d="M 73.832727 215.481324 
L 94.123636 209.704292 
L 114.414545 202.136764 
L 134.705455 195.728366 
L 154.996364 185.736588 
L 175.287273 176.034508 
L 195.578182 164.688613 
L 215.869091 153.355703 
L 236.16 141.595713 
L 256.450909 129.500854 
L 276.741818 117.372957 
L 297.032727 105.011332 
L 317.323636 92.719348 
L 337.614545 80.3732 
L 357.905455 67.970847 
L 378.196364 55.564215 
L 398.487273 43.169293 
" clip-path="url(#p485af0b6b0)" style="fill: none; stroke: #ff7f0e; stroke-width: 1.2; stroke-linecap: round"/>
   </g>
   <g id="line2d_51">
    <path d="M 73.832727 216.278367 
L 94.123636 215.42985 
L 114.414545 208.733465 
L 134.705455 203.873746 
L 154.996364 197.771909 
L 175.287273 188.773897 
L 195.578182 179.288649 
L 215.869091 168.815741 
L 236.16 158.201065 
L 256.450909 146.431352 
L 276.741818 134.708108 
L 297.032727 122.58973 
L 317.323636 110.313167 
L 337.614545 98.069989 
L 357.905455 85.750885 
L 378.196364 73.052814 
L 398.487273 60.965481 
" clip-path="url(#p485af0b6b0)" style="fill: none; stroke: #ffbb78; stroke-width: 1.2; stroke-linecap: round"/>
   </g>
   <g id="line2d_52">
    <path d="M 73.832727 215.855332 
L 94.123636 213.595917 
L 114.414545 212.836491 
L 134.705455 208.453354 
L 154.996364 204.232658 
L 175.287273 197.572446 
L 195.578182 190.791473 
L 215.869091 182.479844 
L 236.16 172.967951 
L 256.450909 161.952806 
L 276.741818 150.925928 
L 297.032727 139.358662 
L 317.323636 127.403157 
L 337.614545 115.299992 
L 357.905455 103.108402 
L 378.196364 90.793314 
L 398.487273 78.505745 
" clip-path="url(#p485af0b6b0)" style="fill: none; stroke: #2ca02c; stroke-width: 1.2; stroke-linecap: round"/>
   </g>
   <g id="line2d_53">
    <path d="M 73.832727 211.262063 
L 94.123636 207.286768 
L 114.414545 208.202412 
L 134.705455 205.128859 
L 154.996364 203.072646 
L 175.287273 199.357947 
L 195.578182 197.112957 
L 215.869091 191.443924 
L 236.16 183.317057 
L 256.450909 175.118867 
L 276.741818 165.771943 
L 297.032727 155.269927 
L 317.323636 144.24031 
L 337.614545 132.570501 
L 357.905455 120.595451 
L 378.196364 108.681429 
L 398.487273 96.443257 
" clip-path="url(#p485af0b6b0)" style="fill: none; stroke: #98df8a; stroke-width: 1.2; stroke-linecap: round"/>
   </g>
   <g id="line2d_54">
    <path d="M 73.832727 191.563494 
L 94.123636 190.908614 
L 114.414545 190.719961 
L 134.705455 190.619915 
L 154.996364 189.24672 
L 175.287273 188.774402 
L 195.578182 186.803198 
L 215.869091 184.039972 
L 236.16 180.638155 
L 256.450909 176.331497 
L 276.741818 169.691235 
L 297.032727 161.666252 
L 317.323636 152.800893 
L 337.614545 142.345269 
L 357.905455 131.730802 
L 378.196364 120.247505 
L 398.487273 108.576417 
" clip-path="url(#p485af0b6b0)" style="fill: none; stroke: #d62728; stroke-width: 1.2; stroke-linecap: round"/>
   </g>
   <g id="line2d_55">
    <path d="M 73.832727 174.316505 
L 94.123636 173.900658 
L 114.414545 170.861052 
L 134.705455 169.300025 
L 154.996364 174.945313 
L 175.287273 176.525768 
L 195.578182 174.663093 
L 215.869091 174.956372 
L 236.16 171.467354 
L 256.450909 169.755324 
L 276.741818 164.155978 
L 297.032727 157.875216 
L 317.323636 151.304491 
L 337.614545 142.743864 
L 357.905455 132.235767 
L 378.196364 121.697593 
L 398.487273 109.305024 
" clip-path="url(#p485af0b6b0)" style="fill: none; stroke: #ff9896; stroke-width: 1.2; stroke-linecap: round"/>
   </g>
   <g id="line2d_56">
    <path d="M 73.832727 130.521893 
L 94.123636 111.170156 
L 114.414545 118.06735 
L 134.705455 121.723788 
L 154.996364 118.304942 
L 175.287273 127.236265 
L 195.578182 141.161982 
L 215.869091 130.248246 
L 236.16 141.272476 
L 256.450909 149.557063 
L 276.741818 145.432569 
L 297.032727 141.107677 
L 317.323636 138.245392 
L 337.614545 135.359884 
L 357.905455 121.334385 
L 378.196364 113.773191 
L 398.487273 102.140823 
" clip-path="url(#p485af0b6b0)" style="fill: none; stroke: #9467bd; stroke-width: 1.2; stroke-linecap: round"/>
   </g>
   <g id="line2d_57"/>
   <g id="line2d_58"/>
   <g id="line2d_59"/>
   <g id="line2d_60"/>
   <g id="line2d_61"/>
   <g id="line2d_62"/>
   <g id="line2d_63"/>
   <g id="line2d_64"/>
   <g id="line2d_65"/>
   <g id="patch_3">
    <path d="M 57.6 307.584 
L 57.6 41.472 
" style="fill: none; stroke: #262626; stroke-linejoin: miter; stroke-linecap: square"/>
   </g>
   <g id="patch_4">
    <path d="M 414.72 307.584 
L 414.72 41.472 
" style="fill: none; stroke: #262626; stroke-linejoin: miter; stroke-linecap: square"/>
   </g>
   <g id="patch_5">
    <path d="M 57.6 307.584 
L 414.72 307.584 
" style="fill: none; stroke: #262626; stroke-linejoin: miter; stroke-linecap: square"/>
   </g>
   <g id="patch_6">
    <path d="M 57.6 41.472 
L 414.72 41.472 
" style="fill: none; stroke: #262626; stroke-linejoin: miter; stroke-linecap: square"/>
   </g>
   <g id="text_16">
    <!-- fib-threadpriv_blake23_clang++_overN.res -->
    <g style="fill: #262626" transform="translate(113.315078 35.472)scale(0.13 -0.13)">
     <defs>
      <path id="ArialMT-66" d="M 556 0 
L 556 2881 
L 59 2881 
L 59 3319 
L 556 3319 
L 556 3672 
Q 556 4006 616 4169 
Q 697 4388 901 4523 
Q 1106 4659 1475 4659 
Q 1713 4659 2000 4603 
L 1916 4113 
Q 1741 4144 1584 4144 
Q 1328 4144 1222 4034 
Q 1116 3925 1116 3625 
L 1116 3319 
L 1763 3319 
L 1763 2881 
L 1116 2881 
L 1116 0 
L 556 0 
z
" transform="scale(0.015625)"/>
      <path id="ArialMT-69" d="M 425 3934 
L 425 4581 
L 988 4581 
L 988 3934 
L 425 3934 
z
M 425 0 
L 425 3319 
L 988 3319 
L 988 0 
L 425 0 
z
" transform="scale(0.015625)"/>
      <path id="ArialMT-62" d="M 941 0 
L 419 0 
L 419 4581 
L 981 4581 
L 981 2947 
Q 1338 3394 1891 3394 
Q 2197 3394 2470 3270 
Q 2744 3147 2920 2923 
Q 3097 2700 3197 2384 
Q 3297 2069 3297 1709 
Q 3297 856 2875 390 
Q 2453 -75 1863 -75 
Q 1275 -75 941 416 
L 941 0 
z
M 934 1684 
Q 934 1088 1097 822 
Q 1363 388 1816 388 
Q 2184 388 2453 708 
Q 2722 1028 2722 1663 
Q 2722 2313 2464 2622 
Q 2206 2931 1841 2931 
Q 1472 2931 1203 2611 
Q 934 2291 934 1684 
z
" transform="scale(0.015625)"/>
      <path id="ArialMT-2d" d="M 203 1375 
L 203 1941 
L 1931 1941 
L 1931 1375 
L 203 1375 
z
" transform="scale(0.015625)"/>
      <path id="ArialMT-68" d="M 422 0 
L 422 4581 
L 984 4581 
L 984 2938 
Q 1378 3394 1978 3394 
Q 2347 3394 2619 3248 
Q 2891 3103 3008 2847 
Q 3125 2591 3125 2103 
L 3125 0 
L 2563 0 
L 2563 2103 
Q 2563 2525 2380 2717 
Q 2197 2909 1863 2909 
Q 1613 2909 1392 2779 
Q 1172 2650 1078 2428 
Q 984 2206 984 1816 
L 984 0 
L 422 0 
z
" transform="scale(0.015625)"/>
      <path id="ArialMT-72" d="M 416 0 
L 416 3319 
L 922 3319 
L 922 2816 
Q 1116 3169 1280 3281 
Q 1444 3394 1641 3394 
Q 1925 3394 2219 3213 
L 2025 2691 
Q 1819 2813 1613 2813 
Q 1428 2813 1281 2702 
Q 1134 2591 1072 2394 
Q 978 2094 978 1738 
L 978 0 
L 416 0 
z
" transform="scale(0.015625)"/>
      <path id="ArialMT-61" d="M 2588 409 
Q 2275 144 1986 34 
Q 1697 -75 1366 -75 
Q 819 -75 525 192 
Q 231 459 231 875 
Q 231 1119 342 1320 
Q 453 1522 633 1644 
Q 813 1766 1038 1828 
Q 1203 1872 1538 1913 
Q 2219 1994 2541 2106 
Q 2544 2222 2544 2253 
Q 2544 2597 2384 2738 
Q 2169 2928 1744 2928 
Q 1347 2928 1158 2789 
Q 969 2650 878 2297 
L 328 2372 
Q 403 2725 575 2942 
Q 747 3159 1072 3276 
Q 1397 3394 1825 3394 
Q 2250 3394 2515 3294 
Q 2781 3194 2906 3042 
Q 3031 2891 3081 2659 
Q 3109 2516 3109 2141 
L 3109 1391 
Q 3109 606 3145 398 
Q 3181 191 3288 0 
L 2700 0 
Q 2613 175 2588 409 
z
M 2541 1666 
Q 2234 1541 1622 1453 
Q 1275 1403 1131 1340 
Q 988 1278 909 1158 
Q 831 1038 831 891 
Q 831 666 1001 516 
Q 1172 366 1500 366 
Q 1825 366 2078 508 
Q 2331 650 2450 897 
Q 2541 1088 2541 1459 
L 2541 1666 
z
" transform="scale(0.015625)"/>
      <path id="ArialMT-64" d="M 2575 0 
L 2575 419 
Q 2259 -75 1647 -75 
Q 1250 -75 917 144 
Q 584 363 401 755 
Q 219 1147 219 1656 
Q 219 2153 384 2558 
Q 550 2963 881 3178 
Q 1213 3394 1622 3394 
Q 1922 3394 2156 3267 
Q 2391 3141 2538 2938 
L 2538 4581 
L 3097 4581 
L 3097 0 
L 2575 0 
z
M 797 1656 
Q 797 1019 1065 703 
Q 1334 388 1700 388 
Q 2069 388 2326 689 
Q 2584 991 2584 1609 
Q 2584 2291 2321 2609 
Q 2059 2928 1675 2928 
Q 1300 2928 1048 2622 
Q 797 2316 797 1656 
z
" transform="scale(0.015625)"/>
      <path id="ArialMT-70" d="M 422 -1272 
L 422 3319 
L 934 3319 
L 934 2888 
Q 1116 3141 1344 3267 
Q 1572 3394 1897 3394 
Q 2322 3394 2647 3175 
Q 2972 2956 3137 2557 
Q 3303 2159 3303 1684 
Q 3303 1175 3120 767 
Q 2938 359 2589 142 
Q 2241 -75 1856 -75 
Q 1575 -75 1351 44 
Q 1128 163 984 344 
L 984 -1272 
L 422 -1272 
z
M 931 1641 
Q 931 1000 1190 694 
Q 1450 388 1819 388 
Q 2194 388 2461 705 
Q 2728 1022 2728 1688 
Q 2728 2322 2467 2637 
Q 2206 2953 1844 2953 
Q 1484 2953 1207 2617 
Q 931 2281 931 1641 
z
" transform="scale(0.015625)"/>
      <path id="ArialMT-76" d="M 1344 0 
L 81 3319 
L 675 3319 
L 1388 1331 
Q 1503 1009 1600 663 
Q 1675 925 1809 1294 
L 2547 3319 
L 3125 3319 
L 1869 0 
L 1344 0 
z
" transform="scale(0.015625)"/>
      <path id="ArialMT-5f" d="M -97 -1272 
L -97 -866 
L 3631 -866 
L 3631 -1272 
L -97 -1272 
z
" transform="scale(0.015625)"/>
      <path id="ArialMT-6c" d="M 409 0 
L 409 4581 
L 972 4581 
L 972 0 
L 409 0 
z
" transform="scale(0.015625)"/>
      <path id="ArialMT-6b" d="M 425 0 
L 425 4581 
L 988 4581 
L 988 1969 
L 2319 3319 
L 3047 3319 
L 1778 2088 
L 3175 0 
L 2481 0 
L 1384 1697 
L 988 1316 
L 988 0 
L 425 0 
z
" transform="scale(0.015625)"/>
      <path id="ArialMT-6e" d="M 422 0 
L 422 3319 
L 928 3319 
L 928 2847 
Q 1294 3394 1984 3394 
Q 2284 3394 2536 3286 
Q 2788 3178 2913 3003 
Q 3038 2828 3088 2588 
Q 3119 2431 3119 2041 
L 3119 0 
L 2556 0 
L 2556 2019 
Q 2556 2363 2490 2533 
Q 2425 2703 2258 2804 
Q 2091 2906 1866 2906 
Q 1506 2906 1245 2678 
Q 984 2450 984 1813 
L 984 0 
L 422 0 
z
" transform="scale(0.015625)"/>
      <path id="ArialMT-67" d="M 319 -275 
L 866 -356 
Q 900 -609 1056 -725 
Q 1266 -881 1628 -881 
Q 2019 -881 2231 -725 
Q 2444 -569 2519 -288 
Q 2563 -116 2559 434 
Q 2191 0 1641 0 
Q 956 0 581 494 
Q 206 988 206 1678 
Q 206 2153 378 2554 
Q 550 2956 876 3175 
Q 1203 3394 1644 3394 
Q 2231 3394 2613 2919 
L 2613 3319 
L 3131 3319 
L 3131 450 
Q 3131 -325 2973 -648 
Q 2816 -972 2473 -1159 
Q 2131 -1347 1631 -1347 
Q 1038 -1347 672 -1080 
Q 306 -813 319 -275 
z
M 784 1719 
Q 784 1066 1043 766 
Q 1303 466 1694 466 
Q 2081 466 2343 764 
Q 2606 1063 2606 1700 
Q 2606 2309 2336 2618 
Q 2066 2928 1684 2928 
Q 1309 2928 1046 2623 
Q 784 2319 784 1719 
z
" transform="scale(0.015625)"/>
      <path id="ArialMT-2b" d="M 1603 741 
L 1603 1997 
L 356 1997 
L 356 2522 
L 1603 2522 
L 1603 3769 
L 2134 3769 
L 2134 2522 
L 3381 2522 
L 3381 1997 
L 2134 1997 
L 2134 741 
L 1603 741 
z
" transform="scale(0.015625)"/>
      <path id="ArialMT-6f" d="M 213 1659 
Q 213 2581 725 3025 
Q 1153 3394 1769 3394 
Q 2453 3394 2887 2945 
Q 3322 2497 3322 1706 
Q 3322 1066 3130 698 
Q 2938 331 2570 128 
Q 2203 -75 1769 -75 
Q 1072 -75 642 372 
Q 213 819 213 1659 
z
M 791 1659 
Q 791 1022 1069 705 
Q 1347 388 1769 388 
Q 2188 388 2466 706 
Q 2744 1025 2744 1678 
Q 2744 2294 2464 2611 
Q 2184 2928 1769 2928 
Q 1347 2928 1069 2612 
Q 791 2297 791 1659 
z
" transform="scale(0.015625)"/>
      <path id="ArialMT-2e" d="M 581 0 
L 581 641 
L 1222 641 
L 1222 0 
L 581 0 
z
" transform="scale(0.015625)"/>
     </defs>
     <use xlink:href="#ArialMT-66"/>
     <use xlink:href="#ArialMT-69" x="27.783203"/>
     <use xlink:href="#ArialMT-62" x="50"/>
     <use xlink:href="#ArialMT-2d" x="105.615234"/>
     <use xlink:href="#ArialMT-74" x="138.916016"/>
     <use xlink:href="#ArialMT-68" x="166.699219"/>
     <use xlink:href="#ArialMT-72" x="222.314453"/>
     <use xlink:href="#ArialMT-65" x="255.615234"/>
     <use xlink:href="#ArialMT-61" x="311.230469"/>
     <use xlink:href="#ArialMT-64" x="366.845703"/>
     <use xlink:href="#ArialMT-70" x="422.460938"/>
     <use xlink:href="#ArialMT-72" x="478.076172"/>
     <use xlink:href="#ArialMT-69" x="511.376953"/>
     <use xlink:href="#ArialMT-76" x="533.59375"/>
     <use xlink:href="#ArialMT-5f" x="583.59375"/>
     <use xlink:href="#ArialMT-62" x="639.208984"/>
     <use xlink:href="#ArialMT-6c" x="694.824219"/>
     <use xlink:href="#ArialMT-61" x="717.041016"/>
     <use xlink:href="#ArialMT-6b" x="772.65625"/>
     <use xlink:href="#ArialMT-65" x="822.65625"/>
     <use xlink:href="#ArialMT-32" x="878.271484"/>
     <use xlink:href="#ArialMT-33" x="933.886719"/>
     <use xlink:href="#ArialMT-5f" x="989.501953"/>
     <use xlink:href="#ArialMT-63" x="1045.117188"/>
     <use xlink:href="#ArialMT-6c" x="1095.117188"/>
     <use xlink:href="#ArialMT-61" x="1117.333984"/>
     <use xlink:href="#ArialMT-6e" x="1172.949219"/>
     <use xlink:href="#ArialMT-67" x="1228.564453"/>
     <use xlink:href="#ArialMT-2b" x="1284.179688"/>
     <use xlink:href="#ArialMT-2b" x="1342.578125"/>
     <use xlink:href="#ArialMT-5f" x="1400.976562"/>
     <use xlink:href="#ArialMT-6f" x="1456.591797"/>
     <use xlink:href="#ArialMT-76" x="1512.207031"/>
     <use xlink:href="#ArialMT-65" x="1562.207031"/>
     <use xlink:href="#ArialMT-72" x="1617.822266"/>
     <use xlink:href="#ArialMT-4e" x="1651.123047"/>
     <use xlink:href="#ArialMT-2e" x="1723.339844"/>
     <use xlink:href="#ArialMT-72" x="1751.123047"/>
     <use xlink:href="#ArialMT-65" x="1784.423828"/>
     <use xlink:href="#ArialMT-73" x="1840.039062"/>
    </g>
   </g>
   <g id="legend_1">
    <g id="patch_7">
     <path d="M 342.332344 301.084 
L 405.62 301.084 
Q 408.22 301.084 408.22 298.484 
L 408.22 134.283844 
Q 408.22 131.683844 405.62 131.683844 
L 342.332344 131.683844 
Q 339.732344 131.683844 339.732344 134.283844 
L 339.732344 298.484 
Q 339.732344 301.084 342.332344 301.084 
z
" style="fill: #ffffff; opacity: 0.8; stroke: #cccccc; stroke-width: 0.8; stroke-linejoin: miter"/>
    </g>
    <g id="line2d_66">
     <path d="M 344.932344 141.639 
L 357.932344 141.639 
L 370.932344 141.639 
" style="fill: none; stroke: #1f77b4; stroke-width: 1.2; stroke-linecap: round"/>
    </g>
    <g id="text_17">
     <!-- 1 -->
     <g style="fill: #262626" transform="translate(381.332344 146.189)scale(0.13 -0.13)">
      <use xlink:href="#ArialMT-31"/>
     </g>
    </g>
    <g id="line2d_67">
     <path d="M 344.932344 160.027906 
L 357.932344 160.027906 
L 370.932344 160.027906 
" style="fill: none; stroke: #aec7e8; stroke-width: 1.2; stroke-linecap: round"/>
    </g>
    <g id="text_18">
     <!-- 2 -->
     <g style="fill: #262626" transform="translate(381.332344 164.577906)scale(0.13 -0.13)">
      <use xlink:href="#ArialMT-32"/>
     </g>
    </g>
    <g id="line2d_68">
     <path d="M 344.932344 178.416813 
L 357.932344 178.416813 
L 370.932344 178.416813 
" style="fill: none; stroke: #ff7f0e; stroke-width: 1.2; stroke-linecap: round"/>
    </g>
    <g id="text_19">
     <!-- 4 -->
     <g style="fill: #262626" transform="translate(381.332344 182.966813)scale(0.13 -0.13)">
      <use xlink:href="#ArialMT-34"/>
     </g>
    </g>
    <g id="line2d_69">
     <path d="M 344.932344 196.805719 
L 357.932344 196.805719 
L 370.932344 196.805719 
" style="fill: none; stroke: #ffbb78; stroke-width: 1.2; stroke-linecap: round"/>
    </g>
    <g id="text_20">
     <!-- 8 -->
     <g style="fill: #262626" transform="translate(381.332344 201.355719)scale(0.13 -0.13)">
      <use xlink:href="#ArialMT-38"/>
     </g>
    </g>
    <g id="line2d_70">
     <path d="M 344.932344 215.194625 
L 357.932344 215.194625 
L 370.932344 215.194625 
" style="fill: none; stroke: #2ca02c; stroke-width: 1.2; stroke-linecap: round"/>
    </g>
    <g id="text_21">
     <!-- 16 -->
     <g style="fill: #262626" transform="translate(381.332344 219.744625)scale(0.13 -0.13)">
      <use xlink:href="#ArialMT-31"/>
      <use xlink:href="#ArialMT-36" x="55.615234"/>
     </g>
    </g>
    <g id="line2d_71">
     <path d="M 344.932344 233.583531 
L 357.932344 233.583531 
L 370.932344 233.583531 
" style="fill: none; stroke: #98df8a; stroke-width: 1.2; stroke-linecap: round"/>
    </g>
    <g id="text_22">
     <!-- 32 -->
     <g style="fill: #262626" transform="translate(381.332344 238.133531)scale(0.13 -0.13)">
      <use xlink:href="#ArialMT-33"/>
      <use xlink:href="#ArialMT-32" x="55.615234"/>
     </g>
    </g>
    <g id="line2d_72">
     <path d="M 344.932344 251.972438 
L 357.932344 251.972438 
L 370.932344 251.972438 
" style="fill: none; stroke: #d62728; stroke-width: 1.2; stroke-linecap: round"/>
    </g>
    <g id="text_23">
     <!-- 64 -->
     <g style="fill: #262626" transform="translate(381.332344 256.522438)scale(0.13 -0.13)">
      <use xlink:href="#ArialMT-36"/>
      <use xlink:href="#ArialMT-34" x="55.615234"/>
     </g>
    </g>
    <g id="line2d_73">
     <path d="M 344.932344 270.361344 
L 357.932344 270.361344 
L 370.932344 270.361344 
" style="fill: none; stroke: #ff9896; stroke-width: 1.2; stroke-linecap: round"/>
    </g>
    <g id="text_24">
     <!-- 128 -->
     <g style="fill: #262626" transform="translate(381.332344 274.911344)scale(0.13 -0.13)">
      <use xlink:href="#ArialMT-31"/>
      <use xlink:href="#ArialMT-32" x="55.615234"/>
      <use xlink:href="#ArialMT-38" x="111.230469"/>
     </g>
    </g>
    <g id="line2d_74">
     <path d="M 344.932344 288.75025 
L 357.932344 288.75025 
L 370.932344 288.75025 
" style="fill: none; stroke: #9467bd; stroke-width: 1.2; stroke-linecap: round"/>
    </g>
    <g id="text_25">
     <!-- 256 -->
     <g style="fill: #262626" transform="translate(381.332344 293.30025)scale(0.13 -0.13)">
      <defs>
       <path id="ArialMT-35" d="M 266 1200 
L 856 1250 
Q 922 819 1161 601 
Q 1400 384 1738 384 
Q 2144 384 2425 690 
Q 2706 997 2706 1503 
Q 2706 1984 2436 2262 
Q 2166 2541 1728 2541 
Q 1456 2541 1237 2417 
Q 1019 2294 894 2097 
L 366 2166 
L 809 4519 
L 3088 4519 
L 3088 3981 
L 1259 3981 
L 1013 2750 
Q 1425 3038 1878 3038 
Q 2478 3038 2890 2622 
Q 3303 2206 3303 1553 
Q 3303 931 2941 478 
Q 2500 -78 1738 -78 
Q 1113 -78 717 272 
Q 322 622 266 1200 
z
" transform="scale(0.015625)"/>
      </defs>
      <use xlink:href="#ArialMT-32"/>
      <use xlink:href="#ArialMT-35" x="55.615234"/>
      <use xlink:href="#ArialMT-36" x="111.230469"/>
     </g>
    </g>
   </g>
  </g>
 </g>
 <defs>
  <clipPath id="p485af0b6b0">
   <rect x="57.6" y="41.472" width="357.12" height="266.112"/>
  </clipPath>
 </defs>
</svg>
