<?xml version="1.0" encoding="utf-8" standalone="no"?>
<!DOCTYPE svg PUBLIC "-//W3C//DTD SVG 1.1//EN"
  "http://www.w3.org/Graphics/SVG/1.1/DTD/svg11.dtd">
<svg xmlns:xlink="http://www.w3.org/1999/xlink" width="460.8pt" height="345.6pt" viewBox="0 0 460.8 345.6" xmlns="http://www.w3.org/2000/svg" version="1.1">
 <metadata>
  <rdf:RDF xmlns:dc="http://purl.org/dc/elements/1.1/" xmlns:cc="http://creativecommons.org/ns#" xmlns:rdf="http://www.w3.org/1999/02/22-rdf-syntax-ns#">
   <cc:Work>
    <dc:type rdf:resource="http://purl.org/dc/dcmitype/StillImage"/>
    <dc:date>2022-05-27T11:46:52.835208</dc:date>
    <dc:format>image/svg+xml</dc:format>
    <dc:creator>
     <cc:Agent>
      <dc:title>Matplotlib v3.5.1, https://matplotlib.org/</dc:title>
     </cc:Agent>
    </dc:creator>
   </cc:Work>
  </rdf:RDF>
 </metadata>
 <defs>
  <style type="text/css">*{stroke-linejoin: round; stroke-linecap: butt}</style>
 </defs>
 <g id="figure_1">
  <g id="patch_1">
   <path d="M 0 345.6 
L 460.8 345.6 
L 460.8 0 
L 0 0 
z
" style="fill: #ffffff"/>
  </g>
  <g id="axes_1">
   <g id="patch_2">
    <path d="M 57.6 307.584 
L 414.72 307.584 
L 414.72 41.472 
L 57.6 41.472 
z
" style="fill: #ffffff"/>
   </g>
   <g id="matplotlib.axis_1">
    <g id="xtick_1">
     <g id="line2d_1">
      <defs>
       <path id="m3c43189cec" d="M 0 0 
L 0 4.8 
" style="stroke: #262626"/>
      </defs>
      <g>
       <use xlink:href="#m3c43189cec" x="118.175346" y="307.584" style="fill: #262626; stroke: #262626"/>
      </g>
     </g>
     <g id="text_1">
      <!-- $\mathdefault{10^{1}}$ -->
      <g style="fill: #262626" transform="translate(111.267346 324.959)scale(0.088 -0.088)">
       <defs>
        <path id="ArialMT-31" d="M 2384 0 
L 1822 0 
L 1822 3584 
Q 1619 3391 1289 3197 
Q 959 3003 697 2906 
L 697 3450 
Q 1169 3672 1522 3987 
Q 1875 4303 2022 4600 
L 2384 4600 
L 2384 0 
z
" transform="scale(0.015625)"/>
        <path id="ArialMT-30" d="M 266 2259 
Q 266 3072 433 3567 
Q 600 4063 929 4331 
Q 1259 4600 1759 4600 
Q 2128 4600 2406 4451 
Q 2684 4303 2865 4023 
Q 3047 3744 3150 3342 
Q 3253 2941 3253 2259 
Q 3253 1453 3087 958 
Q 2922 463 2592 192 
Q 2263 -78 1759 -78 
Q 1097 -78 719 397 
Q 266 969 266 2259 
z
M 844 2259 
Q 844 1131 1108 757 
Q 1372 384 1759 384 
Q 2147 384 2411 759 
Q 2675 1134 2675 2259 
Q 2675 3391 2411 3762 
Q 2147 4134 1753 4134 
Q 1366 4134 1134 3806 
Q 844 3388 844 2259 
z
" transform="scale(0.015625)"/>
       </defs>
       <use xlink:href="#ArialMT-31" transform="translate(0 0.99375)"/>
       <use xlink:href="#ArialMT-30" transform="translate(55.615234 0.99375)"/>
       <use xlink:href="#ArialMT-31" transform="translate(112.972813 70.6875)scale(0.7)"/>
      </g>
     </g>
    </g>
    <g id="xtick_2">
     <g id="line2d_2">
      <g>
       <use xlink:href="#m3c43189cec" x="181.61529" y="307.584" style="fill: #262626; stroke: #262626"/>
      </g>
     </g>
     <g id="text_2">
      <!-- $\mathdefault{10^{2}}$ -->
      <g style="fill: #262626" transform="translate(174.70729 324.959)scale(0.088 -0.088)">
       <defs>
        <path id="ArialMT-32" d="M 3222 541 
L 3222 0 
L 194 0 
Q 188 203 259 391 
Q 375 700 629 1000 
Q 884 1300 1366 1694 
Q 2113 2306 2375 2664 
Q 2638 3022 2638 3341 
Q 2638 3675 2398 3904 
Q 2159 4134 1775 4134 
Q 1369 4134 1125 3890 
Q 881 3647 878 3216 
L 300 3275 
Q 359 3922 746 4261 
Q 1134 4600 1788 4600 
Q 2447 4600 2831 4234 
Q 3216 3869 3216 3328 
Q 3216 3053 3103 2787 
Q 2991 2522 2730 2228 
Q 2469 1934 1863 1422 
Q 1356 997 1212 845 
Q 1069 694 975 541 
L 3222 541 
z
" transform="scale(0.015625)"/>
       </defs>
       <use xlink:href="#ArialMT-31" transform="translate(0 0.99375)"/>
       <use xlink:href="#ArialMT-30" transform="translate(55.615234 0.99375)"/>
       <use xlink:href="#ArialMT-32" transform="translate(112.972813 70.6875)scale(0.7)"/>
      </g>
     </g>
    </g>
    <g id="xtick_3">
     <g id="line2d_3">
      <g>
       <use xlink:href="#m3c43189cec" x="245.055234" y="307.584" style="fill: #262626; stroke: #262626"/>
      </g>
     </g>
     <g id="text_3">
      <!-- $\mathdefault{10^{3}}$ -->
      <g style="fill: #262626" transform="translate(238.147234 324.959)scale(0.088 -0.088)">
       <defs>
        <path id="ArialMT-33" d="M 269 1209 
L 831 1284 
Q 928 806 1161 595 
Q 1394 384 1728 384 
Q 2125 384 2398 659 
Q 2672 934 2672 1341 
Q 2672 1728 2419 1979 
Q 2166 2231 1775 2231 
Q 1616 2231 1378 2169 
L 1441 2663 
Q 1497 2656 1531 2656 
Q 1891 2656 2178 2843 
Q 2466 3031 2466 3422 
Q 2466 3731 2256 3934 
Q 2047 4138 1716 4138 
Q 1388 4138 1169 3931 
Q 950 3725 888 3313 
L 325 3413 
Q 428 3978 793 4289 
Q 1159 4600 1703 4600 
Q 2078 4600 2393 4439 
Q 2709 4278 2876 4000 
Q 3044 3722 3044 3409 
Q 3044 3113 2884 2869 
Q 2725 2625 2413 2481 
Q 2819 2388 3044 2092 
Q 3269 1797 3269 1353 
Q 3269 753 2831 336 
Q 2394 -81 1725 -81 
Q 1122 -81 723 278 
Q 325 638 269 1209 
z
" transform="scale(0.015625)"/>
       </defs>
       <use xlink:href="#ArialMT-31" transform="translate(0 0.99375)"/>
       <use xlink:href="#ArialMT-30" transform="translate(55.615234 0.99375)"/>
       <use xlink:href="#ArialMT-33" transform="translate(112.972813 70.6875)scale(0.7)"/>
      </g>
     </g>
    </g>
    <g id="xtick_4">
     <g id="line2d_4">
      <g>
       <use xlink:href="#m3c43189cec" x="308.495179" y="307.584" style="fill: #262626; stroke: #262626"/>
      </g>
     </g>
     <g id="text_4">
      <!-- $\mathdefault{10^{4}}$ -->
      <g style="fill: #262626" transform="translate(301.587179 324.871)scale(0.088 -0.088)">
       <defs>
        <path id="ArialMT-34" d="M 2069 0 
L 2069 1097 
L 81 1097 
L 81 1613 
L 2172 4581 
L 2631 4581 
L 2631 1613 
L 3250 1613 
L 3250 1097 
L 2631 1097 
L 2631 0 
L 2069 0 
z
M 2069 1613 
L 2069 3678 
L 634 1613 
L 2069 1613 
z
" transform="scale(0.015625)"/>
       </defs>
       <use xlink:href="#ArialMT-31" transform="translate(0 0.201563)"/>
       <use xlink:href="#ArialMT-30" transform="translate(55.615234 0.201563)"/>
       <use xlink:href="#ArialMT-34" transform="translate(112.972813 69.895313)scale(0.7)"/>
      </g>
     </g>
    </g>
    <g id="xtick_5">
     <g id="line2d_5">
      <g>
       <use xlink:href="#m3c43189cec" x="371.935123" y="307.584" style="fill: #262626; stroke: #262626"/>
      </g>
     </g>
     <g id="text_5">
      <!-- $\mathdefault{10^{5}}$ -->
      <g style="fill: #262626" transform="translate(365.027123 324.871)scale(0.088 -0.088)">
       <defs>
        <path id="ArialMT-35" d="M 266 1200 
L 856 1250 
Q 922 819 1161 601 
Q 1400 384 1738 384 
Q 2144 384 2425 690 
Q 2706 997 2706 1503 
Q 2706 1984 2436 2262 
Q 2166 2541 1728 2541 
Q 1456 2541 1237 2417 
Q 1019 2294 894 2097 
L 366 2166 
L 809 4519 
L 3088 4519 
L 3088 3981 
L 1259 3981 
L 1013 2750 
Q 1425 3038 1878 3038 
Q 2478 3038 2890 2622 
Q 3303 2206 3303 1553 
Q 3303 931 2941 478 
Q 2500 -78 1738 -78 
Q 1113 -78 717 272 
Q 322 622 266 1200 
z
" transform="scale(0.015625)"/>
       </defs>
       <use xlink:href="#ArialMT-31" transform="translate(0 0.879688)"/>
       <use xlink:href="#ArialMT-30" transform="translate(55.615234 0.879688)"/>
       <use xlink:href="#ArialMT-35" transform="translate(112.972813 70.573438)scale(0.7)"/>
      </g>
     </g>
    </g>
    <g id="xtick_6">
     <g id="line2d_6">
      <defs>
       <path id="m7a96732741" d="M 0 0 
L 0 3.2 
" style="stroke: #262626; stroke-width: 0.8"/>
      </defs>
      <g>
       <use xlink:href="#m7a96732741" x="73.832727" y="307.584" style="fill: #262626; stroke: #262626; stroke-width: 0.8"/>
      </g>
     </g>
    </g>
    <g id="xtick_7">
     <g id="line2d_7">
      <g>
       <use xlink:href="#m7a96732741" x="85.003947" y="307.584" style="fill: #262626; stroke: #262626; stroke-width: 0.8"/>
      </g>
     </g>
    </g>
    <g id="xtick_8">
     <g id="line2d_8">
      <g>
       <use xlink:href="#m7a96732741" x="92.930053" y="307.584" style="fill: #262626; stroke: #262626; stroke-width: 0.8"/>
      </g>
     </g>
    </g>
    <g id="xtick_9">
     <g id="line2d_9">
      <g>
       <use xlink:href="#m7a96732741" x="99.078019" y="307.584" style="fill: #262626; stroke: #262626; stroke-width: 0.8"/>
      </g>
     </g>
    </g>
    <g id="xtick_10">
     <g id="line2d_10">
      <g>
       <use xlink:href="#m7a96732741" x="104.101273" y="307.584" style="fill: #262626; stroke: #262626; stroke-width: 0.8"/>
      </g>
     </g>
    </g>
    <g id="xtick_11">
     <g id="line2d_11">
      <g>
       <use xlink:href="#m7a96732741" x="108.348374" y="307.584" style="fill: #262626; stroke: #262626; stroke-width: 0.8"/>
      </g>
     </g>
    </g>
    <g id="xtick_12">
     <g id="line2d_12">
      <g>
       <use xlink:href="#m7a96732741" x="112.02738" y="307.584" style="fill: #262626; stroke: #262626; stroke-width: 0.8"/>
      </g>
     </g>
    </g>
    <g id="xtick_13">
     <g id="line2d_13">
      <g>
       <use xlink:href="#m7a96732741" x="115.272493" y="307.584" style="fill: #262626; stroke: #262626; stroke-width: 0.8"/>
      </g>
     </g>
    </g>
    <g id="xtick_14">
     <g id="line2d_14">
      <g>
       <use xlink:href="#m7a96732741" x="137.272672" y="307.584" style="fill: #262626; stroke: #262626; stroke-width: 0.8"/>
      </g>
     </g>
    </g>
    <g id="xtick_15">
     <g id="line2d_15">
      <g>
       <use xlink:href="#m7a96732741" x="148.443891" y="307.584" style="fill: #262626; stroke: #262626; stroke-width: 0.8"/>
      </g>
     </g>
    </g>
    <g id="xtick_16">
     <g id="line2d_16">
      <g>
       <use xlink:href="#m7a96732741" x="156.369998" y="307.584" style="fill: #262626; stroke: #262626; stroke-width: 0.8"/>
      </g>
     </g>
    </g>
    <g id="xtick_17">
     <g id="line2d_17">
      <g>
       <use xlink:href="#m7a96732741" x="162.517964" y="307.584" style="fill: #262626; stroke: #262626; stroke-width: 0.8"/>
      </g>
     </g>
    </g>
    <g id="xtick_18">
     <g id="line2d_18">
      <g>
       <use xlink:href="#m7a96732741" x="167.541218" y="307.584" style="fill: #262626; stroke: #262626; stroke-width: 0.8"/>
      </g>
     </g>
    </g>
    <g id="xtick_19">
     <g id="line2d_19">
      <g>
       <use xlink:href="#m7a96732741" x="171.788318" y="307.584" style="fill: #262626; stroke: #262626; stroke-width: 0.8"/>
      </g>
     </g>
    </g>
    <g id="xtick_20">
     <g id="line2d_20">
      <g>
       <use xlink:href="#m7a96732741" x="175.467324" y="307.584" style="fill: #262626; stroke: #262626; stroke-width: 0.8"/>
      </g>
     </g>
    </g>
    <g id="xtick_21">
     <g id="line2d_21">
      <g>
       <use xlink:href="#m7a96732741" x="178.712437" y="307.584" style="fill: #262626; stroke: #262626; stroke-width: 0.8"/>
      </g>
     </g>
    </g>
    <g id="xtick_22">
     <g id="line2d_22">
      <g>
       <use xlink:href="#m7a96732741" x="200.712616" y="307.584" style="fill: #262626; stroke: #262626; stroke-width: 0.8"/>
      </g>
     </g>
    </g>
    <g id="xtick_23">
     <g id="line2d_23">
      <g>
       <use xlink:href="#m7a96732741" x="211.883836" y="307.584" style="fill: #262626; stroke: #262626; stroke-width: 0.8"/>
      </g>
     </g>
    </g>
    <g id="xtick_24">
     <g id="line2d_24">
      <g>
       <use xlink:href="#m7a96732741" x="219.809942" y="307.584" style="fill: #262626; stroke: #262626; stroke-width: 0.8"/>
      </g>
     </g>
    </g>
    <g id="xtick_25">
     <g id="line2d_25">
      <g>
       <use xlink:href="#m7a96732741" x="225.957908" y="307.584" style="fill: #262626; stroke: #262626; stroke-width: 0.8"/>
      </g>
     </g>
    </g>
    <g id="xtick_26">
     <g id="line2d_26">
      <g>
       <use xlink:href="#m7a96732741" x="230.981162" y="307.584" style="fill: #262626; stroke: #262626; stroke-width: 0.8"/>
      </g>
     </g>
    </g>
    <g id="xtick_27">
     <g id="line2d_27">
      <g>
       <use xlink:href="#m7a96732741" x="235.228263" y="307.584" style="fill: #262626; stroke: #262626; stroke-width: 0.8"/>
      </g>
     </g>
    </g>
    <g id="xtick_28">
     <g id="line2d_28">
      <g>
       <use xlink:href="#m7a96732741" x="238.907269" y="307.584" style="fill: #262626; stroke: #262626; stroke-width: 0.8"/>
      </g>
     </g>
    </g>
    <g id="xtick_29">
     <g id="line2d_29">
      <g>
       <use xlink:href="#m7a96732741" x="242.152382" y="307.584" style="fill: #262626; stroke: #262626; stroke-width: 0.8"/>
      </g>
     </g>
    </g>
    <g id="xtick_30">
     <g id="line2d_30">
      <g>
       <use xlink:href="#m7a96732741" x="264.152561" y="307.584" style="fill: #262626; stroke: #262626; stroke-width: 0.8"/>
      </g>
     </g>
    </g>
    <g id="xtick_31">
     <g id="line2d_31">
      <g>
       <use xlink:href="#m7a96732741" x="275.32378" y="307.584" style="fill: #262626; stroke: #262626; stroke-width: 0.8"/>
      </g>
     </g>
    </g>
    <g id="xtick_32">
     <g id="line2d_32">
      <g>
       <use xlink:href="#m7a96732741" x="283.249887" y="307.584" style="fill: #262626; stroke: #262626; stroke-width: 0.8"/>
      </g>
     </g>
    </g>
    <g id="xtick_33">
     <g id="line2d_33">
      <g>
       <use xlink:href="#m7a96732741" x="289.397853" y="307.584" style="fill: #262626; stroke: #262626; stroke-width: 0.8"/>
      </g>
     </g>
    </g>
    <g id="xtick_34">
     <g id="line2d_34">
      <g>
       <use xlink:href="#m7a96732741" x="294.421107" y="307.584" style="fill: #262626; stroke: #262626; stroke-width: 0.8"/>
      </g>
     </g>
    </g>
    <g id="xtick_35">
     <g id="line2d_35">
      <g>
       <use xlink:href="#m7a96732741" x="298.668207" y="307.584" style="fill: #262626; stroke: #262626; stroke-width: 0.8"/>
      </g>
     </g>
    </g>
    <g id="xtick_36">
     <g id="line2d_36">
      <g>
       <use xlink:href="#m7a96732741" x="302.347213" y="307.584" style="fill: #262626; stroke: #262626; stroke-width: 0.8"/>
      </g>
     </g>
    </g>
    <g id="xtick_37">
     <g id="line2d_37">
      <g>
       <use xlink:href="#m7a96732741" x="305.592326" y="307.584" style="fill: #262626; stroke: #262626; stroke-width: 0.8"/>
      </g>
     </g>
    </g>
    <g id="xtick_38">
     <g id="line2d_38">
      <g>
       <use xlink:href="#m7a96732741" x="327.592505" y="307.584" style="fill: #262626; stroke: #262626; stroke-width: 0.8"/>
      </g>
     </g>
    </g>
    <g id="xtick_39">
     <g id="line2d_39">
      <g>
       <use xlink:href="#m7a96732741" x="338.763725" y="307.584" style="fill: #262626; stroke: #262626; stroke-width: 0.8"/>
      </g>
     </g>
    </g>
    <g id="xtick_40">
     <g id="line2d_40">
      <g>
       <use xlink:href="#m7a96732741" x="346.689831" y="307.584" style="fill: #262626; stroke: #262626; stroke-width: 0.8"/>
      </g>
     </g>
    </g>
    <g id="xtick_41">
     <g id="line2d_41">
      <g>
       <use xlink:href="#m7a96732741" x="352.837797" y="307.584" style="fill: #262626; stroke: #262626; stroke-width: 0.8"/>
      </g>
     </g>
    </g>
    <g id="xtick_42">
     <g id="line2d_42">
      <g>
       <use xlink:href="#m7a96732741" x="357.861051" y="307.584" style="fill: #262626; stroke: #262626; stroke-width: 0.8"/>
      </g>
     </g>
    </g>
    <g id="xtick_43">
     <g id="line2d_43">
      <g>
       <use xlink:href="#m7a96732741" x="362.108152" y="307.584" style="fill: #262626; stroke: #262626; stroke-width: 0.8"/>
      </g>
     </g>
    </g>
    <g id="xtick_44">
     <g id="line2d_44">
      <g>
       <use xlink:href="#m7a96732741" x="365.787157" y="307.584" style="fill: #262626; stroke: #262626; stroke-width: 0.8"/>
      </g>
     </g>
    </g>
    <g id="xtick_45">
     <g id="line2d_45">
      <g>
       <use xlink:href="#m7a96732741" x="369.032271" y="307.584" style="fill: #262626; stroke: #262626; stroke-width: 0.8"/>
      </g>
     </g>
    </g>
    <g id="xtick_46">
     <g id="line2d_46">
      <g>
       <use xlink:href="#m7a96732741" x="391.03245" y="307.584" style="fill: #262626; stroke: #262626; stroke-width: 0.8"/>
      </g>
     </g>
    </g>
    <g id="xtick_47">
     <g id="line2d_47">
      <g>
       <use xlink:href="#m7a96732741" x="402.203669" y="307.584" style="fill: #262626; stroke: #262626; stroke-width: 0.8"/>
      </g>
     </g>
    </g>
    <g id="xtick_48">
     <g id="line2d_48">
      <g>
       <use xlink:href="#m7a96732741" x="410.129776" y="307.584" style="fill: #262626; stroke: #262626; stroke-width: 0.8"/>
      </g>
     </g>
    </g>
    <g id="text_6">
     <!-- Number of Tasks -->
     <g style="fill: #262626" transform="translate(187.513594 340.013156)scale(0.13 -0.13)">
      <defs>
       <path id="ArialMT-4e" d="M 488 0 
L 488 4581 
L 1109 4581 
L 3516 984 
L 3516 4581 
L 4097 4581 
L 4097 0 
L 3475 0 
L 1069 3600 
L 1069 0 
L 488 0 
z
" transform="scale(0.015625)"/>
       <path id="ArialMT-75" d="M 2597 0 
L 2597 488 
Q 2209 -75 1544 -75 
Q 1250 -75 995 37 
Q 741 150 617 320 
Q 494 491 444 738 
Q 409 903 409 1263 
L 409 3319 
L 972 3319 
L 972 1478 
Q 972 1038 1006 884 
Q 1059 663 1231 536 
Q 1403 409 1656 409 
Q 1909 409 2131 539 
Q 2353 669 2445 892 
Q 2538 1116 2538 1541 
L 2538 3319 
L 3100 3319 
L 3100 0 
L 2597 0 
z
" transform="scale(0.015625)"/>
       <path id="ArialMT-6d" d="M 422 0 
L 422 3319 
L 925 3319 
L 925 2853 
Q 1081 3097 1340 3245 
Q 1600 3394 1931 3394 
Q 2300 3394 2536 3241 
Q 2772 3088 2869 2813 
Q 3263 3394 3894 3394 
Q 4388 3394 4653 3120 
Q 4919 2847 4919 2278 
L 4919 0 
L 4359 0 
L 4359 2091 
Q 4359 2428 4304 2576 
Q 4250 2725 4106 2815 
Q 3963 2906 3769 2906 
Q 3419 2906 3187 2673 
Q 2956 2441 2956 1928 
L 2956 0 
L 2394 0 
L 2394 2156 
Q 2394 2531 2256 2718 
Q 2119 2906 1806 2906 
Q 1569 2906 1367 2781 
Q 1166 2656 1075 2415 
Q 984 2175 984 1722 
L 984 0 
L 422 0 
z
" transform="scale(0.015625)"/>
       <path id="ArialMT-62" d="M 941 0 
L 419 0 
L 419 4581 
L 981 4581 
L 981 2947 
Q 1338 3394 1891 3394 
Q 2197 3394 2470 3270 
Q 2744 3147 2920 2923 
Q 3097 2700 3197 2384 
Q 3297 2069 3297 1709 
Q 3297 856 2875 390 
Q 2453 -75 1863 -75 
Q 1275 -75 941 416 
L 941 0 
z
M 934 1684 
Q 934 1088 1097 822 
Q 1363 388 1816 388 
Q 2184 388 2453 708 
Q 2722 1028 2722 1663 
Q 2722 2313 2464 2622 
Q 2206 2931 1841 2931 
Q 1472 2931 1203 2611 
Q 934 2291 934 1684 
z
" transform="scale(0.015625)"/>
       <path id="ArialMT-65" d="M 2694 1069 
L 3275 997 
Q 3138 488 2766 206 
Q 2394 -75 1816 -75 
Q 1088 -75 661 373 
Q 234 822 234 1631 
Q 234 2469 665 2931 
Q 1097 3394 1784 3394 
Q 2450 3394 2872 2941 
Q 3294 2488 3294 1666 
Q 3294 1616 3291 1516 
L 816 1516 
Q 847 969 1125 678 
Q 1403 388 1819 388 
Q 2128 388 2347 550 
Q 2566 713 2694 1069 
z
M 847 1978 
L 2700 1978 
Q 2663 2397 2488 2606 
Q 2219 2931 1791 2931 
Q 1403 2931 1139 2672 
Q 875 2413 847 1978 
z
" transform="scale(0.015625)"/>
       <path id="ArialMT-72" d="M 416 0 
L 416 3319 
L 922 3319 
L 922 2816 
Q 1116 3169 1280 3281 
Q 1444 3394 1641 3394 
Q 1925 3394 2219 3213 
L 2025 2691 
Q 1819 2813 1613 2813 
Q 1428 2813 1281 2702 
Q 1134 2591 1072 2394 
Q 978 2094 978 1738 
L 978 0 
L 416 0 
z
" transform="scale(0.015625)"/>
       <path id="ArialMT-20" transform="scale(0.015625)"/>
       <path id="ArialMT-6f" d="M 213 1659 
Q 213 2581 725 3025 
Q 1153 3394 1769 3394 
Q 2453 3394 2887 2945 
Q 3322 2497 3322 1706 
Q 3322 1066 3130 698 
Q 2938 331 2570 128 
Q 2203 -75 1769 -75 
Q 1072 -75 642 372 
Q 213 819 213 1659 
z
M 791 1659 
Q 791 1022 1069 705 
Q 1347 388 1769 388 
Q 2188 388 2466 706 
Q 2744 1025 2744 1678 
Q 2744 2294 2464 2611 
Q 2184 2928 1769 2928 
Q 1347 2928 1069 2612 
Q 791 2297 791 1659 
z
" transform="scale(0.015625)"/>
       <path id="ArialMT-66" d="M 556 0 
L 556 2881 
L 59 2881 
L 59 3319 
L 556 3319 
L 556 3672 
Q 556 4006 616 4169 
Q 697 4388 901 4523 
Q 1106 4659 1475 4659 
Q 1713 4659 2000 4603 
L 1916 4113 
Q 1741 4144 1584 4144 
Q 1328 4144 1222 4034 
Q 1116 3925 1116 3625 
L 1116 3319 
L 1763 3319 
L 1763 2881 
L 1116 2881 
L 1116 0 
L 556 0 
z
" transform="scale(0.015625)"/>
       <path id="ArialMT-54" d="M 1659 0 
L 1659 4041 
L 150 4041 
L 150 4581 
L 3781 4581 
L 3781 4041 
L 2266 4041 
L 2266 0 
L 1659 0 
z
" transform="scale(0.015625)"/>
       <path id="ArialMT-61" d="M 2588 409 
Q 2275 144 1986 34 
Q 1697 -75 1366 -75 
Q 819 -75 525 192 
Q 231 459 231 875 
Q 231 1119 342 1320 
Q 453 1522 633 1644 
Q 813 1766 1038 1828 
Q 1203 1872 1538 1913 
Q 2219 1994 2541 2106 
Q 2544 2222 2544 2253 
Q 2544 2597 2384 2738 
Q 2169 2928 1744 2928 
Q 1347 2928 1158 2789 
Q 969 2650 878 2297 
L 328 2372 
Q 403 2725 575 2942 
Q 747 3159 1072 3276 
Q 1397 3394 1825 3394 
Q 2250 3394 2515 3294 
Q 2781 3194 2906 3042 
Q 3031 2891 3081 2659 
Q 3109 2516 3109 2141 
L 3109 1391 
Q 3109 606 3145 398 
Q 3181 191 3288 0 
L 2700 0 
Q 2613 175 2588 409 
z
M 2541 1666 
Q 2234 1541 1622 1453 
Q 1275 1403 1131 1340 
Q 988 1278 909 1158 
Q 831 1038 831 891 
Q 831 666 1001 516 
Q 1172 366 1500 366 
Q 1825 366 2078 508 
Q 2331 650 2450 897 
Q 2541 1088 2541 1459 
L 2541 1666 
z
" transform="scale(0.015625)"/>
       <path id="ArialMT-73" d="M 197 991 
L 753 1078 
Q 800 744 1014 566 
Q 1228 388 1613 388 
Q 2000 388 2187 545 
Q 2375 703 2375 916 
Q 2375 1106 2209 1216 
Q 2094 1291 1634 1406 
Q 1016 1563 777 1677 
Q 538 1791 414 1992 
Q 291 2194 291 2438 
Q 291 2659 392 2848 
Q 494 3038 669 3163 
Q 800 3259 1026 3326 
Q 1253 3394 1513 3394 
Q 1903 3394 2198 3281 
Q 2494 3169 2634 2976 
Q 2775 2784 2828 2463 
L 2278 2388 
Q 2241 2644 2061 2787 
Q 1881 2931 1553 2931 
Q 1166 2931 1000 2803 
Q 834 2675 834 2503 
Q 834 2394 903 2306 
Q 972 2216 1119 2156 
Q 1203 2125 1616 2013 
Q 2213 1853 2448 1751 
Q 2684 1650 2818 1456 
Q 2953 1263 2953 975 
Q 2953 694 2789 445 
Q 2625 197 2315 61 
Q 2006 -75 1616 -75 
Q 969 -75 630 194 
Q 291 463 197 991 
z
" transform="scale(0.015625)"/>
       <path id="ArialMT-6b" d="M 425 0 
L 425 4581 
L 988 4581 
L 988 1969 
L 2319 3319 
L 3047 3319 
L 1778 2088 
L 3175 0 
L 2481 0 
L 1384 1697 
L 988 1316 
L 988 0 
L 425 0 
z
" transform="scale(0.015625)"/>
      </defs>
      <use xlink:href="#ArialMT-4e"/>
      <use xlink:href="#ArialMT-75" x="72.216797"/>
      <use xlink:href="#ArialMT-6d" x="127.832031"/>
      <use xlink:href="#ArialMT-62" x="211.132812"/>
      <use xlink:href="#ArialMT-65" x="266.748047"/>
      <use xlink:href="#ArialMT-72" x="322.363281"/>
      <use xlink:href="#ArialMT-20" x="355.664062"/>
      <use xlink:href="#ArialMT-6f" x="383.447266"/>
      <use xlink:href="#ArialMT-66" x="439.0625"/>
      <use xlink:href="#ArialMT-20" x="466.845703"/>
      <use xlink:href="#ArialMT-54" x="492.878906"/>
      <use xlink:href="#ArialMT-61" x="542.837891"/>
      <use xlink:href="#ArialMT-73" x="598.453125"/>
      <use xlink:href="#ArialMT-6b" x="648.453125"/>
      <use xlink:href="#ArialMT-73" x="698.453125"/>
     </g>
    </g>
   </g>
   <g id="matplotlib.axis_2">
    <g id="ytick_1">
     <g id="line2d_49">
      <defs>
       <path id="m25e88ab179" d="M 0 0 
L -4.8 0 
" style="stroke: #262626"/>
      </defs>
      <g>
       <use xlink:href="#m25e88ab179" x="57.6" y="307.584" style="fill: #262626; stroke: #262626"/>
      </g>
     </g>
     <g id="text_7">
      <!-- $\mathdefault{10^{-4}}$ -->
      <g style="fill: #262626" transform="translate(31.876 312.0775)scale(0.088 -0.088)">
       <defs>
        <path id="ArialMT-2212" d="M 3381 1997 
L 356 1997 
L 356 2522 
L 3381 2522 
L 3381 1997 
z
" transform="scale(0.015625)"/>
       </defs>
       <use xlink:href="#ArialMT-31" transform="translate(0 0.201563)"/>
       <use xlink:href="#ArialMT-30" transform="translate(55.615234 0.201563)"/>
       <use xlink:href="#ArialMT-2212" transform="translate(112.972813 69.895313)scale(0.7)"/>
       <use xlink:href="#ArialMT-34" transform="translate(153.851719 69.895313)scale(0.7)"/>
      </g>
     </g>
    </g>
    <g id="ytick_2">
     <g id="line2d_50">
      <g>
       <use xlink:href="#m25e88ab179" x="57.6" y="245.712309" style="fill: #262626; stroke: #262626"/>
      </g>
     </g>
     <g id="text_8">
      <!-- $\mathdefault{10^{-3}}$ -->
      <g style="fill: #262626" transform="translate(31.876 250.249809)scale(0.088 -0.088)">
       <use xlink:href="#ArialMT-31" transform="translate(0 0.99375)"/>
       <use xlink:href="#ArialMT-30" transform="translate(55.615234 0.99375)"/>
       <use xlink:href="#ArialMT-2212" transform="translate(112.972813 70.6875)scale(0.7)"/>
       <use xlink:href="#ArialMT-33" transform="translate(153.851719 70.6875)scale(0.7)"/>
      </g>
     </g>
    </g>
    <g id="ytick_3">
     <g id="line2d_51">
      <g>
       <use xlink:href="#m25e88ab179" x="57.6" y="183.840617" style="fill: #262626; stroke: #262626"/>
      </g>
     </g>
     <g id="text_9">
      <!-- $\mathdefault{10^{-2}}$ -->
      <g style="fill: #262626" transform="translate(31.876 188.378117)scale(0.088 -0.088)">
       <use xlink:href="#ArialMT-31" transform="translate(0 0.99375)"/>
       <use xlink:href="#ArialMT-30" transform="translate(55.615234 0.99375)"/>
       <use xlink:href="#ArialMT-2212" transform="translate(112.972813 70.6875)scale(0.7)"/>
       <use xlink:href="#ArialMT-32" transform="translate(153.851719 70.6875)scale(0.7)"/>
      </g>
     </g>
    </g>
    <g id="ytick_4">
     <g id="line2d_52">
      <g>
       <use xlink:href="#m25e88ab179" x="57.6" y="121.968926" style="fill: #262626; stroke: #262626"/>
      </g>
     </g>
     <g id="text_10">
      <!-- $\mathdefault{10^{-1}}$ -->
      <g style="fill: #262626" transform="translate(31.876 126.506426)scale(0.088 -0.088)">
       <use xlink:href="#ArialMT-31" transform="translate(0 0.99375)"/>
       <use xlink:href="#ArialMT-30" transform="translate(55.615234 0.99375)"/>
       <use xlink:href="#ArialMT-2212" transform="translate(112.972813 70.6875)scale(0.7)"/>
       <use xlink:href="#ArialMT-31" transform="translate(153.851719 70.6875)scale(0.7)"/>
      </g>
     </g>
    </g>
    <g id="ytick_5">
     <g id="line2d_53">
      <g>
       <use xlink:href="#m25e88ab179" x="57.6" y="60.097235" style="fill: #262626; stroke: #262626"/>
      </g>
     </g>
     <g id="text_11">
      <!-- $\mathdefault{10^{0}}$ -->
      <g style="fill: #262626" transform="translate(35.484 64.634735)scale(0.088 -0.088)">
       <use xlink:href="#ArialMT-31" transform="translate(0 0.99375)"/>
       <use xlink:href="#ArialMT-30" transform="translate(55.615234 0.99375)"/>
       <use xlink:href="#ArialMT-30" transform="translate(112.972813 70.6875)scale(0.7)"/>
      </g>
     </g>
    </g>
    <g id="ytick_6">
     <g id="line2d_54">
      <defs>
       <path id="m91aa620190" d="M 0 0 
L -3.2 0 
" style="stroke: #262626; stroke-width: 0.8"/>
      </defs>
      <g>
       <use xlink:href="#m91aa620190" x="57.6" y="288.958765" style="fill: #262626; stroke: #262626; stroke-width: 0.8"/>
      </g>
     </g>
    </g>
    <g id="ytick_7">
     <g id="line2d_55">
      <g>
       <use xlink:href="#m91aa620190" x="57.6" y="278.063701" style="fill: #262626; stroke: #262626; stroke-width: 0.8"/>
      </g>
     </g>
    </g>
    <g id="ytick_8">
     <g id="line2d_56">
      <g>
       <use xlink:href="#m91aa620190" x="57.6" y="270.33353" style="fill: #262626; stroke: #262626; stroke-width: 0.8"/>
      </g>
     </g>
    </g>
    <g id="ytick_9">
     <g id="line2d_57">
      <g>
       <use xlink:href="#m91aa620190" x="57.6" y="264.337544" style="fill: #262626; stroke: #262626; stroke-width: 0.8"/>
      </g>
     </g>
    </g>
    <g id="ytick_10">
     <g id="line2d_58">
      <g>
       <use xlink:href="#m91aa620190" x="57.6" y="259.438466" style="fill: #262626; stroke: #262626; stroke-width: 0.8"/>
      </g>
     </g>
    </g>
    <g id="ytick_11">
     <g id="line2d_59">
      <g>
       <use xlink:href="#m91aa620190" x="57.6" y="255.296355" style="fill: #262626; stroke: #262626; stroke-width: 0.8"/>
      </g>
     </g>
    </g>
    <g id="ytick_12">
     <g id="line2d_60">
      <g>
       <use xlink:href="#m91aa620190" x="57.6" y="251.708295" style="fill: #262626; stroke: #262626; stroke-width: 0.8"/>
      </g>
     </g>
    </g>
    <g id="ytick_13">
     <g id="line2d_61">
      <g>
       <use xlink:href="#m91aa620190" x="57.6" y="248.543402" style="fill: #262626; stroke: #262626; stroke-width: 0.8"/>
      </g>
     </g>
    </g>
    <g id="ytick_14">
     <g id="line2d_62">
      <g>
       <use xlink:href="#m91aa620190" x="57.6" y="227.087074" style="fill: #262626; stroke: #262626; stroke-width: 0.8"/>
      </g>
     </g>
    </g>
    <g id="ytick_15">
     <g id="line2d_63">
      <g>
       <use xlink:href="#m91aa620190" x="57.6" y="216.19201" style="fill: #262626; stroke: #262626; stroke-width: 0.8"/>
      </g>
     </g>
    </g>
    <g id="ytick_16">
     <g id="line2d_64">
      <g>
       <use xlink:href="#m91aa620190" x="57.6" y="208.461839" style="fill: #262626; stroke: #262626; stroke-width: 0.8"/>
      </g>
     </g>
    </g>
    <g id="ytick_17">
     <g id="line2d_65">
      <g>
       <use xlink:href="#m91aa620190" x="57.6" y="202.465852" style="fill: #262626; stroke: #262626; stroke-width: 0.8"/>
      </g>
     </g>
    </g>
    <g id="ytick_18">
     <g id="line2d_66">
      <g>
       <use xlink:href="#m91aa620190" x="57.6" y="197.566775" style="fill: #262626; stroke: #262626; stroke-width: 0.8"/>
      </g>
     </g>
    </g>
    <g id="ytick_19">
     <g id="line2d_67">
      <g>
       <use xlink:href="#m91aa620190" x="57.6" y="193.424664" style="fill: #262626; stroke: #262626; stroke-width: 0.8"/>
      </g>
     </g>
    </g>
    <g id="ytick_20">
     <g id="line2d_68">
      <g>
       <use xlink:href="#m91aa620190" x="57.6" y="189.836604" style="fill: #262626; stroke: #262626; stroke-width: 0.8"/>
      </g>
     </g>
    </g>
    <g id="ytick_21">
     <g id="line2d_69">
      <g>
       <use xlink:href="#m91aa620190" x="57.6" y="186.671711" style="fill: #262626; stroke: #262626; stroke-width: 0.8"/>
      </g>
     </g>
    </g>
    <g id="ytick_22">
     <g id="line2d_70">
      <g>
       <use xlink:href="#m91aa620190" x="57.6" y="165.215383" style="fill: #262626; stroke: #262626; stroke-width: 0.8"/>
      </g>
     </g>
    </g>
    <g id="ytick_23">
     <g id="line2d_71">
      <g>
       <use xlink:href="#m91aa620190" x="57.6" y="154.320319" style="fill: #262626; stroke: #262626; stroke-width: 0.8"/>
      </g>
     </g>
    </g>
    <g id="ytick_24">
     <g id="line2d_72">
      <g>
       <use xlink:href="#m91aa620190" x="57.6" y="146.590148" style="fill: #262626; stroke: #262626; stroke-width: 0.8"/>
      </g>
     </g>
    </g>
    <g id="ytick_25">
     <g id="line2d_73">
      <g>
       <use xlink:href="#m91aa620190" x="57.6" y="140.594161" style="fill: #262626; stroke: #262626; stroke-width: 0.8"/>
      </g>
     </g>
    </g>
    <g id="ytick_26">
     <g id="line2d_74">
      <g>
       <use xlink:href="#m91aa620190" x="57.6" y="135.695084" style="fill: #262626; stroke: #262626; stroke-width: 0.8"/>
      </g>
     </g>
    </g>
    <g id="ytick_27">
     <g id="line2d_75">
      <g>
       <use xlink:href="#m91aa620190" x="57.6" y="131.552972" style="fill: #262626; stroke: #262626; stroke-width: 0.8"/>
      </g>
     </g>
    </g>
    <g id="ytick_28">
     <g id="line2d_76">
      <g>
       <use xlink:href="#m91aa620190" x="57.6" y="127.964913" style="fill: #262626; stroke: #262626; stroke-width: 0.8"/>
      </g>
     </g>
    </g>
    <g id="ytick_29">
     <g id="line2d_77">
      <g>
       <use xlink:href="#m91aa620190" x="57.6" y="124.80002" style="fill: #262626; stroke: #262626; stroke-width: 0.8"/>
      </g>
     </g>
    </g>
    <g id="ytick_30">
     <g id="line2d_78">
      <g>
       <use xlink:href="#m91aa620190" x="57.6" y="103.343691" style="fill: #262626; stroke: #262626; stroke-width: 0.8"/>
      </g>
     </g>
    </g>
    <g id="ytick_31">
     <g id="line2d_79">
      <g>
       <use xlink:href="#m91aa620190" x="57.6" y="92.448627" style="fill: #262626; stroke: #262626; stroke-width: 0.8"/>
      </g>
     </g>
    </g>
    <g id="ytick_32">
     <g id="line2d_80">
      <g>
       <use xlink:href="#m91aa620190" x="57.6" y="84.718456" style="fill: #262626; stroke: #262626; stroke-width: 0.8"/>
      </g>
     </g>
    </g>
    <g id="ytick_33">
     <g id="line2d_81">
      <g>
       <use xlink:href="#m91aa620190" x="57.6" y="78.72247" style="fill: #262626; stroke: #262626; stroke-width: 0.8"/>
      </g>
     </g>
    </g>
    <g id="ytick_34">
     <g id="line2d_82">
      <g>
       <use xlink:href="#m91aa620190" x="57.6" y="73.823392" style="fill: #262626; stroke: #262626; stroke-width: 0.8"/>
      </g>
     </g>
    </g>
    <g id="ytick_35">
     <g id="line2d_83">
      <g>
       <use xlink:href="#m91aa620190" x="57.6" y="69.681281" style="fill: #262626; stroke: #262626; stroke-width: 0.8"/>
      </g>
     </g>
    </g>
    <g id="ytick_36">
     <g id="line2d_84">
      <g>
       <use xlink:href="#m91aa620190" x="57.6" y="66.093221" style="fill: #262626; stroke: #262626; stroke-width: 0.8"/>
      </g>
     </g>
    </g>
    <g id="ytick_37">
     <g id="line2d_85">
      <g>
       <use xlink:href="#m91aa620190" x="57.6" y="62.928328" style="fill: #262626; stroke: #262626; stroke-width: 0.8"/>
      </g>
     </g>
    </g>
    <g id="ytick_38">
     <g id="line2d_86">
      <g>
       <use xlink:href="#m91aa620190" x="57.6" y="41.472" style="fill: #262626; stroke: #262626; stroke-width: 0.8"/>
      </g>
     </g>
    </g>
    <g id="text_12">
     <!-- t(sec) -->
     <g style="fill: #262626" transform="translate(25.139906 190.776984)rotate(-90)scale(0.13 -0.13)">
      <defs>
       <path id="ArialMT-74" d="M 1650 503 
L 1731 6 
Q 1494 -44 1306 -44 
Q 1000 -44 831 53 
Q 663 150 594 308 
Q 525 466 525 972 
L 525 2881 
L 113 2881 
L 113 3319 
L 525 3319 
L 525 4141 
L 1084 4478 
L 1084 3319 
L 1650 3319 
L 1650 2881 
L 1084 2881 
L 1084 941 
Q 1084 700 1114 631 
Q 1144 563 1211 522 
Q 1278 481 1403 481 
Q 1497 481 1650 503 
z
" transform="scale(0.015625)"/>
       <path id="ArialMT-28" d="M 1497 -1347 
Q 1031 -759 709 28 
Q 388 816 388 1659 
Q 388 2403 628 3084 
Q 909 3875 1497 4659 
L 1900 4659 
Q 1522 4009 1400 3731 
Q 1209 3300 1100 2831 
Q 966 2247 966 1656 
Q 966 153 1900 -1347 
L 1497 -1347 
z
" transform="scale(0.015625)"/>
       <path id="ArialMT-63" d="M 2588 1216 
L 3141 1144 
Q 3050 572 2676 248 
Q 2303 -75 1759 -75 
Q 1078 -75 664 370 
Q 250 816 250 1647 
Q 250 2184 428 2587 
Q 606 2991 970 3192 
Q 1334 3394 1763 3394 
Q 2303 3394 2647 3120 
Q 2991 2847 3088 2344 
L 2541 2259 
Q 2463 2594 2264 2762 
Q 2066 2931 1784 2931 
Q 1359 2931 1093 2626 
Q 828 2322 828 1663 
Q 828 994 1084 691 
Q 1341 388 1753 388 
Q 2084 388 2306 591 
Q 2528 794 2588 1216 
z
" transform="scale(0.015625)"/>
       <path id="ArialMT-29" d="M 791 -1347 
L 388 -1347 
Q 1322 153 1322 1656 
Q 1322 2244 1188 2822 
Q 1081 3291 891 3722 
Q 769 4003 388 4659 
L 791 4659 
Q 1378 3875 1659 3084 
Q 1900 2403 1900 1659 
Q 1900 816 1576 28 
Q 1253 -759 791 -1347 
z
" transform="scale(0.015625)"/>
      </defs>
      <use xlink:href="#ArialMT-74"/>
      <use xlink:href="#ArialMT-28" x="27.783203"/>
      <use xlink:href="#ArialMT-73" x="61.083984"/>
      <use xlink:href="#ArialMT-65" x="111.083984"/>
      <use xlink:href="#ArialMT-63" x="166.699219"/>
      <use xlink:href="#ArialMT-29" x="216.699219"/>
     </g>
    </g>
   </g>
   <g id="PolyCollection_1">
    <defs>
     <path id="m8f8792311a" d="M 73.832727 -68.815992 
L 73.832727 -68.47444 
L 92.930053 -64.004991 
L 112.02738 -61.389527 
L 131.124706 -65.999252 
L 150.222032 -70.178962 
L 169.319358 -81.187814 
L 188.416684 -92.934349 
L 207.514011 -100.856693 
L 226.611337 -105.724996 
L 245.708663 -111.408483 
L 264.805989 -116.072631 
L 283.903316 -119.520131 
L 303.000642 -125.521216 
L 322.097968 -127.777267 
L 341.195294 -132.391704 
L 360.29262 -137.225215 
L 379.389947 -141.704625 
L 398.487273 -156.643252 
L 398.487273 -158.36428 
L 398.487273 -158.36428 
L 379.389947 -142.689927 
L 360.29262 -138.752442 
L 341.195294 -133.388393 
L 322.097968 -130.806897 
L 303.000642 -125.775058 
L 283.903316 -120.271619 
L 264.805989 -116.204425 
L 245.708663 -112.573309 
L 226.611337 -107.436006 
L 207.514011 -101.155938 
L 188.416684 -93.770447 
L 169.319358 -84.76727 
L 150.222032 -73.980735 
L 131.124706 -68.652634 
L 112.02738 -63.554751 
L 92.930053 -64.037455 
L 73.832727 -68.815992 
z
" style="stroke: #1f77b4; stroke-opacity: 0.2; stroke-width: 0.8"/>
    </defs>
    <g clip-path="url(#p6a29cb6488)">
     <use xlink:href="#m8f8792311a" x="0" y="345.6" style="fill: #1f77b4; fill-opacity: 0.2; stroke: #1f77b4; stroke-opacity: 0.2; stroke-width: 0.8"/>
    </g>
   </g>
   <g id="PolyCollection_2">
    <defs>
     <path id="mef3fe9df95" d="M 73.832727 -67.686265 
L 73.832727 -67.265336 
L 92.930053 -55.722591 
L 112.02738 -58.91691 
L 131.124706 -62.390712 
L 150.222032 -67.508698 
L 169.319358 -77.251163 
L 188.416684 -88.23043 
L 207.514011 -96.936217 
L 226.611337 -103.10794 
L 245.708663 -106.239018 
L 264.805989 -111.133004 
L 283.903316 -115.692281 
L 303.000642 -117.662734 
L 322.097968 -119.293879 
L 341.195294 -121.653565 
L 360.29262 -126.62681 
L 379.389947 -128.179673 
L 398.487273 -131.726178 
L 398.487273 -132.333047 
L 398.487273 -132.333047 
L 379.389947 -130.607456 
L 360.29262 -128.605505 
L 341.195294 -124.404236 
L 322.097968 -123.45295 
L 303.000642 -118.070645 
L 283.903316 -115.801141 
L 264.805989 -112.297556 
L 245.708663 -108.203657 
L 226.611337 -103.424278 
L 207.514011 -96.967179 
L 188.416684 -89.670742 
L 169.319358 -77.51763 
L 150.222032 -68.529395 
L 131.124706 -62.493997 
L 112.02738 -59.034417 
L 92.930053 -56.858409 
L 73.832727 -67.686265 
z
" style="stroke: #aec7e8; stroke-opacity: 0.2; stroke-width: 0.8"/>
    </defs>
    <g clip-path="url(#p6a29cb6488)">
     <use xlink:href="#mef3fe9df95" x="0" y="345.6" style="fill: #aec7e8; fill-opacity: 0.2; stroke: #aec7e8; stroke-opacity: 0.2; stroke-width: 0.8"/>
    </g>
   </g>
   <g id="PolyCollection_3">
    <defs>
     <path id="m70369c439d" d="M 73.832727 -151.236466 
L 73.832727 -150.363817 
L 92.930053 -156.719112 
L 112.02738 -156.27442 
L 131.124706 -157.007089 
L 150.222032 -155.808132 
L 169.319358 -157.367079 
L 188.416684 -157.069967 
L 207.514011 -158.549262 
L 226.611337 -158.440274 
L 245.708663 -157.786777 
L 264.805989 -159.131526 
L 283.903316 -159.460601 
L 303.000642 -161.273222 
L 322.097968 -162.177973 
L 341.195294 -164.357766 
L 360.29262 -165.803738 
L 379.389947 -165.62143 
L 398.487273 -166.262349 
L 398.487273 -167.461415 
L 398.487273 -167.461415 
L 379.389947 -165.689534 
L 360.29262 -166.065288 
L 341.195294 -165.434597 
L 322.097968 -163.631846 
L 303.000642 -162.572681 
L 283.903316 -161.077233 
L 264.805989 -159.679993 
L 245.708663 -157.978207 
L 226.611337 -159.056305 
L 207.514011 -159.082026 
L 188.416684 -158.280578 
L 169.319358 -158.121128 
L 150.222032 -156.370084 
L 131.124706 -158.372298 
L 112.02738 -158.186581 
L 92.930053 -157.798145 
L 73.832727 -151.236466 
z
" style="stroke: #ff7f0e; stroke-opacity: 0.2; stroke-width: 0.8"/>
    </defs>
    <g clip-path="url(#p6a29cb6488)">
     <use xlink:href="#m70369c439d" x="0" y="345.6" style="fill: #ff7f0e; fill-opacity: 0.2; stroke: #ff7f0e; stroke-opacity: 0.2; stroke-width: 0.8"/>
    </g>
   </g>
   <g id="PolyCollection_4">
    <defs>
     <path id="m1262bf3be7" d="M 73.832727 -168.209386 
L 73.832727 -167.36911 
L 92.930053 -163.168235 
L 112.02738 -162.492528 
L 131.124706 -163.665157 
L 150.222032 -162.898391 
L 169.319358 -162.320452 
L 188.416684 -161.415043 
L 207.514011 -162.993517 
L 226.611337 -163.081402 
L 245.708663 -162.622167 
L 264.805989 -166.171297 
L 283.903316 -168.915283 
L 303.000642 -179.959403 
L 322.097968 -193.986318 
L 341.195294 -210.566367 
L 360.29262 -222.691595 
L 379.389947 -235.574507 
L 398.487273 -245.292033 
L 398.487273 -245.422874 
L 398.487273 -245.422874 
L 379.389947 -236.415554 
L 360.29262 -223.301074 
L 341.195294 -211.940122 
L 322.097968 -195.986471 
L 303.000642 -180.75104 
L 283.903316 -172.508412 
L 264.805989 -168.410063 
L 245.708663 -165.77691 
L 226.611337 -166.208438 
L 207.514011 -163.229361 
L 188.416684 -163.850495 
L 169.319358 -163.605016 
L 150.222032 -163.288063 
L 131.124706 -165.074331 
L 112.02738 -164.52071 
L 92.930053 -163.404326 
L 73.832727 -168.209386 
z
" style="stroke: #ffbb78; stroke-opacity: 0.2; stroke-width: 0.8"/>
    </defs>
    <g clip-path="url(#p6a29cb6488)">
     <use xlink:href="#m1262bf3be7" x="0" y="345.6" style="fill: #ffbb78; fill-opacity: 0.2; stroke: #ffbb78; stroke-opacity: 0.2; stroke-width: 0.8"/>
    </g>
   </g>
   <g id="PolyCollection_5">
    <defs>
     <path id="ma6a24f15c0" d="M 73.832727 -77.766856 
L 73.832727 -77.708401 
L 92.930053 -75.752304 
L 112.02738 -74.682727 
L 131.124706 -73.483301 
L 150.222032 -73.098298 
L 169.319358 -74.053431 
L 188.416684 -76.189167 
L 207.514011 -80.224207 
L 226.611337 -86.205118 
L 245.708663 -94.510934 
L 264.805989 -106.500793 
L 283.903316 -120.447971 
L 303.000642 -137.505246 
L 322.097968 -153.934856 
L 341.195294 -171.531401 
L 360.29262 -189.246714 
L 379.389947 -202.191281 
L 398.487273 -211.424669 
L 398.487273 -211.666545 
L 398.487273 -211.666545 
L 379.389947 -202.904405 
L 360.29262 -189.729259 
L 341.195294 -172.451797 
L 322.097968 -154.470931 
L 303.000642 -137.919701 
L 283.903316 -121.049278 
L 264.805989 -107.503487 
L 245.708663 -95.073659 
L 226.611337 -86.501923 
L 207.514011 -80.458457 
L 188.416684 -76.194359 
L 169.319358 -74.358876 
L 150.222032 -73.242606 
L 131.124706 -73.631202 
L 112.02738 -74.769842 
L 92.930053 -76.445884 
L 73.832727 -77.766856 
z
" style="stroke: #2ca02c; stroke-opacity: 0.2; stroke-width: 0.8"/>
    </defs>
    <g clip-path="url(#p6a29cb6488)">
     <use xlink:href="#ma6a24f15c0" x="0" y="345.6" style="fill: #2ca02c; fill-opacity: 0.2; stroke: #2ca02c; stroke-opacity: 0.2; stroke-width: 0.8"/>
    </g>
   </g>
   <g id="PolyCollection_6">
    <defs>
     <path id="ma4250de3f6" d="M 73.832727 -68.009947 
L 73.832727 -67.565661 
L 92.930053 -56.995727 
L 112.02738 -59.652348 
L 131.124706 -63.488606 
L 150.222032 -69.769476 
L 169.319358 -78.94227 
L 188.416684 -90.199608 
L 207.514011 -97.361839 
L 226.611337 -104.282955 
L 245.708663 -110.269129 
L 264.805989 -114.350027 
L 283.903316 -118.229701 
L 303.000642 -123.586765 
L 322.097968 -122.366012 
L 341.195294 -128.783117 
L 360.29262 -133.409315 
L 379.389947 -138.239283 
L 398.487273 -141.310791 
L 398.487273 -142.420642 
L 398.487273 -142.420642 
L 379.389947 -139.102569 
L 360.29262 -134.700146 
L 341.195294 -130.806897 
L 322.097968 -124.633945 
L 303.000642 -123.630888 
L 283.903316 -118.539783 
L 264.805989 -115.526881 
L 245.708663 -110.740984 
L 226.611337 -105.120126 
L 207.514011 -100.252789 
L 188.416684 -91.566838 
L 169.319358 -81.05042 
L 150.222032 -69.828346 
L 131.124706 -63.620734 
L 112.02738 -59.804695 
L 92.930053 -57.382746 
L 73.832727 -68.009947 
z
" style="stroke: #98df8a; stroke-opacity: 0.2; stroke-width: 0.8"/>
    </defs>
    <g clip-path="url(#p6a29cb6488)">
     <use xlink:href="#ma4250de3f6" x="0" y="345.6" style="fill: #98df8a; fill-opacity: 0.2; stroke: #98df8a; stroke-opacity: 0.2; stroke-width: 0.8"/>
    </g>
   </g>
   <g id="line2d_87">
    <path d="M 73.832727 276.954241 
L 92.930053 281.578772 
L 112.02738 283.106057 
L 131.124706 278.241319 
L 150.222032 273.452971 
L 169.319358 262.562899 
L 188.416684 252.24435 
L 207.514011 244.593268 
L 226.611337 239.005882 
L 245.708663 233.602793 
L 264.805989 229.461391 
L 283.903316 225.701498 
L 303.000642 219.951563 
L 322.097968 216.265242 
L 341.195294 212.705331 
L 360.29262 207.600323 
L 379.389947 203.398208 
L 398.487273 188.082458 
" clip-path="url(#p6a29cb6488)" style="fill: none; stroke: #1f77b4; stroke-width: 1.2; stroke-linecap: round"/>
   </g>
   <g id="line2d_88">
    <path d="M 73.832727 278.123375 
L 92.930053 289.303499 
L 112.02738 286.624272 
L 131.124706 283.157596 
L 150.222032 277.576108 
L 169.319358 268.215273 
L 188.416684 256.639765 
L 207.514011 248.648297 
L 226.611337 242.333425 
L 245.708663 238.360711 
L 264.805989 233.878412 
L 283.903316 229.853234 
L 303.000642 227.732537 
L 322.097968 224.146197 
L 341.195294 222.535917 
L 360.29262 217.965633 
L 379.389947 216.179025 
L 398.487273 213.568674 
" clip-path="url(#p6a29cb6488)" style="fill: none; stroke: #aec7e8; stroke-width: 1.2; stroke-linecap: round"/>
   </g>
   <g id="line2d_89">
    <path d="M 73.832727 194.796316 
L 92.930053 188.335956 
L 112.02738 188.352494 
L 131.124706 187.901637 
L 150.222032 189.509423 
L 169.319358 187.853252 
L 188.416684 187.91791 
L 207.514011 186.783036 
L 226.611337 186.849945 
L 245.708663 187.717338 
L 264.805989 186.192841 
L 283.903316 185.318927 
L 303.000642 183.669194 
L 322.097968 182.685259 
L 341.195294 180.698425 
L 360.29262 179.665169 
L 379.389947 179.944496 
L 398.487273 178.73143 
" clip-path="url(#p6a29cb6488)" style="fill: none; stroke: #ff7f0e; stroke-width: 1.2; stroke-linecap: round"/>
   </g>
   <g id="line2d_90">
    <path d="M 73.832727 177.807468 
L 92.930053 182.31346 
L 112.02738 182.07425 
L 131.124706 181.221019 
L 150.222032 182.506066 
L 169.319358 182.62959 
L 188.416684 182.939648 
L 207.514011 182.488302 
L 226.611337 180.909617 
L 245.708663 181.35419 
L 264.805989 178.286011 
L 283.903316 174.828138 
L 303.000642 165.241863 
L 322.097968 150.594999 
L 341.195294 134.337978 
L 360.29262 122.601937 
L 379.389947 109.601679 
L 398.487273 100.242467 
" clip-path="url(#p6a29cb6488)" style="fill: none; stroke: #ffbb78; stroke-width: 1.2; stroke-linecap: round"/>
   </g>
   <g id="line2d_91">
    <path d="M 73.832727 267.862356 
L 92.930053 269.498668 
L 112.02738 270.87368 
L 131.124706 272.042647 
L 150.222032 272.429451 
L 169.319358 271.393412 
L 188.416684 269.408237 
L 207.514011 265.258413 
L 226.611337 259.246069 
L 245.708663 250.806231 
L 264.805989 238.593184 
L 283.903316 224.849693 
L 303.000642 207.886727 
L 322.097968 191.39577 
L 341.195294 173.60446 
L 360.29262 156.110931 
L 379.389947 143.049792 
L 398.487273 134.054121 
" clip-path="url(#p6a29cb6488)" style="fill: none; stroke: #2ca02c; stroke-width: 1.2; stroke-linecap: round"/>
   </g>
   <g id="line2d_92">
    <path d="M 73.832727 277.811277 
L 92.930053 288.410066 
L 112.02738 285.871371 
L 131.124706 282.045249 
L 150.222032 275.801073 
L 169.319358 265.582986 
L 188.416684 254.708082 
L 207.514011 246.753826 
L 226.611337 240.895199 
L 245.708663 235.093908 
L 264.805989 230.655103 
L 283.903316 227.21481 
L 303.000642 221.991164 
L 322.097968 222.076101 
L 341.195294 215.785945 
L 360.29262 211.537519 
L 379.389947 206.925607 
L 398.487273 203.728553 
" clip-path="url(#p6a29cb6488)" style="fill: none; stroke: #98df8a; stroke-width: 1.2; stroke-linecap: round"/>
   </g>
   <g id="line2d_93"/>
   <g id="line2d_94"/>
   <g id="line2d_95"/>
   <g id="line2d_96"/>
   <g id="line2d_97"/>
   <g id="line2d_98"/>
   <g id="patch_3">
    <path d="M 57.6 307.584 
L 57.6 41.472 
" style="fill: none; stroke: #262626; stroke-linejoin: miter; stroke-linecap: square"/>
   </g>
   <g id="patch_4">
    <path d="M 414.72 307.584 
L 414.72 41.472 
" style="fill: none; stroke: #262626; stroke-linejoin: miter; stroke-linecap: square"/>
   </g>
   <g id="patch_5">
    <path d="M 57.6 307.584 
L 414.72 307.584 
" style="fill: none; stroke: #262626; stroke-linejoin: miter; stroke-linecap: square"/>
   </g>
   <g id="patch_6">
    <path d="M 57.6 41.472 
L 414.72 41.472 
" style="fill: none; stroke: #262626; stroke-linejoin: miter; stroke-linecap: square"/>
   </g>
   <g id="legend_1">
    <g id="patch_7">
     <path d="M 66.7 162.357781 
L 190.679375 162.357781 
Q 193.279375 162.357781 193.279375 159.757781 
L 193.279375 50.572 
Q 193.279375 47.972 190.679375 47.972 
L 66.7 47.972 
Q 64.1 47.972 64.1 50.572 
L 64.1 159.757781 
Q 64.1 162.357781 66.7 162.357781 
z
" style="fill: #ffffff; opacity: 0.8; stroke: #cccccc; stroke-width: 0.8; stroke-linejoin: miter"/>
    </g>
    <g id="line2d_99">
     <path d="M 69.3 57.927156 
L 82.3 57.927156 
L 95.3 57.927156 
" style="fill: none; stroke: #1f77b4; stroke-width: 1.2; stroke-linecap: round"/>
    </g>
    <g id="text_13">
     <!--  parallelred_tg -->
     <g style="fill: #262626" transform="translate(105.7 62.477156)scale(0.13 -0.13)">
      <defs>
       <path id="ArialMT-70" d="M 422 -1272 
L 422 3319 
L 934 3319 
L 934 2888 
Q 1116 3141 1344 3267 
Q 1572 3394 1897 3394 
Q 2322 3394 2647 3175 
Q 2972 2956 3137 2557 
Q 3303 2159 3303 1684 
Q 3303 1175 3120 767 
Q 2938 359 2589 142 
Q 2241 -75 1856 -75 
Q 1575 -75 1351 44 
Q 1128 163 984 344 
L 984 -1272 
L 422 -1272 
z
M 931 1641 
Q 931 1000 1190 694 
Q 1450 388 1819 388 
Q 2194 388 2461 705 
Q 2728 1022 2728 1688 
Q 2728 2322 2467 2637 
Q 2206 2953 1844 2953 
Q 1484 2953 1207 2617 
Q 931 2281 931 1641 
z
" transform="scale(0.015625)"/>
       <path id="ArialMT-6c" d="M 409 0 
L 409 4581 
L 972 4581 
L 972 0 
L 409 0 
z
" transform="scale(0.015625)"/>
       <path id="ArialMT-64" d="M 2575 0 
L 2575 419 
Q 2259 -75 1647 -75 
Q 1250 -75 917 144 
Q 584 363 401 755 
Q 219 1147 219 1656 
Q 219 2153 384 2558 
Q 550 2963 881 3178 
Q 1213 3394 1622 3394 
Q 1922 3394 2156 3267 
Q 2391 3141 2538 2938 
L 2538 4581 
L 3097 4581 
L 3097 0 
L 2575 0 
z
M 797 1656 
Q 797 1019 1065 703 
Q 1334 388 1700 388 
Q 2069 388 2326 689 
Q 2584 991 2584 1609 
Q 2584 2291 2321 2609 
Q 2059 2928 1675 2928 
Q 1300 2928 1048 2622 
Q 797 2316 797 1656 
z
" transform="scale(0.015625)"/>
       <path id="ArialMT-5f" d="M -97 -1272 
L -97 -866 
L 3631 -866 
L 3631 -1272 
L -97 -1272 
z
" transform="scale(0.015625)"/>
       <path id="ArialMT-67" d="M 319 -275 
L 866 -356 
Q 900 -609 1056 -725 
Q 1266 -881 1628 -881 
Q 2019 -881 2231 -725 
Q 2444 -569 2519 -288 
Q 2563 -116 2559 434 
Q 2191 0 1641 0 
Q 956 0 581 494 
Q 206 988 206 1678 
Q 206 2153 378 2554 
Q 550 2956 876 3175 
Q 1203 3394 1644 3394 
Q 2231 3394 2613 2919 
L 2613 3319 
L 3131 3319 
L 3131 450 
Q 3131 -325 2973 -648 
Q 2816 -972 2473 -1159 
Q 2131 -1347 1631 -1347 
Q 1038 -1347 672 -1080 
Q 306 -813 319 -275 
z
M 784 1719 
Q 784 1066 1043 766 
Q 1303 466 1694 466 
Q 2081 466 2343 764 
Q 2606 1063 2606 1700 
Q 2606 2309 2336 2618 
Q 2066 2928 1684 2928 
Q 1309 2928 1046 2623 
Q 784 2319 784 1719 
z
" transform="scale(0.015625)"/>
      </defs>
      <use xlink:href="#ArialMT-20"/>
      <use xlink:href="#ArialMT-70" x="27.783203"/>
      <use xlink:href="#ArialMT-61" x="83.398438"/>
      <use xlink:href="#ArialMT-72" x="139.013672"/>
      <use xlink:href="#ArialMT-61" x="172.314453"/>
      <use xlink:href="#ArialMT-6c" x="227.929688"/>
      <use xlink:href="#ArialMT-6c" x="250.146484"/>
      <use xlink:href="#ArialMT-65" x="272.363281"/>
      <use xlink:href="#ArialMT-6c" x="327.978516"/>
      <use xlink:href="#ArialMT-72" x="350.195312"/>
      <use xlink:href="#ArialMT-65" x="383.496094"/>
      <use xlink:href="#ArialMT-64" x="439.111328"/>
      <use xlink:href="#ArialMT-5f" x="494.726562"/>
      <use xlink:href="#ArialMT-74" x="550.341797"/>
      <use xlink:href="#ArialMT-67" x="578.125"/>
     </g>
    </g>
    <g id="line2d_100">
     <path d="M 69.3 76.468406 
L 82.3 76.468406 
L 95.3 76.468406 
" style="fill: none; stroke: #aec7e8; stroke-width: 1.2; stroke-linecap: round"/>
    </g>
    <g id="text_14">
     <!--  threadpriv -->
     <g style="fill: #262626" transform="translate(105.7 81.018406)scale(0.13 -0.13)">
      <defs>
       <path id="ArialMT-68" d="M 422 0 
L 422 4581 
L 984 4581 
L 984 2938 
Q 1378 3394 1978 3394 
Q 2347 3394 2619 3248 
Q 2891 3103 3008 2847 
Q 3125 2591 3125 2103 
L 3125 0 
L 2563 0 
L 2563 2103 
Q 2563 2525 2380 2717 
Q 2197 2909 1863 2909 
Q 1613 2909 1392 2779 
Q 1172 2650 1078 2428 
Q 984 2206 984 1816 
L 984 0 
L 422 0 
z
" transform="scale(0.015625)"/>
       <path id="ArialMT-69" d="M 425 3934 
L 425 4581 
L 988 4581 
L 988 3934 
L 425 3934 
z
M 425 0 
L 425 3319 
L 988 3319 
L 988 0 
L 425 0 
z
" transform="scale(0.015625)"/>
       <path id="ArialMT-76" d="M 1344 0 
L 81 3319 
L 675 3319 
L 1388 1331 
Q 1503 1009 1600 663 
Q 1675 925 1809 1294 
L 2547 3319 
L 3125 3319 
L 1869 0 
L 1344 0 
z
" transform="scale(0.015625)"/>
      </defs>
      <use xlink:href="#ArialMT-20"/>
      <use xlink:href="#ArialMT-74" x="27.783203"/>
      <use xlink:href="#ArialMT-68" x="55.566406"/>
      <use xlink:href="#ArialMT-72" x="111.181641"/>
      <use xlink:href="#ArialMT-65" x="144.482422"/>
      <use xlink:href="#ArialMT-61" x="200.097656"/>
      <use xlink:href="#ArialMT-64" x="255.712891"/>
      <use xlink:href="#ArialMT-70" x="311.328125"/>
      <use xlink:href="#ArialMT-72" x="366.943359"/>
      <use xlink:href="#ArialMT-69" x="400.244141"/>
      <use xlink:href="#ArialMT-76" x="422.460938"/>
     </g>
    </g>
    <g id="line2d_101">
     <path d="M 69.3 94.857312 
L 82.3 94.857312 
L 95.3 94.857312 
" style="fill: none; stroke: #ff7f0e; stroke-width: 1.2; stroke-linecap: round"/>
    </g>
    <g id="text_15">
     <!--  atomic -->
     <g style="fill: #262626" transform="translate(105.7 99.407312)scale(0.13 -0.13)">
      <use xlink:href="#ArialMT-20"/>
      <use xlink:href="#ArialMT-61" x="27.783203"/>
      <use xlink:href="#ArialMT-74" x="83.398438"/>
      <use xlink:href="#ArialMT-6f" x="111.181641"/>
      <use xlink:href="#ArialMT-6d" x="166.796875"/>
      <use xlink:href="#ArialMT-69" x="250.097656"/>
      <use xlink:href="#ArialMT-63" x="272.314453"/>
     </g>
    </g>
    <g id="line2d_102">
     <path d="M 69.3 113.246219 
L 82.3 113.246219 
L 95.3 113.246219 
" style="fill: none; stroke: #ffbb78; stroke-width: 1.2; stroke-linecap: round"/>
    </g>
    <g id="text_16">
     <!--  stack -->
     <g style="fill: #262626" transform="translate(105.7 117.796219)scale(0.13 -0.13)">
      <use xlink:href="#ArialMT-20"/>
      <use xlink:href="#ArialMT-73" x="27.783203"/>
      <use xlink:href="#ArialMT-74" x="77.783203"/>
      <use xlink:href="#ArialMT-61" x="105.566406"/>
      <use xlink:href="#ArialMT-63" x="161.181641"/>
      <use xlink:href="#ArialMT-6b" x="211.181641"/>
     </g>
    </g>
    <g id="line2d_103">
     <path d="M 69.3 131.635125 
L 82.3 131.635125 
L 95.3 131.635125 
" style="fill: none; stroke: #2ca02c; stroke-width: 1.2; stroke-linecap: round"/>
    </g>
    <g id="text_17">
     <!--  taskloop -->
     <g style="fill: #262626" transform="translate(105.7 136.185125)scale(0.13 -0.13)">
      <use xlink:href="#ArialMT-20"/>
      <use xlink:href="#ArialMT-74" x="27.783203"/>
      <use xlink:href="#ArialMT-61" x="55.566406"/>
      <use xlink:href="#ArialMT-73" x="111.181641"/>
      <use xlink:href="#ArialMT-6b" x="161.181641"/>
      <use xlink:href="#ArialMT-6c" x="211.181641"/>
      <use xlink:href="#ArialMT-6f" x="233.398438"/>
      <use xlink:href="#ArialMT-6f" x="289.013672"/>
      <use xlink:href="#ArialMT-70" x="344.628906"/>
     </g>
    </g>
    <g id="line2d_104">
     <path d="M 69.3 150.024031 
L 82.3 150.024031 
L 95.3 150.024031 
" style="fill: none; stroke: #98df8a; stroke-width: 1.2; stroke-linecap: round"/>
    </g>
    <g id="text_18">
     <!--  parallelred -->
     <g style="fill: #262626" transform="translate(105.7 154.574031)scale(0.13 -0.13)">
      <use xlink:href="#ArialMT-20"/>
      <use xlink:href="#ArialMT-70" x="27.783203"/>
      <use xlink:href="#ArialMT-61" x="83.398438"/>
      <use xlink:href="#ArialMT-72" x="139.013672"/>
      <use xlink:href="#ArialMT-61" x="172.314453"/>
      <use xlink:href="#ArialMT-6c" x="227.929688"/>
      <use xlink:href="#ArialMT-6c" x="250.146484"/>
      <use xlink:href="#ArialMT-65" x="272.363281"/>
      <use xlink:href="#ArialMT-6c" x="327.978516"/>
      <use xlink:href="#ArialMT-72" x="350.195312"/>
      <use xlink:href="#ArialMT-65" x="383.496094"/>
      <use xlink:href="#ArialMT-64" x="439.111328"/>
     </g>
    </g>
   </g>
  </g>
 </g>
 <defs>
  <clipPath id="p6a29cb6488">
   <rect x="57.6" y="41.472" width="357.12" height="266.112"/>
  </clipPath>
 </defs>
</svg>
